%TF.GenerationSoftware,KiCad,Pcbnew,(5.1.9)-1*%
%TF.CreationDate,2021-03-23T13:14:46+01:00*%
%TF.ProjectId,EnvMonitor,456e764d-6f6e-4697-946f-722e6b696361,rev?*%
%TF.SameCoordinates,Original*%
%TF.FileFunction,Legend,Top*%
%TF.FilePolarity,Positive*%
%FSLAX46Y46*%
G04 Gerber Fmt 4.6, Leading zero omitted, Abs format (unit mm)*
G04 Created by KiCad (PCBNEW (5.1.9)-1) date 2021-03-23 13:14:46*
%MOMM*%
%LPD*%
G01*
G04 APERTURE LIST*
%ADD10C,0.250000*%
%ADD11C,0.300000*%
%ADD12C,0.150000*%
%ADD13C,0.120000*%
G04 APERTURE END LIST*
D10*
X291338095Y-564296000D02*
X291242857Y-564238857D01*
X291100000Y-564238857D01*
X290957142Y-564296000D01*
X290861904Y-564410285D01*
X290814285Y-564524571D01*
X290766666Y-564753142D01*
X290766666Y-564924571D01*
X290814285Y-565153142D01*
X290861904Y-565267428D01*
X290957142Y-565381714D01*
X291100000Y-565438857D01*
X291195238Y-565438857D01*
X291338095Y-565381714D01*
X291385714Y-565324571D01*
X291385714Y-564924571D01*
X291195238Y-564924571D01*
X291814285Y-565438857D02*
X291814285Y-564238857D01*
X292385714Y-565438857D01*
X292385714Y-564238857D01*
X292861904Y-565438857D02*
X292861904Y-564238857D01*
X293100000Y-564238857D01*
X293242857Y-564296000D01*
X293338095Y-564410285D01*
X293385714Y-564524571D01*
X293433333Y-564753142D01*
X293433333Y-564924571D01*
X293385714Y-565153142D01*
X293338095Y-565267428D01*
X293242857Y-565381714D01*
X293100000Y-565438857D01*
X292861904Y-565438857D01*
X286400952Y-565438857D02*
X286591428Y-565438857D01*
X286686666Y-565381714D01*
X286734285Y-565324571D01*
X286829523Y-565153142D01*
X286877142Y-564924571D01*
X286877142Y-564467428D01*
X286829523Y-564353142D01*
X286781904Y-564296000D01*
X286686666Y-564238857D01*
X286496190Y-564238857D01*
X286400952Y-564296000D01*
X286353333Y-564353142D01*
X286305714Y-564467428D01*
X286305714Y-564753142D01*
X286353333Y-564867428D01*
X286400952Y-564924571D01*
X286496190Y-564981714D01*
X286686666Y-564981714D01*
X286781904Y-564924571D01*
X286829523Y-564867428D01*
X286877142Y-564753142D01*
X287162857Y-564238857D02*
X287496190Y-565438857D01*
X287829523Y-564238857D01*
X302040857Y-577429190D02*
X300840857Y-577429190D01*
X300955142Y-577000619D02*
X300898000Y-576953000D01*
X300840857Y-576857761D01*
X300840857Y-576619666D01*
X300898000Y-576524428D01*
X300955142Y-576476809D01*
X301069428Y-576429190D01*
X301183714Y-576429190D01*
X301355142Y-576476809D01*
X302040857Y-577048238D01*
X302040857Y-576429190D01*
X301926571Y-575429190D02*
X301983714Y-575476809D01*
X302040857Y-575619666D01*
X302040857Y-575714904D01*
X301983714Y-575857761D01*
X301869428Y-575953000D01*
X301755142Y-576000619D01*
X301526571Y-576048238D01*
X301355142Y-576048238D01*
X301126571Y-576000619D01*
X301012285Y-575953000D01*
X300898000Y-575857761D01*
X300840857Y-575714904D01*
X300840857Y-575619666D01*
X300898000Y-575476809D01*
X300955142Y-575429190D01*
D11*
X296248285Y-601735857D02*
X296748285Y-601735857D01*
X296962571Y-602521571D02*
X296248285Y-602521571D01*
X296248285Y-601021571D01*
X296962571Y-601021571D01*
X297605428Y-601521571D02*
X297605428Y-602521571D01*
X297605428Y-601664428D02*
X297676857Y-601593000D01*
X297819714Y-601521571D01*
X298034000Y-601521571D01*
X298176857Y-601593000D01*
X298248285Y-601735857D01*
X298248285Y-602521571D01*
X298819714Y-601521571D02*
X299176857Y-602521571D01*
X299534000Y-601521571D01*
X300105428Y-602521571D02*
X300105428Y-601021571D01*
X300605428Y-602093000D01*
X301105428Y-601021571D01*
X301105428Y-602521571D01*
X302034000Y-602521571D02*
X301891142Y-602450142D01*
X301819714Y-602378714D01*
X301748285Y-602235857D01*
X301748285Y-601807285D01*
X301819714Y-601664428D01*
X301891142Y-601593000D01*
X302034000Y-601521571D01*
X302248285Y-601521571D01*
X302391142Y-601593000D01*
X302462571Y-601664428D01*
X302534000Y-601807285D01*
X302534000Y-602235857D01*
X302462571Y-602378714D01*
X302391142Y-602450142D01*
X302248285Y-602521571D01*
X302034000Y-602521571D01*
X303176857Y-601521571D02*
X303176857Y-602521571D01*
X303176857Y-601664428D02*
X303248285Y-601593000D01*
X303391142Y-601521571D01*
X303605428Y-601521571D01*
X303748285Y-601593000D01*
X303819714Y-601735857D01*
X303819714Y-602521571D01*
X304534000Y-602521571D02*
X304534000Y-601521571D01*
X304534000Y-601021571D02*
X304462571Y-601093000D01*
X304534000Y-601164428D01*
X304605428Y-601093000D01*
X304534000Y-601021571D01*
X304534000Y-601164428D01*
X305034000Y-601521571D02*
X305605428Y-601521571D01*
X305248285Y-601021571D02*
X305248285Y-602307285D01*
X305319714Y-602450142D01*
X305462571Y-602521571D01*
X305605428Y-602521571D01*
X306319714Y-602521571D02*
X306176857Y-602450142D01*
X306105428Y-602378714D01*
X306034000Y-602235857D01*
X306034000Y-601807285D01*
X306105428Y-601664428D01*
X306176857Y-601593000D01*
X306319714Y-601521571D01*
X306534000Y-601521571D01*
X306676857Y-601593000D01*
X306748285Y-601664428D01*
X306819714Y-601807285D01*
X306819714Y-602235857D01*
X306748285Y-602378714D01*
X306676857Y-602450142D01*
X306534000Y-602521571D01*
X306319714Y-602521571D01*
X307462571Y-602521571D02*
X307462571Y-601521571D01*
X307462571Y-601807285D02*
X307534000Y-601664428D01*
X307605428Y-601593000D01*
X307748285Y-601521571D01*
X307891142Y-601521571D01*
X303319714Y-603571571D02*
X303819714Y-605071571D01*
X304319714Y-603571571D01*
X305105428Y-603571571D02*
X305248285Y-603571571D01*
X305391142Y-603643000D01*
X305462571Y-603714428D01*
X305534000Y-603857285D01*
X305605428Y-604143000D01*
X305605428Y-604500142D01*
X305534000Y-604785857D01*
X305462571Y-604928714D01*
X305391142Y-605000142D01*
X305248285Y-605071571D01*
X305105428Y-605071571D01*
X304962571Y-605000142D01*
X304891142Y-604928714D01*
X304819714Y-604785857D01*
X304748285Y-604500142D01*
X304748285Y-604143000D01*
X304819714Y-603857285D01*
X304891142Y-603714428D01*
X304962571Y-603643000D01*
X305105428Y-603571571D01*
X306248285Y-604928714D02*
X306319714Y-605000142D01*
X306248285Y-605071571D01*
X306176857Y-605000142D01*
X306248285Y-604928714D01*
X306248285Y-605071571D01*
X307605428Y-604071571D02*
X307605428Y-605071571D01*
X307248285Y-603500142D02*
X306891142Y-604571571D01*
X307819714Y-604571571D01*
X301534000Y-607621571D02*
X301534000Y-606121571D01*
X301534000Y-606693000D02*
X301676857Y-606621571D01*
X301962571Y-606621571D01*
X302105428Y-606693000D01*
X302176857Y-606764428D01*
X302248285Y-606907285D01*
X302248285Y-607335857D01*
X302176857Y-607478714D01*
X302105428Y-607550142D01*
X301962571Y-607621571D01*
X301676857Y-607621571D01*
X301534000Y-607550142D01*
X302748285Y-606621571D02*
X303105428Y-607621571D01*
X303462571Y-606621571D02*
X303105428Y-607621571D01*
X302962571Y-607978714D01*
X302891142Y-608050142D01*
X302748285Y-608121571D01*
X305176857Y-607621571D02*
X305176857Y-606121571D01*
X305676857Y-607193000D01*
X306176857Y-606121571D01*
X306176857Y-607621571D01*
X306891142Y-607621571D02*
X306891142Y-606121571D01*
X307462571Y-606121571D01*
X307605428Y-606193000D01*
X307676857Y-606264428D01*
X307748285Y-606407285D01*
X307748285Y-606621571D01*
X307676857Y-606764428D01*
X307605428Y-606835857D01*
X307462571Y-606907285D01*
X306891142Y-606907285D01*
D10*
X310422857Y-605892952D02*
X310422857Y-606464380D01*
X310422857Y-606178666D02*
X309222857Y-606178666D01*
X309394285Y-606273904D01*
X309508571Y-606369142D01*
X309565714Y-606464380D01*
X309965714Y-605464380D02*
X309965714Y-604702476D01*
X309222857Y-604321523D02*
X310422857Y-604083428D01*
X309565714Y-603892952D01*
X310422857Y-603702476D01*
X309222857Y-603464380D01*
X310422857Y-603083428D02*
X309622857Y-603083428D01*
X309222857Y-603083428D02*
X309280000Y-603131047D01*
X309337142Y-603083428D01*
X309280000Y-603035809D01*
X309222857Y-603083428D01*
X309337142Y-603083428D01*
X310422857Y-602607238D02*
X309622857Y-602607238D01*
X309851428Y-602607238D02*
X309737142Y-602559619D01*
X309680000Y-602512000D01*
X309622857Y-602416761D01*
X309622857Y-602321523D01*
X310365714Y-601607238D02*
X310422857Y-601702476D01*
X310422857Y-601892952D01*
X310365714Y-601988190D01*
X310251428Y-602035809D01*
X309794285Y-602035809D01*
X309680000Y-601988190D01*
X309622857Y-601892952D01*
X309622857Y-601702476D01*
X309680000Y-601607238D01*
X309794285Y-601559619D01*
X309908571Y-601559619D01*
X310022857Y-602035809D01*
X302930000Y-595629904D02*
X302872857Y-595725142D01*
X302872857Y-595868000D01*
X302930000Y-596010857D01*
X303044285Y-596106095D01*
X303158571Y-596153714D01*
X303387142Y-596201333D01*
X303558571Y-596201333D01*
X303787142Y-596153714D01*
X303901428Y-596106095D01*
X304015714Y-596010857D01*
X304072857Y-595868000D01*
X304072857Y-595772761D01*
X304015714Y-595629904D01*
X303958571Y-595582285D01*
X303558571Y-595582285D01*
X303558571Y-595772761D01*
X304072857Y-595153714D02*
X302872857Y-595153714D01*
X304072857Y-594582285D01*
X302872857Y-594582285D01*
X304072857Y-594106095D02*
X302872857Y-594106095D01*
X302872857Y-593868000D01*
X302930000Y-593725142D01*
X303044285Y-593629904D01*
X303158571Y-593582285D01*
X303387142Y-593534666D01*
X303558571Y-593534666D01*
X303787142Y-593582285D01*
X303901428Y-593629904D01*
X304015714Y-593725142D01*
X304072857Y-593868000D01*
X304072857Y-594106095D01*
D12*
X327868595Y-604274380D02*
X327868595Y-603274380D01*
X328249547Y-603274380D01*
X328344785Y-603322000D01*
X328392404Y-603369619D01*
X328440023Y-603464857D01*
X328440023Y-603607714D01*
X328392404Y-603702952D01*
X328344785Y-603750571D01*
X328249547Y-603798190D01*
X327868595Y-603798190D01*
X328773357Y-603607714D02*
X328963833Y-604274380D01*
X329154309Y-603798190D01*
X329344785Y-604274380D01*
X329535261Y-603607714D01*
X329916214Y-604274380D02*
X329916214Y-603607714D01*
X329916214Y-603798190D02*
X329963833Y-603702952D01*
X330011452Y-603655333D01*
X330106690Y-603607714D01*
X330201928Y-603607714D01*
X330535261Y-604179142D02*
X330582880Y-604226761D01*
X330535261Y-604274380D01*
X330487642Y-604226761D01*
X330535261Y-604179142D01*
X330535261Y-604274380D01*
X330963833Y-604226761D02*
X331106690Y-604274380D01*
X331344785Y-604274380D01*
X331440023Y-604226761D01*
X331487642Y-604179142D01*
X331535261Y-604083904D01*
X331535261Y-603988666D01*
X331487642Y-603893428D01*
X331440023Y-603845809D01*
X331344785Y-603798190D01*
X331154309Y-603750571D01*
X331059071Y-603702952D01*
X331011452Y-603655333D01*
X330963833Y-603560095D01*
X330963833Y-603464857D01*
X331011452Y-603369619D01*
X331059071Y-603322000D01*
X331154309Y-603274380D01*
X331392404Y-603274380D01*
X331535261Y-603322000D01*
X332344785Y-604226761D02*
X332249547Y-604274380D01*
X332059071Y-604274380D01*
X331963833Y-604226761D01*
X331916214Y-604131523D01*
X331916214Y-603750571D01*
X331963833Y-603655333D01*
X332059071Y-603607714D01*
X332249547Y-603607714D01*
X332344785Y-603655333D01*
X332392404Y-603750571D01*
X332392404Y-603845809D01*
X331916214Y-603941047D01*
X332963833Y-604274380D02*
X332868595Y-604226761D01*
X332820976Y-604131523D01*
X332820976Y-603274380D01*
X333344785Y-603893428D02*
X334106690Y-603893428D01*
X327868595Y-605924380D02*
X327868595Y-604924380D01*
X328106690Y-604924380D01*
X328249547Y-604972000D01*
X328344785Y-605067238D01*
X328392404Y-605162476D01*
X328440023Y-605352952D01*
X328440023Y-605495809D01*
X328392404Y-605686285D01*
X328344785Y-605781523D01*
X328249547Y-605876761D01*
X328106690Y-605924380D01*
X327868595Y-605924380D01*
X328820976Y-605876761D02*
X328963833Y-605924380D01*
X329201928Y-605924380D01*
X329297166Y-605876761D01*
X329344785Y-605829142D01*
X329392404Y-605733904D01*
X329392404Y-605638666D01*
X329344785Y-605543428D01*
X329297166Y-605495809D01*
X329201928Y-605448190D01*
X329011452Y-605400571D01*
X328916214Y-605352952D01*
X328868595Y-605305333D01*
X328820976Y-605210095D01*
X328820976Y-605114857D01*
X328868595Y-605019619D01*
X328916214Y-604972000D01*
X329011452Y-604924380D01*
X329249547Y-604924380D01*
X329392404Y-604972000D01*
X330344785Y-605924380D02*
X329773357Y-605924380D01*
X330059071Y-605924380D02*
X330059071Y-604924380D01*
X329963833Y-605067238D01*
X329868595Y-605162476D01*
X329773357Y-605210095D01*
X330916214Y-605352952D02*
X330820976Y-605305333D01*
X330773357Y-605257714D01*
X330725738Y-605162476D01*
X330725738Y-605114857D01*
X330773357Y-605019619D01*
X330820976Y-604972000D01*
X330916214Y-604924380D01*
X331106690Y-604924380D01*
X331201928Y-604972000D01*
X331249547Y-605019619D01*
X331297166Y-605114857D01*
X331297166Y-605162476D01*
X331249547Y-605257714D01*
X331201928Y-605305333D01*
X331106690Y-605352952D01*
X330916214Y-605352952D01*
X330820976Y-605400571D01*
X330773357Y-605448190D01*
X330725738Y-605543428D01*
X330725738Y-605733904D01*
X330773357Y-605829142D01*
X330820976Y-605876761D01*
X330916214Y-605924380D01*
X331106690Y-605924380D01*
X331201928Y-605876761D01*
X331249547Y-605829142D01*
X331297166Y-605733904D01*
X331297166Y-605543428D01*
X331249547Y-605448190D01*
X331201928Y-605400571D01*
X331106690Y-605352952D01*
X332059071Y-605400571D02*
X332201928Y-605448190D01*
X332249547Y-605495809D01*
X332297166Y-605591047D01*
X332297166Y-605733904D01*
X332249547Y-605829142D01*
X332201928Y-605876761D01*
X332106690Y-605924380D01*
X331725738Y-605924380D01*
X331725738Y-604924380D01*
X332059071Y-604924380D01*
X332154309Y-604972000D01*
X332201928Y-605019619D01*
X332249547Y-605114857D01*
X332249547Y-605210095D01*
X332201928Y-605305333D01*
X332154309Y-605352952D01*
X332059071Y-605400571D01*
X331725738Y-605400571D01*
X332678119Y-605019619D02*
X332725738Y-604972000D01*
X332820976Y-604924380D01*
X333059071Y-604924380D01*
X333154309Y-604972000D01*
X333201928Y-605019619D01*
X333249547Y-605114857D01*
X333249547Y-605210095D01*
X333201928Y-605352952D01*
X332630500Y-605924380D01*
X333249547Y-605924380D01*
X333868595Y-604924380D02*
X333963833Y-604924380D01*
X334059071Y-604972000D01*
X334106690Y-605019619D01*
X334154309Y-605114857D01*
X334201928Y-605305333D01*
X334201928Y-605543428D01*
X334154309Y-605733904D01*
X334106690Y-605829142D01*
X334059071Y-605876761D01*
X333963833Y-605924380D01*
X333868595Y-605924380D01*
X333773357Y-605876761D01*
X333725738Y-605829142D01*
X333678119Y-605733904D01*
X333630500Y-605543428D01*
X333630500Y-605305333D01*
X333678119Y-605114857D01*
X333725738Y-605019619D01*
X333773357Y-604972000D01*
X333868595Y-604924380D01*
X328215809Y-599273380D02*
X328834857Y-599273380D01*
X328501523Y-599654333D01*
X328644380Y-599654333D01*
X328739619Y-599701952D01*
X328787238Y-599749571D01*
X328834857Y-599844809D01*
X328834857Y-600082904D01*
X328787238Y-600178142D01*
X328739619Y-600225761D01*
X328644380Y-600273380D01*
X328358666Y-600273380D01*
X328263428Y-600225761D01*
X328215809Y-600178142D01*
X329263428Y-600178142D02*
X329311047Y-600225761D01*
X329263428Y-600273380D01*
X329215809Y-600225761D01*
X329263428Y-600178142D01*
X329263428Y-600273380D01*
X329644380Y-599273380D02*
X330263428Y-599273380D01*
X329930095Y-599654333D01*
X330072952Y-599654333D01*
X330168190Y-599701952D01*
X330215809Y-599749571D01*
X330263428Y-599844809D01*
X330263428Y-600082904D01*
X330215809Y-600178142D01*
X330168190Y-600225761D01*
X330072952Y-600273380D01*
X329787238Y-600273380D01*
X329692000Y-600225761D01*
X329644380Y-600178142D01*
X330549142Y-599273380D02*
X330882476Y-600273380D01*
X331215809Y-599273380D01*
X332811523Y-599194000D02*
X332716285Y-599146380D01*
X332573428Y-599146380D01*
X332430571Y-599194000D01*
X332335333Y-599289238D01*
X332287714Y-599384476D01*
X332240095Y-599574952D01*
X332240095Y-599717809D01*
X332287714Y-599908285D01*
X332335333Y-600003523D01*
X332430571Y-600098761D01*
X332573428Y-600146380D01*
X332668666Y-600146380D01*
X332811523Y-600098761D01*
X332859142Y-600051142D01*
X332859142Y-599717809D01*
X332668666Y-599717809D01*
X333192476Y-599146380D02*
X333811523Y-599146380D01*
X333478190Y-599527333D01*
X333621047Y-599527333D01*
X333716285Y-599574952D01*
X333763904Y-599622571D01*
X333811523Y-599717809D01*
X333811523Y-599955904D01*
X333763904Y-600051142D01*
X333716285Y-600098761D01*
X333621047Y-600146380D01*
X333335333Y-600146380D01*
X333240095Y-600098761D01*
X333192476Y-600051142D01*
X334192476Y-599241619D02*
X334240095Y-599194000D01*
X334335333Y-599146380D01*
X334573428Y-599146380D01*
X334668666Y-599194000D01*
X334716285Y-599241619D01*
X334763904Y-599336857D01*
X334763904Y-599432095D01*
X334716285Y-599574952D01*
X334144857Y-600146380D01*
X334763904Y-600146380D01*
X330589000Y-595050476D02*
X330541380Y-595145714D01*
X330541380Y-595288571D01*
X330589000Y-595431428D01*
X330684238Y-595526666D01*
X330779476Y-595574285D01*
X330969952Y-595621904D01*
X331112809Y-595621904D01*
X331303285Y-595574285D01*
X331398523Y-595526666D01*
X331493761Y-595431428D01*
X331541380Y-595288571D01*
X331541380Y-595193333D01*
X331493761Y-595050476D01*
X331446142Y-595002857D01*
X331112809Y-595002857D01*
X331112809Y-595193333D01*
X330541380Y-594669523D02*
X330541380Y-594050476D01*
X330922333Y-594383809D01*
X330922333Y-594240952D01*
X330969952Y-594145714D01*
X331017571Y-594098095D01*
X331112809Y-594050476D01*
X331350904Y-594050476D01*
X331446142Y-594098095D01*
X331493761Y-594145714D01*
X331541380Y-594240952D01*
X331541380Y-594526666D01*
X331493761Y-594621904D01*
X331446142Y-594669523D01*
X330636619Y-593669523D02*
X330589000Y-593621904D01*
X330541380Y-593526666D01*
X330541380Y-593288571D01*
X330589000Y-593193333D01*
X330636619Y-593145714D01*
X330731857Y-593098095D01*
X330827095Y-593098095D01*
X330969952Y-593145714D01*
X331541380Y-593717142D01*
X331541380Y-593098095D01*
D10*
X323088095Y-600364000D02*
X322992857Y-600306857D01*
X322850000Y-600306857D01*
X322707142Y-600364000D01*
X322611904Y-600478285D01*
X322564285Y-600592571D01*
X322516666Y-600821142D01*
X322516666Y-600992571D01*
X322564285Y-601221142D01*
X322611904Y-601335428D01*
X322707142Y-601449714D01*
X322850000Y-601506857D01*
X322945238Y-601506857D01*
X323088095Y-601449714D01*
X323135714Y-601392571D01*
X323135714Y-600992571D01*
X322945238Y-600992571D01*
X323564285Y-601506857D02*
X323564285Y-600306857D01*
X324135714Y-601506857D01*
X324135714Y-600306857D01*
X324611904Y-601506857D02*
X324611904Y-600306857D01*
X324850000Y-600306857D01*
X324992857Y-600364000D01*
X325088095Y-600478285D01*
X325135714Y-600592571D01*
X325183333Y-600821142D01*
X325183333Y-600992571D01*
X325135714Y-601221142D01*
X325088095Y-601335428D01*
X324992857Y-601449714D01*
X324850000Y-601506857D01*
X324611904Y-601506857D01*
X312721809Y-600306857D02*
X313340857Y-600306857D01*
X313007523Y-600764000D01*
X313150380Y-600764000D01*
X313245619Y-600821142D01*
X313293238Y-600878285D01*
X313340857Y-600992571D01*
X313340857Y-601278285D01*
X313293238Y-601392571D01*
X313245619Y-601449714D01*
X313150380Y-601506857D01*
X312864666Y-601506857D01*
X312769428Y-601449714D01*
X312721809Y-601392571D01*
X313769428Y-601392571D02*
X313817047Y-601449714D01*
X313769428Y-601506857D01*
X313721809Y-601449714D01*
X313769428Y-601392571D01*
X313769428Y-601506857D01*
X314150380Y-600306857D02*
X314769428Y-600306857D01*
X314436095Y-600764000D01*
X314578952Y-600764000D01*
X314674190Y-600821142D01*
X314721809Y-600878285D01*
X314769428Y-600992571D01*
X314769428Y-601278285D01*
X314721809Y-601392571D01*
X314674190Y-601449714D01*
X314578952Y-601506857D01*
X314293238Y-601506857D01*
X314198000Y-601449714D01*
X314150380Y-601392571D01*
X315055142Y-600306857D02*
X315388476Y-601506857D01*
X315721809Y-600306857D01*
X317698571Y-601506857D02*
X317698571Y-600306857D01*
X317936666Y-600306857D01*
X318079523Y-600364000D01*
X318174761Y-600478285D01*
X318222380Y-600592571D01*
X318270000Y-600821142D01*
X318270000Y-600992571D01*
X318222380Y-601221142D01*
X318174761Y-601335428D01*
X318079523Y-601449714D01*
X317936666Y-601506857D01*
X317698571Y-601506857D01*
X318650952Y-601164000D02*
X319127142Y-601164000D01*
X318555714Y-601506857D02*
X318889047Y-600306857D01*
X319222380Y-601506857D01*
X319412857Y-600306857D02*
X319984285Y-600306857D01*
X319698571Y-601506857D02*
X319698571Y-600306857D01*
X301532857Y-596193428D02*
X300332857Y-596193428D01*
X300332857Y-595955333D01*
X300390000Y-595812476D01*
X300504285Y-595717238D01*
X300618571Y-595669619D01*
X300847142Y-595622000D01*
X301018571Y-595622000D01*
X301247142Y-595669619D01*
X301361428Y-595717238D01*
X301475714Y-595812476D01*
X301532857Y-595955333D01*
X301532857Y-596193428D01*
X301190000Y-595241047D02*
X301190000Y-594764857D01*
X301532857Y-595336285D02*
X300332857Y-595002952D01*
X301532857Y-594669619D01*
X300332857Y-594479142D02*
X300332857Y-593907714D01*
X301532857Y-594193428D02*
X300332857Y-594193428D01*
X297792857Y-596344190D02*
X297792857Y-595725142D01*
X298250000Y-596058476D01*
X298250000Y-595915619D01*
X298307142Y-595820380D01*
X298364285Y-595772761D01*
X298478571Y-595725142D01*
X298764285Y-595725142D01*
X298878571Y-595772761D01*
X298935714Y-595820380D01*
X298992857Y-595915619D01*
X298992857Y-596201333D01*
X298935714Y-596296571D01*
X298878571Y-596344190D01*
X298878571Y-595296571D02*
X298935714Y-595248952D01*
X298992857Y-595296571D01*
X298935714Y-595344190D01*
X298878571Y-595296571D01*
X298992857Y-595296571D01*
X297792857Y-594915619D02*
X297792857Y-594296571D01*
X298250000Y-594629904D01*
X298250000Y-594487047D01*
X298307142Y-594391809D01*
X298364285Y-594344190D01*
X298478571Y-594296571D01*
X298764285Y-594296571D01*
X298878571Y-594344190D01*
X298935714Y-594391809D01*
X298992857Y-594487047D01*
X298992857Y-594772761D01*
X298935714Y-594868000D01*
X298878571Y-594915619D01*
X297792857Y-594010857D02*
X298992857Y-593677523D01*
X297792857Y-593344190D01*
D12*
X353576000Y-576000476D02*
X353528380Y-576095714D01*
X353528380Y-576238571D01*
X353576000Y-576381428D01*
X353671238Y-576476666D01*
X353766476Y-576524285D01*
X353956952Y-576571904D01*
X354099809Y-576571904D01*
X354290285Y-576524285D01*
X354385523Y-576476666D01*
X354480761Y-576381428D01*
X354528380Y-576238571D01*
X354528380Y-576143333D01*
X354480761Y-576000476D01*
X354433142Y-575952857D01*
X354099809Y-575952857D01*
X354099809Y-576143333D01*
X354528380Y-575000476D02*
X354528380Y-575571904D01*
X354528380Y-575286190D02*
X353528380Y-575286190D01*
X353671238Y-575381428D01*
X353766476Y-575476666D01*
X353814095Y-575571904D01*
X353528380Y-574095714D02*
X353528380Y-574571904D01*
X354004571Y-574619523D01*
X353956952Y-574571904D01*
X353909333Y-574476666D01*
X353909333Y-574238571D01*
X353956952Y-574143333D01*
X354004571Y-574095714D01*
X354099809Y-574048095D01*
X354337904Y-574048095D01*
X354433142Y-574095714D01*
X354480761Y-574143333D01*
X354528380Y-574238571D01*
X354528380Y-574476666D01*
X354480761Y-574571904D01*
X354433142Y-574619523D01*
D10*
X350829809Y-564873714D02*
X350972666Y-564930857D01*
X351210761Y-564930857D01*
X351306000Y-564873714D01*
X351353619Y-564816571D01*
X351401238Y-564702285D01*
X351401238Y-564588000D01*
X351353619Y-564473714D01*
X351306000Y-564416571D01*
X351210761Y-564359428D01*
X351020285Y-564302285D01*
X350925047Y-564245142D01*
X350877428Y-564188000D01*
X350829809Y-564073714D01*
X350829809Y-563959428D01*
X350877428Y-563845142D01*
X350925047Y-563788000D01*
X351020285Y-563730857D01*
X351258380Y-563730857D01*
X351401238Y-563788000D01*
X352210761Y-564873714D02*
X352115523Y-564930857D01*
X351925047Y-564930857D01*
X351829809Y-564873714D01*
X351782190Y-564759428D01*
X351782190Y-564302285D01*
X351829809Y-564188000D01*
X351925047Y-564130857D01*
X352115523Y-564130857D01*
X352210761Y-564188000D01*
X352258380Y-564302285D01*
X352258380Y-564416571D01*
X351782190Y-564530857D01*
X352686952Y-564930857D02*
X352686952Y-564130857D01*
X352686952Y-564359428D02*
X352734571Y-564245142D01*
X352782190Y-564188000D01*
X352877428Y-564130857D01*
X352972666Y-564130857D01*
X353306000Y-564930857D02*
X353306000Y-564130857D01*
X353306000Y-563730857D02*
X353258380Y-563788000D01*
X353306000Y-563845142D01*
X353353619Y-563788000D01*
X353306000Y-563730857D01*
X353306000Y-563845142D01*
X354210761Y-564930857D02*
X354210761Y-564302285D01*
X354163142Y-564188000D01*
X354067904Y-564130857D01*
X353877428Y-564130857D01*
X353782190Y-564188000D01*
X354210761Y-564873714D02*
X354115523Y-564930857D01*
X353877428Y-564930857D01*
X353782190Y-564873714D01*
X353734571Y-564759428D01*
X353734571Y-564645142D01*
X353782190Y-564530857D01*
X353877428Y-564473714D01*
X354115523Y-564473714D01*
X354210761Y-564416571D01*
X354829809Y-564930857D02*
X354734571Y-564873714D01*
X354686952Y-564759428D01*
X354686952Y-563730857D01*
X331907238Y-569248857D02*
X331573904Y-568677428D01*
X331335809Y-569248857D02*
X331335809Y-568048857D01*
X331716761Y-568048857D01*
X331812000Y-568106000D01*
X331859619Y-568163142D01*
X331907238Y-568277428D01*
X331907238Y-568448857D01*
X331859619Y-568563142D01*
X331812000Y-568620285D01*
X331716761Y-568677428D01*
X331335809Y-568677428D01*
X332383428Y-568048857D02*
X332288190Y-568277428D01*
X332764380Y-569191714D02*
X332859619Y-569248857D01*
X333050095Y-569248857D01*
X333145333Y-569191714D01*
X333192952Y-569077428D01*
X333192952Y-569020285D01*
X333145333Y-568906000D01*
X333050095Y-568848857D01*
X332907238Y-568848857D01*
X332812000Y-568791714D01*
X332764380Y-568677428D01*
X332764380Y-568620285D01*
X332812000Y-568506000D01*
X332907238Y-568448857D01*
X333050095Y-568448857D01*
X333145333Y-568506000D01*
X334240571Y-568448857D02*
X334621523Y-568448857D01*
X334383428Y-569248857D02*
X334383428Y-568220285D01*
X334431047Y-568106000D01*
X334526285Y-568048857D01*
X334621523Y-568048857D01*
X335097714Y-569248857D02*
X335002476Y-569191714D01*
X334954857Y-569134571D01*
X334907238Y-569020285D01*
X334907238Y-568677428D01*
X334954857Y-568563142D01*
X335002476Y-568506000D01*
X335097714Y-568448857D01*
X335240571Y-568448857D01*
X335335809Y-568506000D01*
X335383428Y-568563142D01*
X335431047Y-568677428D01*
X335431047Y-569020285D01*
X335383428Y-569134571D01*
X335335809Y-569191714D01*
X335240571Y-569248857D01*
X335097714Y-569248857D01*
X335859619Y-569248857D02*
X335859619Y-568448857D01*
X335859619Y-568677428D02*
X335907238Y-568563142D01*
X335954857Y-568506000D01*
X336050095Y-568448857D01*
X336145333Y-568448857D01*
X337145333Y-568048857D02*
X337764380Y-568048857D01*
X337431047Y-568506000D01*
X337573904Y-568506000D01*
X337669142Y-568563142D01*
X337716761Y-568620285D01*
X337764380Y-568734571D01*
X337764380Y-569020285D01*
X337716761Y-569134571D01*
X337669142Y-569191714D01*
X337573904Y-569248857D01*
X337288190Y-569248857D01*
X337192952Y-569191714D01*
X337145333Y-569134571D01*
X338050095Y-568048857D02*
X338383428Y-569248857D01*
X338716761Y-568048857D01*
X340288190Y-569248857D02*
X339812000Y-569248857D01*
X339812000Y-568048857D01*
X340764380Y-569248857D02*
X340669142Y-569191714D01*
X340621523Y-569134571D01*
X340573904Y-569020285D01*
X340573904Y-568677428D01*
X340621523Y-568563142D01*
X340669142Y-568506000D01*
X340764380Y-568448857D01*
X340907238Y-568448857D01*
X341002476Y-568506000D01*
X341050095Y-568563142D01*
X341097714Y-568677428D01*
X341097714Y-569020285D01*
X341050095Y-569134571D01*
X341002476Y-569191714D01*
X340907238Y-569248857D01*
X340764380Y-569248857D01*
X341954857Y-568448857D02*
X341954857Y-569420285D01*
X341907238Y-569534571D01*
X341859619Y-569591714D01*
X341764380Y-569648857D01*
X341621523Y-569648857D01*
X341526285Y-569591714D01*
X341954857Y-569191714D02*
X341859619Y-569248857D01*
X341669142Y-569248857D01*
X341573904Y-569191714D01*
X341526285Y-569134571D01*
X341478666Y-569020285D01*
X341478666Y-568677428D01*
X341526285Y-568563142D01*
X341573904Y-568506000D01*
X341669142Y-568448857D01*
X341859619Y-568448857D01*
X341954857Y-568506000D01*
X342431047Y-569248857D02*
X342431047Y-568448857D01*
X342431047Y-568048857D02*
X342383428Y-568106000D01*
X342431047Y-568163142D01*
X342478666Y-568106000D01*
X342431047Y-568048857D01*
X342431047Y-568163142D01*
X343335809Y-569191714D02*
X343240571Y-569248857D01*
X343050095Y-569248857D01*
X342954857Y-569191714D01*
X342907238Y-569134571D01*
X342859619Y-569020285D01*
X342859619Y-568677428D01*
X342907238Y-568563142D01*
X342954857Y-568506000D01*
X343050095Y-568448857D01*
X343240571Y-568448857D01*
X343335809Y-568506000D01*
X349662761Y-569502857D02*
X349329428Y-568931428D01*
X349091333Y-569502857D02*
X349091333Y-568302857D01*
X349472285Y-568302857D01*
X349567523Y-568360000D01*
X349615142Y-568417142D01*
X349662761Y-568531428D01*
X349662761Y-568702857D01*
X349615142Y-568817142D01*
X349567523Y-568874285D01*
X349472285Y-568931428D01*
X349091333Y-568931428D01*
X349996095Y-569502857D02*
X350519904Y-568702857D01*
X349996095Y-568702857D02*
X350519904Y-569502857D01*
X351861523Y-568302857D02*
X352432952Y-568302857D01*
X352147238Y-569502857D02*
X352147238Y-568302857D01*
X352671047Y-569502857D02*
X353194857Y-568702857D01*
X352671047Y-568702857D02*
X353194857Y-569502857D01*
X353980857Y-569045714D02*
X354742761Y-569045714D01*
X354361809Y-569502857D02*
X354361809Y-568588571D01*
X355695142Y-568302857D02*
X355218952Y-568302857D01*
X355171333Y-568874285D01*
X355218952Y-568817142D01*
X355314190Y-568760000D01*
X355552285Y-568760000D01*
X355647523Y-568817142D01*
X355695142Y-568874285D01*
X355742761Y-568988571D01*
X355742761Y-569274285D01*
X355695142Y-569388571D01*
X355647523Y-569445714D01*
X355552285Y-569502857D01*
X355314190Y-569502857D01*
X355218952Y-569445714D01*
X355171333Y-569388571D01*
X357378095Y-568360000D02*
X357282857Y-568302857D01*
X357140000Y-568302857D01*
X356997142Y-568360000D01*
X356901904Y-568474285D01*
X356854285Y-568588571D01*
X356806666Y-568817142D01*
X356806666Y-568988571D01*
X356854285Y-569217142D01*
X356901904Y-569331428D01*
X356997142Y-569445714D01*
X357140000Y-569502857D01*
X357235238Y-569502857D01*
X357378095Y-569445714D01*
X357425714Y-569388571D01*
X357425714Y-568988571D01*
X357235238Y-568988571D01*
X357854285Y-569502857D02*
X357854285Y-568302857D01*
X358425714Y-569502857D01*
X358425714Y-568302857D01*
X358901904Y-569502857D02*
X358901904Y-568302857D01*
X359140000Y-568302857D01*
X359282857Y-568360000D01*
X359378095Y-568474285D01*
X359425714Y-568588571D01*
X359473333Y-568817142D01*
X359473333Y-568988571D01*
X359425714Y-569217142D01*
X359378095Y-569331428D01*
X359282857Y-569445714D01*
X359140000Y-569502857D01*
X358901904Y-569502857D01*
X319706857Y-568874285D02*
X319849714Y-568931428D01*
X319897333Y-568988571D01*
X319944952Y-569102857D01*
X319944952Y-569274285D01*
X319897333Y-569388571D01*
X319849714Y-569445714D01*
X319754476Y-569502857D01*
X319373523Y-569502857D01*
X319373523Y-568302857D01*
X319706857Y-568302857D01*
X319802095Y-568360000D01*
X319849714Y-568417142D01*
X319897333Y-568531428D01*
X319897333Y-568645714D01*
X319849714Y-568760000D01*
X319802095Y-568817142D01*
X319706857Y-568874285D01*
X319373523Y-568874285D01*
X320802095Y-568702857D02*
X320802095Y-569502857D01*
X320373523Y-568702857D02*
X320373523Y-569331428D01*
X320421142Y-569445714D01*
X320516380Y-569502857D01*
X320659238Y-569502857D01*
X320754476Y-569445714D01*
X320802095Y-569388571D01*
X321135428Y-568702857D02*
X321516380Y-568702857D01*
X321278285Y-568302857D02*
X321278285Y-569331428D01*
X321325904Y-569445714D01*
X321421142Y-569502857D01*
X321516380Y-569502857D01*
X321706857Y-568702857D02*
X322087809Y-568702857D01*
X321849714Y-568302857D02*
X321849714Y-569331428D01*
X321897333Y-569445714D01*
X321992571Y-569502857D01*
X322087809Y-569502857D01*
X322564000Y-569502857D02*
X322468761Y-569445714D01*
X322421142Y-569388571D01*
X322373523Y-569274285D01*
X322373523Y-568931428D01*
X322421142Y-568817142D01*
X322468761Y-568760000D01*
X322564000Y-568702857D01*
X322706857Y-568702857D01*
X322802095Y-568760000D01*
X322849714Y-568817142D01*
X322897333Y-568931428D01*
X322897333Y-569274285D01*
X322849714Y-569388571D01*
X322802095Y-569445714D01*
X322706857Y-569502857D01*
X322564000Y-569502857D01*
X323325904Y-568702857D02*
X323325904Y-569502857D01*
X323325904Y-568817142D02*
X323373523Y-568760000D01*
X323468761Y-568702857D01*
X323611619Y-568702857D01*
X323706857Y-568760000D01*
X323754476Y-568874285D01*
X323754476Y-569502857D01*
X298855047Y-592616857D02*
X298283619Y-592616857D01*
X298569333Y-592616857D02*
X298569333Y-591416857D01*
X298474095Y-591588285D01*
X298378857Y-591702571D01*
X298283619Y-591759714D01*
X299283619Y-592159714D02*
X300045523Y-592159714D01*
X300426476Y-591416857D02*
X300664571Y-592616857D01*
X300855047Y-591759714D01*
X301045523Y-592616857D01*
X301283619Y-591416857D01*
X301664571Y-592616857D02*
X301664571Y-591816857D01*
X301664571Y-591416857D02*
X301616952Y-591474000D01*
X301664571Y-591531142D01*
X301712190Y-591474000D01*
X301664571Y-591416857D01*
X301664571Y-591531142D01*
X302140761Y-592616857D02*
X302140761Y-591816857D01*
X302140761Y-592045428D02*
X302188380Y-591931142D01*
X302236000Y-591874000D01*
X302331238Y-591816857D01*
X302426476Y-591816857D01*
X303140761Y-592559714D02*
X303045523Y-592616857D01*
X302855047Y-592616857D01*
X302759809Y-592559714D01*
X302712190Y-592445428D01*
X302712190Y-591988285D01*
X302759809Y-591874000D01*
X302855047Y-591816857D01*
X303045523Y-591816857D01*
X303140761Y-591874000D01*
X303188380Y-591988285D01*
X303188380Y-592102571D01*
X302712190Y-592216857D01*
X363578857Y-585969904D02*
X364550285Y-585969904D01*
X364664571Y-585922285D01*
X364721714Y-585874666D01*
X364778857Y-585779428D01*
X364778857Y-585588952D01*
X364721714Y-585493714D01*
X364664571Y-585446095D01*
X364550285Y-585398476D01*
X363578857Y-585398476D01*
X364721714Y-584969904D02*
X364778857Y-584827047D01*
X364778857Y-584588952D01*
X364721714Y-584493714D01*
X364664571Y-584446095D01*
X364550285Y-584398476D01*
X364436000Y-584398476D01*
X364321714Y-584446095D01*
X364264571Y-584493714D01*
X364207428Y-584588952D01*
X364150285Y-584779428D01*
X364093142Y-584874666D01*
X364036000Y-584922285D01*
X363921714Y-584969904D01*
X363807428Y-584969904D01*
X363693142Y-584922285D01*
X363636000Y-584874666D01*
X363578857Y-584779428D01*
X363578857Y-584541333D01*
X363636000Y-584398476D01*
X364150285Y-583636571D02*
X364207428Y-583493714D01*
X364264571Y-583446095D01*
X364378857Y-583398476D01*
X364550285Y-583398476D01*
X364664571Y-583446095D01*
X364721714Y-583493714D01*
X364778857Y-583588952D01*
X364778857Y-583969904D01*
X363578857Y-583969904D01*
X363578857Y-583636571D01*
X363636000Y-583541333D01*
X363693142Y-583493714D01*
X363807428Y-583446095D01*
X363921714Y-583446095D01*
X364036000Y-583493714D01*
X364093142Y-583541333D01*
X364150285Y-583636571D01*
X364150285Y-583969904D01*
X353496714Y-600236857D02*
X353163380Y-599665428D01*
X352925285Y-600236857D02*
X352925285Y-599036857D01*
X353306238Y-599036857D01*
X353401476Y-599094000D01*
X353449095Y-599151142D01*
X353496714Y-599265428D01*
X353496714Y-599436857D01*
X353449095Y-599551142D01*
X353401476Y-599608285D01*
X353306238Y-599665428D01*
X352925285Y-599665428D01*
X354306238Y-600179714D02*
X354211000Y-600236857D01*
X354020523Y-600236857D01*
X353925285Y-600179714D01*
X353877666Y-600065428D01*
X353877666Y-599608285D01*
X353925285Y-599494000D01*
X354020523Y-599436857D01*
X354211000Y-599436857D01*
X354306238Y-599494000D01*
X354353857Y-599608285D01*
X354353857Y-599722571D01*
X353877666Y-599836857D01*
X354925285Y-600236857D02*
X354830047Y-600179714D01*
X354782428Y-600065428D01*
X354782428Y-599036857D01*
X355734809Y-600236857D02*
X355734809Y-599608285D01*
X355687190Y-599494000D01*
X355591952Y-599436857D01*
X355401476Y-599436857D01*
X355306238Y-599494000D01*
X355734809Y-600179714D02*
X355639571Y-600236857D01*
X355401476Y-600236857D01*
X355306238Y-600179714D01*
X355258619Y-600065428D01*
X355258619Y-599951142D01*
X355306238Y-599836857D01*
X355401476Y-599779714D01*
X355639571Y-599779714D01*
X355734809Y-599722571D01*
X356115761Y-599436857D02*
X356353857Y-600236857D01*
X356591952Y-599436857D02*
X356353857Y-600236857D01*
X356258619Y-600522571D01*
X356211000Y-600579714D01*
X356115761Y-600636857D01*
X356720857Y-605980476D02*
X356720857Y-606456666D01*
X357292285Y-606504285D01*
X357235142Y-606456666D01*
X357178000Y-606361428D01*
X357178000Y-606123333D01*
X357235142Y-606028095D01*
X357292285Y-605980476D01*
X357406571Y-605932857D01*
X357692285Y-605932857D01*
X357806571Y-605980476D01*
X357863714Y-606028095D01*
X357920857Y-606123333D01*
X357920857Y-606361428D01*
X357863714Y-606456666D01*
X357806571Y-606504285D01*
X356720857Y-605647142D02*
X357920857Y-605313809D01*
X356720857Y-604980476D01*
X355323714Y-606813809D02*
X355380857Y-606670952D01*
X355380857Y-606432857D01*
X355323714Y-606337619D01*
X355266571Y-606290000D01*
X355152285Y-606242380D01*
X355038000Y-606242380D01*
X354923714Y-606290000D01*
X354866571Y-606337619D01*
X354809428Y-606432857D01*
X354752285Y-606623333D01*
X354695142Y-606718571D01*
X354638000Y-606766190D01*
X354523714Y-606813809D01*
X354409428Y-606813809D01*
X354295142Y-606766190D01*
X354238000Y-606718571D01*
X354180857Y-606623333D01*
X354180857Y-606385238D01*
X354238000Y-606242380D01*
X355380857Y-605813809D02*
X354180857Y-605813809D01*
X354238000Y-604813809D02*
X354180857Y-604909047D01*
X354180857Y-605051904D01*
X354238000Y-605194761D01*
X354352285Y-605290000D01*
X354466571Y-605337619D01*
X354695142Y-605385238D01*
X354866571Y-605385238D01*
X355095142Y-605337619D01*
X355209428Y-605290000D01*
X355323714Y-605194761D01*
X355380857Y-605051904D01*
X355380857Y-604956666D01*
X355323714Y-604813809D01*
X355266571Y-604766190D01*
X354866571Y-604766190D01*
X354866571Y-604956666D01*
X351698000Y-606805904D02*
X351640857Y-606901142D01*
X351640857Y-607044000D01*
X351698000Y-607186857D01*
X351812285Y-607282095D01*
X351926571Y-607329714D01*
X352155142Y-607377333D01*
X352326571Y-607377333D01*
X352555142Y-607329714D01*
X352669428Y-607282095D01*
X352783714Y-607186857D01*
X352840857Y-607044000D01*
X352840857Y-606948761D01*
X352783714Y-606805904D01*
X352726571Y-606758285D01*
X352326571Y-606758285D01*
X352326571Y-606948761D01*
X352840857Y-606329714D02*
X351640857Y-606329714D01*
X352840857Y-605758285D01*
X351640857Y-605758285D01*
X352840857Y-605282095D02*
X351640857Y-605282095D01*
X351640857Y-605044000D01*
X351698000Y-604901142D01*
X351812285Y-604805904D01*
X351926571Y-604758285D01*
X352155142Y-604710666D01*
X352326571Y-604710666D01*
X352555142Y-604758285D01*
X352669428Y-604805904D01*
X352783714Y-604901142D01*
X352840857Y-605044000D01*
X352840857Y-605282095D01*
X346075095Y-599608285D02*
X345741761Y-599608285D01*
X345741761Y-600236857D02*
X345741761Y-599036857D01*
X346217952Y-599036857D01*
X347027476Y-600236857D02*
X347027476Y-599608285D01*
X346979857Y-599494000D01*
X346884619Y-599436857D01*
X346694142Y-599436857D01*
X346598904Y-599494000D01*
X347027476Y-600179714D02*
X346932238Y-600236857D01*
X346694142Y-600236857D01*
X346598904Y-600179714D01*
X346551285Y-600065428D01*
X346551285Y-599951142D01*
X346598904Y-599836857D01*
X346694142Y-599779714D01*
X346932238Y-599779714D01*
X347027476Y-599722571D01*
X347503666Y-599436857D02*
X347503666Y-600236857D01*
X347503666Y-599551142D02*
X347551285Y-599494000D01*
X347646523Y-599436857D01*
X347789380Y-599436857D01*
X347884619Y-599494000D01*
X347932238Y-599608285D01*
X347932238Y-600236857D01*
X344840000Y-606043904D02*
X344782857Y-606139142D01*
X344782857Y-606282000D01*
X344840000Y-606424857D01*
X344954285Y-606520095D01*
X345068571Y-606567714D01*
X345297142Y-606615333D01*
X345468571Y-606615333D01*
X345697142Y-606567714D01*
X345811428Y-606520095D01*
X345925714Y-606424857D01*
X345982857Y-606282000D01*
X345982857Y-606186761D01*
X345925714Y-606043904D01*
X345868571Y-605996285D01*
X345468571Y-605996285D01*
X345468571Y-606186761D01*
X345982857Y-605567714D02*
X344782857Y-605567714D01*
X345982857Y-604996285D01*
X344782857Y-604996285D01*
X345982857Y-604520095D02*
X344782857Y-604520095D01*
X344782857Y-604282000D01*
X344840000Y-604139142D01*
X344954285Y-604043904D01*
X345068571Y-603996285D01*
X345297142Y-603948666D01*
X345468571Y-603948666D01*
X345697142Y-603996285D01*
X345811428Y-604043904D01*
X345925714Y-604139142D01*
X345982857Y-604282000D01*
X345982857Y-604520095D01*
X347322857Y-604964476D02*
X347322857Y-605440666D01*
X347894285Y-605488285D01*
X347837142Y-605440666D01*
X347780000Y-605345428D01*
X347780000Y-605107333D01*
X347837142Y-605012095D01*
X347894285Y-604964476D01*
X348008571Y-604916857D01*
X348294285Y-604916857D01*
X348408571Y-604964476D01*
X348465714Y-605012095D01*
X348522857Y-605107333D01*
X348522857Y-605345428D01*
X348465714Y-605440666D01*
X348408571Y-605488285D01*
X347322857Y-604631142D02*
X348522857Y-604297809D01*
X347322857Y-603964476D01*
X307395714Y-580875714D02*
X307538571Y-580932857D01*
X307776666Y-580932857D01*
X307871904Y-580875714D01*
X307919523Y-580818571D01*
X307967142Y-580704285D01*
X307967142Y-580590000D01*
X307919523Y-580475714D01*
X307871904Y-580418571D01*
X307776666Y-580361428D01*
X307586190Y-580304285D01*
X307490952Y-580247142D01*
X307443333Y-580190000D01*
X307395714Y-580075714D01*
X307395714Y-579961428D01*
X307443333Y-579847142D01*
X307490952Y-579790000D01*
X307586190Y-579732857D01*
X307824285Y-579732857D01*
X307967142Y-579790000D01*
X308395714Y-580932857D02*
X308395714Y-579732857D01*
X308633809Y-579732857D01*
X308776666Y-579790000D01*
X308871904Y-579904285D01*
X308919523Y-580018571D01*
X308967142Y-580247142D01*
X308967142Y-580418571D01*
X308919523Y-580647142D01*
X308871904Y-580761428D01*
X308776666Y-580875714D01*
X308633809Y-580932857D01*
X308395714Y-580932857D01*
X309348095Y-580590000D02*
X309824285Y-580590000D01*
X309252857Y-580932857D02*
X309586190Y-579732857D01*
X309919523Y-580932857D01*
X307419523Y-578335714D02*
X307562380Y-578392857D01*
X307800476Y-578392857D01*
X307895714Y-578335714D01*
X307943333Y-578278571D01*
X307990952Y-578164285D01*
X307990952Y-578050000D01*
X307943333Y-577935714D01*
X307895714Y-577878571D01*
X307800476Y-577821428D01*
X307610000Y-577764285D01*
X307514761Y-577707142D01*
X307467142Y-577650000D01*
X307419523Y-577535714D01*
X307419523Y-577421428D01*
X307467142Y-577307142D01*
X307514761Y-577250000D01*
X307610000Y-577192857D01*
X307848095Y-577192857D01*
X307990952Y-577250000D01*
X308990952Y-578278571D02*
X308943333Y-578335714D01*
X308800476Y-578392857D01*
X308705238Y-578392857D01*
X308562380Y-578335714D01*
X308467142Y-578221428D01*
X308419523Y-578107142D01*
X308371904Y-577878571D01*
X308371904Y-577707142D01*
X308419523Y-577478571D01*
X308467142Y-577364285D01*
X308562380Y-577250000D01*
X308705238Y-577192857D01*
X308800476Y-577192857D01*
X308943333Y-577250000D01*
X308990952Y-577307142D01*
X309895714Y-578392857D02*
X309419523Y-578392857D01*
X309419523Y-577192857D01*
X301532857Y-589589428D02*
X300332857Y-589589428D01*
X300332857Y-589351333D01*
X300390000Y-589208476D01*
X300504285Y-589113238D01*
X300618571Y-589065619D01*
X300847142Y-589018000D01*
X301018571Y-589018000D01*
X301247142Y-589065619D01*
X301361428Y-589113238D01*
X301475714Y-589208476D01*
X301532857Y-589351333D01*
X301532857Y-589589428D01*
X301190000Y-588637047D02*
X301190000Y-588160857D01*
X301532857Y-588732285D02*
X300332857Y-588398952D01*
X301532857Y-588065619D01*
X300332857Y-587875142D02*
X300332857Y-587303714D01*
X301532857Y-587589428D02*
X300332857Y-587589428D01*
X302930000Y-589279904D02*
X302872857Y-589375142D01*
X302872857Y-589518000D01*
X302930000Y-589660857D01*
X303044285Y-589756095D01*
X303158571Y-589803714D01*
X303387142Y-589851333D01*
X303558571Y-589851333D01*
X303787142Y-589803714D01*
X303901428Y-589756095D01*
X304015714Y-589660857D01*
X304072857Y-589518000D01*
X304072857Y-589422761D01*
X304015714Y-589279904D01*
X303958571Y-589232285D01*
X303558571Y-589232285D01*
X303558571Y-589422761D01*
X304072857Y-588803714D02*
X302872857Y-588803714D01*
X304072857Y-588232285D01*
X302872857Y-588232285D01*
X304072857Y-587756095D02*
X302872857Y-587756095D01*
X302872857Y-587518000D01*
X302930000Y-587375142D01*
X303044285Y-587279904D01*
X303158571Y-587232285D01*
X303387142Y-587184666D01*
X303558571Y-587184666D01*
X303787142Y-587232285D01*
X303901428Y-587279904D01*
X304015714Y-587375142D01*
X304072857Y-587518000D01*
X304072857Y-587756095D01*
X307848095Y-574710000D02*
X307752857Y-574652857D01*
X307610000Y-574652857D01*
X307467142Y-574710000D01*
X307371904Y-574824285D01*
X307324285Y-574938571D01*
X307276666Y-575167142D01*
X307276666Y-575338571D01*
X307324285Y-575567142D01*
X307371904Y-575681428D01*
X307467142Y-575795714D01*
X307610000Y-575852857D01*
X307705238Y-575852857D01*
X307848095Y-575795714D01*
X307895714Y-575738571D01*
X307895714Y-575338571D01*
X307705238Y-575338571D01*
X308324285Y-575852857D02*
X308324285Y-574652857D01*
X308895714Y-575852857D01*
X308895714Y-574652857D01*
X309371904Y-575852857D02*
X309371904Y-574652857D01*
X309610000Y-574652857D01*
X309752857Y-574710000D01*
X309848095Y-574824285D01*
X309895714Y-574938571D01*
X309943333Y-575167142D01*
X309943333Y-575338571D01*
X309895714Y-575567142D01*
X309848095Y-575681428D01*
X309752857Y-575795714D01*
X309610000Y-575852857D01*
X309371904Y-575852857D01*
X297792857Y-590248190D02*
X297792857Y-589629142D01*
X298250000Y-589962476D01*
X298250000Y-589819619D01*
X298307142Y-589724380D01*
X298364285Y-589676761D01*
X298478571Y-589629142D01*
X298764285Y-589629142D01*
X298878571Y-589676761D01*
X298935714Y-589724380D01*
X298992857Y-589819619D01*
X298992857Y-590105333D01*
X298935714Y-590200571D01*
X298878571Y-590248190D01*
X298878571Y-589200571D02*
X298935714Y-589152952D01*
X298992857Y-589200571D01*
X298935714Y-589248190D01*
X298878571Y-589200571D01*
X298992857Y-589200571D01*
X297792857Y-588819619D02*
X297792857Y-588200571D01*
X298250000Y-588533904D01*
X298250000Y-588391047D01*
X298307142Y-588295809D01*
X298364285Y-588248190D01*
X298478571Y-588200571D01*
X298764285Y-588200571D01*
X298878571Y-588248190D01*
X298935714Y-588295809D01*
X298992857Y-588391047D01*
X298992857Y-588676761D01*
X298935714Y-588772000D01*
X298878571Y-588819619D01*
X297792857Y-587914857D02*
X298992857Y-587581523D01*
X297792857Y-587248190D01*
X307133809Y-572112857D02*
X307752857Y-572112857D01*
X307419523Y-572570000D01*
X307562380Y-572570000D01*
X307657619Y-572627142D01*
X307705238Y-572684285D01*
X307752857Y-572798571D01*
X307752857Y-573084285D01*
X307705238Y-573198571D01*
X307657619Y-573255714D01*
X307562380Y-573312857D01*
X307276666Y-573312857D01*
X307181428Y-573255714D01*
X307133809Y-573198571D01*
X308181428Y-573198571D02*
X308229047Y-573255714D01*
X308181428Y-573312857D01*
X308133809Y-573255714D01*
X308181428Y-573198571D01*
X308181428Y-573312857D01*
X308562380Y-572112857D02*
X309181428Y-572112857D01*
X308848095Y-572570000D01*
X308990952Y-572570000D01*
X309086190Y-572627142D01*
X309133809Y-572684285D01*
X309181428Y-572798571D01*
X309181428Y-573084285D01*
X309133809Y-573198571D01*
X309086190Y-573255714D01*
X308990952Y-573312857D01*
X308705238Y-573312857D01*
X308610000Y-573255714D01*
X308562380Y-573198571D01*
X309467142Y-572112857D02*
X309800476Y-573312857D01*
X310133809Y-572112857D01*
D12*
X343670000Y-576000476D02*
X343622380Y-576095714D01*
X343622380Y-576238571D01*
X343670000Y-576381428D01*
X343765238Y-576476666D01*
X343860476Y-576524285D01*
X344050952Y-576571904D01*
X344193809Y-576571904D01*
X344384285Y-576524285D01*
X344479523Y-576476666D01*
X344574761Y-576381428D01*
X344622380Y-576238571D01*
X344622380Y-576143333D01*
X344574761Y-576000476D01*
X344527142Y-575952857D01*
X344193809Y-575952857D01*
X344193809Y-576143333D01*
X344622380Y-575000476D02*
X344622380Y-575571904D01*
X344622380Y-575286190D02*
X343622380Y-575286190D01*
X343765238Y-575381428D01*
X343860476Y-575476666D01*
X343908095Y-575571904D01*
X343622380Y-574143333D02*
X343622380Y-574333809D01*
X343670000Y-574429047D01*
X343717619Y-574476666D01*
X343860476Y-574571904D01*
X344050952Y-574619523D01*
X344431904Y-574619523D01*
X344527142Y-574571904D01*
X344574761Y-574524285D01*
X344622380Y-574429047D01*
X344622380Y-574238571D01*
X344574761Y-574143333D01*
X344527142Y-574095714D01*
X344431904Y-574048095D01*
X344193809Y-574048095D01*
X344098571Y-574095714D01*
X344050952Y-574143333D01*
X344003333Y-574238571D01*
X344003333Y-574429047D01*
X344050952Y-574524285D01*
X344098571Y-574571904D01*
X344193809Y-574619523D01*
X341130000Y-576000476D02*
X341082380Y-576095714D01*
X341082380Y-576238571D01*
X341130000Y-576381428D01*
X341225238Y-576476666D01*
X341320476Y-576524285D01*
X341510952Y-576571904D01*
X341653809Y-576571904D01*
X341844285Y-576524285D01*
X341939523Y-576476666D01*
X342034761Y-576381428D01*
X342082380Y-576238571D01*
X342082380Y-576143333D01*
X342034761Y-576000476D01*
X341987142Y-575952857D01*
X341653809Y-575952857D01*
X341653809Y-576143333D01*
X342082380Y-575000476D02*
X342082380Y-575571904D01*
X342082380Y-575286190D02*
X341082380Y-575286190D01*
X341225238Y-575381428D01*
X341320476Y-575476666D01*
X341368095Y-575571904D01*
X341082380Y-574667142D02*
X341082380Y-574000476D01*
X342082380Y-574429047D01*
X330970000Y-576071904D02*
X330922380Y-576167142D01*
X330922380Y-576310000D01*
X330970000Y-576452857D01*
X331065238Y-576548095D01*
X331160476Y-576595714D01*
X331350952Y-576643333D01*
X331493809Y-576643333D01*
X331684285Y-576595714D01*
X331779523Y-576548095D01*
X331874761Y-576452857D01*
X331922380Y-576310000D01*
X331922380Y-576214761D01*
X331874761Y-576071904D01*
X331827142Y-576024285D01*
X331493809Y-576024285D01*
X331493809Y-576214761D01*
X331922380Y-575595714D02*
X330922380Y-575595714D01*
X331922380Y-575024285D01*
X330922380Y-575024285D01*
X331922380Y-574548095D02*
X330922380Y-574548095D01*
X330922380Y-574310000D01*
X330970000Y-574167142D01*
X331065238Y-574071904D01*
X331160476Y-574024285D01*
X331350952Y-573976666D01*
X331493809Y-573976666D01*
X331684285Y-574024285D01*
X331779523Y-574071904D01*
X331874761Y-574167142D01*
X331922380Y-574310000D01*
X331922380Y-574548095D01*
X328430000Y-576000476D02*
X328382380Y-576095714D01*
X328382380Y-576238571D01*
X328430000Y-576381428D01*
X328525238Y-576476666D01*
X328620476Y-576524285D01*
X328810952Y-576571904D01*
X328953809Y-576571904D01*
X329144285Y-576524285D01*
X329239523Y-576476666D01*
X329334761Y-576381428D01*
X329382380Y-576238571D01*
X329382380Y-576143333D01*
X329334761Y-576000476D01*
X329287142Y-575952857D01*
X328953809Y-575952857D01*
X328953809Y-576143333D01*
X328477619Y-575571904D02*
X328430000Y-575524285D01*
X328382380Y-575429047D01*
X328382380Y-575190952D01*
X328430000Y-575095714D01*
X328477619Y-575048095D01*
X328572857Y-575000476D01*
X328668095Y-575000476D01*
X328810952Y-575048095D01*
X329382380Y-575619523D01*
X329382380Y-575000476D01*
X329382380Y-574048095D02*
X329382380Y-574619523D01*
X329382380Y-574333809D02*
X328382380Y-574333809D01*
X328525238Y-574429047D01*
X328620476Y-574524285D01*
X328668095Y-574619523D01*
X320810000Y-576000476D02*
X320762380Y-576095714D01*
X320762380Y-576238571D01*
X320810000Y-576381428D01*
X320905238Y-576476666D01*
X321000476Y-576524285D01*
X321190952Y-576571904D01*
X321333809Y-576571904D01*
X321524285Y-576524285D01*
X321619523Y-576476666D01*
X321714761Y-576381428D01*
X321762380Y-576238571D01*
X321762380Y-576143333D01*
X321714761Y-576000476D01*
X321667142Y-575952857D01*
X321333809Y-575952857D01*
X321333809Y-576143333D01*
X320857619Y-575571904D02*
X320810000Y-575524285D01*
X320762380Y-575429047D01*
X320762380Y-575190952D01*
X320810000Y-575095714D01*
X320857619Y-575048095D01*
X320952857Y-575000476D01*
X321048095Y-575000476D01*
X321190952Y-575048095D01*
X321762380Y-575619523D01*
X321762380Y-575000476D01*
X320857619Y-574619523D02*
X320810000Y-574571904D01*
X320762380Y-574476666D01*
X320762380Y-574238571D01*
X320810000Y-574143333D01*
X320857619Y-574095714D01*
X320952857Y-574048095D01*
X321048095Y-574048095D01*
X321190952Y-574095714D01*
X321762380Y-574667142D01*
X321762380Y-574048095D01*
X315730000Y-576071904D02*
X315682380Y-576167142D01*
X315682380Y-576310000D01*
X315730000Y-576452857D01*
X315825238Y-576548095D01*
X315920476Y-576595714D01*
X316110952Y-576643333D01*
X316253809Y-576643333D01*
X316444285Y-576595714D01*
X316539523Y-576548095D01*
X316634761Y-576452857D01*
X316682380Y-576310000D01*
X316682380Y-576214761D01*
X316634761Y-576071904D01*
X316587142Y-576024285D01*
X316253809Y-576024285D01*
X316253809Y-576214761D01*
X316682380Y-575595714D02*
X315682380Y-575595714D01*
X316682380Y-575024285D01*
X315682380Y-575024285D01*
X316682380Y-574548095D02*
X315682380Y-574548095D01*
X315682380Y-574310000D01*
X315730000Y-574167142D01*
X315825238Y-574071904D01*
X315920476Y-574024285D01*
X316110952Y-573976666D01*
X316253809Y-573976666D01*
X316444285Y-574024285D01*
X316539523Y-574071904D01*
X316634761Y-574167142D01*
X316682380Y-574310000D01*
X316682380Y-574548095D01*
X337955000Y-595050476D02*
X337907380Y-595145714D01*
X337907380Y-595288571D01*
X337955000Y-595431428D01*
X338050238Y-595526666D01*
X338145476Y-595574285D01*
X338335952Y-595621904D01*
X338478809Y-595621904D01*
X338669285Y-595574285D01*
X338764523Y-595526666D01*
X338859761Y-595431428D01*
X338907380Y-595288571D01*
X338907380Y-595193333D01*
X338859761Y-595050476D01*
X338812142Y-595002857D01*
X338478809Y-595002857D01*
X338478809Y-595193333D01*
X338002619Y-594621904D02*
X337955000Y-594574285D01*
X337907380Y-594479047D01*
X337907380Y-594240952D01*
X337955000Y-594145714D01*
X338002619Y-594098095D01*
X338097857Y-594050476D01*
X338193095Y-594050476D01*
X338335952Y-594098095D01*
X338907380Y-594669523D01*
X338907380Y-594050476D01*
X337907380Y-593193333D02*
X337907380Y-593383809D01*
X337955000Y-593479047D01*
X338002619Y-593526666D01*
X338145476Y-593621904D01*
X338335952Y-593669523D01*
X338716904Y-593669523D01*
X338812142Y-593621904D01*
X338859761Y-593574285D01*
X338907380Y-593479047D01*
X338907380Y-593288571D01*
X338859761Y-593193333D01*
X338812142Y-593145714D01*
X338716904Y-593098095D01*
X338478809Y-593098095D01*
X338383571Y-593145714D01*
X338335952Y-593193333D01*
X338288333Y-593288571D01*
X338288333Y-593479047D01*
X338335952Y-593574285D01*
X338383571Y-593621904D01*
X338478809Y-593669523D01*
X340495000Y-595050476D02*
X340447380Y-595145714D01*
X340447380Y-595288571D01*
X340495000Y-595431428D01*
X340590238Y-595526666D01*
X340685476Y-595574285D01*
X340875952Y-595621904D01*
X341018809Y-595621904D01*
X341209285Y-595574285D01*
X341304523Y-595526666D01*
X341399761Y-595431428D01*
X341447380Y-595288571D01*
X341447380Y-595193333D01*
X341399761Y-595050476D01*
X341352142Y-595002857D01*
X341018809Y-595002857D01*
X341018809Y-595193333D01*
X340542619Y-594621904D02*
X340495000Y-594574285D01*
X340447380Y-594479047D01*
X340447380Y-594240952D01*
X340495000Y-594145714D01*
X340542619Y-594098095D01*
X340637857Y-594050476D01*
X340733095Y-594050476D01*
X340875952Y-594098095D01*
X341447380Y-594669523D01*
X341447380Y-594050476D01*
X340447380Y-593717142D02*
X340447380Y-593050476D01*
X341447380Y-593479047D01*
X348115000Y-595121904D02*
X348067380Y-595217142D01*
X348067380Y-595360000D01*
X348115000Y-595502857D01*
X348210238Y-595598095D01*
X348305476Y-595645714D01*
X348495952Y-595693333D01*
X348638809Y-595693333D01*
X348829285Y-595645714D01*
X348924523Y-595598095D01*
X349019761Y-595502857D01*
X349067380Y-595360000D01*
X349067380Y-595264761D01*
X349019761Y-595121904D01*
X348972142Y-595074285D01*
X348638809Y-595074285D01*
X348638809Y-595264761D01*
X349067380Y-594645714D02*
X348067380Y-594645714D01*
X349067380Y-594074285D01*
X348067380Y-594074285D01*
X349067380Y-593598095D02*
X348067380Y-593598095D01*
X348067380Y-593360000D01*
X348115000Y-593217142D01*
X348210238Y-593121904D01*
X348305476Y-593074285D01*
X348495952Y-593026666D01*
X348638809Y-593026666D01*
X348829285Y-593074285D01*
X348924523Y-593121904D01*
X349019761Y-593217142D01*
X349067380Y-593360000D01*
X349067380Y-593598095D01*
X350655000Y-595050476D02*
X350607380Y-595145714D01*
X350607380Y-595288571D01*
X350655000Y-595431428D01*
X350750238Y-595526666D01*
X350845476Y-595574285D01*
X351035952Y-595621904D01*
X351178809Y-595621904D01*
X351369285Y-595574285D01*
X351464523Y-595526666D01*
X351559761Y-595431428D01*
X351607380Y-595288571D01*
X351607380Y-595193333D01*
X351559761Y-595050476D01*
X351512142Y-595002857D01*
X351178809Y-595002857D01*
X351178809Y-595193333D01*
X351607380Y-594050476D02*
X351607380Y-594621904D01*
X351607380Y-594336190D02*
X350607380Y-594336190D01*
X350750238Y-594431428D01*
X350845476Y-594526666D01*
X350893095Y-594621904D01*
X350607380Y-593717142D02*
X350607380Y-593098095D01*
X350988333Y-593431428D01*
X350988333Y-593288571D01*
X351035952Y-593193333D01*
X351083571Y-593145714D01*
X351178809Y-593098095D01*
X351416904Y-593098095D01*
X351512142Y-593145714D01*
X351559761Y-593193333D01*
X351607380Y-593288571D01*
X351607380Y-593574285D01*
X351559761Y-593669523D01*
X351512142Y-593717142D01*
X360767380Y-594550476D02*
X360767380Y-595026666D01*
X361243571Y-595074285D01*
X361195952Y-595026666D01*
X361148333Y-594931428D01*
X361148333Y-594693333D01*
X361195952Y-594598095D01*
X361243571Y-594550476D01*
X361338809Y-594502857D01*
X361576904Y-594502857D01*
X361672142Y-594550476D01*
X361719761Y-594598095D01*
X361767380Y-594693333D01*
X361767380Y-594931428D01*
X361719761Y-595026666D01*
X361672142Y-595074285D01*
X360767380Y-594217142D02*
X361767380Y-593883809D01*
X360767380Y-593550476D01*
X315047380Y-595201190D02*
X315047380Y-594582142D01*
X315428333Y-594915476D01*
X315428333Y-594772619D01*
X315475952Y-594677380D01*
X315523571Y-594629761D01*
X315618809Y-594582142D01*
X315856904Y-594582142D01*
X315952142Y-594629761D01*
X315999761Y-594677380D01*
X316047380Y-594772619D01*
X316047380Y-595058333D01*
X315999761Y-595153571D01*
X315952142Y-595201190D01*
X315952142Y-594153571D02*
X315999761Y-594105952D01*
X316047380Y-594153571D01*
X315999761Y-594201190D01*
X315952142Y-594153571D01*
X316047380Y-594153571D01*
X315047380Y-593772619D02*
X315047380Y-593153571D01*
X315428333Y-593486904D01*
X315428333Y-593344047D01*
X315475952Y-593248809D01*
X315523571Y-593201190D01*
X315618809Y-593153571D01*
X315856904Y-593153571D01*
X315952142Y-593201190D01*
X315999761Y-593248809D01*
X316047380Y-593344047D01*
X316047380Y-593629761D01*
X315999761Y-593725000D01*
X315952142Y-593772619D01*
X315047380Y-592867857D02*
X316047380Y-592534523D01*
X315047380Y-592201190D01*
D13*
%TO.C,J10*%
X284480000Y-566166000D02*
X294640000Y-566166000D01*
X284480000Y-564896000D02*
X284480000Y-572516000D01*
X284480000Y-572516000D02*
X294640000Y-572516000D01*
X294640000Y-572516000D02*
X294640000Y-564896000D01*
X294640000Y-564896000D02*
X284480000Y-564896000D01*
%TO.C,J5*%
X311150000Y-607568000D02*
X311150000Y-599948000D01*
X326390000Y-607568000D02*
X326390000Y-599948000D01*
X311150000Y-606298000D02*
X326390000Y-606298000D01*
X311150000Y-599948000D02*
X326390000Y-599948000D01*
X311150000Y-607568000D02*
X326390000Y-607568000D01*
%TO.C,J8*%
X358835000Y-565090000D02*
X358835000Y-566420000D01*
X357505000Y-565090000D02*
X358835000Y-565090000D01*
X356235000Y-565090000D02*
X356235000Y-567750000D01*
X356235000Y-567750000D02*
X348555000Y-567750000D01*
X356235000Y-565090000D02*
X348555000Y-565090000D01*
X348555000Y-565090000D02*
X348555000Y-567750000D01*
%TO.C,U1*%
X314850001Y-589223334D02*
X314850001Y-598690000D01*
X314850001Y-570290001D02*
X314850001Y-579756668D01*
X362770001Y-570290002D02*
X314850001Y-570290001D01*
X362770001Y-598690001D02*
X362770001Y-570290002D01*
X314850001Y-598690000D02*
X362770001Y-598690001D01*
X311210001Y-598690001D02*
X366410001Y-598690001D01*
X311210001Y-598690001D02*
X311210001Y-570290001D01*
X311210001Y-570290001D02*
X365610001Y-570290001D01*
X366410001Y-570290001D02*
X366410001Y-598690001D01*
X365610001Y-570290001D02*
X366410001Y-570290001D01*
X314850001Y-579756668D02*
X314850001Y-589223334D01*
X362710001Y-581490001D02*
X366010001Y-581490001D01*
X366010001Y-581490001D02*
X366010001Y-587490001D01*
X366010001Y-587490001D02*
X362710001Y-587490001D01*
%TO.C,J1*%
X344110000Y-603564000D02*
X344110000Y-602234000D01*
X345440000Y-603564000D02*
X344110000Y-603564000D01*
X346710000Y-603564000D02*
X346710000Y-600904000D01*
X346710000Y-600904000D02*
X349310000Y-600904000D01*
X346710000Y-603564000D02*
X349310000Y-603564000D01*
X349310000Y-603564000D02*
X349310000Y-600904000D01*
%TO.C,J2*%
X350968000Y-603564000D02*
X350968000Y-602234000D01*
X352298000Y-603564000D02*
X350968000Y-603564000D01*
X353568000Y-603564000D02*
X353568000Y-600904000D01*
X353568000Y-600904000D02*
X358708000Y-600904000D01*
X353568000Y-603564000D02*
X358708000Y-603564000D01*
X358708000Y-603564000D02*
X358708000Y-600904000D01*
%TO.C,J3*%
X304860000Y-586546000D02*
X304860000Y-583886000D01*
X299720000Y-586546000D02*
X304860000Y-586546000D01*
X299720000Y-583886000D02*
X304860000Y-583886000D01*
X299720000Y-586546000D02*
X299720000Y-583886000D01*
X298450000Y-586546000D02*
X297120000Y-586546000D01*
X297120000Y-586546000D02*
X297120000Y-585216000D01*
%TO.C,J4*%
X297120000Y-599754000D02*
X297120000Y-598424000D01*
X298450000Y-599754000D02*
X297120000Y-599754000D01*
X299720000Y-599754000D02*
X299720000Y-597094000D01*
X299720000Y-597094000D02*
X304860000Y-597094000D01*
X299720000Y-599754000D02*
X304860000Y-599754000D01*
X304860000Y-599754000D02*
X304860000Y-597094000D01*
%TO.C,J6*%
X303470000Y-571440000D02*
X304800000Y-571440000D01*
X303470000Y-572770000D02*
X303470000Y-571440000D01*
X303470000Y-574040000D02*
X306130000Y-574040000D01*
X306130000Y-574040000D02*
X306130000Y-581720000D01*
X303470000Y-574040000D02*
X303470000Y-581720000D01*
X303470000Y-581720000D02*
X306130000Y-581720000D01*
%TO.C,J7*%
X297120000Y-581720000D02*
X299780000Y-581720000D01*
X297120000Y-574040000D02*
X297120000Y-581720000D01*
X299780000Y-574040000D02*
X299780000Y-581720000D01*
X297120000Y-574040000D02*
X299780000Y-574040000D01*
X297120000Y-572770000D02*
X297120000Y-571440000D01*
X297120000Y-571440000D02*
X298450000Y-571440000D01*
%TO.C,R1*%
X336220000Y-607060000D02*
X337170000Y-607060000D01*
X341960000Y-607060000D02*
X341010000Y-607060000D01*
X337170000Y-607980000D02*
X341010000Y-607980000D01*
X337170000Y-606140000D02*
X337170000Y-607980000D01*
X341010000Y-606140000D02*
X337170000Y-606140000D01*
X341010000Y-607980000D02*
X341010000Y-606140000D01*
%TO.C,R2*%
X306420000Y-593740000D02*
X308260000Y-593740000D01*
X308260000Y-593740000D02*
X308260000Y-589900000D01*
X308260000Y-589900000D02*
X306420000Y-589900000D01*
X306420000Y-589900000D02*
X306420000Y-593740000D01*
X307340000Y-594690000D02*
X307340000Y-593740000D01*
X307340000Y-588950000D02*
X307340000Y-589900000D01*
%TO.C,R3*%
X314020000Y-567690000D02*
X313070000Y-567690000D01*
X308280000Y-567690000D02*
X309230000Y-567690000D01*
X313070000Y-566770000D02*
X309230000Y-566770000D01*
X313070000Y-568610000D02*
X313070000Y-566770000D01*
X309230000Y-568610000D02*
X313070000Y-568610000D01*
X309230000Y-566770000D02*
X309230000Y-568610000D01*
%TO.C,R4*%
X328280000Y-565500000D02*
X328280000Y-567340000D01*
X328280000Y-567340000D02*
X332120000Y-567340000D01*
X332120000Y-567340000D02*
X332120000Y-565500000D01*
X332120000Y-565500000D02*
X328280000Y-565500000D01*
X327330000Y-566420000D02*
X328280000Y-566420000D01*
X333070000Y-566420000D02*
X332120000Y-566420000D01*
%TO.C,R5*%
X344500000Y-566420000D02*
X343550000Y-566420000D01*
X338760000Y-566420000D02*
X339710000Y-566420000D01*
X343550000Y-565500000D02*
X339710000Y-565500000D01*
X343550000Y-567340000D02*
X343550000Y-565500000D01*
X339710000Y-567340000D02*
X343550000Y-567340000D01*
X339710000Y-565500000D02*
X339710000Y-567340000D01*
%TO.C,SW1*%
X318710000Y-565090000D02*
X318710000Y-567750000D01*
X321310000Y-565090000D02*
X318710000Y-565090000D01*
X321310000Y-567750000D02*
X318710000Y-567750000D01*
X321310000Y-565090000D02*
X321310000Y-567750000D01*
X322580000Y-565090000D02*
X323910000Y-565090000D01*
X323910000Y-565090000D02*
X323910000Y-566420000D01*
%TO.C,T1*%
X342718000Y-604034000D02*
X342718000Y-600434000D01*
X342695684Y-600425555D02*
G75*
G03*
X338418000Y-601454000I-1827684J-1808445D01*
G01*
X342709741Y-604045875D02*
G75*
G02*
X338418000Y-603054000I-1841741J1811875D01*
G01*
%TO.C,J9*%
X327600000Y-602802000D02*
X327600000Y-601472000D01*
X328930000Y-602802000D02*
X327600000Y-602802000D01*
X330200000Y-602802000D02*
X330200000Y-600142000D01*
X330200000Y-600142000D02*
X335340000Y-600142000D01*
X330200000Y-602802000D02*
X335340000Y-602802000D01*
X335340000Y-602802000D02*
X335340000Y-600142000D01*
%TO.C,C1*%
X295101000Y-603504000D02*
G75*
G03*
X295101000Y-603504000I-5120000J0D01*
G01*
X289981000Y-608584000D02*
X289981000Y-598424000D01*
X289941000Y-608584000D02*
X289941000Y-598424000D01*
X289901000Y-608584000D02*
X289901000Y-598424000D01*
X289861000Y-608583000D02*
X289861000Y-598425000D01*
X289821000Y-608582000D02*
X289821000Y-598426000D01*
X289781000Y-608581000D02*
X289781000Y-598427000D01*
X289741000Y-608579000D02*
X289741000Y-598429000D01*
X289701000Y-608577000D02*
X289701000Y-598431000D01*
X289661000Y-608574000D02*
X289661000Y-598434000D01*
X289621000Y-608572000D02*
X289621000Y-598436000D01*
X289581000Y-608569000D02*
X289581000Y-598439000D01*
X289541000Y-608566000D02*
X289541000Y-598442000D01*
X289501000Y-608562000D02*
X289501000Y-598446000D01*
X289461000Y-608558000D02*
X289461000Y-598450000D01*
X289421000Y-608554000D02*
X289421000Y-598454000D01*
X289381000Y-608549000D02*
X289381000Y-598459000D01*
X289341000Y-608544000D02*
X289341000Y-598464000D01*
X289301000Y-608539000D02*
X289301000Y-598469000D01*
X289260000Y-608534000D02*
X289260000Y-598474000D01*
X289220000Y-608528000D02*
X289220000Y-598480000D01*
X289180000Y-608522000D02*
X289180000Y-598486000D01*
X289140000Y-608515000D02*
X289140000Y-598493000D01*
X289100000Y-608508000D02*
X289100000Y-598500000D01*
X289060000Y-608501000D02*
X289060000Y-598507000D01*
X289020000Y-608494000D02*
X289020000Y-598514000D01*
X288980000Y-608486000D02*
X288980000Y-598522000D01*
X288940000Y-608478000D02*
X288940000Y-598530000D01*
X288900000Y-608469000D02*
X288900000Y-598539000D01*
X288860000Y-608460000D02*
X288860000Y-598548000D01*
X288820000Y-608451000D02*
X288820000Y-598557000D01*
X288780000Y-608442000D02*
X288780000Y-598566000D01*
X288740000Y-608432000D02*
X288740000Y-598576000D01*
X288700000Y-608422000D02*
X288700000Y-604745000D01*
X288700000Y-602263000D02*
X288700000Y-598586000D01*
X288660000Y-608411000D02*
X288660000Y-604745000D01*
X288660000Y-602263000D02*
X288660000Y-598597000D01*
X288620000Y-608401000D02*
X288620000Y-604745000D01*
X288620000Y-602263000D02*
X288620000Y-598607000D01*
X288580000Y-608389000D02*
X288580000Y-604745000D01*
X288580000Y-602263000D02*
X288580000Y-598619000D01*
X288540000Y-608378000D02*
X288540000Y-604745000D01*
X288540000Y-602263000D02*
X288540000Y-598630000D01*
X288500000Y-608366000D02*
X288500000Y-604745000D01*
X288500000Y-602263000D02*
X288500000Y-598642000D01*
X288460000Y-608354000D02*
X288460000Y-604745000D01*
X288460000Y-602263000D02*
X288460000Y-598654000D01*
X288420000Y-608341000D02*
X288420000Y-604745000D01*
X288420000Y-602263000D02*
X288420000Y-598667000D01*
X288380000Y-608328000D02*
X288380000Y-604745000D01*
X288380000Y-602263000D02*
X288380000Y-598680000D01*
X288340000Y-608315000D02*
X288340000Y-604745000D01*
X288340000Y-602263000D02*
X288340000Y-598693000D01*
X288300000Y-608301000D02*
X288300000Y-604745000D01*
X288300000Y-602263000D02*
X288300000Y-598707000D01*
X288260000Y-608287000D02*
X288260000Y-604745000D01*
X288260000Y-602263000D02*
X288260000Y-598721000D01*
X288220000Y-608272000D02*
X288220000Y-604745000D01*
X288220000Y-602263000D02*
X288220000Y-598736000D01*
X288180000Y-608258000D02*
X288180000Y-604745000D01*
X288180000Y-602263000D02*
X288180000Y-598750000D01*
X288140000Y-608242000D02*
X288140000Y-604745000D01*
X288140000Y-602263000D02*
X288140000Y-598766000D01*
X288100000Y-608227000D02*
X288100000Y-604745000D01*
X288100000Y-602263000D02*
X288100000Y-598781000D01*
X288060000Y-608211000D02*
X288060000Y-604745000D01*
X288060000Y-602263000D02*
X288060000Y-598797000D01*
X288020000Y-608194000D02*
X288020000Y-604745000D01*
X288020000Y-602263000D02*
X288020000Y-598814000D01*
X287980000Y-608178000D02*
X287980000Y-604745000D01*
X287980000Y-602263000D02*
X287980000Y-598830000D01*
X287940000Y-608161000D02*
X287940000Y-604745000D01*
X287940000Y-602263000D02*
X287940000Y-598847000D01*
X287900000Y-608143000D02*
X287900000Y-604745000D01*
X287900000Y-602263000D02*
X287900000Y-598865000D01*
X287860000Y-608125000D02*
X287860000Y-604745000D01*
X287860000Y-602263000D02*
X287860000Y-598883000D01*
X287820000Y-608107000D02*
X287820000Y-604745000D01*
X287820000Y-602263000D02*
X287820000Y-598901000D01*
X287780000Y-608088000D02*
X287780000Y-604745000D01*
X287780000Y-602263000D02*
X287780000Y-598920000D01*
X287740000Y-608068000D02*
X287740000Y-604745000D01*
X287740000Y-602263000D02*
X287740000Y-598940000D01*
X287700000Y-608049000D02*
X287700000Y-604745000D01*
X287700000Y-602263000D02*
X287700000Y-598959000D01*
X287660000Y-608029000D02*
X287660000Y-604745000D01*
X287660000Y-602263000D02*
X287660000Y-598979000D01*
X287620000Y-608008000D02*
X287620000Y-604745000D01*
X287620000Y-602263000D02*
X287620000Y-599000000D01*
X287580000Y-607987000D02*
X287580000Y-604745000D01*
X287580000Y-602263000D02*
X287580000Y-599021000D01*
X287540000Y-607966000D02*
X287540000Y-604745000D01*
X287540000Y-602263000D02*
X287540000Y-599042000D01*
X287500000Y-607944000D02*
X287500000Y-604745000D01*
X287500000Y-602263000D02*
X287500000Y-599064000D01*
X287460000Y-607921000D02*
X287460000Y-604745000D01*
X287460000Y-602263000D02*
X287460000Y-599087000D01*
X287420000Y-607899000D02*
X287420000Y-604745000D01*
X287420000Y-602263000D02*
X287420000Y-599109000D01*
X287380000Y-607875000D02*
X287380000Y-604745000D01*
X287380000Y-602263000D02*
X287380000Y-599133000D01*
X287340000Y-607851000D02*
X287340000Y-604745000D01*
X287340000Y-602263000D02*
X287340000Y-599157000D01*
X287300000Y-607827000D02*
X287300000Y-604745000D01*
X287300000Y-602263000D02*
X287300000Y-599181000D01*
X287260000Y-607802000D02*
X287260000Y-604745000D01*
X287260000Y-602263000D02*
X287260000Y-599206000D01*
X287220000Y-607777000D02*
X287220000Y-604745000D01*
X287220000Y-602263000D02*
X287220000Y-599231000D01*
X287180000Y-607751000D02*
X287180000Y-604745000D01*
X287180000Y-602263000D02*
X287180000Y-599257000D01*
X287140000Y-607725000D02*
X287140000Y-604745000D01*
X287140000Y-602263000D02*
X287140000Y-599283000D01*
X287100000Y-607698000D02*
X287100000Y-604745000D01*
X287100000Y-602263000D02*
X287100000Y-599310000D01*
X287060000Y-607670000D02*
X287060000Y-604745000D01*
X287060000Y-602263000D02*
X287060000Y-599338000D01*
X287020000Y-607642000D02*
X287020000Y-604745000D01*
X287020000Y-602263000D02*
X287020000Y-599366000D01*
X286980000Y-607614000D02*
X286980000Y-604745000D01*
X286980000Y-602263000D02*
X286980000Y-599394000D01*
X286940000Y-607584000D02*
X286940000Y-604745000D01*
X286940000Y-602263000D02*
X286940000Y-599424000D01*
X286900000Y-607554000D02*
X286900000Y-604745000D01*
X286900000Y-602263000D02*
X286900000Y-599454000D01*
X286860000Y-607524000D02*
X286860000Y-604745000D01*
X286860000Y-602263000D02*
X286860000Y-599484000D01*
X286820000Y-607493000D02*
X286820000Y-604745000D01*
X286820000Y-602263000D02*
X286820000Y-599515000D01*
X286780000Y-607461000D02*
X286780000Y-604745000D01*
X286780000Y-602263000D02*
X286780000Y-599547000D01*
X286740000Y-607429000D02*
X286740000Y-604745000D01*
X286740000Y-602263000D02*
X286740000Y-599579000D01*
X286700000Y-607396000D02*
X286700000Y-604745000D01*
X286700000Y-602263000D02*
X286700000Y-599612000D01*
X286660000Y-607362000D02*
X286660000Y-604745000D01*
X286660000Y-602263000D02*
X286660000Y-599646000D01*
X286620000Y-607328000D02*
X286620000Y-604745000D01*
X286620000Y-602263000D02*
X286620000Y-599680000D01*
X286580000Y-607293000D02*
X286580000Y-604745000D01*
X286580000Y-602263000D02*
X286580000Y-599715000D01*
X286540000Y-607257000D02*
X286540000Y-604745000D01*
X286540000Y-602263000D02*
X286540000Y-599751000D01*
X286500000Y-607220000D02*
X286500000Y-604745000D01*
X286500000Y-602263000D02*
X286500000Y-599788000D01*
X286460000Y-607183000D02*
X286460000Y-604745000D01*
X286460000Y-602263000D02*
X286460000Y-599825000D01*
X286420000Y-607144000D02*
X286420000Y-604745000D01*
X286420000Y-602263000D02*
X286420000Y-599864000D01*
X286380000Y-607105000D02*
X286380000Y-604745000D01*
X286380000Y-602263000D02*
X286380000Y-599903000D01*
X286340000Y-607065000D02*
X286340000Y-604745000D01*
X286340000Y-602263000D02*
X286340000Y-599943000D01*
X286300000Y-607024000D02*
X286300000Y-604745000D01*
X286300000Y-602263000D02*
X286300000Y-599984000D01*
X286260000Y-606982000D02*
X286260000Y-604745000D01*
X286260000Y-602263000D02*
X286260000Y-600026000D01*
X286220000Y-606940000D02*
X286220000Y-600068000D01*
X286180000Y-606896000D02*
X286180000Y-600112000D01*
X286140000Y-606851000D02*
X286140000Y-600157000D01*
X286100000Y-606805000D02*
X286100000Y-600203000D01*
X286060000Y-606758000D02*
X286060000Y-600250000D01*
X286020000Y-606710000D02*
X286020000Y-600298000D01*
X285980000Y-606660000D02*
X285980000Y-600348000D01*
X285940000Y-606610000D02*
X285940000Y-600398000D01*
X285900000Y-606558000D02*
X285900000Y-600450000D01*
X285860000Y-606504000D02*
X285860000Y-600504000D01*
X285820000Y-606449000D02*
X285820000Y-600559000D01*
X285780000Y-606393000D02*
X285780000Y-600615000D01*
X285740000Y-606334000D02*
X285740000Y-600674000D01*
X285700000Y-606274000D02*
X285700000Y-600734000D01*
X285660000Y-606213000D02*
X285660000Y-600795000D01*
X285620000Y-606149000D02*
X285620000Y-600859000D01*
X285580000Y-606083000D02*
X285580000Y-600925000D01*
X285540000Y-606014000D02*
X285540000Y-600994000D01*
X285500000Y-605943000D02*
X285500000Y-601065000D01*
X285460000Y-605869000D02*
X285460000Y-601139000D01*
X285420000Y-605793000D02*
X285420000Y-601215000D01*
X285380000Y-605713000D02*
X285380000Y-601295000D01*
X285340000Y-605629000D02*
X285340000Y-601379000D01*
X285300000Y-605541000D02*
X285300000Y-601467000D01*
X285260000Y-605448000D02*
X285260000Y-601560000D01*
X285220000Y-605350000D02*
X285220000Y-601658000D01*
X285180000Y-605246000D02*
X285180000Y-601762000D01*
X285140000Y-605134000D02*
X285140000Y-601874000D01*
X285100000Y-605014000D02*
X285100000Y-601994000D01*
X285060000Y-604882000D02*
X285060000Y-602126000D01*
X285020000Y-604734000D02*
X285020000Y-602274000D01*
X284980000Y-604566000D02*
X284980000Y-602442000D01*
X284940000Y-604366000D02*
X284940000Y-602642000D01*
X284900000Y-604103000D02*
X284900000Y-602905000D01*
X295460646Y-606379000D02*
X294460646Y-606379000D01*
X294960646Y-606879000D02*
X294960646Y-605879000D01*
%TO.C,D1*%
X288990000Y-577217000D02*
X285050000Y-577217000D01*
X285050000Y-577217000D02*
X285050000Y-586357000D01*
X285050000Y-586357000D02*
X288990000Y-586357000D01*
X288990000Y-586357000D02*
X288990000Y-577217000D01*
X287020000Y-577077000D02*
X287020000Y-577217000D01*
X287020000Y-586497000D02*
X287020000Y-586357000D01*
X288990000Y-578672000D02*
X285050000Y-578672000D01*
X288990000Y-578792000D02*
X285050000Y-578792000D01*
X288990000Y-578552000D02*
X285050000Y-578552000D01*
%TO.C,U2*%
X284948000Y-591979000D02*
X295188000Y-591979000D01*
X284948000Y-596620000D02*
X295188000Y-596620000D01*
X284948000Y-591979000D02*
X284948000Y-596620000D01*
X295188000Y-591979000D02*
X295188000Y-596620000D01*
X284948000Y-593489000D02*
X295188000Y-593489000D01*
X288218000Y-591979000D02*
X288218000Y-593489000D01*
X291919000Y-591979000D02*
X291919000Y-593489000D01*
%TO.C,J10*%
D12*
X288750476Y-573238380D02*
X288750476Y-573952666D01*
X288702857Y-574095523D01*
X288607619Y-574190761D01*
X288464761Y-574238380D01*
X288369523Y-574238380D01*
X289750476Y-574238380D02*
X289179047Y-574238380D01*
X289464761Y-574238380D02*
X289464761Y-573238380D01*
X289369523Y-573381238D01*
X289274285Y-573476476D01*
X289179047Y-573524095D01*
X290369523Y-573238380D02*
X290464761Y-573238380D01*
X290560000Y-573286000D01*
X290607619Y-573333619D01*
X290655238Y-573428857D01*
X290702857Y-573619333D01*
X290702857Y-573857428D01*
X290655238Y-574047904D01*
X290607619Y-574143142D01*
X290560000Y-574190761D01*
X290464761Y-574238380D01*
X290369523Y-574238380D01*
X290274285Y-574190761D01*
X290226666Y-574143142D01*
X290179047Y-574047904D01*
X290131428Y-573857428D01*
X290131428Y-573619333D01*
X290179047Y-573428857D01*
X290226666Y-573333619D01*
X290274285Y-573286000D01*
X290369523Y-573238380D01*
%TO.C,J5*%
X317928666Y-606512380D02*
X317928666Y-607226666D01*
X317881047Y-607369523D01*
X317785809Y-607464761D01*
X317642952Y-607512380D01*
X317547714Y-607512380D01*
X318881047Y-606512380D02*
X318404857Y-606512380D01*
X318357238Y-606988571D01*
X318404857Y-606940952D01*
X318500095Y-606893333D01*
X318738190Y-606893333D01*
X318833428Y-606940952D01*
X318881047Y-606988571D01*
X318928666Y-607083809D01*
X318928666Y-607321904D01*
X318881047Y-607417142D01*
X318833428Y-607464761D01*
X318738190Y-607512380D01*
X318500095Y-607512380D01*
X318404857Y-607464761D01*
X318357238Y-607417142D01*
%TO.C,.*%
X363855000Y-569317142D02*
X363902619Y-569364761D01*
X363855000Y-569412380D01*
X363807380Y-569364761D01*
X363855000Y-569317142D01*
X363855000Y-569412380D01*
X299085000Y-602201142D02*
X299132619Y-602248761D01*
X299085000Y-602296380D01*
X299037380Y-602248761D01*
X299085000Y-602201142D01*
X299085000Y-602296380D01*
X363220000Y-602201142D02*
X363267619Y-602248761D01*
X363220000Y-602296380D01*
X363172380Y-602248761D01*
X363220000Y-602201142D01*
X363220000Y-602296380D01*
X300990000Y-569952142D02*
X301037619Y-569999761D01*
X300990000Y-570047380D01*
X300942380Y-569999761D01*
X300990000Y-569952142D01*
X300990000Y-570047380D01*
%TO.C,J8*%
X358227380Y-564594333D02*
X358941666Y-564594333D01*
X359084523Y-564641952D01*
X359179761Y-564737190D01*
X359227380Y-564880047D01*
X359227380Y-564975285D01*
X358655952Y-563975285D02*
X358608333Y-564070523D01*
X358560714Y-564118142D01*
X358465476Y-564165761D01*
X358417857Y-564165761D01*
X358322619Y-564118142D01*
X358275000Y-564070523D01*
X358227380Y-563975285D01*
X358227380Y-563784809D01*
X358275000Y-563689571D01*
X358322619Y-563641952D01*
X358417857Y-563594333D01*
X358465476Y-563594333D01*
X358560714Y-563641952D01*
X358608333Y-563689571D01*
X358655952Y-563784809D01*
X358655952Y-563975285D01*
X358703571Y-564070523D01*
X358751190Y-564118142D01*
X358846428Y-564165761D01*
X359036904Y-564165761D01*
X359132142Y-564118142D01*
X359179761Y-564070523D01*
X359227380Y-563975285D01*
X359227380Y-563784809D01*
X359179761Y-563689571D01*
X359132142Y-563641952D01*
X359036904Y-563594333D01*
X358846428Y-563594333D01*
X358751190Y-563641952D01*
X358703571Y-563689571D01*
X358655952Y-563784809D01*
%TO.C,U1*%
X313302381Y-585251905D02*
X314111905Y-585251905D01*
X314207143Y-585204286D01*
X314254762Y-585156667D01*
X314302381Y-585061429D01*
X314302381Y-584870953D01*
X314254762Y-584775715D01*
X314207143Y-584728096D01*
X314111905Y-584680477D01*
X313302381Y-584680477D01*
X314302381Y-583680477D02*
X314302381Y-584251905D01*
X314302381Y-583966191D02*
X313302381Y-583966191D01*
X313445239Y-584061429D01*
X313540477Y-584156667D01*
X313588096Y-584251905D01*
%TO.C,J1*%
X342562380Y-602567333D02*
X343276666Y-602567333D01*
X343419523Y-602614952D01*
X343514761Y-602710190D01*
X343562380Y-602853047D01*
X343562380Y-602948285D01*
X343562380Y-601567333D02*
X343562380Y-602138761D01*
X343562380Y-601853047D02*
X342562380Y-601853047D01*
X342705238Y-601948285D01*
X342800476Y-602043523D01*
X342848095Y-602138761D01*
%TO.C,J2*%
X347940380Y-602567333D02*
X348654666Y-602567333D01*
X348797523Y-602614952D01*
X348892761Y-602710190D01*
X348940380Y-602853047D01*
X348940380Y-602948285D01*
X348035619Y-602138761D02*
X347988000Y-602091142D01*
X347940380Y-601995904D01*
X347940380Y-601757809D01*
X347988000Y-601662571D01*
X348035619Y-601614952D01*
X348130857Y-601567333D01*
X348226095Y-601567333D01*
X348368952Y-601614952D01*
X348940380Y-602186380D01*
X348940380Y-601567333D01*
%TO.C,J3*%
X295362380Y-585549333D02*
X296076666Y-585549333D01*
X296219523Y-585596952D01*
X296314761Y-585692190D01*
X296362380Y-585835047D01*
X296362380Y-585930285D01*
X295362380Y-585168380D02*
X295362380Y-584549333D01*
X295743333Y-584882666D01*
X295743333Y-584739809D01*
X295790952Y-584644571D01*
X295838571Y-584596952D01*
X295933809Y-584549333D01*
X296171904Y-584549333D01*
X296267142Y-584596952D01*
X296314761Y-584644571D01*
X296362380Y-584739809D01*
X296362380Y-585025523D01*
X296314761Y-585120761D01*
X296267142Y-585168380D01*
%TO.C,J4*%
X295362380Y-598757333D02*
X296076666Y-598757333D01*
X296219523Y-598804952D01*
X296314761Y-598900190D01*
X296362380Y-599043047D01*
X296362380Y-599138285D01*
X295695714Y-597852571D02*
X296362380Y-597852571D01*
X295314761Y-598090666D02*
X296029047Y-598328761D01*
X296029047Y-597709714D01*
%TO.C,J6*%
X301926666Y-570952380D02*
X301926666Y-571666666D01*
X301879047Y-571809523D01*
X301783809Y-571904761D01*
X301640952Y-571952380D01*
X301545714Y-571952380D01*
X302831428Y-570952380D02*
X302640952Y-570952380D01*
X302545714Y-571000000D01*
X302498095Y-571047619D01*
X302402857Y-571190476D01*
X302355238Y-571380952D01*
X302355238Y-571761904D01*
X302402857Y-571857142D01*
X302450476Y-571904761D01*
X302545714Y-571952380D01*
X302736190Y-571952380D01*
X302831428Y-571904761D01*
X302879047Y-571857142D01*
X302926666Y-571761904D01*
X302926666Y-571523809D01*
X302879047Y-571428571D01*
X302831428Y-571380952D01*
X302736190Y-571333333D01*
X302545714Y-571333333D01*
X302450476Y-571380952D01*
X302402857Y-571428571D01*
X302355238Y-571523809D01*
%TO.C,J7*%
X295576666Y-570952380D02*
X295576666Y-571666666D01*
X295529047Y-571809523D01*
X295433809Y-571904761D01*
X295290952Y-571952380D01*
X295195714Y-571952380D01*
X295957619Y-570952380D02*
X296624285Y-570952380D01*
X296195714Y-571952380D01*
%TO.C,R1*%
X336002333Y-605734380D02*
X335669000Y-605258190D01*
X335430904Y-605734380D02*
X335430904Y-604734380D01*
X335811857Y-604734380D01*
X335907095Y-604782000D01*
X335954714Y-604829619D01*
X336002333Y-604924857D01*
X336002333Y-605067714D01*
X335954714Y-605162952D01*
X335907095Y-605210571D01*
X335811857Y-605258190D01*
X335430904Y-605258190D01*
X336954714Y-605734380D02*
X336383285Y-605734380D01*
X336669000Y-605734380D02*
X336669000Y-604734380D01*
X336573761Y-604877238D01*
X336478523Y-604972476D01*
X336383285Y-605020095D01*
X338320190Y-605067714D02*
X338320190Y-605734380D01*
X338082095Y-604686761D02*
X337844000Y-605401047D01*
X338463047Y-605401047D01*
X338891619Y-605686761D02*
X338891619Y-605734380D01*
X338844000Y-605829619D01*
X338796380Y-605877238D01*
X339224952Y-604734380D02*
X339891619Y-604734380D01*
X339463047Y-605734380D01*
X340272571Y-605734380D02*
X340272571Y-604734380D01*
X340844000Y-605734380D02*
X340415428Y-605162952D01*
X340844000Y-604734380D02*
X340272571Y-605305809D01*
%TO.C,R2*%
X305872380Y-591986666D02*
X305396190Y-592320000D01*
X305872380Y-592558095D02*
X304872380Y-592558095D01*
X304872380Y-592177142D01*
X304920000Y-592081904D01*
X304967619Y-592034285D01*
X305062857Y-591986666D01*
X305205714Y-591986666D01*
X305300952Y-592034285D01*
X305348571Y-592081904D01*
X305396190Y-592177142D01*
X305396190Y-592558095D01*
X304967619Y-591605714D02*
X304920000Y-591558095D01*
X304872380Y-591462857D01*
X304872380Y-591224761D01*
X304920000Y-591129523D01*
X304967619Y-591081904D01*
X305062857Y-591034285D01*
X305158095Y-591034285D01*
X305300952Y-591081904D01*
X305872380Y-591653333D01*
X305872380Y-591034285D01*
X308712380Y-593367619D02*
X308712380Y-592748571D01*
X309093333Y-593081904D01*
X309093333Y-592939047D01*
X309140952Y-592843809D01*
X309188571Y-592796190D01*
X309283809Y-592748571D01*
X309521904Y-592748571D01*
X309617142Y-592796190D01*
X309664761Y-592843809D01*
X309712380Y-592939047D01*
X309712380Y-593224761D01*
X309664761Y-593320000D01*
X309617142Y-593367619D01*
X309617142Y-592320000D02*
X309664761Y-592272380D01*
X309712380Y-592320000D01*
X309664761Y-592367619D01*
X309617142Y-592320000D01*
X309712380Y-592320000D01*
X308712380Y-591939047D02*
X308712380Y-591320000D01*
X309093333Y-591653333D01*
X309093333Y-591510476D01*
X309140952Y-591415238D01*
X309188571Y-591367619D01*
X309283809Y-591320000D01*
X309521904Y-591320000D01*
X309617142Y-591367619D01*
X309664761Y-591415238D01*
X309712380Y-591510476D01*
X309712380Y-591796190D01*
X309664761Y-591891428D01*
X309617142Y-591939047D01*
X309712380Y-590891428D02*
X308712380Y-590891428D01*
X309712380Y-590320000D02*
X309140952Y-590748571D01*
X308712380Y-590320000D02*
X309283809Y-590891428D01*
%TO.C,R3*%
X310983333Y-566222380D02*
X310650000Y-565746190D01*
X310411904Y-566222380D02*
X310411904Y-565222380D01*
X310792857Y-565222380D01*
X310888095Y-565270000D01*
X310935714Y-565317619D01*
X310983333Y-565412857D01*
X310983333Y-565555714D01*
X310935714Y-565650952D01*
X310888095Y-565698571D01*
X310792857Y-565746190D01*
X310411904Y-565746190D01*
X311316666Y-565222380D02*
X311935714Y-565222380D01*
X311602380Y-565603333D01*
X311745238Y-565603333D01*
X311840476Y-565650952D01*
X311888095Y-565698571D01*
X311935714Y-565793809D01*
X311935714Y-566031904D01*
X311888095Y-566127142D01*
X311840476Y-566174761D01*
X311745238Y-566222380D01*
X311459523Y-566222380D01*
X311364285Y-566174761D01*
X311316666Y-566127142D01*
X310459523Y-570062380D02*
X309888095Y-570062380D01*
X310173809Y-570062380D02*
X310173809Y-569062380D01*
X310078571Y-569205238D01*
X309983333Y-569300476D01*
X309888095Y-569348095D01*
X311078571Y-569062380D02*
X311173809Y-569062380D01*
X311269047Y-569110000D01*
X311316666Y-569157619D01*
X311364285Y-569252857D01*
X311411904Y-569443333D01*
X311411904Y-569681428D01*
X311364285Y-569871904D01*
X311316666Y-569967142D01*
X311269047Y-570014761D01*
X311173809Y-570062380D01*
X311078571Y-570062380D01*
X310983333Y-570014761D01*
X310935714Y-569967142D01*
X310888095Y-569871904D01*
X310840476Y-569681428D01*
X310840476Y-569443333D01*
X310888095Y-569252857D01*
X310935714Y-569157619D01*
X310983333Y-569110000D01*
X311078571Y-569062380D01*
X311840476Y-570062380D02*
X311840476Y-569062380D01*
X312411904Y-570062380D02*
X311983333Y-569490952D01*
X312411904Y-569062380D02*
X311840476Y-569633809D01*
%TO.C,R4*%
X330795333Y-564840380D02*
X330462000Y-564364190D01*
X330223904Y-564840380D02*
X330223904Y-563840380D01*
X330604857Y-563840380D01*
X330700095Y-563888000D01*
X330747714Y-563935619D01*
X330795333Y-564030857D01*
X330795333Y-564173714D01*
X330747714Y-564268952D01*
X330700095Y-564316571D01*
X330604857Y-564364190D01*
X330223904Y-564364190D01*
X331652476Y-564173714D02*
X331652476Y-564840380D01*
X331414380Y-563792761D02*
X331176285Y-564507047D01*
X331795333Y-564507047D01*
X328461714Y-568792380D02*
X327890285Y-568792380D01*
X328176000Y-568792380D02*
X328176000Y-567792380D01*
X328080761Y-567935238D01*
X327985523Y-568030476D01*
X327890285Y-568078095D01*
X328890285Y-568792380D02*
X328890285Y-567792380D01*
X329461714Y-568792380D02*
X329033142Y-568220952D01*
X329461714Y-567792380D02*
X328890285Y-568363809D01*
%TO.C,R5*%
X341463333Y-564952380D02*
X341130000Y-564476190D01*
X340891904Y-564952380D02*
X340891904Y-563952380D01*
X341272857Y-563952380D01*
X341368095Y-564000000D01*
X341415714Y-564047619D01*
X341463333Y-564142857D01*
X341463333Y-564285714D01*
X341415714Y-564380952D01*
X341368095Y-564428571D01*
X341272857Y-564476190D01*
X340891904Y-564476190D01*
X342368095Y-563952380D02*
X341891904Y-563952380D01*
X341844285Y-564428571D01*
X341891904Y-564380952D01*
X341987142Y-564333333D01*
X342225238Y-564333333D01*
X342320476Y-564380952D01*
X342368095Y-564428571D01*
X342415714Y-564523809D01*
X342415714Y-564761904D01*
X342368095Y-564857142D01*
X342320476Y-564904761D01*
X342225238Y-564952380D01*
X341987142Y-564952380D01*
X341891904Y-564904761D01*
X341844285Y-564857142D01*
X344400285Y-567999619D02*
X344447904Y-567952000D01*
X344543142Y-567904380D01*
X344781238Y-567904380D01*
X344876476Y-567952000D01*
X344924095Y-567999619D01*
X344971714Y-568094857D01*
X344971714Y-568190095D01*
X344924095Y-568332952D01*
X344352666Y-568904380D01*
X344971714Y-568904380D01*
X345400285Y-568904380D02*
X345400285Y-567904380D01*
X345971714Y-568904380D02*
X345543142Y-568332952D01*
X345971714Y-567904380D02*
X345400285Y-568475809D01*
%TO.C,SW1*%
X325314761Y-567753333D02*
X325362380Y-567610476D01*
X325362380Y-567372380D01*
X325314761Y-567277142D01*
X325267142Y-567229523D01*
X325171904Y-567181904D01*
X325076666Y-567181904D01*
X324981428Y-567229523D01*
X324933809Y-567277142D01*
X324886190Y-567372380D01*
X324838571Y-567562857D01*
X324790952Y-567658095D01*
X324743333Y-567705714D01*
X324648095Y-567753333D01*
X324552857Y-567753333D01*
X324457619Y-567705714D01*
X324410000Y-567658095D01*
X324362380Y-567562857D01*
X324362380Y-567324761D01*
X324410000Y-567181904D01*
X324362380Y-566848571D02*
X325362380Y-566610476D01*
X324648095Y-566420000D01*
X325362380Y-566229523D01*
X324362380Y-565991428D01*
X325362380Y-565086666D02*
X325362380Y-565658095D01*
X325362380Y-565372380D02*
X324362380Y-565372380D01*
X324505238Y-565467619D01*
X324600476Y-565562857D01*
X324648095Y-565658095D01*
%TO.C,T1*%
X339685380Y-607440904D02*
X339685380Y-606869476D01*
X340685380Y-607155190D02*
X339685380Y-607155190D01*
X340685380Y-606012333D02*
X340685380Y-606583761D01*
X340685380Y-606298047D02*
X339685380Y-606298047D01*
X339828238Y-606393285D01*
X339923476Y-606488523D01*
X339971095Y-606583761D01*
%TO.C,J9*%
X336589619Y-601138666D02*
X335875333Y-601138666D01*
X335732476Y-601091047D01*
X335637238Y-600995809D01*
X335589619Y-600852952D01*
X335589619Y-600757714D01*
X335589619Y-601662476D02*
X335589619Y-601852952D01*
X335637238Y-601948190D01*
X335684857Y-601995809D01*
X335827714Y-602091047D01*
X336018190Y-602138666D01*
X336399142Y-602138666D01*
X336494380Y-602091047D01*
X336542000Y-602043428D01*
X336589619Y-601948190D01*
X336589619Y-601757714D01*
X336542000Y-601662476D01*
X336494380Y-601614857D01*
X336399142Y-601567238D01*
X336161047Y-601567238D01*
X336065809Y-601614857D01*
X336018190Y-601662476D01*
X335970571Y-601757714D01*
X335970571Y-601948190D01*
X336018190Y-602043428D01*
X336065809Y-602091047D01*
X336161047Y-602138666D01*
%TO.C,C1*%
X284948333Y-608179142D02*
X284900714Y-608226761D01*
X284757857Y-608274380D01*
X284662619Y-608274380D01*
X284519761Y-608226761D01*
X284424523Y-608131523D01*
X284376904Y-608036285D01*
X284329285Y-607845809D01*
X284329285Y-607702952D01*
X284376904Y-607512476D01*
X284424523Y-607417238D01*
X284519761Y-607322000D01*
X284662619Y-607274380D01*
X284757857Y-607274380D01*
X284900714Y-607322000D01*
X284948333Y-607369619D01*
X285900714Y-608274380D02*
X285329285Y-608274380D01*
X285615000Y-608274380D02*
X285615000Y-607274380D01*
X285519761Y-607417238D01*
X285424523Y-607512476D01*
X285329285Y-607560095D01*
%TO.C,D1*%
X290442380Y-582525095D02*
X289442380Y-582525095D01*
X289442380Y-582287000D01*
X289490000Y-582144142D01*
X289585238Y-582048904D01*
X289680476Y-582001285D01*
X289870952Y-581953666D01*
X290013809Y-581953666D01*
X290204285Y-582001285D01*
X290299523Y-582048904D01*
X290394761Y-582144142D01*
X290442380Y-582287000D01*
X290442380Y-582525095D01*
X290442380Y-581001285D02*
X290442380Y-581572714D01*
X290442380Y-581287000D02*
X289442380Y-581287000D01*
X289585238Y-581382238D01*
X289680476Y-581477476D01*
X289728095Y-581572714D01*
X289872380Y-575698904D02*
X288872380Y-575698904D01*
X289872380Y-575127476D02*
X289300952Y-575556047D01*
X288872380Y-575127476D02*
X289443809Y-575698904D01*
%TO.C,U2*%
X290830095Y-590510380D02*
X290830095Y-591319904D01*
X290877714Y-591415142D01*
X290925333Y-591462761D01*
X291020571Y-591510380D01*
X291211047Y-591510380D01*
X291306285Y-591462761D01*
X291353904Y-591415142D01*
X291401523Y-591319904D01*
X291401523Y-590510380D01*
X291830095Y-590605619D02*
X291877714Y-590558000D01*
X291972952Y-590510380D01*
X292211047Y-590510380D01*
X292306285Y-590558000D01*
X292353904Y-590605619D01*
X292401523Y-590700857D01*
X292401523Y-590796095D01*
X292353904Y-590938952D01*
X291782476Y-591510380D01*
X292401523Y-591510380D01*
%TD*%
M02*
