%TF.GenerationSoftware,KiCad,Pcbnew,(5.1.9)-1*%
%TF.CreationDate,2021-03-23T13:14:46+01:00*%
%TF.ProjectId,EnvMonitor,456e764d-6f6e-4697-946f-722e6b696361,rev?*%
%TF.SameCoordinates,Original*%
%TF.FileFunction,Copper,L2,Bot*%
%TF.FilePolarity,Positive*%
%FSLAX46Y46*%
G04 Gerber Fmt 4.6, Leading zero omitted, Abs format (unit mm)*
G04 Created by KiCad (PCBNEW (5.1.9)-1) date 2021-03-23 13:14:46*
%MOMM*%
%LPD*%
G01*
G04 APERTURE LIST*
%TA.AperFunction,ComponentPad*%
%ADD10R,3.000000X3.000000*%
%TD*%
%TA.AperFunction,ComponentPad*%
%ADD11C,3.000000*%
%TD*%
%TA.AperFunction,ComponentPad*%
%ADD12O,1.700000X1.700000*%
%TD*%
%TA.AperFunction,ComponentPad*%
%ADD13R,1.700000X1.700000*%
%TD*%
%TA.AperFunction,ComponentPad*%
%ADD14O,1.200000X2.000000*%
%TD*%
%TA.AperFunction,ComponentPad*%
%ADD15C,1.400000*%
%TD*%
%TA.AperFunction,ComponentPad*%
%ADD16O,1.400000X1.400000*%
%TD*%
%TA.AperFunction,ComponentPad*%
%ADD17R,1.800000X1.100000*%
%TD*%
%TA.AperFunction,ComponentPad*%
%ADD18R,2.000000X2.000000*%
%TD*%
%TA.AperFunction,ComponentPad*%
%ADD19C,2.000000*%
%TD*%
%TA.AperFunction,ComponentPad*%
%ADD20R,2.800000X2.800000*%
%TD*%
%TA.AperFunction,ComponentPad*%
%ADD21O,2.800000X2.800000*%
%TD*%
%TA.AperFunction,ComponentPad*%
%ADD22R,1.905000X2.000000*%
%TD*%
%TA.AperFunction,ComponentPad*%
%ADD23O,1.905000X2.000000*%
%TD*%
%TA.AperFunction,Conductor*%
%ADD24C,0.250000*%
%TD*%
%TA.AperFunction,Conductor*%
%ADD25C,1.000000*%
%TD*%
%TA.AperFunction,Conductor*%
%ADD26C,0.500000*%
%TD*%
%TA.AperFunction,Conductor*%
%ADD27C,0.254000*%
%TD*%
%TA.AperFunction,Conductor*%
%ADD28C,0.100000*%
%TD*%
G04 APERTURE END LIST*
D10*
%TO.P,J10,1*%
%TO.N,GND*%
X292100000Y-568706000D03*
D11*
%TO.P,J10,2*%
%TO.N,+9V*%
X287020000Y-568706000D03*
%TD*%
D10*
%TO.P,J5,1*%
%TO.N,/VCC-DS18B20*%
X313690000Y-603758000D03*
D11*
%TO.P,J5,2*%
%TO.N,/GP13-1Wire*%
X318770000Y-603758000D03*
%TO.P,J5,3*%
%TO.N,GND*%
X323850000Y-603758000D03*
%TD*%
D12*
%TO.P,J8,4*%
%TO.N,/RxD*%
X349885000Y-566420000D03*
%TO.P,J8,3*%
%TO.N,/GP17-TxD*%
X352425000Y-566420000D03*
%TO.P,J8,2*%
%TO.N,+5V*%
X354965000Y-566420000D03*
D13*
%TO.P,J8,1*%
%TO.N,GND*%
X357505000Y-566420000D03*
%TD*%
D14*
%TO.P,U1,19*%
%TO.N,+5V*%
X361670001Y-597190001D03*
%TO.P,U1,20*%
%TO.N,Net-(U1-Pad20)*%
X361670001Y-571790001D03*
%TO.P,U1,18*%
%TO.N,Net-(U1-Pad18)*%
X359130001Y-597190001D03*
%TO.P,U1,21*%
%TO.N,Net-(U1-Pad21)*%
X359130001Y-571790001D03*
%TO.P,U1,17*%
%TO.N,Net-(U1-Pad17)*%
X356590001Y-597190001D03*
%TO.P,U1,22*%
%TO.N,Net-(U1-Pad22)*%
X356590001Y-571790001D03*
%TO.P,U1,16*%
%TO.N,Net-(U1-Pad16)*%
X354050001Y-597190001D03*
%TO.P,U1,23*%
%TO.N,/GP15-Btn*%
X354050001Y-571790001D03*
%TO.P,U1,15*%
%TO.N,/GP13-1Wire*%
X351510001Y-597190001D03*
%TO.P,U1,24*%
%TO.N,Net-(U1-Pad24)*%
X351510001Y-571790001D03*
%TO.P,U1,14*%
%TO.N,GND*%
X348970001Y-597190001D03*
%TO.P,U1,25*%
%TO.N,Net-(U1-Pad25)*%
X348970001Y-571790001D03*
%TO.P,U1,13*%
%TO.N,Net-(U1-Pad13)*%
X346430001Y-597190001D03*
%TO.P,U1,26*%
%TO.N,Net-(U1-Pad26)*%
X346430001Y-571790001D03*
%TO.P,U1,12*%
%TO.N,Net-(U1-Pad12)*%
X343890001Y-597190001D03*
%TO.P,U1,27*%
%TO.N,Net-(R4-Pad2)*%
X343890001Y-571790001D03*
%TO.P,U1,11*%
%TO.N,/GP27-Relay*%
X341350001Y-597190001D03*
%TO.P,U1,28*%
%TO.N,/GP17-TxD*%
X341350001Y-571790001D03*
%TO.P,U1,10*%
%TO.N,Net-(R1-Pad2)*%
X338810001Y-597190001D03*
%TO.P,U1,29*%
%TO.N,Net-(U1-Pad29)*%
X338810001Y-571790001D03*
%TO.P,U1,9*%
%TO.N,Net-(U1-Pad9)*%
X336270001Y-597190001D03*
%TO.P,U1,30*%
%TO.N,Net-(U1-Pad30)*%
X336270001Y-571790001D03*
%TO.P,U1,8*%
%TO.N,Net-(U1-Pad8)*%
X333730001Y-597190001D03*
%TO.P,U1,31*%
%TO.N,Net-(U1-Pad31)*%
X333730001Y-571790001D03*
%TO.P,U1,7*%
%TO.N,/GP32*%
X331190001Y-597190001D03*
%TO.P,U1,32*%
%TO.N,GND*%
X331190001Y-571790001D03*
%TO.P,U1,6*%
%TO.N,Net-(U1-Pad6)*%
X328650001Y-597190001D03*
%TO.P,U1,33*%
%TO.N,/GP21-SDA*%
X328650001Y-571790001D03*
%TO.P,U1,5*%
%TO.N,Net-(U1-Pad5)*%
X326110001Y-597190001D03*
%TO.P,U1,34*%
%TO.N,Net-(U1-Pad34)*%
X326110001Y-571790001D03*
%TO.P,U1,4*%
%TO.N,Net-(U1-Pad4)*%
X323570001Y-597190001D03*
%TO.P,U1,35*%
%TO.N,Net-(U1-Pad35)*%
X323570001Y-571790001D03*
%TO.P,U1,3*%
%TO.N,Net-(U1-Pad3)*%
X321030001Y-597190001D03*
%TO.P,U1,36*%
%TO.N,/GP22-SCL*%
X321030001Y-571790001D03*
%TO.P,U1,2*%
%TO.N,Net-(U1-Pad2)*%
X318490001Y-597190001D03*
%TO.P,U1,37*%
%TO.N,Net-(U1-Pad37)*%
X318490001Y-571790001D03*
%TO.P,U1,1*%
%TO.N,+3V3*%
X315950001Y-597190001D03*
%TO.P,U1,38*%
%TO.N,GND*%
X315950001Y-571790001D03*
%TD*%
D13*
%TO.P,J1,1*%
%TO.N,Net-(J1-Pad1)*%
X345440000Y-602234000D03*
D12*
%TO.P,J1,2*%
%TO.N,+5V*%
X347980000Y-602234000D03*
%TD*%
%TO.P,J2,3*%
%TO.N,+5V*%
X357378000Y-602234000D03*
%TO.P,J2,2*%
%TO.N,/GP27-Relay*%
X354838000Y-602234000D03*
D13*
%TO.P,J2,1*%
%TO.N,GND*%
X352298000Y-602234000D03*
%TD*%
%TO.P,J3,1*%
%TO.N,/VCC-DS18B20*%
X298450000Y-585216000D03*
D12*
%TO.P,J3,2*%
%TO.N,/GP13-1Wire*%
X300990000Y-585216000D03*
%TO.P,J3,3*%
%TO.N,GND*%
X303530000Y-585216000D03*
%TD*%
%TO.P,J4,3*%
%TO.N,GND*%
X303530000Y-598424000D03*
%TO.P,J4,2*%
%TO.N,/GP13-1Wire*%
X300990000Y-598424000D03*
D13*
%TO.P,J4,1*%
%TO.N,/VCC-DS18B20*%
X298450000Y-598424000D03*
%TD*%
D12*
%TO.P,J6,4*%
%TO.N,/GP21-SDA*%
X304800000Y-580390000D03*
%TO.P,J6,3*%
%TO.N,/GP22-SCL*%
X304800000Y-577850000D03*
%TO.P,J6,2*%
%TO.N,GND*%
X304800000Y-575310000D03*
D13*
%TO.P,J6,1*%
%TO.N,+3V3*%
X304800000Y-572770000D03*
%TD*%
%TO.P,J7,1*%
%TO.N,+3V3*%
X298450000Y-572770000D03*
D12*
%TO.P,J7,2*%
%TO.N,GND*%
X298450000Y-575310000D03*
%TO.P,J7,3*%
%TO.N,/GP22-SCL*%
X298450000Y-577850000D03*
%TO.P,J7,4*%
%TO.N,/GP21-SDA*%
X298450000Y-580390000D03*
%TD*%
D15*
%TO.P,R1,1*%
%TO.N,Net-(R1-Pad1)*%
X342900000Y-607060000D03*
D16*
%TO.P,R1,2*%
%TO.N,Net-(R1-Pad2)*%
X335280000Y-607060000D03*
%TD*%
%TO.P,R2,2*%
%TO.N,/GP13-1Wire*%
X307340000Y-588010000D03*
D15*
%TO.P,R2,1*%
%TO.N,/VCC-DS18B20*%
X307340000Y-595630000D03*
%TD*%
%TO.P,R3,1*%
%TO.N,/GP15-Btn*%
X307340000Y-567690000D03*
D16*
%TO.P,R3,2*%
%TO.N,GND*%
X314960000Y-567690000D03*
%TD*%
%TO.P,R4,2*%
%TO.N,Net-(R4-Pad2)*%
X334010000Y-566420000D03*
D15*
%TO.P,R4,1*%
%TO.N,/RxD*%
X326390000Y-566420000D03*
%TD*%
%TO.P,R5,1*%
%TO.N,GND*%
X337820000Y-566420000D03*
D16*
%TO.P,R5,2*%
%TO.N,Net-(R4-Pad2)*%
X345440000Y-566420000D03*
%TD*%
D12*
%TO.P,SW1,2*%
%TO.N,/GP15-Btn*%
X320040000Y-566420000D03*
D13*
%TO.P,SW1,1*%
%TO.N,+3V3*%
X322580000Y-566420000D03*
%TD*%
D17*
%TO.P,T1,1*%
%TO.N,Net-(J1-Pad1)*%
X341268000Y-603504000D03*
%TO.P,T1,3*%
%TO.N,GND*%
%TA.AperFunction,ComponentPad*%
G36*
G01*
X341893000Y-601514000D02*
X340643000Y-601514000D01*
G75*
G02*
X340368000Y-601239000I0J275000D01*
G01*
X340368000Y-600689000D01*
G75*
G02*
X340643000Y-600414000I275000J0D01*
G01*
X341893000Y-600414000D01*
G75*
G02*
X342168000Y-600689000I0J-275000D01*
G01*
X342168000Y-601239000D01*
G75*
G02*
X341893000Y-601514000I-275000J0D01*
G01*
G37*
%TD.AperFunction*%
%TO.P,T1,2*%
%TO.N,Net-(R1-Pad1)*%
%TA.AperFunction,ComponentPad*%
G36*
G01*
X339823000Y-602784000D02*
X338573000Y-602784000D01*
G75*
G02*
X338298000Y-602509000I0J275000D01*
G01*
X338298000Y-601959000D01*
G75*
G02*
X338573000Y-601684000I275000J0D01*
G01*
X339823000Y-601684000D01*
G75*
G02*
X340098000Y-601959000I0J-275000D01*
G01*
X340098000Y-602509000D01*
G75*
G02*
X339823000Y-602784000I-275000J0D01*
G01*
G37*
%TD.AperFunction*%
%TD*%
D12*
%TO.P,J9,3*%
%TO.N,/GP32*%
X334010000Y-601472000D03*
%TO.P,J9,2*%
%TO.N,/VCC-DS18B20*%
X331470000Y-601472000D03*
D13*
%TO.P,J9,1*%
%TO.N,+3V3*%
X328930000Y-601472000D03*
%TD*%
D18*
%TO.P,C1,1*%
%TO.N,+5V*%
X292481000Y-603504000D03*
D19*
%TO.P,C1,2*%
%TO.N,GND*%
X287481000Y-603504000D03*
%TD*%
D20*
%TO.P,D1,1*%
%TO.N,+9V*%
X287020000Y-575437000D03*
D21*
%TO.P,D1,2*%
%TO.N,Net-(D1-Pad2)*%
X287020000Y-588137000D03*
%TD*%
D22*
%TO.P,U2,1*%
%TO.N,Net-(D1-Pad2)*%
X287528000Y-595249000D03*
D23*
%TO.P,U2,2*%
%TO.N,GND*%
X290068000Y-595249000D03*
%TO.P,U2,3*%
%TO.N,+5V*%
X292608000Y-595249000D03*
%TD*%
D24*
%TO.N,+5V*%
X293243000Y-603504000D02*
X292481000Y-603504000D01*
D25*
X292481000Y-603504000D02*
X292862000Y-603504000D01*
X302260000Y-601599000D02*
X308610000Y-607949000D01*
X294132000Y-603504000D02*
X296037000Y-601599000D01*
X296037000Y-601599000D02*
X302260000Y-601599000D01*
X292481000Y-603504000D02*
X294132000Y-603504000D01*
X333629000Y-605536000D02*
X331216000Y-607949000D01*
X346837000Y-605536000D02*
X333629000Y-605536000D01*
X347980000Y-604393000D02*
X346837000Y-605536000D01*
X347980000Y-602234000D02*
X347980000Y-604393000D01*
X308610000Y-607949000D02*
X331216000Y-607949000D01*
D24*
%TO.N,GND*%
X357505000Y-567055000D02*
X357505000Y-566420000D01*
D26*
X331190001Y-571790001D02*
X331190001Y-571017999D01*
X331190001Y-571017999D02*
X332486000Y-569722000D01*
X332486000Y-569722000D02*
X334264000Y-569722000D01*
X337566000Y-566420000D02*
X337820000Y-566420000D01*
X334264000Y-569722000D02*
X337566000Y-566420000D01*
X337820000Y-566420000D02*
X339471000Y-568071000D01*
X339471000Y-568071000D02*
X355981000Y-568071000D01*
X357505000Y-566547000D02*
X357505000Y-566420000D01*
X355981000Y-568071000D02*
X357505000Y-566547000D01*
X290068000Y-593090000D02*
X290068000Y-595249000D01*
X291084000Y-592074000D02*
X290068000Y-593090000D01*
X298577000Y-592074000D02*
X291084000Y-592074000D01*
X303530000Y-587121000D02*
X298577000Y-592074000D01*
X303530000Y-585216000D02*
X303530000Y-587121000D01*
D24*
%TO.N,/GP27-Relay*%
X341350001Y-597890001D02*
X341350001Y-597190001D01*
X354838000Y-601472000D02*
X354838000Y-602234000D01*
X353060000Y-599694000D02*
X354838000Y-601472000D01*
X343854000Y-599694000D02*
X353060000Y-599694000D01*
X341350001Y-597190001D02*
X343854000Y-599694000D01*
%TO.N,+3V3*%
X321404999Y-565244999D02*
X322580000Y-566420000D01*
X306610001Y-565244999D02*
X321404999Y-565244999D01*
X304800000Y-572770000D02*
X304800000Y-568325000D01*
X306610001Y-565244999D02*
X305975001Y-565244999D01*
X305975001Y-565244999D02*
X304800000Y-566420000D01*
X304800000Y-566420000D02*
X304800000Y-566667002D01*
X304800000Y-566420000D02*
X304800000Y-568325000D01*
X305816000Y-572770000D02*
X304800000Y-572770000D01*
D26*
X315950001Y-597190001D02*
X315950001Y-594258999D01*
X315950001Y-594258999D02*
X315976000Y-594233000D01*
X315976000Y-594233000D02*
X315976000Y-591947000D01*
X315976000Y-591947000D02*
X308610000Y-584581000D01*
X308610000Y-584581000D02*
X308610000Y-575818000D01*
X305562000Y-572770000D02*
X304800000Y-572770000D01*
X308610000Y-575818000D02*
X305562000Y-572770000D01*
D24*
%TO.N,/GP13-1Wire*%
X318770000Y-603758000D02*
X318770000Y-600456000D01*
X318770000Y-600456000D02*
X319913000Y-599313000D01*
X319913000Y-599313000D02*
X319913000Y-594995000D01*
X319913000Y-594995000D02*
X321310000Y-593598000D01*
X321310000Y-593598000D02*
X350139000Y-593598000D01*
X351510001Y-594969001D02*
X351510001Y-597190001D01*
X350139000Y-593598000D02*
X351510001Y-594969001D01*
%TO.N,/GP15-Btn*%
X320040000Y-566420000D02*
X323225011Y-569605011D01*
X324495011Y-573415011D02*
X327660000Y-576580000D01*
X327660000Y-576580000D02*
X350520000Y-576580000D01*
X354050001Y-573049999D02*
X354050001Y-571790001D01*
X350520000Y-576580000D02*
X354050001Y-573049999D01*
X323225011Y-569605011D02*
X323839989Y-569605011D01*
X323839989Y-569605011D02*
X323850000Y-569595000D01*
X323850000Y-569595000D02*
X324485000Y-570230000D01*
X324495011Y-571006850D02*
X324495011Y-573394989D01*
X324485000Y-570996839D02*
X324495011Y-571006850D01*
X324485000Y-570230000D02*
X324485000Y-570996839D01*
D26*
%TO.N,/VCC-DS18B20*%
X307340000Y-595630000D02*
X307340000Y-599821000D01*
X307340000Y-599821000D02*
X311277000Y-603758000D01*
X311277000Y-603758000D02*
X313690000Y-603758000D01*
X307340000Y-595630000D02*
X301117000Y-595630000D01*
X298450000Y-598297000D02*
X298450000Y-598424000D01*
X301117000Y-595630000D02*
X298450000Y-598297000D01*
%TD*%
D27*
%TO.N,GND*%
X366370001Y-609321000D02*
X283997000Y-609321000D01*
X283997000Y-605823872D01*
X296850000Y-605823872D01*
X296850000Y-606264128D01*
X296935890Y-606695925D01*
X297104369Y-607102669D01*
X297348962Y-607468729D01*
X297660271Y-607780038D01*
X298026331Y-608024631D01*
X298433075Y-608193110D01*
X298864872Y-608279000D01*
X299305128Y-608279000D01*
X299736925Y-608193110D01*
X300143669Y-608024631D01*
X300509729Y-607780038D01*
X300821038Y-607468729D01*
X301065631Y-607102669D01*
X301234110Y-606695925D01*
X301320000Y-606264128D01*
X301320000Y-605823872D01*
X301234110Y-605392075D01*
X301065631Y-604985331D01*
X300821038Y-604619271D01*
X300509729Y-604307962D01*
X300143669Y-604063369D01*
X299736925Y-603894890D01*
X299305128Y-603809000D01*
X298864872Y-603809000D01*
X298433075Y-603894890D01*
X298026331Y-604063369D01*
X297660271Y-604307962D01*
X297348962Y-604619271D01*
X297104369Y-604985331D01*
X296935890Y-605392075D01*
X296850000Y-605823872D01*
X283997000Y-605823872D01*
X283997000Y-604639413D01*
X286525192Y-604639413D01*
X286620956Y-604903814D01*
X286910571Y-605044704D01*
X287222108Y-605126384D01*
X287543595Y-605145718D01*
X287862675Y-605101961D01*
X288167088Y-604996795D01*
X288341044Y-604903814D01*
X288436808Y-604639413D01*
X287481000Y-603683605D01*
X286525192Y-604639413D01*
X283997000Y-604639413D01*
X283997000Y-603566595D01*
X285839282Y-603566595D01*
X285883039Y-603885675D01*
X285988205Y-604190088D01*
X286081186Y-604364044D01*
X286345587Y-604459808D01*
X287301395Y-603504000D01*
X287660605Y-603504000D01*
X288616413Y-604459808D01*
X288880814Y-604364044D01*
X289021704Y-604074429D01*
X289103384Y-603762892D01*
X289122718Y-603441405D01*
X289078961Y-603122325D01*
X288973795Y-602817912D01*
X288880814Y-602643956D01*
X288616413Y-602548192D01*
X287660605Y-603504000D01*
X287301395Y-603504000D01*
X286345587Y-602548192D01*
X286081186Y-602643956D01*
X285940296Y-602933571D01*
X285858616Y-603245108D01*
X285839282Y-603566595D01*
X283997000Y-603566595D01*
X283997000Y-602368587D01*
X286525192Y-602368587D01*
X287481000Y-603324395D01*
X288301395Y-602504000D01*
X290842928Y-602504000D01*
X290842928Y-604504000D01*
X290855188Y-604628482D01*
X290891498Y-604748180D01*
X290950463Y-604858494D01*
X291029815Y-604955185D01*
X291126506Y-605034537D01*
X291236820Y-605093502D01*
X291356518Y-605129812D01*
X291481000Y-605142072D01*
X293481000Y-605142072D01*
X293605482Y-605129812D01*
X293725180Y-605093502D01*
X293835494Y-605034537D01*
X293932185Y-604955185D01*
X294011537Y-604858494D01*
X294070502Y-604748180D01*
X294102827Y-604641618D01*
X294132000Y-604644491D01*
X294187751Y-604639000D01*
X294187752Y-604639000D01*
X294354499Y-604622577D01*
X294568447Y-604557676D01*
X294765623Y-604452284D01*
X294938449Y-604310449D01*
X294973996Y-604267135D01*
X296507132Y-602734000D01*
X301789869Y-602734000D01*
X307768009Y-608712141D01*
X307803551Y-608755449D01*
X307976377Y-608897284D01*
X308173553Y-609002676D01*
X308337705Y-609052471D01*
X308387500Y-609067577D01*
X308609999Y-609089491D01*
X308665751Y-609084000D01*
X331160249Y-609084000D01*
X331216000Y-609089491D01*
X331271751Y-609084000D01*
X331271752Y-609084000D01*
X331438499Y-609067577D01*
X331652447Y-609002676D01*
X331849623Y-608897284D01*
X332022449Y-608755449D01*
X332057996Y-608712135D01*
X333970671Y-606799461D01*
X333945000Y-606928514D01*
X333945000Y-607191486D01*
X333996304Y-607449405D01*
X334096939Y-607692359D01*
X334243038Y-607911013D01*
X334428987Y-608096962D01*
X334647641Y-608243061D01*
X334890595Y-608343696D01*
X335148514Y-608395000D01*
X335411486Y-608395000D01*
X335669405Y-608343696D01*
X335912359Y-608243061D01*
X336131013Y-608096962D01*
X336316962Y-607911013D01*
X336463061Y-607692359D01*
X336563696Y-607449405D01*
X336615000Y-607191486D01*
X336615000Y-606928514D01*
X336563777Y-606671000D01*
X341616223Y-606671000D01*
X341565000Y-606928514D01*
X341565000Y-607191486D01*
X341616304Y-607449405D01*
X341716939Y-607692359D01*
X341863038Y-607911013D01*
X342048987Y-608096962D01*
X342267641Y-608243061D01*
X342510595Y-608343696D01*
X342768514Y-608395000D01*
X343031486Y-608395000D01*
X343289405Y-608343696D01*
X343532359Y-608243061D01*
X343751013Y-608096962D01*
X343936962Y-607911013D01*
X344083061Y-607692359D01*
X344183696Y-607449405D01*
X344235000Y-607191486D01*
X344235000Y-606928514D01*
X344183777Y-606671000D01*
X346781249Y-606671000D01*
X346837000Y-606676491D01*
X346892751Y-606671000D01*
X346892752Y-606671000D01*
X347059499Y-606654577D01*
X347273447Y-606589676D01*
X347470623Y-606484284D01*
X347643449Y-606342449D01*
X347678996Y-606299136D01*
X348154260Y-605823872D01*
X360985000Y-605823872D01*
X360985000Y-606264128D01*
X361070890Y-606695925D01*
X361239369Y-607102669D01*
X361483962Y-607468729D01*
X361795271Y-607780038D01*
X362161331Y-608024631D01*
X362568075Y-608193110D01*
X362999872Y-608279000D01*
X363440128Y-608279000D01*
X363871925Y-608193110D01*
X364278669Y-608024631D01*
X364644729Y-607780038D01*
X364956038Y-607468729D01*
X365200631Y-607102669D01*
X365369110Y-606695925D01*
X365455000Y-606264128D01*
X365455000Y-605823872D01*
X365369110Y-605392075D01*
X365200631Y-604985331D01*
X364956038Y-604619271D01*
X364644729Y-604307962D01*
X364278669Y-604063369D01*
X363871925Y-603894890D01*
X363440128Y-603809000D01*
X362999872Y-603809000D01*
X362568075Y-603894890D01*
X362161331Y-604063369D01*
X361795271Y-604307962D01*
X361483962Y-604619271D01*
X361239369Y-604985331D01*
X361070890Y-605392075D01*
X360985000Y-605823872D01*
X348154260Y-605823872D01*
X348743140Y-605234992D01*
X348786449Y-605199449D01*
X348928284Y-605026623D01*
X349033676Y-604829447D01*
X349098577Y-604615499D01*
X349111693Y-604482325D01*
X349120491Y-604393001D01*
X349115000Y-604337249D01*
X349115000Y-603199107D01*
X349133475Y-603180632D01*
X349198042Y-603084000D01*
X350809928Y-603084000D01*
X350822188Y-603208482D01*
X350858498Y-603328180D01*
X350917463Y-603438494D01*
X350996815Y-603535185D01*
X351093506Y-603614537D01*
X351203820Y-603673502D01*
X351323518Y-603709812D01*
X351448000Y-603722072D01*
X352012250Y-603719000D01*
X352171000Y-603560250D01*
X352171000Y-602361000D01*
X350971750Y-602361000D01*
X350813000Y-602519750D01*
X350809928Y-603084000D01*
X349198042Y-603084000D01*
X349295990Y-602937411D01*
X349407932Y-602667158D01*
X349465000Y-602380260D01*
X349465000Y-602087740D01*
X349407932Y-601800842D01*
X349295990Y-601530589D01*
X349198043Y-601384000D01*
X350809928Y-601384000D01*
X350813000Y-601948250D01*
X350971750Y-602107000D01*
X352171000Y-602107000D01*
X352171000Y-600907750D01*
X352012250Y-600749000D01*
X351448000Y-600745928D01*
X351323518Y-600758188D01*
X351203820Y-600794498D01*
X351093506Y-600853463D01*
X350996815Y-600932815D01*
X350917463Y-601029506D01*
X350858498Y-601139820D01*
X350822188Y-601259518D01*
X350809928Y-601384000D01*
X349198043Y-601384000D01*
X349133475Y-601287368D01*
X348926632Y-601080525D01*
X348683411Y-600918010D01*
X348413158Y-600806068D01*
X348126260Y-600749000D01*
X347833740Y-600749000D01*
X347546842Y-600806068D01*
X347276589Y-600918010D01*
X347033368Y-601080525D01*
X346901513Y-601212380D01*
X346879502Y-601139820D01*
X346820537Y-601029506D01*
X346741185Y-600932815D01*
X346644494Y-600853463D01*
X346534180Y-600794498D01*
X346414482Y-600758188D01*
X346290000Y-600745928D01*
X344590000Y-600745928D01*
X344465518Y-600758188D01*
X344345820Y-600794498D01*
X344235506Y-600853463D01*
X344138815Y-600932815D01*
X344059463Y-601029506D01*
X344000498Y-601139820D01*
X343964188Y-601259518D01*
X343951928Y-601384000D01*
X343951928Y-603084000D01*
X343964188Y-603208482D01*
X344000498Y-603328180D01*
X344059463Y-603438494D01*
X344138815Y-603535185D01*
X344235506Y-603614537D01*
X344345820Y-603673502D01*
X344465518Y-603709812D01*
X344590000Y-603722072D01*
X346290000Y-603722072D01*
X346414482Y-603709812D01*
X346534180Y-603673502D01*
X346644494Y-603614537D01*
X346741185Y-603535185D01*
X346820537Y-603438494D01*
X346845001Y-603392727D01*
X346845001Y-603922868D01*
X346366869Y-604401000D01*
X342702543Y-604401000D01*
X342757502Y-604298180D01*
X342793812Y-604178482D01*
X342806072Y-604054000D01*
X342806072Y-602954000D01*
X342793812Y-602829518D01*
X342757502Y-602709820D01*
X342698537Y-602599506D01*
X342619185Y-602502815D01*
X342522494Y-602423463D01*
X342412180Y-602364498D01*
X342292482Y-602328188D01*
X342168000Y-602315928D01*
X340736072Y-602315928D01*
X340736072Y-602150231D01*
X340982250Y-602149000D01*
X341141000Y-601990250D01*
X341141000Y-601091000D01*
X341395000Y-601091000D01*
X341395000Y-601990250D01*
X341553750Y-602149000D01*
X342168000Y-602152072D01*
X342292482Y-602139812D01*
X342412180Y-602103502D01*
X342522494Y-602044537D01*
X342619185Y-601965185D01*
X342698537Y-601868494D01*
X342757502Y-601758180D01*
X342793812Y-601638482D01*
X342806072Y-601514000D01*
X342803000Y-601249750D01*
X342644250Y-601091000D01*
X341395000Y-601091000D01*
X341141000Y-601091000D01*
X340091880Y-601091000D01*
X340001132Y-601063472D01*
X339823000Y-601045928D01*
X338573000Y-601045928D01*
X338394868Y-601063472D01*
X338223582Y-601115431D01*
X338065724Y-601199808D01*
X337927361Y-601313361D01*
X337813808Y-601451724D01*
X337729431Y-601609582D01*
X337677472Y-601780868D01*
X337659928Y-601959000D01*
X337659928Y-602509000D01*
X337677472Y-602687132D01*
X337729431Y-602858418D01*
X337813808Y-603016276D01*
X337927361Y-603154639D01*
X338065724Y-603268192D01*
X338223582Y-603352569D01*
X338394868Y-603404528D01*
X338573000Y-603422072D01*
X339729928Y-603422072D01*
X339729928Y-604054000D01*
X339742188Y-604178482D01*
X339778498Y-604298180D01*
X339833457Y-604401000D01*
X333684741Y-604401000D01*
X333628999Y-604395510D01*
X333573257Y-604401000D01*
X333573248Y-604401000D01*
X333406501Y-604417423D01*
X333192553Y-604482324D01*
X332995377Y-604587716D01*
X332822551Y-604729551D01*
X332787011Y-604772857D01*
X330745869Y-606814000D01*
X309080132Y-606814000D01*
X303101996Y-600835865D01*
X303066449Y-600792551D01*
X302893623Y-600650716D01*
X302696447Y-600545324D01*
X302482499Y-600480423D01*
X302315752Y-600464000D01*
X302315751Y-600464000D01*
X302260000Y-600458509D01*
X302204249Y-600464000D01*
X296092752Y-600464000D01*
X296037000Y-600458509D01*
X295981248Y-600464000D01*
X295814501Y-600480423D01*
X295600553Y-600545324D01*
X295403377Y-600650716D01*
X295230551Y-600792551D01*
X295195009Y-600835859D01*
X293952860Y-602078008D01*
X293932185Y-602052815D01*
X293835494Y-601973463D01*
X293725180Y-601914498D01*
X293605482Y-601878188D01*
X293481000Y-601865928D01*
X291481000Y-601865928D01*
X291356518Y-601878188D01*
X291236820Y-601914498D01*
X291126506Y-601973463D01*
X291029815Y-602052815D01*
X290950463Y-602149506D01*
X290891498Y-602259820D01*
X290855188Y-602379518D01*
X290842928Y-602504000D01*
X288301395Y-602504000D01*
X288436808Y-602368587D01*
X288341044Y-602104186D01*
X288051429Y-601963296D01*
X287739892Y-601881616D01*
X287418405Y-601862282D01*
X287099325Y-601906039D01*
X286794912Y-602011205D01*
X286620956Y-602104186D01*
X286525192Y-602368587D01*
X283997000Y-602368587D01*
X283997000Y-597574000D01*
X296961928Y-597574000D01*
X296961928Y-599274000D01*
X296974188Y-599398482D01*
X297010498Y-599518180D01*
X297069463Y-599628494D01*
X297148815Y-599725185D01*
X297245506Y-599804537D01*
X297355820Y-599863502D01*
X297475518Y-599899812D01*
X297600000Y-599912072D01*
X299300000Y-599912072D01*
X299424482Y-599899812D01*
X299544180Y-599863502D01*
X299654494Y-599804537D01*
X299751185Y-599725185D01*
X299830537Y-599628494D01*
X299889502Y-599518180D01*
X299911513Y-599445620D01*
X300043368Y-599577475D01*
X300286589Y-599739990D01*
X300556842Y-599851932D01*
X300843740Y-599909000D01*
X301136260Y-599909000D01*
X301423158Y-599851932D01*
X301693411Y-599739990D01*
X301936632Y-599577475D01*
X302143475Y-599370632D01*
X302265195Y-599188466D01*
X302334822Y-599305355D01*
X302529731Y-599521588D01*
X302763080Y-599695641D01*
X303025901Y-599820825D01*
X303173110Y-599865476D01*
X303403000Y-599744155D01*
X303403000Y-598551000D01*
X303657000Y-598551000D01*
X303657000Y-599744155D01*
X303886890Y-599865476D01*
X304034099Y-599820825D01*
X304296920Y-599695641D01*
X304530269Y-599521588D01*
X304725178Y-599305355D01*
X304874157Y-599055252D01*
X304971481Y-598780891D01*
X304850814Y-598551000D01*
X303657000Y-598551000D01*
X303403000Y-598551000D01*
X303383000Y-598551000D01*
X303383000Y-598297000D01*
X303403000Y-598297000D01*
X303403000Y-597103845D01*
X303657000Y-597103845D01*
X303657000Y-598297000D01*
X304850814Y-598297000D01*
X304971481Y-598067109D01*
X304874157Y-597792748D01*
X304725178Y-597542645D01*
X304530269Y-597326412D01*
X304296920Y-597152359D01*
X304034099Y-597027175D01*
X303886890Y-596982524D01*
X303657000Y-597103845D01*
X303403000Y-597103845D01*
X303173110Y-596982524D01*
X303025901Y-597027175D01*
X302763080Y-597152359D01*
X302529731Y-597326412D01*
X302334822Y-597542645D01*
X302265195Y-597659534D01*
X302143475Y-597477368D01*
X301936632Y-597270525D01*
X301693411Y-597108010D01*
X301423158Y-596996068D01*
X301136260Y-596939000D01*
X301059579Y-596939000D01*
X301483579Y-596515000D01*
X306337025Y-596515000D01*
X306455000Y-596632975D01*
X306455001Y-599777521D01*
X306450719Y-599821000D01*
X306467805Y-599994490D01*
X306518412Y-600161313D01*
X306600590Y-600315059D01*
X306683468Y-600416046D01*
X306683471Y-600416049D01*
X306711184Y-600449817D01*
X306744951Y-600477530D01*
X310620470Y-604353049D01*
X310648183Y-604386817D01*
X310681951Y-604414530D01*
X310681953Y-604414532D01*
X310685476Y-604417423D01*
X310782941Y-604497411D01*
X310936687Y-604579589D01*
X311103510Y-604630195D01*
X311233523Y-604643000D01*
X311233531Y-604643000D01*
X311277000Y-604647281D01*
X311320469Y-604643000D01*
X311551928Y-604643000D01*
X311551928Y-605258000D01*
X311564188Y-605382482D01*
X311600498Y-605502180D01*
X311659463Y-605612494D01*
X311738815Y-605709185D01*
X311835506Y-605788537D01*
X311945820Y-605847502D01*
X312065518Y-605883812D01*
X312190000Y-605896072D01*
X315190000Y-605896072D01*
X315314482Y-605883812D01*
X315434180Y-605847502D01*
X315544494Y-605788537D01*
X315641185Y-605709185D01*
X315720537Y-605612494D01*
X315779502Y-605502180D01*
X315815812Y-605382482D01*
X315828072Y-605258000D01*
X315828072Y-603547721D01*
X316635000Y-603547721D01*
X316635000Y-603968279D01*
X316717047Y-604380756D01*
X316877988Y-604769302D01*
X317111637Y-605118983D01*
X317409017Y-605416363D01*
X317758698Y-605650012D01*
X318147244Y-605810953D01*
X318559721Y-605893000D01*
X318980279Y-605893000D01*
X319392756Y-605810953D01*
X319781302Y-605650012D01*
X320130983Y-605416363D01*
X320297693Y-605249653D01*
X322537952Y-605249653D01*
X322693962Y-605565214D01*
X323068745Y-605756020D01*
X323473551Y-605870044D01*
X323892824Y-605902902D01*
X324310451Y-605853334D01*
X324710383Y-605723243D01*
X325006038Y-605565214D01*
X325162048Y-605249653D01*
X323850000Y-603937605D01*
X322537952Y-605249653D01*
X320297693Y-605249653D01*
X320428363Y-605118983D01*
X320662012Y-604769302D01*
X320822953Y-604380756D01*
X320905000Y-603968279D01*
X320905000Y-603800824D01*
X321705098Y-603800824D01*
X321754666Y-604218451D01*
X321884757Y-604618383D01*
X322042786Y-604914038D01*
X322358347Y-605070048D01*
X323670395Y-603758000D01*
X324029605Y-603758000D01*
X325341653Y-605070048D01*
X325657214Y-604914038D01*
X325848020Y-604539255D01*
X325962044Y-604134449D01*
X325994902Y-603715176D01*
X325945334Y-603297549D01*
X325815243Y-602897617D01*
X325657214Y-602601962D01*
X325341653Y-602445952D01*
X324029605Y-603758000D01*
X323670395Y-603758000D01*
X322358347Y-602445952D01*
X322042786Y-602601962D01*
X321851980Y-602976745D01*
X321737956Y-603381551D01*
X321705098Y-603800824D01*
X320905000Y-603800824D01*
X320905000Y-603547721D01*
X320822953Y-603135244D01*
X320662012Y-602746698D01*
X320428363Y-602397017D01*
X320297693Y-602266347D01*
X322537952Y-602266347D01*
X323850000Y-603578395D01*
X325162048Y-602266347D01*
X325006038Y-601950786D01*
X324631255Y-601759980D01*
X324226449Y-601645956D01*
X323807176Y-601613098D01*
X323389549Y-601662666D01*
X322989617Y-601792757D01*
X322693962Y-601950786D01*
X322537952Y-602266347D01*
X320297693Y-602266347D01*
X320130983Y-602099637D01*
X319781302Y-601865988D01*
X319530000Y-601761895D01*
X319530000Y-600770801D01*
X319678801Y-600622000D01*
X327441928Y-600622000D01*
X327441928Y-602322000D01*
X327454188Y-602446482D01*
X327490498Y-602566180D01*
X327549463Y-602676494D01*
X327628815Y-602773185D01*
X327725506Y-602852537D01*
X327835820Y-602911502D01*
X327955518Y-602947812D01*
X328080000Y-602960072D01*
X329780000Y-602960072D01*
X329904482Y-602947812D01*
X330024180Y-602911502D01*
X330134494Y-602852537D01*
X330231185Y-602773185D01*
X330310537Y-602676494D01*
X330369502Y-602566180D01*
X330391513Y-602493620D01*
X330523368Y-602625475D01*
X330766589Y-602787990D01*
X331036842Y-602899932D01*
X331323740Y-602957000D01*
X331616260Y-602957000D01*
X331903158Y-602899932D01*
X332173411Y-602787990D01*
X332416632Y-602625475D01*
X332623475Y-602418632D01*
X332740000Y-602244240D01*
X332856525Y-602418632D01*
X333063368Y-602625475D01*
X333306589Y-602787990D01*
X333576842Y-602899932D01*
X333863740Y-602957000D01*
X334156260Y-602957000D01*
X334443158Y-602899932D01*
X334713411Y-602787990D01*
X334956632Y-602625475D01*
X335163475Y-602418632D01*
X335325990Y-602175411D01*
X335437932Y-601905158D01*
X335495000Y-601618260D01*
X335495000Y-601325740D01*
X335437932Y-601038842D01*
X335325990Y-600768589D01*
X335163475Y-600525368D01*
X335052107Y-600414000D01*
X339729928Y-600414000D01*
X339733000Y-600678250D01*
X339891750Y-600837000D01*
X341141000Y-600837000D01*
X341141000Y-599937750D01*
X341395000Y-599937750D01*
X341395000Y-600837000D01*
X342644250Y-600837000D01*
X342803000Y-600678250D01*
X342806072Y-600414000D01*
X342793812Y-600289518D01*
X342757502Y-600169820D01*
X342698537Y-600059506D01*
X342619185Y-599962815D01*
X342522494Y-599883463D01*
X342412180Y-599824498D01*
X342292482Y-599788188D01*
X342168000Y-599775928D01*
X341553750Y-599779000D01*
X341395000Y-599937750D01*
X341141000Y-599937750D01*
X340982250Y-599779000D01*
X340368000Y-599775928D01*
X340243518Y-599788188D01*
X340123820Y-599824498D01*
X340013506Y-599883463D01*
X339916815Y-599962815D01*
X339837463Y-600059506D01*
X339778498Y-600169820D01*
X339742188Y-600289518D01*
X339729928Y-600414000D01*
X335052107Y-600414000D01*
X334956632Y-600318525D01*
X334713411Y-600156010D01*
X334443158Y-600044068D01*
X334156260Y-599987000D01*
X333863740Y-599987000D01*
X333576842Y-600044068D01*
X333306589Y-600156010D01*
X333063368Y-600318525D01*
X332856525Y-600525368D01*
X332740000Y-600699760D01*
X332623475Y-600525368D01*
X332416632Y-600318525D01*
X332173411Y-600156010D01*
X331903158Y-600044068D01*
X331616260Y-599987000D01*
X331323740Y-599987000D01*
X331036842Y-600044068D01*
X330766589Y-600156010D01*
X330523368Y-600318525D01*
X330391513Y-600450380D01*
X330369502Y-600377820D01*
X330310537Y-600267506D01*
X330231185Y-600170815D01*
X330134494Y-600091463D01*
X330024180Y-600032498D01*
X329904482Y-599996188D01*
X329780000Y-599983928D01*
X328080000Y-599983928D01*
X327955518Y-599996188D01*
X327835820Y-600032498D01*
X327725506Y-600091463D01*
X327628815Y-600170815D01*
X327549463Y-600267506D01*
X327490498Y-600377820D01*
X327454188Y-600497518D01*
X327441928Y-600622000D01*
X319678801Y-600622000D01*
X320424004Y-599876798D01*
X320453001Y-599853001D01*
X320479407Y-599820825D01*
X320547974Y-599737277D01*
X320618546Y-599605247D01*
X320656330Y-599480687D01*
X320662003Y-599461986D01*
X320673000Y-599350333D01*
X320673000Y-599350324D01*
X320676676Y-599313001D01*
X320673000Y-599275678D01*
X320673000Y-598772276D01*
X320787900Y-598807131D01*
X321030001Y-598830976D01*
X321272103Y-598807131D01*
X321504902Y-598736512D01*
X321719450Y-598621834D01*
X321907503Y-598467503D01*
X322061834Y-598279450D01*
X322176512Y-598064902D01*
X322247131Y-597832102D01*
X322265001Y-597650665D01*
X322265001Y-596729337D01*
X322335001Y-596729337D01*
X322335001Y-597650666D01*
X322352871Y-597832103D01*
X322423490Y-598064902D01*
X322538169Y-598279450D01*
X322692500Y-598467503D01*
X322880553Y-598621834D01*
X323095101Y-598736512D01*
X323327900Y-598807131D01*
X323570001Y-598830976D01*
X323812103Y-598807131D01*
X324044902Y-598736512D01*
X324259450Y-598621834D01*
X324447503Y-598467503D01*
X324601834Y-598279450D01*
X324716512Y-598064902D01*
X324787131Y-597832102D01*
X324805001Y-597650665D01*
X324805001Y-596729337D01*
X324875001Y-596729337D01*
X324875001Y-597650666D01*
X324892871Y-597832103D01*
X324963490Y-598064902D01*
X325078169Y-598279450D01*
X325232500Y-598467503D01*
X325420553Y-598621834D01*
X325635101Y-598736512D01*
X325867900Y-598807131D01*
X326110001Y-598830976D01*
X326352103Y-598807131D01*
X326584902Y-598736512D01*
X326799450Y-598621834D01*
X326987503Y-598467503D01*
X327141834Y-598279450D01*
X327256512Y-598064902D01*
X327327131Y-597832102D01*
X327345001Y-597650665D01*
X327345001Y-596729337D01*
X327415001Y-596729337D01*
X327415001Y-597650666D01*
X327432871Y-597832103D01*
X327503490Y-598064902D01*
X327618169Y-598279450D01*
X327772500Y-598467503D01*
X327960553Y-598621834D01*
X328175101Y-598736512D01*
X328407900Y-598807131D01*
X328650001Y-598830976D01*
X328892103Y-598807131D01*
X329124902Y-598736512D01*
X329339450Y-598621834D01*
X329527503Y-598467503D01*
X329681834Y-598279450D01*
X329796512Y-598064902D01*
X329867131Y-597832102D01*
X329885001Y-597650665D01*
X329885001Y-596729337D01*
X329955001Y-596729337D01*
X329955001Y-597650666D01*
X329972871Y-597832103D01*
X330043490Y-598064902D01*
X330158169Y-598279450D01*
X330312500Y-598467503D01*
X330500553Y-598621834D01*
X330715101Y-598736512D01*
X330947900Y-598807131D01*
X331190001Y-598830976D01*
X331432103Y-598807131D01*
X331664902Y-598736512D01*
X331879450Y-598621834D01*
X332067503Y-598467503D01*
X332221834Y-598279450D01*
X332336512Y-598064902D01*
X332407131Y-597832102D01*
X332425001Y-597650665D01*
X332425001Y-596729337D01*
X332495001Y-596729337D01*
X332495001Y-597650666D01*
X332512871Y-597832103D01*
X332583490Y-598064902D01*
X332698169Y-598279450D01*
X332852500Y-598467503D01*
X333040553Y-598621834D01*
X333255101Y-598736512D01*
X333487900Y-598807131D01*
X333730001Y-598830976D01*
X333972103Y-598807131D01*
X334204902Y-598736512D01*
X334419450Y-598621834D01*
X334607503Y-598467503D01*
X334761834Y-598279450D01*
X334876512Y-598064902D01*
X334947131Y-597832102D01*
X334965001Y-597650665D01*
X334965001Y-596729337D01*
X335035001Y-596729337D01*
X335035001Y-597650666D01*
X335052871Y-597832103D01*
X335123490Y-598064902D01*
X335238169Y-598279450D01*
X335392500Y-598467503D01*
X335580553Y-598621834D01*
X335795101Y-598736512D01*
X336027900Y-598807131D01*
X336270001Y-598830976D01*
X336512103Y-598807131D01*
X336744902Y-598736512D01*
X336959450Y-598621834D01*
X337147503Y-598467503D01*
X337301834Y-598279450D01*
X337416512Y-598064902D01*
X337487131Y-597832102D01*
X337505001Y-597650665D01*
X337505001Y-596729337D01*
X337575001Y-596729337D01*
X337575001Y-597650666D01*
X337592871Y-597832103D01*
X337663490Y-598064902D01*
X337778169Y-598279450D01*
X337932500Y-598467503D01*
X338120553Y-598621834D01*
X338335101Y-598736512D01*
X338567900Y-598807131D01*
X338810001Y-598830976D01*
X339052103Y-598807131D01*
X339284902Y-598736512D01*
X339499450Y-598621834D01*
X339687503Y-598467503D01*
X339841834Y-598279450D01*
X339956512Y-598064902D01*
X340027131Y-597832102D01*
X340045001Y-597650665D01*
X340045001Y-596729337D01*
X340115001Y-596729337D01*
X340115001Y-597650666D01*
X340132871Y-597832103D01*
X340203490Y-598064902D01*
X340318169Y-598279450D01*
X340472500Y-598467503D01*
X340660553Y-598621834D01*
X340875101Y-598736512D01*
X341107900Y-598807131D01*
X341350001Y-598830976D01*
X341592103Y-598807131D01*
X341822453Y-598737255D01*
X343290200Y-600205002D01*
X343313999Y-600234001D01*
X343429724Y-600328974D01*
X343561753Y-600399546D01*
X343705014Y-600443003D01*
X343816667Y-600454000D01*
X343816676Y-600454000D01*
X343853999Y-600457676D01*
X343891322Y-600454000D01*
X352745199Y-600454000D01*
X353037727Y-600746528D01*
X352583750Y-600749000D01*
X352425000Y-600907750D01*
X352425000Y-602107000D01*
X352445000Y-602107000D01*
X352445000Y-602361000D01*
X352425000Y-602361000D01*
X352425000Y-603560250D01*
X352583750Y-603719000D01*
X353148000Y-603722072D01*
X353272482Y-603709812D01*
X353392180Y-603673502D01*
X353502494Y-603614537D01*
X353599185Y-603535185D01*
X353678537Y-603438494D01*
X353737502Y-603328180D01*
X353759513Y-603255620D01*
X353891368Y-603387475D01*
X354134589Y-603549990D01*
X354404842Y-603661932D01*
X354691740Y-603719000D01*
X354984260Y-603719000D01*
X355271158Y-603661932D01*
X355541411Y-603549990D01*
X355784632Y-603387475D01*
X355991475Y-603180632D01*
X356108000Y-603006240D01*
X356224525Y-603180632D01*
X356431368Y-603387475D01*
X356674589Y-603549990D01*
X356944842Y-603661932D01*
X357231740Y-603719000D01*
X357524260Y-603719000D01*
X357811158Y-603661932D01*
X358081411Y-603549990D01*
X358324632Y-603387475D01*
X358531475Y-603180632D01*
X358693990Y-602937411D01*
X358805932Y-602667158D01*
X358863000Y-602380260D01*
X358863000Y-602087740D01*
X358805932Y-601800842D01*
X358693990Y-601530589D01*
X358531475Y-601287368D01*
X358324632Y-601080525D01*
X358081411Y-600918010D01*
X357811158Y-600806068D01*
X357524260Y-600749000D01*
X357231740Y-600749000D01*
X356944842Y-600806068D01*
X356674589Y-600918010D01*
X356431368Y-601080525D01*
X356224525Y-601287368D01*
X356108000Y-601461760D01*
X355991475Y-601287368D01*
X355784632Y-601080525D01*
X355541411Y-600918010D01*
X355271158Y-600806068D01*
X355240839Y-600800037D01*
X353623804Y-599183003D01*
X353600001Y-599153999D01*
X353484276Y-599059026D01*
X353352247Y-598988454D01*
X353208986Y-598944997D01*
X353097333Y-598934000D01*
X353097322Y-598934000D01*
X353060000Y-598930324D01*
X353022678Y-598934000D01*
X344168802Y-598934000D01*
X344050018Y-598815216D01*
X344132103Y-598807131D01*
X344364902Y-598736512D01*
X344579450Y-598621834D01*
X344767503Y-598467503D01*
X344921834Y-598279450D01*
X345036512Y-598064902D01*
X345107131Y-597832102D01*
X345125001Y-597650665D01*
X345125001Y-596729337D01*
X345195001Y-596729337D01*
X345195001Y-597650666D01*
X345212871Y-597832103D01*
X345283490Y-598064902D01*
X345398169Y-598279450D01*
X345552500Y-598467503D01*
X345740553Y-598621834D01*
X345955101Y-598736512D01*
X346187900Y-598807131D01*
X346430001Y-598830976D01*
X346672103Y-598807131D01*
X346904902Y-598736512D01*
X347119450Y-598621834D01*
X347307503Y-598467503D01*
X347461834Y-598279450D01*
X347576512Y-598064902D01*
X347647131Y-597832102D01*
X347665001Y-597650665D01*
X347665001Y-597317001D01*
X347735001Y-597317001D01*
X347735001Y-597717001D01*
X347783508Y-597955497D01*
X347877611Y-598179947D01*
X348013694Y-598381726D01*
X348186527Y-598553079D01*
X348389468Y-598687422D01*
X348614719Y-598779592D01*
X348652392Y-598783463D01*
X348843001Y-598658732D01*
X348843001Y-597317001D01*
X349097001Y-597317001D01*
X349097001Y-598658732D01*
X349287610Y-598783463D01*
X349325283Y-598779592D01*
X349550534Y-598687422D01*
X349753475Y-598553079D01*
X349926308Y-598381726D01*
X350062391Y-598179947D01*
X350156494Y-597955497D01*
X350205001Y-597717001D01*
X350205001Y-597317001D01*
X349097001Y-597317001D01*
X348843001Y-597317001D01*
X347735001Y-597317001D01*
X347665001Y-597317001D01*
X347665001Y-596729336D01*
X347658468Y-596663001D01*
X347735001Y-596663001D01*
X347735001Y-597063001D01*
X348843001Y-597063001D01*
X348843001Y-595721270D01*
X349097001Y-595721270D01*
X349097001Y-597063001D01*
X350205001Y-597063001D01*
X350205001Y-596663001D01*
X350156494Y-596424505D01*
X350062391Y-596200055D01*
X349926308Y-595998276D01*
X349753475Y-595826923D01*
X349550534Y-595692580D01*
X349325283Y-595600410D01*
X349287610Y-595596539D01*
X349097001Y-595721270D01*
X348843001Y-595721270D01*
X348652392Y-595596539D01*
X348614719Y-595600410D01*
X348389468Y-595692580D01*
X348186527Y-595826923D01*
X348013694Y-595998276D01*
X347877611Y-596200055D01*
X347783508Y-596424505D01*
X347735001Y-596663001D01*
X347658468Y-596663001D01*
X347647131Y-596547899D01*
X347576512Y-596315100D01*
X347461834Y-596100552D01*
X347307503Y-595912499D01*
X347119449Y-595758168D01*
X346904901Y-595643490D01*
X346672102Y-595572871D01*
X346430001Y-595549026D01*
X346187899Y-595572871D01*
X345955100Y-595643490D01*
X345740552Y-595758168D01*
X345552499Y-595912499D01*
X345398168Y-596100553D01*
X345283490Y-596315101D01*
X345212871Y-596547900D01*
X345195001Y-596729337D01*
X345125001Y-596729337D01*
X345125001Y-596729336D01*
X345107131Y-596547899D01*
X345036512Y-596315100D01*
X344921834Y-596100552D01*
X344767503Y-595912499D01*
X344579449Y-595758168D01*
X344364901Y-595643490D01*
X344132102Y-595572871D01*
X343890001Y-595549026D01*
X343647899Y-595572871D01*
X343415100Y-595643490D01*
X343200552Y-595758168D01*
X343012499Y-595912499D01*
X342858168Y-596100553D01*
X342743490Y-596315101D01*
X342672871Y-596547900D01*
X342655001Y-596729337D01*
X342655001Y-597420200D01*
X342585001Y-597350200D01*
X342585001Y-596729336D01*
X342567131Y-596547899D01*
X342496512Y-596315100D01*
X342381834Y-596100552D01*
X342227503Y-595912499D01*
X342039449Y-595758168D01*
X341824901Y-595643490D01*
X341592102Y-595572871D01*
X341350001Y-595549026D01*
X341107899Y-595572871D01*
X340875100Y-595643490D01*
X340660552Y-595758168D01*
X340472499Y-595912499D01*
X340318168Y-596100553D01*
X340203490Y-596315101D01*
X340132871Y-596547900D01*
X340115001Y-596729337D01*
X340045001Y-596729337D01*
X340045001Y-596729336D01*
X340027131Y-596547899D01*
X339956512Y-596315100D01*
X339841834Y-596100552D01*
X339687503Y-595912499D01*
X339499449Y-595758168D01*
X339284901Y-595643490D01*
X339052102Y-595572871D01*
X338810001Y-595549026D01*
X338567899Y-595572871D01*
X338335100Y-595643490D01*
X338120552Y-595758168D01*
X337932499Y-595912499D01*
X337778168Y-596100553D01*
X337663490Y-596315101D01*
X337592871Y-596547900D01*
X337575001Y-596729337D01*
X337505001Y-596729337D01*
X337505001Y-596729336D01*
X337487131Y-596547899D01*
X337416512Y-596315100D01*
X337301834Y-596100552D01*
X337147503Y-595912499D01*
X336959449Y-595758168D01*
X336744901Y-595643490D01*
X336512102Y-595572871D01*
X336270001Y-595549026D01*
X336027899Y-595572871D01*
X335795100Y-595643490D01*
X335580552Y-595758168D01*
X335392499Y-595912499D01*
X335238168Y-596100553D01*
X335123490Y-596315101D01*
X335052871Y-596547900D01*
X335035001Y-596729337D01*
X334965001Y-596729337D01*
X334965001Y-596729336D01*
X334947131Y-596547899D01*
X334876512Y-596315100D01*
X334761834Y-596100552D01*
X334607503Y-595912499D01*
X334419449Y-595758168D01*
X334204901Y-595643490D01*
X333972102Y-595572871D01*
X333730001Y-595549026D01*
X333487899Y-595572871D01*
X333255100Y-595643490D01*
X333040552Y-595758168D01*
X332852499Y-595912499D01*
X332698168Y-596100553D01*
X332583490Y-596315101D01*
X332512871Y-596547900D01*
X332495001Y-596729337D01*
X332425001Y-596729337D01*
X332425001Y-596729336D01*
X332407131Y-596547899D01*
X332336512Y-596315100D01*
X332221834Y-596100552D01*
X332067503Y-595912499D01*
X331879449Y-595758168D01*
X331664901Y-595643490D01*
X331432102Y-595572871D01*
X331190001Y-595549026D01*
X330947899Y-595572871D01*
X330715100Y-595643490D01*
X330500552Y-595758168D01*
X330312499Y-595912499D01*
X330158168Y-596100553D01*
X330043490Y-596315101D01*
X329972871Y-596547900D01*
X329955001Y-596729337D01*
X329885001Y-596729337D01*
X329885001Y-596729336D01*
X329867131Y-596547899D01*
X329796512Y-596315100D01*
X329681834Y-596100552D01*
X329527503Y-595912499D01*
X329339449Y-595758168D01*
X329124901Y-595643490D01*
X328892102Y-595572871D01*
X328650001Y-595549026D01*
X328407899Y-595572871D01*
X328175100Y-595643490D01*
X327960552Y-595758168D01*
X327772499Y-595912499D01*
X327618168Y-596100553D01*
X327503490Y-596315101D01*
X327432871Y-596547900D01*
X327415001Y-596729337D01*
X327345001Y-596729337D01*
X327345001Y-596729336D01*
X327327131Y-596547899D01*
X327256512Y-596315100D01*
X327141834Y-596100552D01*
X326987503Y-595912499D01*
X326799449Y-595758168D01*
X326584901Y-595643490D01*
X326352102Y-595572871D01*
X326110001Y-595549026D01*
X325867899Y-595572871D01*
X325635100Y-595643490D01*
X325420552Y-595758168D01*
X325232499Y-595912499D01*
X325078168Y-596100553D01*
X324963490Y-596315101D01*
X324892871Y-596547900D01*
X324875001Y-596729337D01*
X324805001Y-596729337D01*
X324805001Y-596729336D01*
X324787131Y-596547899D01*
X324716512Y-596315100D01*
X324601834Y-596100552D01*
X324447503Y-595912499D01*
X324259449Y-595758168D01*
X324044901Y-595643490D01*
X323812102Y-595572871D01*
X323570001Y-595549026D01*
X323327899Y-595572871D01*
X323095100Y-595643490D01*
X322880552Y-595758168D01*
X322692499Y-595912499D01*
X322538168Y-596100553D01*
X322423490Y-596315101D01*
X322352871Y-596547900D01*
X322335001Y-596729337D01*
X322265001Y-596729337D01*
X322265001Y-596729336D01*
X322247131Y-596547899D01*
X322176512Y-596315100D01*
X322061834Y-596100552D01*
X321907503Y-595912499D01*
X321719449Y-595758168D01*
X321504901Y-595643490D01*
X321272102Y-595572871D01*
X321030001Y-595549026D01*
X320787899Y-595572871D01*
X320673000Y-595607725D01*
X320673000Y-595309801D01*
X321624802Y-594358000D01*
X349824199Y-594358000D01*
X350750001Y-595283803D01*
X350750001Y-595816067D01*
X350632499Y-595912499D01*
X350478168Y-596100553D01*
X350363490Y-596315101D01*
X350292871Y-596547900D01*
X350275001Y-596729337D01*
X350275001Y-597650666D01*
X350292871Y-597832103D01*
X350363490Y-598064902D01*
X350478169Y-598279450D01*
X350632500Y-598467503D01*
X350820553Y-598621834D01*
X351035101Y-598736512D01*
X351267900Y-598807131D01*
X351510001Y-598830976D01*
X351752103Y-598807131D01*
X351984902Y-598736512D01*
X352199450Y-598621834D01*
X352387503Y-598467503D01*
X352541834Y-598279450D01*
X352656512Y-598064902D01*
X352727131Y-597832102D01*
X352745001Y-597650665D01*
X352745001Y-596729337D01*
X352815001Y-596729337D01*
X352815001Y-597650666D01*
X352832871Y-597832103D01*
X352903490Y-598064902D01*
X353018169Y-598279450D01*
X353172500Y-598467503D01*
X353360553Y-598621834D01*
X353575101Y-598736512D01*
X353807900Y-598807131D01*
X354050001Y-598830976D01*
X354292103Y-598807131D01*
X354524902Y-598736512D01*
X354739450Y-598621834D01*
X354927503Y-598467503D01*
X355081834Y-598279450D01*
X355196512Y-598064902D01*
X355267131Y-597832102D01*
X355285001Y-597650665D01*
X355285001Y-596729337D01*
X355355001Y-596729337D01*
X355355001Y-597650666D01*
X355372871Y-597832103D01*
X355443490Y-598064902D01*
X355558169Y-598279450D01*
X355712500Y-598467503D01*
X355900553Y-598621834D01*
X356115101Y-598736512D01*
X356347900Y-598807131D01*
X356590001Y-598830976D01*
X356832103Y-598807131D01*
X357064902Y-598736512D01*
X357279450Y-598621834D01*
X357467503Y-598467503D01*
X357621834Y-598279450D01*
X357736512Y-598064902D01*
X357807131Y-597832102D01*
X357825001Y-597650665D01*
X357825001Y-596729337D01*
X357895001Y-596729337D01*
X357895001Y-597650666D01*
X357912871Y-597832103D01*
X357983490Y-598064902D01*
X358098169Y-598279450D01*
X358252500Y-598467503D01*
X358440553Y-598621834D01*
X358655101Y-598736512D01*
X358887900Y-598807131D01*
X359130001Y-598830976D01*
X359372103Y-598807131D01*
X359604902Y-598736512D01*
X359819450Y-598621834D01*
X360007503Y-598467503D01*
X360161834Y-598279450D01*
X360276512Y-598064902D01*
X360347131Y-597832102D01*
X360365001Y-597650665D01*
X360365001Y-596729337D01*
X360435001Y-596729337D01*
X360435001Y-597650666D01*
X360452871Y-597832103D01*
X360523490Y-598064902D01*
X360638169Y-598279450D01*
X360792500Y-598467503D01*
X360980553Y-598621834D01*
X361195101Y-598736512D01*
X361427900Y-598807131D01*
X361670001Y-598830976D01*
X361912103Y-598807131D01*
X362144902Y-598736512D01*
X362359450Y-598621834D01*
X362547503Y-598467503D01*
X362701834Y-598279450D01*
X362816512Y-598064902D01*
X362887131Y-597832102D01*
X362905001Y-597650665D01*
X362905001Y-596729336D01*
X362887131Y-596547899D01*
X362816512Y-596315100D01*
X362701834Y-596100552D01*
X362547503Y-595912499D01*
X362359449Y-595758168D01*
X362144901Y-595643490D01*
X361912102Y-595572871D01*
X361670001Y-595549026D01*
X361427899Y-595572871D01*
X361195100Y-595643490D01*
X360980552Y-595758168D01*
X360792499Y-595912499D01*
X360638168Y-596100553D01*
X360523490Y-596315101D01*
X360452871Y-596547900D01*
X360435001Y-596729337D01*
X360365001Y-596729337D01*
X360365001Y-596729336D01*
X360347131Y-596547899D01*
X360276512Y-596315100D01*
X360161834Y-596100552D01*
X360007503Y-595912499D01*
X359819449Y-595758168D01*
X359604901Y-595643490D01*
X359372102Y-595572871D01*
X359130001Y-595549026D01*
X358887899Y-595572871D01*
X358655100Y-595643490D01*
X358440552Y-595758168D01*
X358252499Y-595912499D01*
X358098168Y-596100553D01*
X357983490Y-596315101D01*
X357912871Y-596547900D01*
X357895001Y-596729337D01*
X357825001Y-596729337D01*
X357825001Y-596729336D01*
X357807131Y-596547899D01*
X357736512Y-596315100D01*
X357621834Y-596100552D01*
X357467503Y-595912499D01*
X357279449Y-595758168D01*
X357064901Y-595643490D01*
X356832102Y-595572871D01*
X356590001Y-595549026D01*
X356347899Y-595572871D01*
X356115100Y-595643490D01*
X355900552Y-595758168D01*
X355712499Y-595912499D01*
X355558168Y-596100553D01*
X355443490Y-596315101D01*
X355372871Y-596547900D01*
X355355001Y-596729337D01*
X355285001Y-596729337D01*
X355285001Y-596729336D01*
X355267131Y-596547899D01*
X355196512Y-596315100D01*
X355081834Y-596100552D01*
X354927503Y-595912499D01*
X354739449Y-595758168D01*
X354524901Y-595643490D01*
X354292102Y-595572871D01*
X354050001Y-595549026D01*
X353807899Y-595572871D01*
X353575100Y-595643490D01*
X353360552Y-595758168D01*
X353172499Y-595912499D01*
X353018168Y-596100553D01*
X352903490Y-596315101D01*
X352832871Y-596547900D01*
X352815001Y-596729337D01*
X352745001Y-596729337D01*
X352745001Y-596729336D01*
X352727131Y-596547899D01*
X352656512Y-596315100D01*
X352541834Y-596100552D01*
X352387503Y-595912499D01*
X352270001Y-595816068D01*
X352270001Y-595006323D01*
X352273677Y-594969000D01*
X352270001Y-594931677D01*
X352270001Y-594931668D01*
X352259004Y-594820015D01*
X352215547Y-594676754D01*
X352144975Y-594544725D01*
X352050002Y-594429000D01*
X352021005Y-594405203D01*
X350702804Y-593087003D01*
X350679001Y-593057999D01*
X350563276Y-592963026D01*
X350431247Y-592892454D01*
X350287986Y-592848997D01*
X350176333Y-592838000D01*
X350176322Y-592838000D01*
X350139000Y-592834324D01*
X350101678Y-592838000D01*
X321347322Y-592838000D01*
X321309999Y-592834324D01*
X321272676Y-592838000D01*
X321272667Y-592838000D01*
X321161014Y-592848997D01*
X321017753Y-592892454D01*
X320885724Y-592963026D01*
X320769999Y-593057999D01*
X320746201Y-593086997D01*
X319401998Y-594431201D01*
X319373000Y-594454999D01*
X319349202Y-594483997D01*
X319349201Y-594483998D01*
X319278026Y-594570724D01*
X319207454Y-594702754D01*
X319192195Y-594753058D01*
X319163998Y-594846014D01*
X319159608Y-594890589D01*
X319149324Y-594995000D01*
X319153001Y-595032332D01*
X319153001Y-595744031D01*
X318964901Y-595643490D01*
X318732102Y-595572871D01*
X318490001Y-595549026D01*
X318247899Y-595572871D01*
X318015100Y-595643490D01*
X317800552Y-595758168D01*
X317612499Y-595912499D01*
X317458168Y-596100553D01*
X317343490Y-596315101D01*
X317272871Y-596547900D01*
X317255001Y-596729337D01*
X317255001Y-597650666D01*
X317272871Y-597832103D01*
X317343490Y-598064902D01*
X317458169Y-598279450D01*
X317612500Y-598467503D01*
X317800553Y-598621834D01*
X318015101Y-598736512D01*
X318247900Y-598807131D01*
X318490001Y-598830976D01*
X318732103Y-598807131D01*
X318964902Y-598736512D01*
X319153000Y-598635972D01*
X319153000Y-598998198D01*
X318258998Y-599892201D01*
X318230000Y-599915999D01*
X318206202Y-599944997D01*
X318206201Y-599944998D01*
X318135026Y-600031724D01*
X318064454Y-600163754D01*
X318020998Y-600307015D01*
X318006324Y-600456000D01*
X318010001Y-600493332D01*
X318010001Y-601761895D01*
X317758698Y-601865988D01*
X317409017Y-602099637D01*
X317111637Y-602397017D01*
X316877988Y-602746698D01*
X316717047Y-603135244D01*
X316635000Y-603547721D01*
X315828072Y-603547721D01*
X315828072Y-602258000D01*
X315815812Y-602133518D01*
X315779502Y-602013820D01*
X315720537Y-601903506D01*
X315641185Y-601806815D01*
X315544494Y-601727463D01*
X315434180Y-601668498D01*
X315314482Y-601632188D01*
X315190000Y-601619928D01*
X312190000Y-601619928D01*
X312065518Y-601632188D01*
X311945820Y-601668498D01*
X311835506Y-601727463D01*
X311738815Y-601806815D01*
X311659463Y-601903506D01*
X311600498Y-602013820D01*
X311564188Y-602133518D01*
X311551928Y-602258000D01*
X311551928Y-602781349D01*
X308225000Y-599454422D01*
X308225000Y-596632975D01*
X308376962Y-596481013D01*
X308523061Y-596262359D01*
X308623696Y-596019405D01*
X308675000Y-595761486D01*
X308675000Y-595498514D01*
X308623696Y-595240595D01*
X308523061Y-594997641D01*
X308376962Y-594778987D01*
X308191013Y-594593038D01*
X307972359Y-594446939D01*
X307729405Y-594346304D01*
X307471486Y-594295000D01*
X307208514Y-594295000D01*
X306950595Y-594346304D01*
X306707641Y-594446939D01*
X306488987Y-594593038D01*
X306337025Y-594745000D01*
X301160469Y-594745000D01*
X301117000Y-594740719D01*
X301073531Y-594745000D01*
X301073523Y-594745000D01*
X300943510Y-594757805D01*
X300776686Y-594808411D01*
X300622941Y-594890589D01*
X300521953Y-594973468D01*
X300521951Y-594973470D01*
X300488183Y-595001183D01*
X300460470Y-595034951D01*
X298559494Y-596935928D01*
X297600000Y-596935928D01*
X297475518Y-596948188D01*
X297355820Y-596984498D01*
X297245506Y-597043463D01*
X297148815Y-597122815D01*
X297069463Y-597219506D01*
X297010498Y-597329820D01*
X296974188Y-597449518D01*
X296961928Y-597574000D01*
X283997000Y-597574000D01*
X283997000Y-594249000D01*
X285937428Y-594249000D01*
X285937428Y-596249000D01*
X285949688Y-596373482D01*
X285985998Y-596493180D01*
X286044963Y-596603494D01*
X286124315Y-596700185D01*
X286221006Y-596779537D01*
X286331320Y-596838502D01*
X286451018Y-596874812D01*
X286575500Y-596887072D01*
X288480500Y-596887072D01*
X288604982Y-596874812D01*
X288724680Y-596838502D01*
X288834994Y-596779537D01*
X288931685Y-596700185D01*
X289011037Y-596603494D01*
X289060059Y-596511781D01*
X289201077Y-596624969D01*
X289476906Y-596768571D01*
X289695020Y-596839563D01*
X289941000Y-596719594D01*
X289941000Y-595376000D01*
X289921000Y-595376000D01*
X289921000Y-595122000D01*
X289941000Y-595122000D01*
X289941000Y-593778406D01*
X290195000Y-593778406D01*
X290195000Y-595122000D01*
X290215000Y-595122000D01*
X290215000Y-595376000D01*
X290195000Y-595376000D01*
X290195000Y-596719594D01*
X290440980Y-596839563D01*
X290659094Y-596768571D01*
X290934923Y-596624969D01*
X291177437Y-596430315D01*
X291332837Y-596245101D01*
X291480037Y-596424463D01*
X291721766Y-596622845D01*
X291997552Y-596770255D01*
X292296797Y-596861030D01*
X292608000Y-596891681D01*
X292919204Y-596861030D01*
X293218449Y-596770255D01*
X293494235Y-596622845D01*
X293735963Y-596424463D01*
X293934345Y-596182734D01*
X294081755Y-595906948D01*
X294172530Y-595607703D01*
X294195500Y-595374485D01*
X294195500Y-595123514D01*
X294172530Y-594890296D01*
X294081755Y-594591051D01*
X293934345Y-594315265D01*
X293735963Y-594073537D01*
X293494234Y-593875155D01*
X293218448Y-593727745D01*
X292919203Y-593636970D01*
X292608000Y-593606319D01*
X292296796Y-593636970D01*
X291997551Y-593727745D01*
X291721765Y-593875155D01*
X291480037Y-594073537D01*
X291332838Y-594252900D01*
X291177437Y-594067685D01*
X290934923Y-593873031D01*
X290659094Y-593729429D01*
X290440980Y-593658437D01*
X290195000Y-593778406D01*
X289941000Y-593778406D01*
X289695020Y-593658437D01*
X289476906Y-593729429D01*
X289201077Y-593873031D01*
X289060059Y-593986219D01*
X289011037Y-593894506D01*
X288931685Y-593797815D01*
X288834994Y-593718463D01*
X288724680Y-593659498D01*
X288604982Y-593623188D01*
X288480500Y-593610928D01*
X286575500Y-593610928D01*
X286451018Y-593623188D01*
X286331320Y-593659498D01*
X286221006Y-593718463D01*
X286124315Y-593797815D01*
X286044963Y-593894506D01*
X285985998Y-594004820D01*
X285949688Y-594124518D01*
X285937428Y-594249000D01*
X283997000Y-594249000D01*
X283997000Y-587936570D01*
X284985000Y-587936570D01*
X284985000Y-588337430D01*
X285063204Y-588730587D01*
X285216607Y-589100934D01*
X285439313Y-589434237D01*
X285722763Y-589717687D01*
X286056066Y-589940393D01*
X286426413Y-590093796D01*
X286819570Y-590172000D01*
X287220430Y-590172000D01*
X287613587Y-590093796D01*
X287983934Y-589940393D01*
X288317237Y-589717687D01*
X288600687Y-589434237D01*
X288823393Y-589100934D01*
X288976796Y-588730587D01*
X289055000Y-588337430D01*
X289055000Y-587936570D01*
X289043452Y-587878514D01*
X306005000Y-587878514D01*
X306005000Y-588141486D01*
X306056304Y-588399405D01*
X306156939Y-588642359D01*
X306303038Y-588861013D01*
X306488987Y-589046962D01*
X306707641Y-589193061D01*
X306950595Y-589293696D01*
X307208514Y-589345000D01*
X307471486Y-589345000D01*
X307729405Y-589293696D01*
X307972359Y-589193061D01*
X308191013Y-589046962D01*
X308376962Y-588861013D01*
X308523061Y-588642359D01*
X308623696Y-588399405D01*
X308675000Y-588141486D01*
X308675000Y-587878514D01*
X308623696Y-587620595D01*
X308523061Y-587377641D01*
X308376962Y-587158987D01*
X308191013Y-586973038D01*
X307972359Y-586826939D01*
X307729405Y-586726304D01*
X307471486Y-586675000D01*
X307208514Y-586675000D01*
X306950595Y-586726304D01*
X306707641Y-586826939D01*
X306488987Y-586973038D01*
X306303038Y-587158987D01*
X306156939Y-587377641D01*
X306056304Y-587620595D01*
X306005000Y-587878514D01*
X289043452Y-587878514D01*
X288976796Y-587543413D01*
X288823393Y-587173066D01*
X288600687Y-586839763D01*
X288317237Y-586556313D01*
X287983934Y-586333607D01*
X287613587Y-586180204D01*
X287220430Y-586102000D01*
X286819570Y-586102000D01*
X286426413Y-586180204D01*
X286056066Y-586333607D01*
X285722763Y-586556313D01*
X285439313Y-586839763D01*
X285216607Y-587173066D01*
X285063204Y-587543413D01*
X284985000Y-587936570D01*
X283997000Y-587936570D01*
X283997000Y-584366000D01*
X296961928Y-584366000D01*
X296961928Y-586066000D01*
X296974188Y-586190482D01*
X297010498Y-586310180D01*
X297069463Y-586420494D01*
X297148815Y-586517185D01*
X297245506Y-586596537D01*
X297355820Y-586655502D01*
X297475518Y-586691812D01*
X297600000Y-586704072D01*
X299300000Y-586704072D01*
X299424482Y-586691812D01*
X299544180Y-586655502D01*
X299654494Y-586596537D01*
X299751185Y-586517185D01*
X299830537Y-586420494D01*
X299889502Y-586310180D01*
X299911513Y-586237620D01*
X300043368Y-586369475D01*
X300286589Y-586531990D01*
X300556842Y-586643932D01*
X300843740Y-586701000D01*
X301136260Y-586701000D01*
X301423158Y-586643932D01*
X301693411Y-586531990D01*
X301936632Y-586369475D01*
X302143475Y-586162632D01*
X302265195Y-585980466D01*
X302334822Y-586097355D01*
X302529731Y-586313588D01*
X302763080Y-586487641D01*
X303025901Y-586612825D01*
X303173110Y-586657476D01*
X303403000Y-586536155D01*
X303403000Y-585343000D01*
X303657000Y-585343000D01*
X303657000Y-586536155D01*
X303886890Y-586657476D01*
X304034099Y-586612825D01*
X304296920Y-586487641D01*
X304530269Y-586313588D01*
X304725178Y-586097355D01*
X304874157Y-585847252D01*
X304971481Y-585572891D01*
X304850814Y-585343000D01*
X303657000Y-585343000D01*
X303403000Y-585343000D01*
X303383000Y-585343000D01*
X303383000Y-585089000D01*
X303403000Y-585089000D01*
X303403000Y-583895845D01*
X303657000Y-583895845D01*
X303657000Y-585089000D01*
X304850814Y-585089000D01*
X304971481Y-584859109D01*
X304874157Y-584584748D01*
X304725178Y-584334645D01*
X304530269Y-584118412D01*
X304296920Y-583944359D01*
X304034099Y-583819175D01*
X303886890Y-583774524D01*
X303657000Y-583895845D01*
X303403000Y-583895845D01*
X303173110Y-583774524D01*
X303025901Y-583819175D01*
X302763080Y-583944359D01*
X302529731Y-584118412D01*
X302334822Y-584334645D01*
X302265195Y-584451534D01*
X302143475Y-584269368D01*
X301936632Y-584062525D01*
X301693411Y-583900010D01*
X301423158Y-583788068D01*
X301136260Y-583731000D01*
X300843740Y-583731000D01*
X300556842Y-583788068D01*
X300286589Y-583900010D01*
X300043368Y-584062525D01*
X299911513Y-584194380D01*
X299889502Y-584121820D01*
X299830537Y-584011506D01*
X299751185Y-583914815D01*
X299654494Y-583835463D01*
X299544180Y-583776498D01*
X299424482Y-583740188D01*
X299300000Y-583727928D01*
X297600000Y-583727928D01*
X297475518Y-583740188D01*
X297355820Y-583776498D01*
X297245506Y-583835463D01*
X297148815Y-583914815D01*
X297069463Y-584011506D01*
X297010498Y-584121820D01*
X296974188Y-584241518D01*
X296961928Y-584366000D01*
X283997000Y-584366000D01*
X283997000Y-577703740D01*
X296965000Y-577703740D01*
X296965000Y-577996260D01*
X297022068Y-578283158D01*
X297134010Y-578553411D01*
X297296525Y-578796632D01*
X297503368Y-579003475D01*
X297677760Y-579120000D01*
X297503368Y-579236525D01*
X297296525Y-579443368D01*
X297134010Y-579686589D01*
X297022068Y-579956842D01*
X296965000Y-580243740D01*
X296965000Y-580536260D01*
X297022068Y-580823158D01*
X297134010Y-581093411D01*
X297296525Y-581336632D01*
X297503368Y-581543475D01*
X297746589Y-581705990D01*
X298016842Y-581817932D01*
X298303740Y-581875000D01*
X298596260Y-581875000D01*
X298883158Y-581817932D01*
X299153411Y-581705990D01*
X299396632Y-581543475D01*
X299603475Y-581336632D01*
X299765990Y-581093411D01*
X299877932Y-580823158D01*
X299935000Y-580536260D01*
X299935000Y-580243740D01*
X299877932Y-579956842D01*
X299765990Y-579686589D01*
X299603475Y-579443368D01*
X299396632Y-579236525D01*
X299222240Y-579120000D01*
X299396632Y-579003475D01*
X299603475Y-578796632D01*
X299765990Y-578553411D01*
X299877932Y-578283158D01*
X299935000Y-577996260D01*
X299935000Y-577703740D01*
X303315000Y-577703740D01*
X303315000Y-577996260D01*
X303372068Y-578283158D01*
X303484010Y-578553411D01*
X303646525Y-578796632D01*
X303853368Y-579003475D01*
X304027760Y-579120000D01*
X303853368Y-579236525D01*
X303646525Y-579443368D01*
X303484010Y-579686589D01*
X303372068Y-579956842D01*
X303315000Y-580243740D01*
X303315000Y-580536260D01*
X303372068Y-580823158D01*
X303484010Y-581093411D01*
X303646525Y-581336632D01*
X303853368Y-581543475D01*
X304096589Y-581705990D01*
X304366842Y-581817932D01*
X304653740Y-581875000D01*
X304946260Y-581875000D01*
X305233158Y-581817932D01*
X305503411Y-581705990D01*
X305746632Y-581543475D01*
X305953475Y-581336632D01*
X306115990Y-581093411D01*
X306227932Y-580823158D01*
X306285000Y-580536260D01*
X306285000Y-580243740D01*
X306227932Y-579956842D01*
X306115990Y-579686589D01*
X305953475Y-579443368D01*
X305746632Y-579236525D01*
X305572240Y-579120000D01*
X305746632Y-579003475D01*
X305953475Y-578796632D01*
X306115990Y-578553411D01*
X306227932Y-578283158D01*
X306285000Y-577996260D01*
X306285000Y-577703740D01*
X306227932Y-577416842D01*
X306115990Y-577146589D01*
X305953475Y-576903368D01*
X305746632Y-576696525D01*
X305564466Y-576574805D01*
X305681355Y-576505178D01*
X305897588Y-576310269D01*
X306071641Y-576076920D01*
X306196825Y-575814099D01*
X306241476Y-575666890D01*
X306120155Y-575437000D01*
X304927000Y-575437000D01*
X304927000Y-575457000D01*
X304673000Y-575457000D01*
X304673000Y-575437000D01*
X303479845Y-575437000D01*
X303358524Y-575666890D01*
X303403175Y-575814099D01*
X303528359Y-576076920D01*
X303702412Y-576310269D01*
X303918645Y-576505178D01*
X304035534Y-576574805D01*
X303853368Y-576696525D01*
X303646525Y-576903368D01*
X303484010Y-577146589D01*
X303372068Y-577416842D01*
X303315000Y-577703740D01*
X299935000Y-577703740D01*
X299877932Y-577416842D01*
X299765990Y-577146589D01*
X299603475Y-576903368D01*
X299396632Y-576696525D01*
X299214466Y-576574805D01*
X299331355Y-576505178D01*
X299547588Y-576310269D01*
X299721641Y-576076920D01*
X299846825Y-575814099D01*
X299891476Y-575666890D01*
X299770155Y-575437000D01*
X298577000Y-575437000D01*
X298577000Y-575457000D01*
X298323000Y-575457000D01*
X298323000Y-575437000D01*
X297129845Y-575437000D01*
X297008524Y-575666890D01*
X297053175Y-575814099D01*
X297178359Y-576076920D01*
X297352412Y-576310269D01*
X297568645Y-576505178D01*
X297685534Y-576574805D01*
X297503368Y-576696525D01*
X297296525Y-576903368D01*
X297134010Y-577146589D01*
X297022068Y-577416842D01*
X296965000Y-577703740D01*
X283997000Y-577703740D01*
X283997000Y-574037000D01*
X284981928Y-574037000D01*
X284981928Y-576837000D01*
X284994188Y-576961482D01*
X285030498Y-577081180D01*
X285089463Y-577191494D01*
X285168815Y-577288185D01*
X285265506Y-577367537D01*
X285375820Y-577426502D01*
X285495518Y-577462812D01*
X285620000Y-577475072D01*
X288420000Y-577475072D01*
X288544482Y-577462812D01*
X288664180Y-577426502D01*
X288774494Y-577367537D01*
X288871185Y-577288185D01*
X288950537Y-577191494D01*
X289009502Y-577081180D01*
X289045812Y-576961482D01*
X289058072Y-576837000D01*
X289058072Y-574037000D01*
X289045812Y-573912518D01*
X289009502Y-573792820D01*
X288950537Y-573682506D01*
X288871185Y-573585815D01*
X288774494Y-573506463D01*
X288664180Y-573447498D01*
X288544482Y-573411188D01*
X288420000Y-573398928D01*
X285620000Y-573398928D01*
X285495518Y-573411188D01*
X285375820Y-573447498D01*
X285265506Y-573506463D01*
X285168815Y-573585815D01*
X285089463Y-573682506D01*
X285030498Y-573792820D01*
X284994188Y-573912518D01*
X284981928Y-574037000D01*
X283997000Y-574037000D01*
X283997000Y-571920000D01*
X296961928Y-571920000D01*
X296961928Y-573620000D01*
X296974188Y-573744482D01*
X297010498Y-573864180D01*
X297069463Y-573974494D01*
X297148815Y-574071185D01*
X297245506Y-574150537D01*
X297355820Y-574209502D01*
X297436466Y-574233966D01*
X297352412Y-574309731D01*
X297178359Y-574543080D01*
X297053175Y-574805901D01*
X297008524Y-574953110D01*
X297129845Y-575183000D01*
X298323000Y-575183000D01*
X298323000Y-575163000D01*
X298577000Y-575163000D01*
X298577000Y-575183000D01*
X299770155Y-575183000D01*
X299891476Y-574953110D01*
X299846825Y-574805901D01*
X299721641Y-574543080D01*
X299547588Y-574309731D01*
X299463534Y-574233966D01*
X299544180Y-574209502D01*
X299654494Y-574150537D01*
X299751185Y-574071185D01*
X299830537Y-573974494D01*
X299889502Y-573864180D01*
X299925812Y-573744482D01*
X299938072Y-573620000D01*
X299938072Y-571920000D01*
X303311928Y-571920000D01*
X303311928Y-573620000D01*
X303324188Y-573744482D01*
X303360498Y-573864180D01*
X303419463Y-573974494D01*
X303498815Y-574071185D01*
X303595506Y-574150537D01*
X303705820Y-574209502D01*
X303786466Y-574233966D01*
X303702412Y-574309731D01*
X303528359Y-574543080D01*
X303403175Y-574805901D01*
X303358524Y-574953110D01*
X303479845Y-575183000D01*
X304673000Y-575183000D01*
X304673000Y-575163000D01*
X304927000Y-575163000D01*
X304927000Y-575183000D01*
X306120155Y-575183000D01*
X306241476Y-574953110D01*
X306196825Y-574805901D01*
X306071641Y-574543080D01*
X306036826Y-574496405D01*
X307725001Y-576184580D01*
X307725000Y-584537531D01*
X307720719Y-584581000D01*
X307725000Y-584624469D01*
X307725000Y-584624476D01*
X307737805Y-584754489D01*
X307788411Y-584921312D01*
X307870589Y-585075058D01*
X307981183Y-585209817D01*
X308014956Y-585237534D01*
X315091001Y-592313580D01*
X315091000Y-594042015D01*
X315077806Y-594085509D01*
X315060720Y-594258999D01*
X315065002Y-594302478D01*
X315065001Y-595921635D01*
X314918168Y-596100553D01*
X314803490Y-596315101D01*
X314732871Y-596547900D01*
X314715001Y-596729337D01*
X314715001Y-597650666D01*
X314732871Y-597832103D01*
X314803490Y-598064902D01*
X314918169Y-598279450D01*
X315072500Y-598467503D01*
X315260553Y-598621834D01*
X315475101Y-598736512D01*
X315707900Y-598807131D01*
X315950001Y-598830976D01*
X316192103Y-598807131D01*
X316424902Y-598736512D01*
X316639450Y-598621834D01*
X316827503Y-598467503D01*
X316981834Y-598279450D01*
X317096512Y-598064902D01*
X317167131Y-597832102D01*
X317185001Y-597650665D01*
X317185001Y-596729336D01*
X317167131Y-596547899D01*
X317096512Y-596315100D01*
X316981834Y-596100552D01*
X316835001Y-595921635D01*
X316835001Y-594449984D01*
X316848195Y-594406490D01*
X316861000Y-594276477D01*
X316861000Y-594276467D01*
X316865281Y-594233001D01*
X316861000Y-594189535D01*
X316861000Y-591990465D01*
X316865281Y-591946999D01*
X316861000Y-591903533D01*
X316861000Y-591903523D01*
X316848195Y-591773510D01*
X316797589Y-591606687D01*
X316715411Y-591452941D01*
X316604817Y-591318183D01*
X316571049Y-591290470D01*
X309495000Y-584214422D01*
X309495000Y-575861469D01*
X309499281Y-575818000D01*
X309495000Y-575774531D01*
X309495000Y-575774523D01*
X309482195Y-575644510D01*
X309431589Y-575477687D01*
X309349411Y-575323941D01*
X309238817Y-575189183D01*
X309205049Y-575161470D01*
X306521640Y-572478061D01*
X306521546Y-572477753D01*
X306450974Y-572345724D01*
X306356001Y-572229999D01*
X306288072Y-572174251D01*
X306288072Y-571920000D01*
X306287777Y-571917001D01*
X314715001Y-571917001D01*
X314715001Y-572317001D01*
X314763508Y-572555497D01*
X314857611Y-572779947D01*
X314993694Y-572981726D01*
X315166527Y-573153079D01*
X315369468Y-573287422D01*
X315594719Y-573379592D01*
X315632392Y-573383463D01*
X315823001Y-573258732D01*
X315823001Y-571917001D01*
X316077001Y-571917001D01*
X316077001Y-573258732D01*
X316267610Y-573383463D01*
X316305283Y-573379592D01*
X316530534Y-573287422D01*
X316733475Y-573153079D01*
X316906308Y-572981726D01*
X317042391Y-572779947D01*
X317136494Y-572555497D01*
X317185001Y-572317001D01*
X317185001Y-571917001D01*
X316077001Y-571917001D01*
X315823001Y-571917001D01*
X314715001Y-571917001D01*
X306287777Y-571917001D01*
X306275812Y-571795518D01*
X306239502Y-571675820D01*
X306180537Y-571565506D01*
X306101185Y-571468815D01*
X306004494Y-571389463D01*
X305894180Y-571330498D01*
X305774482Y-571294188D01*
X305650000Y-571281928D01*
X305560000Y-571281928D01*
X305560000Y-571263001D01*
X314715001Y-571263001D01*
X314715001Y-571663001D01*
X315823001Y-571663001D01*
X315823001Y-570321270D01*
X316077001Y-570321270D01*
X316077001Y-571663001D01*
X317185001Y-571663001D01*
X317185001Y-571329337D01*
X317255001Y-571329337D01*
X317255001Y-572250666D01*
X317272871Y-572432103D01*
X317343490Y-572664902D01*
X317458169Y-572879450D01*
X317612500Y-573067503D01*
X317800553Y-573221834D01*
X318015101Y-573336512D01*
X318247900Y-573407131D01*
X318490001Y-573430976D01*
X318732103Y-573407131D01*
X318964902Y-573336512D01*
X319179450Y-573221834D01*
X319367503Y-573067503D01*
X319521834Y-572879450D01*
X319636512Y-572664902D01*
X319707131Y-572432102D01*
X319725001Y-572250665D01*
X319725001Y-571329337D01*
X319795001Y-571329337D01*
X319795001Y-572250666D01*
X319812871Y-572432103D01*
X319883490Y-572664902D01*
X319998169Y-572879450D01*
X320152500Y-573067503D01*
X320340553Y-573221834D01*
X320555101Y-573336512D01*
X320787900Y-573407131D01*
X321030001Y-573430976D01*
X321272103Y-573407131D01*
X321504902Y-573336512D01*
X321719450Y-573221834D01*
X321907503Y-573067503D01*
X322061834Y-572879450D01*
X322176512Y-572664902D01*
X322247131Y-572432102D01*
X322265001Y-572250665D01*
X322265001Y-571329336D01*
X322247131Y-571147899D01*
X322176512Y-570915100D01*
X322061834Y-570700552D01*
X321907503Y-570512499D01*
X321719449Y-570358168D01*
X321504901Y-570243490D01*
X321272102Y-570172871D01*
X321030001Y-570149026D01*
X320787899Y-570172871D01*
X320555100Y-570243490D01*
X320340552Y-570358168D01*
X320152499Y-570512499D01*
X319998168Y-570700553D01*
X319883490Y-570915101D01*
X319812871Y-571147900D01*
X319795001Y-571329337D01*
X319725001Y-571329337D01*
X319725001Y-571329336D01*
X319707131Y-571147899D01*
X319636512Y-570915100D01*
X319521834Y-570700552D01*
X319367503Y-570512499D01*
X319179449Y-570358168D01*
X318964901Y-570243490D01*
X318732102Y-570172871D01*
X318490001Y-570149026D01*
X318247899Y-570172871D01*
X318015100Y-570243490D01*
X317800552Y-570358168D01*
X317612499Y-570512499D01*
X317458168Y-570700553D01*
X317343490Y-570915101D01*
X317272871Y-571147900D01*
X317255001Y-571329337D01*
X317185001Y-571329337D01*
X317185001Y-571263001D01*
X317136494Y-571024505D01*
X317042391Y-570800055D01*
X316906308Y-570598276D01*
X316733475Y-570426923D01*
X316530534Y-570292580D01*
X316305283Y-570200410D01*
X316267610Y-570196539D01*
X316077001Y-570321270D01*
X315823001Y-570321270D01*
X315632392Y-570196539D01*
X315594719Y-570200410D01*
X315369468Y-570292580D01*
X315166527Y-570426923D01*
X314993694Y-570598276D01*
X314857611Y-570800055D01*
X314763508Y-571024505D01*
X314715001Y-571263001D01*
X305560000Y-571263001D01*
X305560000Y-567558514D01*
X306005000Y-567558514D01*
X306005000Y-567821486D01*
X306056304Y-568079405D01*
X306156939Y-568322359D01*
X306303038Y-568541013D01*
X306488987Y-568726962D01*
X306707641Y-568873061D01*
X306950595Y-568973696D01*
X307208514Y-569025000D01*
X307471486Y-569025000D01*
X307729405Y-568973696D01*
X307972359Y-568873061D01*
X308191013Y-568726962D01*
X308376962Y-568541013D01*
X308523061Y-568322359D01*
X308623696Y-568079405D01*
X308634850Y-568023329D01*
X313667284Y-568023329D01*
X313699953Y-568131044D01*
X313810208Y-568368392D01*
X313964649Y-568579670D01*
X314157340Y-568756759D01*
X314380877Y-568892853D01*
X314626670Y-568982722D01*
X314833000Y-568860201D01*
X314833000Y-567817000D01*
X315087000Y-567817000D01*
X315087000Y-568860201D01*
X315293330Y-568982722D01*
X315539123Y-568892853D01*
X315762660Y-568756759D01*
X315955351Y-568579670D01*
X316109792Y-568368392D01*
X316220047Y-568131044D01*
X316252716Y-568023329D01*
X316129374Y-567817000D01*
X315087000Y-567817000D01*
X314833000Y-567817000D01*
X313790626Y-567817000D01*
X313667284Y-568023329D01*
X308634850Y-568023329D01*
X308675000Y-567821486D01*
X308675000Y-567558514D01*
X308634851Y-567356671D01*
X313667284Y-567356671D01*
X313790626Y-567563000D01*
X314833000Y-567563000D01*
X314833000Y-566519799D01*
X315087000Y-566519799D01*
X315087000Y-567563000D01*
X316129374Y-567563000D01*
X316252716Y-567356671D01*
X316220047Y-567248956D01*
X316109792Y-567011608D01*
X315955351Y-566800330D01*
X315762660Y-566623241D01*
X315539123Y-566487147D01*
X315293330Y-566397278D01*
X315087000Y-566519799D01*
X314833000Y-566519799D01*
X314626670Y-566397278D01*
X314380877Y-566487147D01*
X314157340Y-566623241D01*
X313964649Y-566800330D01*
X313810208Y-567011608D01*
X313699953Y-567248956D01*
X313667284Y-567356671D01*
X308634851Y-567356671D01*
X308623696Y-567300595D01*
X308523061Y-567057641D01*
X308376962Y-566838987D01*
X308191013Y-566653038D01*
X307972359Y-566506939D01*
X307729405Y-566406304D01*
X307471486Y-566355000D01*
X307208514Y-566355000D01*
X306950595Y-566406304D01*
X306707641Y-566506939D01*
X306488987Y-566653038D01*
X306303038Y-566838987D01*
X306156939Y-567057641D01*
X306056304Y-567300595D01*
X306005000Y-567558514D01*
X305560000Y-567558514D01*
X305560000Y-566734801D01*
X306289803Y-566004999D01*
X318608456Y-566004999D01*
X318555000Y-566273740D01*
X318555000Y-566566260D01*
X318612068Y-566853158D01*
X318724010Y-567123411D01*
X318886525Y-567366632D01*
X319093368Y-567573475D01*
X319336589Y-567735990D01*
X319606842Y-567847932D01*
X319893740Y-567905000D01*
X320186260Y-567905000D01*
X320406408Y-567861209D01*
X322661212Y-570116014D01*
X322685010Y-570145012D01*
X322800735Y-570239985D01*
X322932764Y-570310557D01*
X322956280Y-570317690D01*
X322880552Y-570358168D01*
X322692499Y-570512499D01*
X322538168Y-570700553D01*
X322423490Y-570915101D01*
X322352871Y-571147900D01*
X322335001Y-571329337D01*
X322335001Y-572250666D01*
X322352871Y-572432103D01*
X322423490Y-572664902D01*
X322538169Y-572879450D01*
X322692500Y-573067503D01*
X322880553Y-573221834D01*
X323095101Y-573336512D01*
X323327900Y-573407131D01*
X323570001Y-573430976D01*
X323731342Y-573415085D01*
X323746009Y-573563996D01*
X323789465Y-573707257D01*
X323860037Y-573839287D01*
X323931212Y-573926013D01*
X327096201Y-577091003D01*
X327119999Y-577120001D01*
X327235724Y-577214974D01*
X327367753Y-577285546D01*
X327511014Y-577329003D01*
X327622667Y-577340000D01*
X327622676Y-577340000D01*
X327659999Y-577343676D01*
X327697322Y-577340000D01*
X350482678Y-577340000D01*
X350520000Y-577343676D01*
X350557322Y-577340000D01*
X350557333Y-577340000D01*
X350668986Y-577329003D01*
X350812247Y-577285546D01*
X350944276Y-577214974D01*
X351060001Y-577120001D01*
X351083804Y-577090997D01*
X354561005Y-573613797D01*
X354590002Y-573590000D01*
X354684975Y-573474275D01*
X354755547Y-573342246D01*
X354799004Y-573198985D01*
X354801793Y-573170671D01*
X354927503Y-573067503D01*
X355081834Y-572879450D01*
X355196512Y-572664902D01*
X355267131Y-572432102D01*
X355285001Y-572250665D01*
X355285001Y-571329337D01*
X355355001Y-571329337D01*
X355355001Y-572250666D01*
X355372871Y-572432103D01*
X355443490Y-572664902D01*
X355558169Y-572879450D01*
X355712500Y-573067503D01*
X355900553Y-573221834D01*
X356115101Y-573336512D01*
X356347900Y-573407131D01*
X356590001Y-573430976D01*
X356832103Y-573407131D01*
X357064902Y-573336512D01*
X357279450Y-573221834D01*
X357467503Y-573067503D01*
X357621834Y-572879450D01*
X357736512Y-572664902D01*
X357807131Y-572432102D01*
X357825001Y-572250665D01*
X357825001Y-571329337D01*
X357895001Y-571329337D01*
X357895001Y-572250666D01*
X357912871Y-572432103D01*
X357983490Y-572664902D01*
X358098169Y-572879450D01*
X358252500Y-573067503D01*
X358440553Y-573221834D01*
X358655101Y-573336512D01*
X358887900Y-573407131D01*
X359130001Y-573430976D01*
X359372103Y-573407131D01*
X359604902Y-573336512D01*
X359819450Y-573221834D01*
X360007503Y-573067503D01*
X360161834Y-572879450D01*
X360276512Y-572664902D01*
X360347131Y-572432102D01*
X360365001Y-572250665D01*
X360365001Y-571329337D01*
X360435001Y-571329337D01*
X360435001Y-572250666D01*
X360452871Y-572432103D01*
X360523490Y-572664902D01*
X360638169Y-572879450D01*
X360792500Y-573067503D01*
X360980553Y-573221834D01*
X361195101Y-573336512D01*
X361427900Y-573407131D01*
X361670001Y-573430976D01*
X361912103Y-573407131D01*
X362144902Y-573336512D01*
X362359450Y-573221834D01*
X362547503Y-573067503D01*
X362701834Y-572879450D01*
X362816512Y-572664902D01*
X362887131Y-572432102D01*
X362905001Y-572250665D01*
X362905001Y-571329336D01*
X362887131Y-571147899D01*
X362816512Y-570915100D01*
X362701834Y-570700552D01*
X362547503Y-570512499D01*
X362359449Y-570358168D01*
X362144901Y-570243490D01*
X361912102Y-570172871D01*
X361670001Y-570149026D01*
X361427899Y-570172871D01*
X361195100Y-570243490D01*
X360980552Y-570358168D01*
X360792499Y-570512499D01*
X360638168Y-570700553D01*
X360523490Y-570915101D01*
X360452871Y-571147900D01*
X360435001Y-571329337D01*
X360365001Y-571329337D01*
X360365001Y-571329336D01*
X360347131Y-571147899D01*
X360276512Y-570915100D01*
X360161834Y-570700552D01*
X360007503Y-570512499D01*
X359819449Y-570358168D01*
X359604901Y-570243490D01*
X359372102Y-570172871D01*
X359130001Y-570149026D01*
X358887899Y-570172871D01*
X358655100Y-570243490D01*
X358440552Y-570358168D01*
X358252499Y-570512499D01*
X358098168Y-570700553D01*
X357983490Y-570915101D01*
X357912871Y-571147900D01*
X357895001Y-571329337D01*
X357825001Y-571329337D01*
X357825001Y-571329336D01*
X357807131Y-571147899D01*
X357736512Y-570915100D01*
X357621834Y-570700552D01*
X357467503Y-570512499D01*
X357279449Y-570358168D01*
X357064901Y-570243490D01*
X356832102Y-570172871D01*
X356590001Y-570149026D01*
X356347899Y-570172871D01*
X356115100Y-570243490D01*
X355900552Y-570358168D01*
X355712499Y-570512499D01*
X355558168Y-570700553D01*
X355443490Y-570915101D01*
X355372871Y-571147900D01*
X355355001Y-571329337D01*
X355285001Y-571329337D01*
X355285001Y-571329336D01*
X355267131Y-571147899D01*
X355196512Y-570915100D01*
X355081834Y-570700552D01*
X354927503Y-570512499D01*
X354739449Y-570358168D01*
X354524901Y-570243490D01*
X354292102Y-570172871D01*
X354050001Y-570149026D01*
X353807899Y-570172871D01*
X353575100Y-570243490D01*
X353360552Y-570358168D01*
X353172499Y-570512499D01*
X353018168Y-570700553D01*
X352903490Y-570915101D01*
X352832871Y-571147900D01*
X352815001Y-571329337D01*
X352815001Y-572250666D01*
X352832871Y-572432103D01*
X352903490Y-572664902D01*
X353018169Y-572879450D01*
X353075676Y-572949522D01*
X350205199Y-575820000D01*
X327974802Y-575820000D01*
X325255011Y-573100210D01*
X325255011Y-573085977D01*
X325420553Y-573221834D01*
X325635101Y-573336512D01*
X325867900Y-573407131D01*
X326110001Y-573430976D01*
X326352103Y-573407131D01*
X326584902Y-573336512D01*
X326799450Y-573221834D01*
X326987503Y-573067503D01*
X327141834Y-572879450D01*
X327256512Y-572664902D01*
X327327131Y-572432102D01*
X327345001Y-572250665D01*
X327345001Y-571329337D01*
X327415001Y-571329337D01*
X327415001Y-572250666D01*
X327432871Y-572432103D01*
X327503490Y-572664902D01*
X327618169Y-572879450D01*
X327772500Y-573067503D01*
X327960553Y-573221834D01*
X328175101Y-573336512D01*
X328407900Y-573407131D01*
X328650001Y-573430976D01*
X328892103Y-573407131D01*
X329124902Y-573336512D01*
X329339450Y-573221834D01*
X329527503Y-573067503D01*
X329681834Y-572879450D01*
X329796512Y-572664902D01*
X329867131Y-572432102D01*
X329885001Y-572250665D01*
X329885001Y-571917001D01*
X329955001Y-571917001D01*
X329955001Y-572317001D01*
X330003508Y-572555497D01*
X330097611Y-572779947D01*
X330233694Y-572981726D01*
X330406527Y-573153079D01*
X330609468Y-573287422D01*
X330834719Y-573379592D01*
X330872392Y-573383463D01*
X331063001Y-573258732D01*
X331063001Y-571917001D01*
X331317001Y-571917001D01*
X331317001Y-573258732D01*
X331507610Y-573383463D01*
X331545283Y-573379592D01*
X331770534Y-573287422D01*
X331973475Y-573153079D01*
X332146308Y-572981726D01*
X332282391Y-572779947D01*
X332376494Y-572555497D01*
X332425001Y-572317001D01*
X332425001Y-571917001D01*
X331317001Y-571917001D01*
X331063001Y-571917001D01*
X329955001Y-571917001D01*
X329885001Y-571917001D01*
X329885001Y-571329336D01*
X329878468Y-571263001D01*
X329955001Y-571263001D01*
X329955001Y-571663001D01*
X331063001Y-571663001D01*
X331063001Y-570321270D01*
X331317001Y-570321270D01*
X331317001Y-571663001D01*
X332425001Y-571663001D01*
X332425001Y-571329337D01*
X332495001Y-571329337D01*
X332495001Y-572250666D01*
X332512871Y-572432103D01*
X332583490Y-572664902D01*
X332698169Y-572879450D01*
X332852500Y-573067503D01*
X333040553Y-573221834D01*
X333255101Y-573336512D01*
X333487900Y-573407131D01*
X333730001Y-573430976D01*
X333972103Y-573407131D01*
X334204902Y-573336512D01*
X334419450Y-573221834D01*
X334607503Y-573067503D01*
X334761834Y-572879450D01*
X334876512Y-572664902D01*
X334947131Y-572432102D01*
X334965001Y-572250665D01*
X334965001Y-571329337D01*
X335035001Y-571329337D01*
X335035001Y-572250666D01*
X335052871Y-572432103D01*
X335123490Y-572664902D01*
X335238169Y-572879450D01*
X335392500Y-573067503D01*
X335580553Y-573221834D01*
X335795101Y-573336512D01*
X336027900Y-573407131D01*
X336270001Y-573430976D01*
X336512103Y-573407131D01*
X336744902Y-573336512D01*
X336959450Y-573221834D01*
X337147503Y-573067503D01*
X337301834Y-572879450D01*
X337416512Y-572664902D01*
X337487131Y-572432102D01*
X337505001Y-572250665D01*
X337505001Y-571329337D01*
X337575001Y-571329337D01*
X337575001Y-572250666D01*
X337592871Y-572432103D01*
X337663490Y-572664902D01*
X337778169Y-572879450D01*
X337932500Y-573067503D01*
X338120553Y-573221834D01*
X338335101Y-573336512D01*
X338567900Y-573407131D01*
X338810001Y-573430976D01*
X339052103Y-573407131D01*
X339284902Y-573336512D01*
X339499450Y-573221834D01*
X339687503Y-573067503D01*
X339841834Y-572879450D01*
X339956512Y-572664902D01*
X340027131Y-572432102D01*
X340045001Y-572250665D01*
X340045001Y-571329337D01*
X340115001Y-571329337D01*
X340115001Y-572250666D01*
X340132871Y-572432103D01*
X340203490Y-572664902D01*
X340318169Y-572879450D01*
X340472500Y-573067503D01*
X340660553Y-573221834D01*
X340875101Y-573336512D01*
X341107900Y-573407131D01*
X341350001Y-573430976D01*
X341592103Y-573407131D01*
X341824902Y-573336512D01*
X342039450Y-573221834D01*
X342227503Y-573067503D01*
X342381834Y-572879450D01*
X342496512Y-572664902D01*
X342567131Y-572432102D01*
X342585001Y-572250665D01*
X342585001Y-571329337D01*
X342655001Y-571329337D01*
X342655001Y-572250666D01*
X342672871Y-572432103D01*
X342743490Y-572664902D01*
X342858169Y-572879450D01*
X343012500Y-573067503D01*
X343200553Y-573221834D01*
X343415101Y-573336512D01*
X343647900Y-573407131D01*
X343890001Y-573430976D01*
X344132103Y-573407131D01*
X344364902Y-573336512D01*
X344579450Y-573221834D01*
X344767503Y-573067503D01*
X344921834Y-572879450D01*
X345036512Y-572664902D01*
X345107131Y-572432102D01*
X345125001Y-572250665D01*
X345125001Y-571329337D01*
X345195001Y-571329337D01*
X345195001Y-572250666D01*
X345212871Y-572432103D01*
X345283490Y-572664902D01*
X345398169Y-572879450D01*
X345552500Y-573067503D01*
X345740553Y-573221834D01*
X345955101Y-573336512D01*
X346187900Y-573407131D01*
X346430001Y-573430976D01*
X346672103Y-573407131D01*
X346904902Y-573336512D01*
X347119450Y-573221834D01*
X347307503Y-573067503D01*
X347461834Y-572879450D01*
X347576512Y-572664902D01*
X347647131Y-572432102D01*
X347665001Y-572250665D01*
X347665001Y-571329337D01*
X347735001Y-571329337D01*
X347735001Y-572250666D01*
X347752871Y-572432103D01*
X347823490Y-572664902D01*
X347938169Y-572879450D01*
X348092500Y-573067503D01*
X348280553Y-573221834D01*
X348495101Y-573336512D01*
X348727900Y-573407131D01*
X348970001Y-573430976D01*
X349212103Y-573407131D01*
X349444902Y-573336512D01*
X349659450Y-573221834D01*
X349847503Y-573067503D01*
X350001834Y-572879450D01*
X350116512Y-572664902D01*
X350187131Y-572432102D01*
X350205001Y-572250665D01*
X350205001Y-571329337D01*
X350275001Y-571329337D01*
X350275001Y-572250666D01*
X350292871Y-572432103D01*
X350363490Y-572664902D01*
X350478169Y-572879450D01*
X350632500Y-573067503D01*
X350820553Y-573221834D01*
X351035101Y-573336512D01*
X351267900Y-573407131D01*
X351510001Y-573430976D01*
X351752103Y-573407131D01*
X351984902Y-573336512D01*
X352199450Y-573221834D01*
X352387503Y-573067503D01*
X352541834Y-572879450D01*
X352656512Y-572664902D01*
X352727131Y-572432102D01*
X352745001Y-572250665D01*
X352745001Y-571329336D01*
X352727131Y-571147899D01*
X352656512Y-570915100D01*
X352541834Y-570700552D01*
X352387503Y-570512499D01*
X352199449Y-570358168D01*
X351984901Y-570243490D01*
X351752102Y-570172871D01*
X351510001Y-570149026D01*
X351267899Y-570172871D01*
X351035100Y-570243490D01*
X350820552Y-570358168D01*
X350632499Y-570512499D01*
X350478168Y-570700553D01*
X350363490Y-570915101D01*
X350292871Y-571147900D01*
X350275001Y-571329337D01*
X350205001Y-571329337D01*
X350205001Y-571329336D01*
X350187131Y-571147899D01*
X350116512Y-570915100D01*
X350001834Y-570700552D01*
X349847503Y-570512499D01*
X349659449Y-570358168D01*
X349444901Y-570243490D01*
X349212102Y-570172871D01*
X348970001Y-570149026D01*
X348727899Y-570172871D01*
X348495100Y-570243490D01*
X348280552Y-570358168D01*
X348092499Y-570512499D01*
X347938168Y-570700553D01*
X347823490Y-570915101D01*
X347752871Y-571147900D01*
X347735001Y-571329337D01*
X347665001Y-571329337D01*
X347665001Y-571329336D01*
X347647131Y-571147899D01*
X347576512Y-570915100D01*
X347461834Y-570700552D01*
X347307503Y-570512499D01*
X347119449Y-570358168D01*
X346904901Y-570243490D01*
X346672102Y-570172871D01*
X346430001Y-570149026D01*
X346187899Y-570172871D01*
X345955100Y-570243490D01*
X345740552Y-570358168D01*
X345552499Y-570512499D01*
X345398168Y-570700553D01*
X345283490Y-570915101D01*
X345212871Y-571147900D01*
X345195001Y-571329337D01*
X345125001Y-571329337D01*
X345125001Y-571329336D01*
X345107131Y-571147899D01*
X345036512Y-570915100D01*
X344921834Y-570700552D01*
X344767503Y-570512499D01*
X344579449Y-570358168D01*
X344364901Y-570243490D01*
X344132102Y-570172871D01*
X343890001Y-570149026D01*
X343647899Y-570172871D01*
X343415100Y-570243490D01*
X343200552Y-570358168D01*
X343012499Y-570512499D01*
X342858168Y-570700553D01*
X342743490Y-570915101D01*
X342672871Y-571147900D01*
X342655001Y-571329337D01*
X342585001Y-571329337D01*
X342585001Y-571329336D01*
X342567131Y-571147899D01*
X342496512Y-570915100D01*
X342381834Y-570700552D01*
X342227503Y-570512499D01*
X342039449Y-570358168D01*
X341824901Y-570243490D01*
X341592102Y-570172871D01*
X341350001Y-570149026D01*
X341107899Y-570172871D01*
X340875100Y-570243490D01*
X340660552Y-570358168D01*
X340472499Y-570512499D01*
X340318168Y-570700553D01*
X340203490Y-570915101D01*
X340132871Y-571147900D01*
X340115001Y-571329337D01*
X340045001Y-571329337D01*
X340045001Y-571329336D01*
X340027131Y-571147899D01*
X339956512Y-570915100D01*
X339841834Y-570700552D01*
X339687503Y-570512499D01*
X339499449Y-570358168D01*
X339284901Y-570243490D01*
X339052102Y-570172871D01*
X338810001Y-570149026D01*
X338567899Y-570172871D01*
X338335100Y-570243490D01*
X338120552Y-570358168D01*
X337932499Y-570512499D01*
X337778168Y-570700553D01*
X337663490Y-570915101D01*
X337592871Y-571147900D01*
X337575001Y-571329337D01*
X337505001Y-571329337D01*
X337505001Y-571329336D01*
X337487131Y-571147899D01*
X337416512Y-570915100D01*
X337301834Y-570700552D01*
X337147503Y-570512499D01*
X336959449Y-570358168D01*
X336744901Y-570243490D01*
X336512102Y-570172871D01*
X336270001Y-570149026D01*
X336027899Y-570172871D01*
X335795100Y-570243490D01*
X335580552Y-570358168D01*
X335392499Y-570512499D01*
X335238168Y-570700553D01*
X335123490Y-570915101D01*
X335052871Y-571147900D01*
X335035001Y-571329337D01*
X334965001Y-571329337D01*
X334965001Y-571329336D01*
X334947131Y-571147899D01*
X334876512Y-570915100D01*
X334761834Y-570700552D01*
X334607503Y-570512499D01*
X334419449Y-570358168D01*
X334204901Y-570243490D01*
X333972102Y-570172871D01*
X333730001Y-570149026D01*
X333487899Y-570172871D01*
X333255100Y-570243490D01*
X333040552Y-570358168D01*
X332852499Y-570512499D01*
X332698168Y-570700553D01*
X332583490Y-570915101D01*
X332512871Y-571147900D01*
X332495001Y-571329337D01*
X332425001Y-571329337D01*
X332425001Y-571263001D01*
X332376494Y-571024505D01*
X332282391Y-570800055D01*
X332146308Y-570598276D01*
X331973475Y-570426923D01*
X331770534Y-570292580D01*
X331545283Y-570200410D01*
X331507610Y-570196539D01*
X331317001Y-570321270D01*
X331063001Y-570321270D01*
X330872392Y-570196539D01*
X330834719Y-570200410D01*
X330609468Y-570292580D01*
X330406527Y-570426923D01*
X330233694Y-570598276D01*
X330097611Y-570800055D01*
X330003508Y-571024505D01*
X329955001Y-571263001D01*
X329878468Y-571263001D01*
X329867131Y-571147899D01*
X329796512Y-570915100D01*
X329681834Y-570700552D01*
X329527503Y-570512499D01*
X329339449Y-570358168D01*
X329124901Y-570243490D01*
X328892102Y-570172871D01*
X328650001Y-570149026D01*
X328407899Y-570172871D01*
X328175100Y-570243490D01*
X327960552Y-570358168D01*
X327772499Y-570512499D01*
X327618168Y-570700553D01*
X327503490Y-570915101D01*
X327432871Y-571147900D01*
X327415001Y-571329337D01*
X327345001Y-571329337D01*
X327345001Y-571329336D01*
X327327131Y-571147899D01*
X327256512Y-570915100D01*
X327141834Y-570700552D01*
X326987503Y-570512499D01*
X326799449Y-570358168D01*
X326584901Y-570243490D01*
X326352102Y-570172871D01*
X326110001Y-570149026D01*
X325867899Y-570172871D01*
X325635100Y-570243490D01*
X325420552Y-570358168D01*
X325245000Y-570502240D01*
X325245000Y-570267333D01*
X325248677Y-570230000D01*
X325234003Y-570081014D01*
X325190546Y-569937753D01*
X325119974Y-569805724D01*
X325048799Y-569718997D01*
X325025001Y-569689999D01*
X324996004Y-569666202D01*
X324413803Y-569084002D01*
X324390001Y-569054999D01*
X324274276Y-568960026D01*
X324142246Y-568889454D01*
X323998986Y-568845997D01*
X323850000Y-568831324D01*
X323711027Y-568845011D01*
X323539813Y-568845011D01*
X322602874Y-567908072D01*
X323430000Y-567908072D01*
X323554482Y-567895812D01*
X323674180Y-567859502D01*
X323784494Y-567800537D01*
X323881185Y-567721185D01*
X323960537Y-567624494D01*
X324019502Y-567514180D01*
X324055812Y-567394482D01*
X324068072Y-567270000D01*
X324068072Y-566288514D01*
X325055000Y-566288514D01*
X325055000Y-566551486D01*
X325106304Y-566809405D01*
X325206939Y-567052359D01*
X325353038Y-567271013D01*
X325538987Y-567456962D01*
X325757641Y-567603061D01*
X326000595Y-567703696D01*
X326258514Y-567755000D01*
X326521486Y-567755000D01*
X326779405Y-567703696D01*
X327022359Y-567603061D01*
X327241013Y-567456962D01*
X327426962Y-567271013D01*
X327573061Y-567052359D01*
X327673696Y-566809405D01*
X327725000Y-566551486D01*
X327725000Y-566288514D01*
X332675000Y-566288514D01*
X332675000Y-566551486D01*
X332726304Y-566809405D01*
X332826939Y-567052359D01*
X332973038Y-567271013D01*
X333158987Y-567456962D01*
X333377641Y-567603061D01*
X333620595Y-567703696D01*
X333878514Y-567755000D01*
X334141486Y-567755000D01*
X334399405Y-567703696D01*
X334642359Y-567603061D01*
X334861013Y-567456962D01*
X334976706Y-567341269D01*
X337078336Y-567341269D01*
X337137797Y-567575037D01*
X337376242Y-567685934D01*
X337631740Y-567748183D01*
X337894473Y-567759390D01*
X338154344Y-567719125D01*
X338401366Y-567628935D01*
X338502203Y-567575037D01*
X338561664Y-567341269D01*
X337820000Y-566599605D01*
X337078336Y-567341269D01*
X334976706Y-567341269D01*
X335046962Y-567271013D01*
X335193061Y-567052359D01*
X335293696Y-566809405D01*
X335345000Y-566551486D01*
X335345000Y-566494473D01*
X336480610Y-566494473D01*
X336520875Y-566754344D01*
X336611065Y-567001366D01*
X336664963Y-567102203D01*
X336898731Y-567161664D01*
X337640395Y-566420000D01*
X337999605Y-566420000D01*
X338741269Y-567161664D01*
X338975037Y-567102203D01*
X339085934Y-566863758D01*
X339148183Y-566608260D01*
X339159390Y-566345527D01*
X339150557Y-566288514D01*
X344105000Y-566288514D01*
X344105000Y-566551486D01*
X344156304Y-566809405D01*
X344256939Y-567052359D01*
X344403038Y-567271013D01*
X344588987Y-567456962D01*
X344807641Y-567603061D01*
X345050595Y-567703696D01*
X345308514Y-567755000D01*
X345571486Y-567755000D01*
X345829405Y-567703696D01*
X346072359Y-567603061D01*
X346291013Y-567456962D01*
X346476962Y-567271013D01*
X346623061Y-567052359D01*
X346723696Y-566809405D01*
X346775000Y-566551486D01*
X346775000Y-566288514D01*
X346772062Y-566273740D01*
X348400000Y-566273740D01*
X348400000Y-566566260D01*
X348457068Y-566853158D01*
X348569010Y-567123411D01*
X348731525Y-567366632D01*
X348938368Y-567573475D01*
X349181589Y-567735990D01*
X349451842Y-567847932D01*
X349738740Y-567905000D01*
X350031260Y-567905000D01*
X350318158Y-567847932D01*
X350588411Y-567735990D01*
X350831632Y-567573475D01*
X351038475Y-567366632D01*
X351155000Y-567192240D01*
X351271525Y-567366632D01*
X351478368Y-567573475D01*
X351721589Y-567735990D01*
X351991842Y-567847932D01*
X352278740Y-567905000D01*
X352571260Y-567905000D01*
X352858158Y-567847932D01*
X353128411Y-567735990D01*
X353371632Y-567573475D01*
X353578475Y-567366632D01*
X353695000Y-567192240D01*
X353811525Y-567366632D01*
X354018368Y-567573475D01*
X354261589Y-567735990D01*
X354531842Y-567847932D01*
X354818740Y-567905000D01*
X355111260Y-567905000D01*
X355398158Y-567847932D01*
X355668411Y-567735990D01*
X355911632Y-567573475D01*
X356043487Y-567441620D01*
X356065498Y-567514180D01*
X356124463Y-567624494D01*
X356203815Y-567721185D01*
X356300506Y-567800537D01*
X356410820Y-567859502D01*
X356530518Y-567895812D01*
X356655000Y-567908072D01*
X357219250Y-567905000D01*
X357378000Y-567746250D01*
X357378000Y-566547000D01*
X357632000Y-566547000D01*
X357632000Y-567746250D01*
X357790750Y-567905000D01*
X358355000Y-567908072D01*
X358479482Y-567895812D01*
X358599180Y-567859502D01*
X358709494Y-567800537D01*
X358806185Y-567721185D01*
X358885537Y-567624494D01*
X358944502Y-567514180D01*
X358980812Y-567394482D01*
X358993072Y-567270000D01*
X358990703Y-566834872D01*
X360985000Y-566834872D01*
X360985000Y-567275128D01*
X361070890Y-567706925D01*
X361239369Y-568113669D01*
X361483962Y-568479729D01*
X361795271Y-568791038D01*
X362161331Y-569035631D01*
X362568075Y-569204110D01*
X362999872Y-569290000D01*
X363440128Y-569290000D01*
X363871925Y-569204110D01*
X364278669Y-569035631D01*
X364644729Y-568791038D01*
X364956038Y-568479729D01*
X365200631Y-568113669D01*
X365369110Y-567706925D01*
X365455000Y-567275128D01*
X365455000Y-566834872D01*
X365369110Y-566403075D01*
X365200631Y-565996331D01*
X364956038Y-565630271D01*
X364644729Y-565318962D01*
X364278669Y-565074369D01*
X363871925Y-564905890D01*
X363440128Y-564820000D01*
X362999872Y-564820000D01*
X362568075Y-564905890D01*
X362161331Y-565074369D01*
X361795271Y-565318962D01*
X361483962Y-565630271D01*
X361239369Y-565996331D01*
X361070890Y-566403075D01*
X360985000Y-566834872D01*
X358990703Y-566834872D01*
X358990000Y-566705750D01*
X358831250Y-566547000D01*
X357632000Y-566547000D01*
X357378000Y-566547000D01*
X357358000Y-566547000D01*
X357358000Y-566293000D01*
X357378000Y-566293000D01*
X357378000Y-565093750D01*
X357632000Y-565093750D01*
X357632000Y-566293000D01*
X358831250Y-566293000D01*
X358990000Y-566134250D01*
X358993072Y-565570000D01*
X358980812Y-565445518D01*
X358944502Y-565325820D01*
X358885537Y-565215506D01*
X358806185Y-565118815D01*
X358709494Y-565039463D01*
X358599180Y-564980498D01*
X358479482Y-564944188D01*
X358355000Y-564931928D01*
X357790750Y-564935000D01*
X357632000Y-565093750D01*
X357378000Y-565093750D01*
X357219250Y-564935000D01*
X356655000Y-564931928D01*
X356530518Y-564944188D01*
X356410820Y-564980498D01*
X356300506Y-565039463D01*
X356203815Y-565118815D01*
X356124463Y-565215506D01*
X356065498Y-565325820D01*
X356043487Y-565398380D01*
X355911632Y-565266525D01*
X355668411Y-565104010D01*
X355398158Y-564992068D01*
X355111260Y-564935000D01*
X354818740Y-564935000D01*
X354531842Y-564992068D01*
X354261589Y-565104010D01*
X354018368Y-565266525D01*
X353811525Y-565473368D01*
X353695000Y-565647760D01*
X353578475Y-565473368D01*
X353371632Y-565266525D01*
X353128411Y-565104010D01*
X352858158Y-564992068D01*
X352571260Y-564935000D01*
X352278740Y-564935000D01*
X351991842Y-564992068D01*
X351721589Y-565104010D01*
X351478368Y-565266525D01*
X351271525Y-565473368D01*
X351155000Y-565647760D01*
X351038475Y-565473368D01*
X350831632Y-565266525D01*
X350588411Y-565104010D01*
X350318158Y-564992068D01*
X350031260Y-564935000D01*
X349738740Y-564935000D01*
X349451842Y-564992068D01*
X349181589Y-565104010D01*
X348938368Y-565266525D01*
X348731525Y-565473368D01*
X348569010Y-565716589D01*
X348457068Y-565986842D01*
X348400000Y-566273740D01*
X346772062Y-566273740D01*
X346723696Y-566030595D01*
X346623061Y-565787641D01*
X346476962Y-565568987D01*
X346291013Y-565383038D01*
X346072359Y-565236939D01*
X345829405Y-565136304D01*
X345571486Y-565085000D01*
X345308514Y-565085000D01*
X345050595Y-565136304D01*
X344807641Y-565236939D01*
X344588987Y-565383038D01*
X344403038Y-565568987D01*
X344256939Y-565787641D01*
X344156304Y-566030595D01*
X344105000Y-566288514D01*
X339150557Y-566288514D01*
X339119125Y-566085656D01*
X339028935Y-565838634D01*
X338975037Y-565737797D01*
X338741269Y-565678336D01*
X337999605Y-566420000D01*
X337640395Y-566420000D01*
X336898731Y-565678336D01*
X336664963Y-565737797D01*
X336554066Y-565976242D01*
X336491817Y-566231740D01*
X336480610Y-566494473D01*
X335345000Y-566494473D01*
X335345000Y-566288514D01*
X335293696Y-566030595D01*
X335193061Y-565787641D01*
X335046962Y-565568987D01*
X334976706Y-565498731D01*
X337078336Y-565498731D01*
X337820000Y-566240395D01*
X338561664Y-565498731D01*
X338502203Y-565264963D01*
X338263758Y-565154066D01*
X338008260Y-565091817D01*
X337745527Y-565080610D01*
X337485656Y-565120875D01*
X337238634Y-565211065D01*
X337137797Y-565264963D01*
X337078336Y-565498731D01*
X334976706Y-565498731D01*
X334861013Y-565383038D01*
X334642359Y-565236939D01*
X334399405Y-565136304D01*
X334141486Y-565085000D01*
X333878514Y-565085000D01*
X333620595Y-565136304D01*
X333377641Y-565236939D01*
X333158987Y-565383038D01*
X332973038Y-565568987D01*
X332826939Y-565787641D01*
X332726304Y-566030595D01*
X332675000Y-566288514D01*
X327725000Y-566288514D01*
X327673696Y-566030595D01*
X327573061Y-565787641D01*
X327426962Y-565568987D01*
X327241013Y-565383038D01*
X327022359Y-565236939D01*
X326779405Y-565136304D01*
X326521486Y-565085000D01*
X326258514Y-565085000D01*
X326000595Y-565136304D01*
X325757641Y-565236939D01*
X325538987Y-565383038D01*
X325353038Y-565568987D01*
X325206939Y-565787641D01*
X325106304Y-566030595D01*
X325055000Y-566288514D01*
X324068072Y-566288514D01*
X324068072Y-565570000D01*
X324055812Y-565445518D01*
X324019502Y-565325820D01*
X323960537Y-565215506D01*
X323881185Y-565118815D01*
X323784494Y-565039463D01*
X323674180Y-564980498D01*
X323554482Y-564944188D01*
X323430000Y-564931928D01*
X322166729Y-564931928D01*
X321968803Y-564734002D01*
X321945000Y-564704998D01*
X321829275Y-564610025D01*
X321697246Y-564539453D01*
X321553985Y-564495996D01*
X321442332Y-564484999D01*
X321442321Y-564484999D01*
X321404999Y-564481323D01*
X321367677Y-564484999D01*
X306012323Y-564484999D01*
X305975000Y-564481323D01*
X305937677Y-564484999D01*
X305937668Y-564484999D01*
X305826015Y-564495996D01*
X305682754Y-564539453D01*
X305550725Y-564610025D01*
X305435000Y-564704998D01*
X305411202Y-564733996D01*
X304289003Y-565856196D01*
X304259999Y-565879999D01*
X304204871Y-565947174D01*
X304165026Y-565995724D01*
X304146387Y-566030595D01*
X304094454Y-566127754D01*
X304050997Y-566271015D01*
X304040000Y-566382668D01*
X304040000Y-566382678D01*
X304036324Y-566420000D01*
X304040000Y-566457323D01*
X304040001Y-568287667D01*
X304040000Y-571281928D01*
X303950000Y-571281928D01*
X303825518Y-571294188D01*
X303705820Y-571330498D01*
X303595506Y-571389463D01*
X303498815Y-571468815D01*
X303419463Y-571565506D01*
X303360498Y-571675820D01*
X303324188Y-571795518D01*
X303311928Y-571920000D01*
X299938072Y-571920000D01*
X299925812Y-571795518D01*
X299889502Y-571675820D01*
X299830537Y-571565506D01*
X299751185Y-571468815D01*
X299654494Y-571389463D01*
X299544180Y-571330498D01*
X299424482Y-571294188D01*
X299300000Y-571281928D01*
X297600000Y-571281928D01*
X297475518Y-571294188D01*
X297355820Y-571330498D01*
X297245506Y-571389463D01*
X297148815Y-571468815D01*
X297069463Y-571565506D01*
X297010498Y-571675820D01*
X296974188Y-571795518D01*
X296961928Y-571920000D01*
X283997000Y-571920000D01*
X283997000Y-568495721D01*
X284885000Y-568495721D01*
X284885000Y-568916279D01*
X284967047Y-569328756D01*
X285127988Y-569717302D01*
X285361637Y-570066983D01*
X285659017Y-570364363D01*
X286008698Y-570598012D01*
X286397244Y-570758953D01*
X286809721Y-570841000D01*
X287230279Y-570841000D01*
X287642756Y-570758953D01*
X288031302Y-570598012D01*
X288380983Y-570364363D01*
X288539346Y-570206000D01*
X289961928Y-570206000D01*
X289974188Y-570330482D01*
X290010498Y-570450180D01*
X290069463Y-570560494D01*
X290148815Y-570657185D01*
X290245506Y-570736537D01*
X290355820Y-570795502D01*
X290475518Y-570831812D01*
X290600000Y-570844072D01*
X291814250Y-570841000D01*
X291973000Y-570682250D01*
X291973000Y-568833000D01*
X292227000Y-568833000D01*
X292227000Y-570682250D01*
X292385750Y-570841000D01*
X293600000Y-570844072D01*
X293724482Y-570831812D01*
X293844180Y-570795502D01*
X293954494Y-570736537D01*
X294051185Y-570657185D01*
X294130537Y-570560494D01*
X294189502Y-570450180D01*
X294225812Y-570330482D01*
X294238072Y-570206000D01*
X294235000Y-568991750D01*
X294076250Y-568833000D01*
X292227000Y-568833000D01*
X291973000Y-568833000D01*
X290123750Y-568833000D01*
X289965000Y-568991750D01*
X289961928Y-570206000D01*
X288539346Y-570206000D01*
X288678363Y-570066983D01*
X288912012Y-569717302D01*
X289072953Y-569328756D01*
X289155000Y-568916279D01*
X289155000Y-568495721D01*
X289072953Y-568083244D01*
X288912012Y-567694698D01*
X288678363Y-567345017D01*
X288539346Y-567206000D01*
X289961928Y-567206000D01*
X289965000Y-568420250D01*
X290123750Y-568579000D01*
X291973000Y-568579000D01*
X291973000Y-566729750D01*
X292227000Y-566729750D01*
X292227000Y-568579000D01*
X294076250Y-568579000D01*
X294235000Y-568420250D01*
X294238072Y-567206000D01*
X294225812Y-567081518D01*
X294189502Y-566961820D01*
X294130537Y-566851506D01*
X294116886Y-566834872D01*
X296850000Y-566834872D01*
X296850000Y-567275128D01*
X296935890Y-567706925D01*
X297104369Y-568113669D01*
X297348962Y-568479729D01*
X297660271Y-568791038D01*
X298026331Y-569035631D01*
X298433075Y-569204110D01*
X298864872Y-569290000D01*
X299305128Y-569290000D01*
X299736925Y-569204110D01*
X300143669Y-569035631D01*
X300509729Y-568791038D01*
X300821038Y-568479729D01*
X301065631Y-568113669D01*
X301234110Y-567706925D01*
X301320000Y-567275128D01*
X301320000Y-566834872D01*
X301234110Y-566403075D01*
X301065631Y-565996331D01*
X300821038Y-565630271D01*
X300509729Y-565318962D01*
X300143669Y-565074369D01*
X299736925Y-564905890D01*
X299305128Y-564820000D01*
X298864872Y-564820000D01*
X298433075Y-564905890D01*
X298026331Y-565074369D01*
X297660271Y-565318962D01*
X297348962Y-565630271D01*
X297104369Y-565996331D01*
X296935890Y-566403075D01*
X296850000Y-566834872D01*
X294116886Y-566834872D01*
X294051185Y-566754815D01*
X293954494Y-566675463D01*
X293844180Y-566616498D01*
X293724482Y-566580188D01*
X293600000Y-566567928D01*
X292385750Y-566571000D01*
X292227000Y-566729750D01*
X291973000Y-566729750D01*
X291814250Y-566571000D01*
X290600000Y-566567928D01*
X290475518Y-566580188D01*
X290355820Y-566616498D01*
X290245506Y-566675463D01*
X290148815Y-566754815D01*
X290069463Y-566851506D01*
X290010498Y-566961820D01*
X289974188Y-567081518D01*
X289961928Y-567206000D01*
X288539346Y-567206000D01*
X288380983Y-567047637D01*
X288031302Y-566813988D01*
X287642756Y-566653047D01*
X287230279Y-566571000D01*
X286809721Y-566571000D01*
X286397244Y-566653047D01*
X286008698Y-566813988D01*
X285659017Y-567047637D01*
X285361637Y-567345017D01*
X285127988Y-567694698D01*
X284967047Y-568083244D01*
X284885000Y-568495721D01*
X283997000Y-568495721D01*
X283997000Y-563905000D01*
X366370000Y-563905000D01*
X366370001Y-609321000D01*
%TA.AperFunction,Conductor*%
D28*
G36*
X366370001Y-609321000D02*
G01*
X283997000Y-609321000D01*
X283997000Y-605823872D01*
X296850000Y-605823872D01*
X296850000Y-606264128D01*
X296935890Y-606695925D01*
X297104369Y-607102669D01*
X297348962Y-607468729D01*
X297660271Y-607780038D01*
X298026331Y-608024631D01*
X298433075Y-608193110D01*
X298864872Y-608279000D01*
X299305128Y-608279000D01*
X299736925Y-608193110D01*
X300143669Y-608024631D01*
X300509729Y-607780038D01*
X300821038Y-607468729D01*
X301065631Y-607102669D01*
X301234110Y-606695925D01*
X301320000Y-606264128D01*
X301320000Y-605823872D01*
X301234110Y-605392075D01*
X301065631Y-604985331D01*
X300821038Y-604619271D01*
X300509729Y-604307962D01*
X300143669Y-604063369D01*
X299736925Y-603894890D01*
X299305128Y-603809000D01*
X298864872Y-603809000D01*
X298433075Y-603894890D01*
X298026331Y-604063369D01*
X297660271Y-604307962D01*
X297348962Y-604619271D01*
X297104369Y-604985331D01*
X296935890Y-605392075D01*
X296850000Y-605823872D01*
X283997000Y-605823872D01*
X283997000Y-604639413D01*
X286525192Y-604639413D01*
X286620956Y-604903814D01*
X286910571Y-605044704D01*
X287222108Y-605126384D01*
X287543595Y-605145718D01*
X287862675Y-605101961D01*
X288167088Y-604996795D01*
X288341044Y-604903814D01*
X288436808Y-604639413D01*
X287481000Y-603683605D01*
X286525192Y-604639413D01*
X283997000Y-604639413D01*
X283997000Y-603566595D01*
X285839282Y-603566595D01*
X285883039Y-603885675D01*
X285988205Y-604190088D01*
X286081186Y-604364044D01*
X286345587Y-604459808D01*
X287301395Y-603504000D01*
X287660605Y-603504000D01*
X288616413Y-604459808D01*
X288880814Y-604364044D01*
X289021704Y-604074429D01*
X289103384Y-603762892D01*
X289122718Y-603441405D01*
X289078961Y-603122325D01*
X288973795Y-602817912D01*
X288880814Y-602643956D01*
X288616413Y-602548192D01*
X287660605Y-603504000D01*
X287301395Y-603504000D01*
X286345587Y-602548192D01*
X286081186Y-602643956D01*
X285940296Y-602933571D01*
X285858616Y-603245108D01*
X285839282Y-603566595D01*
X283997000Y-603566595D01*
X283997000Y-602368587D01*
X286525192Y-602368587D01*
X287481000Y-603324395D01*
X288301395Y-602504000D01*
X290842928Y-602504000D01*
X290842928Y-604504000D01*
X290855188Y-604628482D01*
X290891498Y-604748180D01*
X290950463Y-604858494D01*
X291029815Y-604955185D01*
X291126506Y-605034537D01*
X291236820Y-605093502D01*
X291356518Y-605129812D01*
X291481000Y-605142072D01*
X293481000Y-605142072D01*
X293605482Y-605129812D01*
X293725180Y-605093502D01*
X293835494Y-605034537D01*
X293932185Y-604955185D01*
X294011537Y-604858494D01*
X294070502Y-604748180D01*
X294102827Y-604641618D01*
X294132000Y-604644491D01*
X294187751Y-604639000D01*
X294187752Y-604639000D01*
X294354499Y-604622577D01*
X294568447Y-604557676D01*
X294765623Y-604452284D01*
X294938449Y-604310449D01*
X294973996Y-604267135D01*
X296507132Y-602734000D01*
X301789869Y-602734000D01*
X307768009Y-608712141D01*
X307803551Y-608755449D01*
X307976377Y-608897284D01*
X308173553Y-609002676D01*
X308337705Y-609052471D01*
X308387500Y-609067577D01*
X308609999Y-609089491D01*
X308665751Y-609084000D01*
X331160249Y-609084000D01*
X331216000Y-609089491D01*
X331271751Y-609084000D01*
X331271752Y-609084000D01*
X331438499Y-609067577D01*
X331652447Y-609002676D01*
X331849623Y-608897284D01*
X332022449Y-608755449D01*
X332057996Y-608712135D01*
X333970671Y-606799461D01*
X333945000Y-606928514D01*
X333945000Y-607191486D01*
X333996304Y-607449405D01*
X334096939Y-607692359D01*
X334243038Y-607911013D01*
X334428987Y-608096962D01*
X334647641Y-608243061D01*
X334890595Y-608343696D01*
X335148514Y-608395000D01*
X335411486Y-608395000D01*
X335669405Y-608343696D01*
X335912359Y-608243061D01*
X336131013Y-608096962D01*
X336316962Y-607911013D01*
X336463061Y-607692359D01*
X336563696Y-607449405D01*
X336615000Y-607191486D01*
X336615000Y-606928514D01*
X336563777Y-606671000D01*
X341616223Y-606671000D01*
X341565000Y-606928514D01*
X341565000Y-607191486D01*
X341616304Y-607449405D01*
X341716939Y-607692359D01*
X341863038Y-607911013D01*
X342048987Y-608096962D01*
X342267641Y-608243061D01*
X342510595Y-608343696D01*
X342768514Y-608395000D01*
X343031486Y-608395000D01*
X343289405Y-608343696D01*
X343532359Y-608243061D01*
X343751013Y-608096962D01*
X343936962Y-607911013D01*
X344083061Y-607692359D01*
X344183696Y-607449405D01*
X344235000Y-607191486D01*
X344235000Y-606928514D01*
X344183777Y-606671000D01*
X346781249Y-606671000D01*
X346837000Y-606676491D01*
X346892751Y-606671000D01*
X346892752Y-606671000D01*
X347059499Y-606654577D01*
X347273447Y-606589676D01*
X347470623Y-606484284D01*
X347643449Y-606342449D01*
X347678996Y-606299136D01*
X348154260Y-605823872D01*
X360985000Y-605823872D01*
X360985000Y-606264128D01*
X361070890Y-606695925D01*
X361239369Y-607102669D01*
X361483962Y-607468729D01*
X361795271Y-607780038D01*
X362161331Y-608024631D01*
X362568075Y-608193110D01*
X362999872Y-608279000D01*
X363440128Y-608279000D01*
X363871925Y-608193110D01*
X364278669Y-608024631D01*
X364644729Y-607780038D01*
X364956038Y-607468729D01*
X365200631Y-607102669D01*
X365369110Y-606695925D01*
X365455000Y-606264128D01*
X365455000Y-605823872D01*
X365369110Y-605392075D01*
X365200631Y-604985331D01*
X364956038Y-604619271D01*
X364644729Y-604307962D01*
X364278669Y-604063369D01*
X363871925Y-603894890D01*
X363440128Y-603809000D01*
X362999872Y-603809000D01*
X362568075Y-603894890D01*
X362161331Y-604063369D01*
X361795271Y-604307962D01*
X361483962Y-604619271D01*
X361239369Y-604985331D01*
X361070890Y-605392075D01*
X360985000Y-605823872D01*
X348154260Y-605823872D01*
X348743140Y-605234992D01*
X348786449Y-605199449D01*
X348928284Y-605026623D01*
X349033676Y-604829447D01*
X349098577Y-604615499D01*
X349111693Y-604482325D01*
X349120491Y-604393001D01*
X349115000Y-604337249D01*
X349115000Y-603199107D01*
X349133475Y-603180632D01*
X349198042Y-603084000D01*
X350809928Y-603084000D01*
X350822188Y-603208482D01*
X350858498Y-603328180D01*
X350917463Y-603438494D01*
X350996815Y-603535185D01*
X351093506Y-603614537D01*
X351203820Y-603673502D01*
X351323518Y-603709812D01*
X351448000Y-603722072D01*
X352012250Y-603719000D01*
X352171000Y-603560250D01*
X352171000Y-602361000D01*
X350971750Y-602361000D01*
X350813000Y-602519750D01*
X350809928Y-603084000D01*
X349198042Y-603084000D01*
X349295990Y-602937411D01*
X349407932Y-602667158D01*
X349465000Y-602380260D01*
X349465000Y-602087740D01*
X349407932Y-601800842D01*
X349295990Y-601530589D01*
X349198043Y-601384000D01*
X350809928Y-601384000D01*
X350813000Y-601948250D01*
X350971750Y-602107000D01*
X352171000Y-602107000D01*
X352171000Y-600907750D01*
X352012250Y-600749000D01*
X351448000Y-600745928D01*
X351323518Y-600758188D01*
X351203820Y-600794498D01*
X351093506Y-600853463D01*
X350996815Y-600932815D01*
X350917463Y-601029506D01*
X350858498Y-601139820D01*
X350822188Y-601259518D01*
X350809928Y-601384000D01*
X349198043Y-601384000D01*
X349133475Y-601287368D01*
X348926632Y-601080525D01*
X348683411Y-600918010D01*
X348413158Y-600806068D01*
X348126260Y-600749000D01*
X347833740Y-600749000D01*
X347546842Y-600806068D01*
X347276589Y-600918010D01*
X347033368Y-601080525D01*
X346901513Y-601212380D01*
X346879502Y-601139820D01*
X346820537Y-601029506D01*
X346741185Y-600932815D01*
X346644494Y-600853463D01*
X346534180Y-600794498D01*
X346414482Y-600758188D01*
X346290000Y-600745928D01*
X344590000Y-600745928D01*
X344465518Y-600758188D01*
X344345820Y-600794498D01*
X344235506Y-600853463D01*
X344138815Y-600932815D01*
X344059463Y-601029506D01*
X344000498Y-601139820D01*
X343964188Y-601259518D01*
X343951928Y-601384000D01*
X343951928Y-603084000D01*
X343964188Y-603208482D01*
X344000498Y-603328180D01*
X344059463Y-603438494D01*
X344138815Y-603535185D01*
X344235506Y-603614537D01*
X344345820Y-603673502D01*
X344465518Y-603709812D01*
X344590000Y-603722072D01*
X346290000Y-603722072D01*
X346414482Y-603709812D01*
X346534180Y-603673502D01*
X346644494Y-603614537D01*
X346741185Y-603535185D01*
X346820537Y-603438494D01*
X346845001Y-603392727D01*
X346845001Y-603922868D01*
X346366869Y-604401000D01*
X342702543Y-604401000D01*
X342757502Y-604298180D01*
X342793812Y-604178482D01*
X342806072Y-604054000D01*
X342806072Y-602954000D01*
X342793812Y-602829518D01*
X342757502Y-602709820D01*
X342698537Y-602599506D01*
X342619185Y-602502815D01*
X342522494Y-602423463D01*
X342412180Y-602364498D01*
X342292482Y-602328188D01*
X342168000Y-602315928D01*
X340736072Y-602315928D01*
X340736072Y-602150231D01*
X340982250Y-602149000D01*
X341141000Y-601990250D01*
X341141000Y-601091000D01*
X341395000Y-601091000D01*
X341395000Y-601990250D01*
X341553750Y-602149000D01*
X342168000Y-602152072D01*
X342292482Y-602139812D01*
X342412180Y-602103502D01*
X342522494Y-602044537D01*
X342619185Y-601965185D01*
X342698537Y-601868494D01*
X342757502Y-601758180D01*
X342793812Y-601638482D01*
X342806072Y-601514000D01*
X342803000Y-601249750D01*
X342644250Y-601091000D01*
X341395000Y-601091000D01*
X341141000Y-601091000D01*
X340091880Y-601091000D01*
X340001132Y-601063472D01*
X339823000Y-601045928D01*
X338573000Y-601045928D01*
X338394868Y-601063472D01*
X338223582Y-601115431D01*
X338065724Y-601199808D01*
X337927361Y-601313361D01*
X337813808Y-601451724D01*
X337729431Y-601609582D01*
X337677472Y-601780868D01*
X337659928Y-601959000D01*
X337659928Y-602509000D01*
X337677472Y-602687132D01*
X337729431Y-602858418D01*
X337813808Y-603016276D01*
X337927361Y-603154639D01*
X338065724Y-603268192D01*
X338223582Y-603352569D01*
X338394868Y-603404528D01*
X338573000Y-603422072D01*
X339729928Y-603422072D01*
X339729928Y-604054000D01*
X339742188Y-604178482D01*
X339778498Y-604298180D01*
X339833457Y-604401000D01*
X333684741Y-604401000D01*
X333628999Y-604395510D01*
X333573257Y-604401000D01*
X333573248Y-604401000D01*
X333406501Y-604417423D01*
X333192553Y-604482324D01*
X332995377Y-604587716D01*
X332822551Y-604729551D01*
X332787011Y-604772857D01*
X330745869Y-606814000D01*
X309080132Y-606814000D01*
X303101996Y-600835865D01*
X303066449Y-600792551D01*
X302893623Y-600650716D01*
X302696447Y-600545324D01*
X302482499Y-600480423D01*
X302315752Y-600464000D01*
X302315751Y-600464000D01*
X302260000Y-600458509D01*
X302204249Y-600464000D01*
X296092752Y-600464000D01*
X296037000Y-600458509D01*
X295981248Y-600464000D01*
X295814501Y-600480423D01*
X295600553Y-600545324D01*
X295403377Y-600650716D01*
X295230551Y-600792551D01*
X295195009Y-600835859D01*
X293952860Y-602078008D01*
X293932185Y-602052815D01*
X293835494Y-601973463D01*
X293725180Y-601914498D01*
X293605482Y-601878188D01*
X293481000Y-601865928D01*
X291481000Y-601865928D01*
X291356518Y-601878188D01*
X291236820Y-601914498D01*
X291126506Y-601973463D01*
X291029815Y-602052815D01*
X290950463Y-602149506D01*
X290891498Y-602259820D01*
X290855188Y-602379518D01*
X290842928Y-602504000D01*
X288301395Y-602504000D01*
X288436808Y-602368587D01*
X288341044Y-602104186D01*
X288051429Y-601963296D01*
X287739892Y-601881616D01*
X287418405Y-601862282D01*
X287099325Y-601906039D01*
X286794912Y-602011205D01*
X286620956Y-602104186D01*
X286525192Y-602368587D01*
X283997000Y-602368587D01*
X283997000Y-597574000D01*
X296961928Y-597574000D01*
X296961928Y-599274000D01*
X296974188Y-599398482D01*
X297010498Y-599518180D01*
X297069463Y-599628494D01*
X297148815Y-599725185D01*
X297245506Y-599804537D01*
X297355820Y-599863502D01*
X297475518Y-599899812D01*
X297600000Y-599912072D01*
X299300000Y-599912072D01*
X299424482Y-599899812D01*
X299544180Y-599863502D01*
X299654494Y-599804537D01*
X299751185Y-599725185D01*
X299830537Y-599628494D01*
X299889502Y-599518180D01*
X299911513Y-599445620D01*
X300043368Y-599577475D01*
X300286589Y-599739990D01*
X300556842Y-599851932D01*
X300843740Y-599909000D01*
X301136260Y-599909000D01*
X301423158Y-599851932D01*
X301693411Y-599739990D01*
X301936632Y-599577475D01*
X302143475Y-599370632D01*
X302265195Y-599188466D01*
X302334822Y-599305355D01*
X302529731Y-599521588D01*
X302763080Y-599695641D01*
X303025901Y-599820825D01*
X303173110Y-599865476D01*
X303403000Y-599744155D01*
X303403000Y-598551000D01*
X303657000Y-598551000D01*
X303657000Y-599744155D01*
X303886890Y-599865476D01*
X304034099Y-599820825D01*
X304296920Y-599695641D01*
X304530269Y-599521588D01*
X304725178Y-599305355D01*
X304874157Y-599055252D01*
X304971481Y-598780891D01*
X304850814Y-598551000D01*
X303657000Y-598551000D01*
X303403000Y-598551000D01*
X303383000Y-598551000D01*
X303383000Y-598297000D01*
X303403000Y-598297000D01*
X303403000Y-597103845D01*
X303657000Y-597103845D01*
X303657000Y-598297000D01*
X304850814Y-598297000D01*
X304971481Y-598067109D01*
X304874157Y-597792748D01*
X304725178Y-597542645D01*
X304530269Y-597326412D01*
X304296920Y-597152359D01*
X304034099Y-597027175D01*
X303886890Y-596982524D01*
X303657000Y-597103845D01*
X303403000Y-597103845D01*
X303173110Y-596982524D01*
X303025901Y-597027175D01*
X302763080Y-597152359D01*
X302529731Y-597326412D01*
X302334822Y-597542645D01*
X302265195Y-597659534D01*
X302143475Y-597477368D01*
X301936632Y-597270525D01*
X301693411Y-597108010D01*
X301423158Y-596996068D01*
X301136260Y-596939000D01*
X301059579Y-596939000D01*
X301483579Y-596515000D01*
X306337025Y-596515000D01*
X306455000Y-596632975D01*
X306455001Y-599777521D01*
X306450719Y-599821000D01*
X306467805Y-599994490D01*
X306518412Y-600161313D01*
X306600590Y-600315059D01*
X306683468Y-600416046D01*
X306683471Y-600416049D01*
X306711184Y-600449817D01*
X306744951Y-600477530D01*
X310620470Y-604353049D01*
X310648183Y-604386817D01*
X310681951Y-604414530D01*
X310681953Y-604414532D01*
X310685476Y-604417423D01*
X310782941Y-604497411D01*
X310936687Y-604579589D01*
X311103510Y-604630195D01*
X311233523Y-604643000D01*
X311233531Y-604643000D01*
X311277000Y-604647281D01*
X311320469Y-604643000D01*
X311551928Y-604643000D01*
X311551928Y-605258000D01*
X311564188Y-605382482D01*
X311600498Y-605502180D01*
X311659463Y-605612494D01*
X311738815Y-605709185D01*
X311835506Y-605788537D01*
X311945820Y-605847502D01*
X312065518Y-605883812D01*
X312190000Y-605896072D01*
X315190000Y-605896072D01*
X315314482Y-605883812D01*
X315434180Y-605847502D01*
X315544494Y-605788537D01*
X315641185Y-605709185D01*
X315720537Y-605612494D01*
X315779502Y-605502180D01*
X315815812Y-605382482D01*
X315828072Y-605258000D01*
X315828072Y-603547721D01*
X316635000Y-603547721D01*
X316635000Y-603968279D01*
X316717047Y-604380756D01*
X316877988Y-604769302D01*
X317111637Y-605118983D01*
X317409017Y-605416363D01*
X317758698Y-605650012D01*
X318147244Y-605810953D01*
X318559721Y-605893000D01*
X318980279Y-605893000D01*
X319392756Y-605810953D01*
X319781302Y-605650012D01*
X320130983Y-605416363D01*
X320297693Y-605249653D01*
X322537952Y-605249653D01*
X322693962Y-605565214D01*
X323068745Y-605756020D01*
X323473551Y-605870044D01*
X323892824Y-605902902D01*
X324310451Y-605853334D01*
X324710383Y-605723243D01*
X325006038Y-605565214D01*
X325162048Y-605249653D01*
X323850000Y-603937605D01*
X322537952Y-605249653D01*
X320297693Y-605249653D01*
X320428363Y-605118983D01*
X320662012Y-604769302D01*
X320822953Y-604380756D01*
X320905000Y-603968279D01*
X320905000Y-603800824D01*
X321705098Y-603800824D01*
X321754666Y-604218451D01*
X321884757Y-604618383D01*
X322042786Y-604914038D01*
X322358347Y-605070048D01*
X323670395Y-603758000D01*
X324029605Y-603758000D01*
X325341653Y-605070048D01*
X325657214Y-604914038D01*
X325848020Y-604539255D01*
X325962044Y-604134449D01*
X325994902Y-603715176D01*
X325945334Y-603297549D01*
X325815243Y-602897617D01*
X325657214Y-602601962D01*
X325341653Y-602445952D01*
X324029605Y-603758000D01*
X323670395Y-603758000D01*
X322358347Y-602445952D01*
X322042786Y-602601962D01*
X321851980Y-602976745D01*
X321737956Y-603381551D01*
X321705098Y-603800824D01*
X320905000Y-603800824D01*
X320905000Y-603547721D01*
X320822953Y-603135244D01*
X320662012Y-602746698D01*
X320428363Y-602397017D01*
X320297693Y-602266347D01*
X322537952Y-602266347D01*
X323850000Y-603578395D01*
X325162048Y-602266347D01*
X325006038Y-601950786D01*
X324631255Y-601759980D01*
X324226449Y-601645956D01*
X323807176Y-601613098D01*
X323389549Y-601662666D01*
X322989617Y-601792757D01*
X322693962Y-601950786D01*
X322537952Y-602266347D01*
X320297693Y-602266347D01*
X320130983Y-602099637D01*
X319781302Y-601865988D01*
X319530000Y-601761895D01*
X319530000Y-600770801D01*
X319678801Y-600622000D01*
X327441928Y-600622000D01*
X327441928Y-602322000D01*
X327454188Y-602446482D01*
X327490498Y-602566180D01*
X327549463Y-602676494D01*
X327628815Y-602773185D01*
X327725506Y-602852537D01*
X327835820Y-602911502D01*
X327955518Y-602947812D01*
X328080000Y-602960072D01*
X329780000Y-602960072D01*
X329904482Y-602947812D01*
X330024180Y-602911502D01*
X330134494Y-602852537D01*
X330231185Y-602773185D01*
X330310537Y-602676494D01*
X330369502Y-602566180D01*
X330391513Y-602493620D01*
X330523368Y-602625475D01*
X330766589Y-602787990D01*
X331036842Y-602899932D01*
X331323740Y-602957000D01*
X331616260Y-602957000D01*
X331903158Y-602899932D01*
X332173411Y-602787990D01*
X332416632Y-602625475D01*
X332623475Y-602418632D01*
X332740000Y-602244240D01*
X332856525Y-602418632D01*
X333063368Y-602625475D01*
X333306589Y-602787990D01*
X333576842Y-602899932D01*
X333863740Y-602957000D01*
X334156260Y-602957000D01*
X334443158Y-602899932D01*
X334713411Y-602787990D01*
X334956632Y-602625475D01*
X335163475Y-602418632D01*
X335325990Y-602175411D01*
X335437932Y-601905158D01*
X335495000Y-601618260D01*
X335495000Y-601325740D01*
X335437932Y-601038842D01*
X335325990Y-600768589D01*
X335163475Y-600525368D01*
X335052107Y-600414000D01*
X339729928Y-600414000D01*
X339733000Y-600678250D01*
X339891750Y-600837000D01*
X341141000Y-600837000D01*
X341141000Y-599937750D01*
X341395000Y-599937750D01*
X341395000Y-600837000D01*
X342644250Y-600837000D01*
X342803000Y-600678250D01*
X342806072Y-600414000D01*
X342793812Y-600289518D01*
X342757502Y-600169820D01*
X342698537Y-600059506D01*
X342619185Y-599962815D01*
X342522494Y-599883463D01*
X342412180Y-599824498D01*
X342292482Y-599788188D01*
X342168000Y-599775928D01*
X341553750Y-599779000D01*
X341395000Y-599937750D01*
X341141000Y-599937750D01*
X340982250Y-599779000D01*
X340368000Y-599775928D01*
X340243518Y-599788188D01*
X340123820Y-599824498D01*
X340013506Y-599883463D01*
X339916815Y-599962815D01*
X339837463Y-600059506D01*
X339778498Y-600169820D01*
X339742188Y-600289518D01*
X339729928Y-600414000D01*
X335052107Y-600414000D01*
X334956632Y-600318525D01*
X334713411Y-600156010D01*
X334443158Y-600044068D01*
X334156260Y-599987000D01*
X333863740Y-599987000D01*
X333576842Y-600044068D01*
X333306589Y-600156010D01*
X333063368Y-600318525D01*
X332856525Y-600525368D01*
X332740000Y-600699760D01*
X332623475Y-600525368D01*
X332416632Y-600318525D01*
X332173411Y-600156010D01*
X331903158Y-600044068D01*
X331616260Y-599987000D01*
X331323740Y-599987000D01*
X331036842Y-600044068D01*
X330766589Y-600156010D01*
X330523368Y-600318525D01*
X330391513Y-600450380D01*
X330369502Y-600377820D01*
X330310537Y-600267506D01*
X330231185Y-600170815D01*
X330134494Y-600091463D01*
X330024180Y-600032498D01*
X329904482Y-599996188D01*
X329780000Y-599983928D01*
X328080000Y-599983928D01*
X327955518Y-599996188D01*
X327835820Y-600032498D01*
X327725506Y-600091463D01*
X327628815Y-600170815D01*
X327549463Y-600267506D01*
X327490498Y-600377820D01*
X327454188Y-600497518D01*
X327441928Y-600622000D01*
X319678801Y-600622000D01*
X320424004Y-599876798D01*
X320453001Y-599853001D01*
X320479407Y-599820825D01*
X320547974Y-599737277D01*
X320618546Y-599605247D01*
X320656330Y-599480687D01*
X320662003Y-599461986D01*
X320673000Y-599350333D01*
X320673000Y-599350324D01*
X320676676Y-599313001D01*
X320673000Y-599275678D01*
X320673000Y-598772276D01*
X320787900Y-598807131D01*
X321030001Y-598830976D01*
X321272103Y-598807131D01*
X321504902Y-598736512D01*
X321719450Y-598621834D01*
X321907503Y-598467503D01*
X322061834Y-598279450D01*
X322176512Y-598064902D01*
X322247131Y-597832102D01*
X322265001Y-597650665D01*
X322265001Y-596729337D01*
X322335001Y-596729337D01*
X322335001Y-597650666D01*
X322352871Y-597832103D01*
X322423490Y-598064902D01*
X322538169Y-598279450D01*
X322692500Y-598467503D01*
X322880553Y-598621834D01*
X323095101Y-598736512D01*
X323327900Y-598807131D01*
X323570001Y-598830976D01*
X323812103Y-598807131D01*
X324044902Y-598736512D01*
X324259450Y-598621834D01*
X324447503Y-598467503D01*
X324601834Y-598279450D01*
X324716512Y-598064902D01*
X324787131Y-597832102D01*
X324805001Y-597650665D01*
X324805001Y-596729337D01*
X324875001Y-596729337D01*
X324875001Y-597650666D01*
X324892871Y-597832103D01*
X324963490Y-598064902D01*
X325078169Y-598279450D01*
X325232500Y-598467503D01*
X325420553Y-598621834D01*
X325635101Y-598736512D01*
X325867900Y-598807131D01*
X326110001Y-598830976D01*
X326352103Y-598807131D01*
X326584902Y-598736512D01*
X326799450Y-598621834D01*
X326987503Y-598467503D01*
X327141834Y-598279450D01*
X327256512Y-598064902D01*
X327327131Y-597832102D01*
X327345001Y-597650665D01*
X327345001Y-596729337D01*
X327415001Y-596729337D01*
X327415001Y-597650666D01*
X327432871Y-597832103D01*
X327503490Y-598064902D01*
X327618169Y-598279450D01*
X327772500Y-598467503D01*
X327960553Y-598621834D01*
X328175101Y-598736512D01*
X328407900Y-598807131D01*
X328650001Y-598830976D01*
X328892103Y-598807131D01*
X329124902Y-598736512D01*
X329339450Y-598621834D01*
X329527503Y-598467503D01*
X329681834Y-598279450D01*
X329796512Y-598064902D01*
X329867131Y-597832102D01*
X329885001Y-597650665D01*
X329885001Y-596729337D01*
X329955001Y-596729337D01*
X329955001Y-597650666D01*
X329972871Y-597832103D01*
X330043490Y-598064902D01*
X330158169Y-598279450D01*
X330312500Y-598467503D01*
X330500553Y-598621834D01*
X330715101Y-598736512D01*
X330947900Y-598807131D01*
X331190001Y-598830976D01*
X331432103Y-598807131D01*
X331664902Y-598736512D01*
X331879450Y-598621834D01*
X332067503Y-598467503D01*
X332221834Y-598279450D01*
X332336512Y-598064902D01*
X332407131Y-597832102D01*
X332425001Y-597650665D01*
X332425001Y-596729337D01*
X332495001Y-596729337D01*
X332495001Y-597650666D01*
X332512871Y-597832103D01*
X332583490Y-598064902D01*
X332698169Y-598279450D01*
X332852500Y-598467503D01*
X333040553Y-598621834D01*
X333255101Y-598736512D01*
X333487900Y-598807131D01*
X333730001Y-598830976D01*
X333972103Y-598807131D01*
X334204902Y-598736512D01*
X334419450Y-598621834D01*
X334607503Y-598467503D01*
X334761834Y-598279450D01*
X334876512Y-598064902D01*
X334947131Y-597832102D01*
X334965001Y-597650665D01*
X334965001Y-596729337D01*
X335035001Y-596729337D01*
X335035001Y-597650666D01*
X335052871Y-597832103D01*
X335123490Y-598064902D01*
X335238169Y-598279450D01*
X335392500Y-598467503D01*
X335580553Y-598621834D01*
X335795101Y-598736512D01*
X336027900Y-598807131D01*
X336270001Y-598830976D01*
X336512103Y-598807131D01*
X336744902Y-598736512D01*
X336959450Y-598621834D01*
X337147503Y-598467503D01*
X337301834Y-598279450D01*
X337416512Y-598064902D01*
X337487131Y-597832102D01*
X337505001Y-597650665D01*
X337505001Y-596729337D01*
X337575001Y-596729337D01*
X337575001Y-597650666D01*
X337592871Y-597832103D01*
X337663490Y-598064902D01*
X337778169Y-598279450D01*
X337932500Y-598467503D01*
X338120553Y-598621834D01*
X338335101Y-598736512D01*
X338567900Y-598807131D01*
X338810001Y-598830976D01*
X339052103Y-598807131D01*
X339284902Y-598736512D01*
X339499450Y-598621834D01*
X339687503Y-598467503D01*
X339841834Y-598279450D01*
X339956512Y-598064902D01*
X340027131Y-597832102D01*
X340045001Y-597650665D01*
X340045001Y-596729337D01*
X340115001Y-596729337D01*
X340115001Y-597650666D01*
X340132871Y-597832103D01*
X340203490Y-598064902D01*
X340318169Y-598279450D01*
X340472500Y-598467503D01*
X340660553Y-598621834D01*
X340875101Y-598736512D01*
X341107900Y-598807131D01*
X341350001Y-598830976D01*
X341592103Y-598807131D01*
X341822453Y-598737255D01*
X343290200Y-600205002D01*
X343313999Y-600234001D01*
X343429724Y-600328974D01*
X343561753Y-600399546D01*
X343705014Y-600443003D01*
X343816667Y-600454000D01*
X343816676Y-600454000D01*
X343853999Y-600457676D01*
X343891322Y-600454000D01*
X352745199Y-600454000D01*
X353037727Y-600746528D01*
X352583750Y-600749000D01*
X352425000Y-600907750D01*
X352425000Y-602107000D01*
X352445000Y-602107000D01*
X352445000Y-602361000D01*
X352425000Y-602361000D01*
X352425000Y-603560250D01*
X352583750Y-603719000D01*
X353148000Y-603722072D01*
X353272482Y-603709812D01*
X353392180Y-603673502D01*
X353502494Y-603614537D01*
X353599185Y-603535185D01*
X353678537Y-603438494D01*
X353737502Y-603328180D01*
X353759513Y-603255620D01*
X353891368Y-603387475D01*
X354134589Y-603549990D01*
X354404842Y-603661932D01*
X354691740Y-603719000D01*
X354984260Y-603719000D01*
X355271158Y-603661932D01*
X355541411Y-603549990D01*
X355784632Y-603387475D01*
X355991475Y-603180632D01*
X356108000Y-603006240D01*
X356224525Y-603180632D01*
X356431368Y-603387475D01*
X356674589Y-603549990D01*
X356944842Y-603661932D01*
X357231740Y-603719000D01*
X357524260Y-603719000D01*
X357811158Y-603661932D01*
X358081411Y-603549990D01*
X358324632Y-603387475D01*
X358531475Y-603180632D01*
X358693990Y-602937411D01*
X358805932Y-602667158D01*
X358863000Y-602380260D01*
X358863000Y-602087740D01*
X358805932Y-601800842D01*
X358693990Y-601530589D01*
X358531475Y-601287368D01*
X358324632Y-601080525D01*
X358081411Y-600918010D01*
X357811158Y-600806068D01*
X357524260Y-600749000D01*
X357231740Y-600749000D01*
X356944842Y-600806068D01*
X356674589Y-600918010D01*
X356431368Y-601080525D01*
X356224525Y-601287368D01*
X356108000Y-601461760D01*
X355991475Y-601287368D01*
X355784632Y-601080525D01*
X355541411Y-600918010D01*
X355271158Y-600806068D01*
X355240839Y-600800037D01*
X353623804Y-599183003D01*
X353600001Y-599153999D01*
X353484276Y-599059026D01*
X353352247Y-598988454D01*
X353208986Y-598944997D01*
X353097333Y-598934000D01*
X353097322Y-598934000D01*
X353060000Y-598930324D01*
X353022678Y-598934000D01*
X344168802Y-598934000D01*
X344050018Y-598815216D01*
X344132103Y-598807131D01*
X344364902Y-598736512D01*
X344579450Y-598621834D01*
X344767503Y-598467503D01*
X344921834Y-598279450D01*
X345036512Y-598064902D01*
X345107131Y-597832102D01*
X345125001Y-597650665D01*
X345125001Y-596729337D01*
X345195001Y-596729337D01*
X345195001Y-597650666D01*
X345212871Y-597832103D01*
X345283490Y-598064902D01*
X345398169Y-598279450D01*
X345552500Y-598467503D01*
X345740553Y-598621834D01*
X345955101Y-598736512D01*
X346187900Y-598807131D01*
X346430001Y-598830976D01*
X346672103Y-598807131D01*
X346904902Y-598736512D01*
X347119450Y-598621834D01*
X347307503Y-598467503D01*
X347461834Y-598279450D01*
X347576512Y-598064902D01*
X347647131Y-597832102D01*
X347665001Y-597650665D01*
X347665001Y-597317001D01*
X347735001Y-597317001D01*
X347735001Y-597717001D01*
X347783508Y-597955497D01*
X347877611Y-598179947D01*
X348013694Y-598381726D01*
X348186527Y-598553079D01*
X348389468Y-598687422D01*
X348614719Y-598779592D01*
X348652392Y-598783463D01*
X348843001Y-598658732D01*
X348843001Y-597317001D01*
X349097001Y-597317001D01*
X349097001Y-598658732D01*
X349287610Y-598783463D01*
X349325283Y-598779592D01*
X349550534Y-598687422D01*
X349753475Y-598553079D01*
X349926308Y-598381726D01*
X350062391Y-598179947D01*
X350156494Y-597955497D01*
X350205001Y-597717001D01*
X350205001Y-597317001D01*
X349097001Y-597317001D01*
X348843001Y-597317001D01*
X347735001Y-597317001D01*
X347665001Y-597317001D01*
X347665001Y-596729336D01*
X347658468Y-596663001D01*
X347735001Y-596663001D01*
X347735001Y-597063001D01*
X348843001Y-597063001D01*
X348843001Y-595721270D01*
X349097001Y-595721270D01*
X349097001Y-597063001D01*
X350205001Y-597063001D01*
X350205001Y-596663001D01*
X350156494Y-596424505D01*
X350062391Y-596200055D01*
X349926308Y-595998276D01*
X349753475Y-595826923D01*
X349550534Y-595692580D01*
X349325283Y-595600410D01*
X349287610Y-595596539D01*
X349097001Y-595721270D01*
X348843001Y-595721270D01*
X348652392Y-595596539D01*
X348614719Y-595600410D01*
X348389468Y-595692580D01*
X348186527Y-595826923D01*
X348013694Y-595998276D01*
X347877611Y-596200055D01*
X347783508Y-596424505D01*
X347735001Y-596663001D01*
X347658468Y-596663001D01*
X347647131Y-596547899D01*
X347576512Y-596315100D01*
X347461834Y-596100552D01*
X347307503Y-595912499D01*
X347119449Y-595758168D01*
X346904901Y-595643490D01*
X346672102Y-595572871D01*
X346430001Y-595549026D01*
X346187899Y-595572871D01*
X345955100Y-595643490D01*
X345740552Y-595758168D01*
X345552499Y-595912499D01*
X345398168Y-596100553D01*
X345283490Y-596315101D01*
X345212871Y-596547900D01*
X345195001Y-596729337D01*
X345125001Y-596729337D01*
X345125001Y-596729336D01*
X345107131Y-596547899D01*
X345036512Y-596315100D01*
X344921834Y-596100552D01*
X344767503Y-595912499D01*
X344579449Y-595758168D01*
X344364901Y-595643490D01*
X344132102Y-595572871D01*
X343890001Y-595549026D01*
X343647899Y-595572871D01*
X343415100Y-595643490D01*
X343200552Y-595758168D01*
X343012499Y-595912499D01*
X342858168Y-596100553D01*
X342743490Y-596315101D01*
X342672871Y-596547900D01*
X342655001Y-596729337D01*
X342655001Y-597420200D01*
X342585001Y-597350200D01*
X342585001Y-596729336D01*
X342567131Y-596547899D01*
X342496512Y-596315100D01*
X342381834Y-596100552D01*
X342227503Y-595912499D01*
X342039449Y-595758168D01*
X341824901Y-595643490D01*
X341592102Y-595572871D01*
X341350001Y-595549026D01*
X341107899Y-595572871D01*
X340875100Y-595643490D01*
X340660552Y-595758168D01*
X340472499Y-595912499D01*
X340318168Y-596100553D01*
X340203490Y-596315101D01*
X340132871Y-596547900D01*
X340115001Y-596729337D01*
X340045001Y-596729337D01*
X340045001Y-596729336D01*
X340027131Y-596547899D01*
X339956512Y-596315100D01*
X339841834Y-596100552D01*
X339687503Y-595912499D01*
X339499449Y-595758168D01*
X339284901Y-595643490D01*
X339052102Y-595572871D01*
X338810001Y-595549026D01*
X338567899Y-595572871D01*
X338335100Y-595643490D01*
X338120552Y-595758168D01*
X337932499Y-595912499D01*
X337778168Y-596100553D01*
X337663490Y-596315101D01*
X337592871Y-596547900D01*
X337575001Y-596729337D01*
X337505001Y-596729337D01*
X337505001Y-596729336D01*
X337487131Y-596547899D01*
X337416512Y-596315100D01*
X337301834Y-596100552D01*
X337147503Y-595912499D01*
X336959449Y-595758168D01*
X336744901Y-595643490D01*
X336512102Y-595572871D01*
X336270001Y-595549026D01*
X336027899Y-595572871D01*
X335795100Y-595643490D01*
X335580552Y-595758168D01*
X335392499Y-595912499D01*
X335238168Y-596100553D01*
X335123490Y-596315101D01*
X335052871Y-596547900D01*
X335035001Y-596729337D01*
X334965001Y-596729337D01*
X334965001Y-596729336D01*
X334947131Y-596547899D01*
X334876512Y-596315100D01*
X334761834Y-596100552D01*
X334607503Y-595912499D01*
X334419449Y-595758168D01*
X334204901Y-595643490D01*
X333972102Y-595572871D01*
X333730001Y-595549026D01*
X333487899Y-595572871D01*
X333255100Y-595643490D01*
X333040552Y-595758168D01*
X332852499Y-595912499D01*
X332698168Y-596100553D01*
X332583490Y-596315101D01*
X332512871Y-596547900D01*
X332495001Y-596729337D01*
X332425001Y-596729337D01*
X332425001Y-596729336D01*
X332407131Y-596547899D01*
X332336512Y-596315100D01*
X332221834Y-596100552D01*
X332067503Y-595912499D01*
X331879449Y-595758168D01*
X331664901Y-595643490D01*
X331432102Y-595572871D01*
X331190001Y-595549026D01*
X330947899Y-595572871D01*
X330715100Y-595643490D01*
X330500552Y-595758168D01*
X330312499Y-595912499D01*
X330158168Y-596100553D01*
X330043490Y-596315101D01*
X329972871Y-596547900D01*
X329955001Y-596729337D01*
X329885001Y-596729337D01*
X329885001Y-596729336D01*
X329867131Y-596547899D01*
X329796512Y-596315100D01*
X329681834Y-596100552D01*
X329527503Y-595912499D01*
X329339449Y-595758168D01*
X329124901Y-595643490D01*
X328892102Y-595572871D01*
X328650001Y-595549026D01*
X328407899Y-595572871D01*
X328175100Y-595643490D01*
X327960552Y-595758168D01*
X327772499Y-595912499D01*
X327618168Y-596100553D01*
X327503490Y-596315101D01*
X327432871Y-596547900D01*
X327415001Y-596729337D01*
X327345001Y-596729337D01*
X327345001Y-596729336D01*
X327327131Y-596547899D01*
X327256512Y-596315100D01*
X327141834Y-596100552D01*
X326987503Y-595912499D01*
X326799449Y-595758168D01*
X326584901Y-595643490D01*
X326352102Y-595572871D01*
X326110001Y-595549026D01*
X325867899Y-595572871D01*
X325635100Y-595643490D01*
X325420552Y-595758168D01*
X325232499Y-595912499D01*
X325078168Y-596100553D01*
X324963490Y-596315101D01*
X324892871Y-596547900D01*
X324875001Y-596729337D01*
X324805001Y-596729337D01*
X324805001Y-596729336D01*
X324787131Y-596547899D01*
X324716512Y-596315100D01*
X324601834Y-596100552D01*
X324447503Y-595912499D01*
X324259449Y-595758168D01*
X324044901Y-595643490D01*
X323812102Y-595572871D01*
X323570001Y-595549026D01*
X323327899Y-595572871D01*
X323095100Y-595643490D01*
X322880552Y-595758168D01*
X322692499Y-595912499D01*
X322538168Y-596100553D01*
X322423490Y-596315101D01*
X322352871Y-596547900D01*
X322335001Y-596729337D01*
X322265001Y-596729337D01*
X322265001Y-596729336D01*
X322247131Y-596547899D01*
X322176512Y-596315100D01*
X322061834Y-596100552D01*
X321907503Y-595912499D01*
X321719449Y-595758168D01*
X321504901Y-595643490D01*
X321272102Y-595572871D01*
X321030001Y-595549026D01*
X320787899Y-595572871D01*
X320673000Y-595607725D01*
X320673000Y-595309801D01*
X321624802Y-594358000D01*
X349824199Y-594358000D01*
X350750001Y-595283803D01*
X350750001Y-595816067D01*
X350632499Y-595912499D01*
X350478168Y-596100553D01*
X350363490Y-596315101D01*
X350292871Y-596547900D01*
X350275001Y-596729337D01*
X350275001Y-597650666D01*
X350292871Y-597832103D01*
X350363490Y-598064902D01*
X350478169Y-598279450D01*
X350632500Y-598467503D01*
X350820553Y-598621834D01*
X351035101Y-598736512D01*
X351267900Y-598807131D01*
X351510001Y-598830976D01*
X351752103Y-598807131D01*
X351984902Y-598736512D01*
X352199450Y-598621834D01*
X352387503Y-598467503D01*
X352541834Y-598279450D01*
X352656512Y-598064902D01*
X352727131Y-597832102D01*
X352745001Y-597650665D01*
X352745001Y-596729337D01*
X352815001Y-596729337D01*
X352815001Y-597650666D01*
X352832871Y-597832103D01*
X352903490Y-598064902D01*
X353018169Y-598279450D01*
X353172500Y-598467503D01*
X353360553Y-598621834D01*
X353575101Y-598736512D01*
X353807900Y-598807131D01*
X354050001Y-598830976D01*
X354292103Y-598807131D01*
X354524902Y-598736512D01*
X354739450Y-598621834D01*
X354927503Y-598467503D01*
X355081834Y-598279450D01*
X355196512Y-598064902D01*
X355267131Y-597832102D01*
X355285001Y-597650665D01*
X355285001Y-596729337D01*
X355355001Y-596729337D01*
X355355001Y-597650666D01*
X355372871Y-597832103D01*
X355443490Y-598064902D01*
X355558169Y-598279450D01*
X355712500Y-598467503D01*
X355900553Y-598621834D01*
X356115101Y-598736512D01*
X356347900Y-598807131D01*
X356590001Y-598830976D01*
X356832103Y-598807131D01*
X357064902Y-598736512D01*
X357279450Y-598621834D01*
X357467503Y-598467503D01*
X357621834Y-598279450D01*
X357736512Y-598064902D01*
X357807131Y-597832102D01*
X357825001Y-597650665D01*
X357825001Y-596729337D01*
X357895001Y-596729337D01*
X357895001Y-597650666D01*
X357912871Y-597832103D01*
X357983490Y-598064902D01*
X358098169Y-598279450D01*
X358252500Y-598467503D01*
X358440553Y-598621834D01*
X358655101Y-598736512D01*
X358887900Y-598807131D01*
X359130001Y-598830976D01*
X359372103Y-598807131D01*
X359604902Y-598736512D01*
X359819450Y-598621834D01*
X360007503Y-598467503D01*
X360161834Y-598279450D01*
X360276512Y-598064902D01*
X360347131Y-597832102D01*
X360365001Y-597650665D01*
X360365001Y-596729337D01*
X360435001Y-596729337D01*
X360435001Y-597650666D01*
X360452871Y-597832103D01*
X360523490Y-598064902D01*
X360638169Y-598279450D01*
X360792500Y-598467503D01*
X360980553Y-598621834D01*
X361195101Y-598736512D01*
X361427900Y-598807131D01*
X361670001Y-598830976D01*
X361912103Y-598807131D01*
X362144902Y-598736512D01*
X362359450Y-598621834D01*
X362547503Y-598467503D01*
X362701834Y-598279450D01*
X362816512Y-598064902D01*
X362887131Y-597832102D01*
X362905001Y-597650665D01*
X362905001Y-596729336D01*
X362887131Y-596547899D01*
X362816512Y-596315100D01*
X362701834Y-596100552D01*
X362547503Y-595912499D01*
X362359449Y-595758168D01*
X362144901Y-595643490D01*
X361912102Y-595572871D01*
X361670001Y-595549026D01*
X361427899Y-595572871D01*
X361195100Y-595643490D01*
X360980552Y-595758168D01*
X360792499Y-595912499D01*
X360638168Y-596100553D01*
X360523490Y-596315101D01*
X360452871Y-596547900D01*
X360435001Y-596729337D01*
X360365001Y-596729337D01*
X360365001Y-596729336D01*
X360347131Y-596547899D01*
X360276512Y-596315100D01*
X360161834Y-596100552D01*
X360007503Y-595912499D01*
X359819449Y-595758168D01*
X359604901Y-595643490D01*
X359372102Y-595572871D01*
X359130001Y-595549026D01*
X358887899Y-595572871D01*
X358655100Y-595643490D01*
X358440552Y-595758168D01*
X358252499Y-595912499D01*
X358098168Y-596100553D01*
X357983490Y-596315101D01*
X357912871Y-596547900D01*
X357895001Y-596729337D01*
X357825001Y-596729337D01*
X357825001Y-596729336D01*
X357807131Y-596547899D01*
X357736512Y-596315100D01*
X357621834Y-596100552D01*
X357467503Y-595912499D01*
X357279449Y-595758168D01*
X357064901Y-595643490D01*
X356832102Y-595572871D01*
X356590001Y-595549026D01*
X356347899Y-595572871D01*
X356115100Y-595643490D01*
X355900552Y-595758168D01*
X355712499Y-595912499D01*
X355558168Y-596100553D01*
X355443490Y-596315101D01*
X355372871Y-596547900D01*
X355355001Y-596729337D01*
X355285001Y-596729337D01*
X355285001Y-596729336D01*
X355267131Y-596547899D01*
X355196512Y-596315100D01*
X355081834Y-596100552D01*
X354927503Y-595912499D01*
X354739449Y-595758168D01*
X354524901Y-595643490D01*
X354292102Y-595572871D01*
X354050001Y-595549026D01*
X353807899Y-595572871D01*
X353575100Y-595643490D01*
X353360552Y-595758168D01*
X353172499Y-595912499D01*
X353018168Y-596100553D01*
X352903490Y-596315101D01*
X352832871Y-596547900D01*
X352815001Y-596729337D01*
X352745001Y-596729337D01*
X352745001Y-596729336D01*
X352727131Y-596547899D01*
X352656512Y-596315100D01*
X352541834Y-596100552D01*
X352387503Y-595912499D01*
X352270001Y-595816068D01*
X352270001Y-595006323D01*
X352273677Y-594969000D01*
X352270001Y-594931677D01*
X352270001Y-594931668D01*
X352259004Y-594820015D01*
X352215547Y-594676754D01*
X352144975Y-594544725D01*
X352050002Y-594429000D01*
X352021005Y-594405203D01*
X350702804Y-593087003D01*
X350679001Y-593057999D01*
X350563276Y-592963026D01*
X350431247Y-592892454D01*
X350287986Y-592848997D01*
X350176333Y-592838000D01*
X350176322Y-592838000D01*
X350139000Y-592834324D01*
X350101678Y-592838000D01*
X321347322Y-592838000D01*
X321309999Y-592834324D01*
X321272676Y-592838000D01*
X321272667Y-592838000D01*
X321161014Y-592848997D01*
X321017753Y-592892454D01*
X320885724Y-592963026D01*
X320769999Y-593057999D01*
X320746201Y-593086997D01*
X319401998Y-594431201D01*
X319373000Y-594454999D01*
X319349202Y-594483997D01*
X319349201Y-594483998D01*
X319278026Y-594570724D01*
X319207454Y-594702754D01*
X319192195Y-594753058D01*
X319163998Y-594846014D01*
X319159608Y-594890589D01*
X319149324Y-594995000D01*
X319153001Y-595032332D01*
X319153001Y-595744031D01*
X318964901Y-595643490D01*
X318732102Y-595572871D01*
X318490001Y-595549026D01*
X318247899Y-595572871D01*
X318015100Y-595643490D01*
X317800552Y-595758168D01*
X317612499Y-595912499D01*
X317458168Y-596100553D01*
X317343490Y-596315101D01*
X317272871Y-596547900D01*
X317255001Y-596729337D01*
X317255001Y-597650666D01*
X317272871Y-597832103D01*
X317343490Y-598064902D01*
X317458169Y-598279450D01*
X317612500Y-598467503D01*
X317800553Y-598621834D01*
X318015101Y-598736512D01*
X318247900Y-598807131D01*
X318490001Y-598830976D01*
X318732103Y-598807131D01*
X318964902Y-598736512D01*
X319153000Y-598635972D01*
X319153000Y-598998198D01*
X318258998Y-599892201D01*
X318230000Y-599915999D01*
X318206202Y-599944997D01*
X318206201Y-599944998D01*
X318135026Y-600031724D01*
X318064454Y-600163754D01*
X318020998Y-600307015D01*
X318006324Y-600456000D01*
X318010001Y-600493332D01*
X318010001Y-601761895D01*
X317758698Y-601865988D01*
X317409017Y-602099637D01*
X317111637Y-602397017D01*
X316877988Y-602746698D01*
X316717047Y-603135244D01*
X316635000Y-603547721D01*
X315828072Y-603547721D01*
X315828072Y-602258000D01*
X315815812Y-602133518D01*
X315779502Y-602013820D01*
X315720537Y-601903506D01*
X315641185Y-601806815D01*
X315544494Y-601727463D01*
X315434180Y-601668498D01*
X315314482Y-601632188D01*
X315190000Y-601619928D01*
X312190000Y-601619928D01*
X312065518Y-601632188D01*
X311945820Y-601668498D01*
X311835506Y-601727463D01*
X311738815Y-601806815D01*
X311659463Y-601903506D01*
X311600498Y-602013820D01*
X311564188Y-602133518D01*
X311551928Y-602258000D01*
X311551928Y-602781349D01*
X308225000Y-599454422D01*
X308225000Y-596632975D01*
X308376962Y-596481013D01*
X308523061Y-596262359D01*
X308623696Y-596019405D01*
X308675000Y-595761486D01*
X308675000Y-595498514D01*
X308623696Y-595240595D01*
X308523061Y-594997641D01*
X308376962Y-594778987D01*
X308191013Y-594593038D01*
X307972359Y-594446939D01*
X307729405Y-594346304D01*
X307471486Y-594295000D01*
X307208514Y-594295000D01*
X306950595Y-594346304D01*
X306707641Y-594446939D01*
X306488987Y-594593038D01*
X306337025Y-594745000D01*
X301160469Y-594745000D01*
X301117000Y-594740719D01*
X301073531Y-594745000D01*
X301073523Y-594745000D01*
X300943510Y-594757805D01*
X300776686Y-594808411D01*
X300622941Y-594890589D01*
X300521953Y-594973468D01*
X300521951Y-594973470D01*
X300488183Y-595001183D01*
X300460470Y-595034951D01*
X298559494Y-596935928D01*
X297600000Y-596935928D01*
X297475518Y-596948188D01*
X297355820Y-596984498D01*
X297245506Y-597043463D01*
X297148815Y-597122815D01*
X297069463Y-597219506D01*
X297010498Y-597329820D01*
X296974188Y-597449518D01*
X296961928Y-597574000D01*
X283997000Y-597574000D01*
X283997000Y-594249000D01*
X285937428Y-594249000D01*
X285937428Y-596249000D01*
X285949688Y-596373482D01*
X285985998Y-596493180D01*
X286044963Y-596603494D01*
X286124315Y-596700185D01*
X286221006Y-596779537D01*
X286331320Y-596838502D01*
X286451018Y-596874812D01*
X286575500Y-596887072D01*
X288480500Y-596887072D01*
X288604982Y-596874812D01*
X288724680Y-596838502D01*
X288834994Y-596779537D01*
X288931685Y-596700185D01*
X289011037Y-596603494D01*
X289060059Y-596511781D01*
X289201077Y-596624969D01*
X289476906Y-596768571D01*
X289695020Y-596839563D01*
X289941000Y-596719594D01*
X289941000Y-595376000D01*
X289921000Y-595376000D01*
X289921000Y-595122000D01*
X289941000Y-595122000D01*
X289941000Y-593778406D01*
X290195000Y-593778406D01*
X290195000Y-595122000D01*
X290215000Y-595122000D01*
X290215000Y-595376000D01*
X290195000Y-595376000D01*
X290195000Y-596719594D01*
X290440980Y-596839563D01*
X290659094Y-596768571D01*
X290934923Y-596624969D01*
X291177437Y-596430315D01*
X291332837Y-596245101D01*
X291480037Y-596424463D01*
X291721766Y-596622845D01*
X291997552Y-596770255D01*
X292296797Y-596861030D01*
X292608000Y-596891681D01*
X292919204Y-596861030D01*
X293218449Y-596770255D01*
X293494235Y-596622845D01*
X293735963Y-596424463D01*
X293934345Y-596182734D01*
X294081755Y-595906948D01*
X294172530Y-595607703D01*
X294195500Y-595374485D01*
X294195500Y-595123514D01*
X294172530Y-594890296D01*
X294081755Y-594591051D01*
X293934345Y-594315265D01*
X293735963Y-594073537D01*
X293494234Y-593875155D01*
X293218448Y-593727745D01*
X292919203Y-593636970D01*
X292608000Y-593606319D01*
X292296796Y-593636970D01*
X291997551Y-593727745D01*
X291721765Y-593875155D01*
X291480037Y-594073537D01*
X291332838Y-594252900D01*
X291177437Y-594067685D01*
X290934923Y-593873031D01*
X290659094Y-593729429D01*
X290440980Y-593658437D01*
X290195000Y-593778406D01*
X289941000Y-593778406D01*
X289695020Y-593658437D01*
X289476906Y-593729429D01*
X289201077Y-593873031D01*
X289060059Y-593986219D01*
X289011037Y-593894506D01*
X288931685Y-593797815D01*
X288834994Y-593718463D01*
X288724680Y-593659498D01*
X288604982Y-593623188D01*
X288480500Y-593610928D01*
X286575500Y-593610928D01*
X286451018Y-593623188D01*
X286331320Y-593659498D01*
X286221006Y-593718463D01*
X286124315Y-593797815D01*
X286044963Y-593894506D01*
X285985998Y-594004820D01*
X285949688Y-594124518D01*
X285937428Y-594249000D01*
X283997000Y-594249000D01*
X283997000Y-587936570D01*
X284985000Y-587936570D01*
X284985000Y-588337430D01*
X285063204Y-588730587D01*
X285216607Y-589100934D01*
X285439313Y-589434237D01*
X285722763Y-589717687D01*
X286056066Y-589940393D01*
X286426413Y-590093796D01*
X286819570Y-590172000D01*
X287220430Y-590172000D01*
X287613587Y-590093796D01*
X287983934Y-589940393D01*
X288317237Y-589717687D01*
X288600687Y-589434237D01*
X288823393Y-589100934D01*
X288976796Y-588730587D01*
X289055000Y-588337430D01*
X289055000Y-587936570D01*
X289043452Y-587878514D01*
X306005000Y-587878514D01*
X306005000Y-588141486D01*
X306056304Y-588399405D01*
X306156939Y-588642359D01*
X306303038Y-588861013D01*
X306488987Y-589046962D01*
X306707641Y-589193061D01*
X306950595Y-589293696D01*
X307208514Y-589345000D01*
X307471486Y-589345000D01*
X307729405Y-589293696D01*
X307972359Y-589193061D01*
X308191013Y-589046962D01*
X308376962Y-588861013D01*
X308523061Y-588642359D01*
X308623696Y-588399405D01*
X308675000Y-588141486D01*
X308675000Y-587878514D01*
X308623696Y-587620595D01*
X308523061Y-587377641D01*
X308376962Y-587158987D01*
X308191013Y-586973038D01*
X307972359Y-586826939D01*
X307729405Y-586726304D01*
X307471486Y-586675000D01*
X307208514Y-586675000D01*
X306950595Y-586726304D01*
X306707641Y-586826939D01*
X306488987Y-586973038D01*
X306303038Y-587158987D01*
X306156939Y-587377641D01*
X306056304Y-587620595D01*
X306005000Y-587878514D01*
X289043452Y-587878514D01*
X288976796Y-587543413D01*
X288823393Y-587173066D01*
X288600687Y-586839763D01*
X288317237Y-586556313D01*
X287983934Y-586333607D01*
X287613587Y-586180204D01*
X287220430Y-586102000D01*
X286819570Y-586102000D01*
X286426413Y-586180204D01*
X286056066Y-586333607D01*
X285722763Y-586556313D01*
X285439313Y-586839763D01*
X285216607Y-587173066D01*
X285063204Y-587543413D01*
X284985000Y-587936570D01*
X283997000Y-587936570D01*
X283997000Y-584366000D01*
X296961928Y-584366000D01*
X296961928Y-586066000D01*
X296974188Y-586190482D01*
X297010498Y-586310180D01*
X297069463Y-586420494D01*
X297148815Y-586517185D01*
X297245506Y-586596537D01*
X297355820Y-586655502D01*
X297475518Y-586691812D01*
X297600000Y-586704072D01*
X299300000Y-586704072D01*
X299424482Y-586691812D01*
X299544180Y-586655502D01*
X299654494Y-586596537D01*
X299751185Y-586517185D01*
X299830537Y-586420494D01*
X299889502Y-586310180D01*
X299911513Y-586237620D01*
X300043368Y-586369475D01*
X300286589Y-586531990D01*
X300556842Y-586643932D01*
X300843740Y-586701000D01*
X301136260Y-586701000D01*
X301423158Y-586643932D01*
X301693411Y-586531990D01*
X301936632Y-586369475D01*
X302143475Y-586162632D01*
X302265195Y-585980466D01*
X302334822Y-586097355D01*
X302529731Y-586313588D01*
X302763080Y-586487641D01*
X303025901Y-586612825D01*
X303173110Y-586657476D01*
X303403000Y-586536155D01*
X303403000Y-585343000D01*
X303657000Y-585343000D01*
X303657000Y-586536155D01*
X303886890Y-586657476D01*
X304034099Y-586612825D01*
X304296920Y-586487641D01*
X304530269Y-586313588D01*
X304725178Y-586097355D01*
X304874157Y-585847252D01*
X304971481Y-585572891D01*
X304850814Y-585343000D01*
X303657000Y-585343000D01*
X303403000Y-585343000D01*
X303383000Y-585343000D01*
X303383000Y-585089000D01*
X303403000Y-585089000D01*
X303403000Y-583895845D01*
X303657000Y-583895845D01*
X303657000Y-585089000D01*
X304850814Y-585089000D01*
X304971481Y-584859109D01*
X304874157Y-584584748D01*
X304725178Y-584334645D01*
X304530269Y-584118412D01*
X304296920Y-583944359D01*
X304034099Y-583819175D01*
X303886890Y-583774524D01*
X303657000Y-583895845D01*
X303403000Y-583895845D01*
X303173110Y-583774524D01*
X303025901Y-583819175D01*
X302763080Y-583944359D01*
X302529731Y-584118412D01*
X302334822Y-584334645D01*
X302265195Y-584451534D01*
X302143475Y-584269368D01*
X301936632Y-584062525D01*
X301693411Y-583900010D01*
X301423158Y-583788068D01*
X301136260Y-583731000D01*
X300843740Y-583731000D01*
X300556842Y-583788068D01*
X300286589Y-583900010D01*
X300043368Y-584062525D01*
X299911513Y-584194380D01*
X299889502Y-584121820D01*
X299830537Y-584011506D01*
X299751185Y-583914815D01*
X299654494Y-583835463D01*
X299544180Y-583776498D01*
X299424482Y-583740188D01*
X299300000Y-583727928D01*
X297600000Y-583727928D01*
X297475518Y-583740188D01*
X297355820Y-583776498D01*
X297245506Y-583835463D01*
X297148815Y-583914815D01*
X297069463Y-584011506D01*
X297010498Y-584121820D01*
X296974188Y-584241518D01*
X296961928Y-584366000D01*
X283997000Y-584366000D01*
X283997000Y-577703740D01*
X296965000Y-577703740D01*
X296965000Y-577996260D01*
X297022068Y-578283158D01*
X297134010Y-578553411D01*
X297296525Y-578796632D01*
X297503368Y-579003475D01*
X297677760Y-579120000D01*
X297503368Y-579236525D01*
X297296525Y-579443368D01*
X297134010Y-579686589D01*
X297022068Y-579956842D01*
X296965000Y-580243740D01*
X296965000Y-580536260D01*
X297022068Y-580823158D01*
X297134010Y-581093411D01*
X297296525Y-581336632D01*
X297503368Y-581543475D01*
X297746589Y-581705990D01*
X298016842Y-581817932D01*
X298303740Y-581875000D01*
X298596260Y-581875000D01*
X298883158Y-581817932D01*
X299153411Y-581705990D01*
X299396632Y-581543475D01*
X299603475Y-581336632D01*
X299765990Y-581093411D01*
X299877932Y-580823158D01*
X299935000Y-580536260D01*
X299935000Y-580243740D01*
X299877932Y-579956842D01*
X299765990Y-579686589D01*
X299603475Y-579443368D01*
X299396632Y-579236525D01*
X299222240Y-579120000D01*
X299396632Y-579003475D01*
X299603475Y-578796632D01*
X299765990Y-578553411D01*
X299877932Y-578283158D01*
X299935000Y-577996260D01*
X299935000Y-577703740D01*
X303315000Y-577703740D01*
X303315000Y-577996260D01*
X303372068Y-578283158D01*
X303484010Y-578553411D01*
X303646525Y-578796632D01*
X303853368Y-579003475D01*
X304027760Y-579120000D01*
X303853368Y-579236525D01*
X303646525Y-579443368D01*
X303484010Y-579686589D01*
X303372068Y-579956842D01*
X303315000Y-580243740D01*
X303315000Y-580536260D01*
X303372068Y-580823158D01*
X303484010Y-581093411D01*
X303646525Y-581336632D01*
X303853368Y-581543475D01*
X304096589Y-581705990D01*
X304366842Y-581817932D01*
X304653740Y-581875000D01*
X304946260Y-581875000D01*
X305233158Y-581817932D01*
X305503411Y-581705990D01*
X305746632Y-581543475D01*
X305953475Y-581336632D01*
X306115990Y-581093411D01*
X306227932Y-580823158D01*
X306285000Y-580536260D01*
X306285000Y-580243740D01*
X306227932Y-579956842D01*
X306115990Y-579686589D01*
X305953475Y-579443368D01*
X305746632Y-579236525D01*
X305572240Y-579120000D01*
X305746632Y-579003475D01*
X305953475Y-578796632D01*
X306115990Y-578553411D01*
X306227932Y-578283158D01*
X306285000Y-577996260D01*
X306285000Y-577703740D01*
X306227932Y-577416842D01*
X306115990Y-577146589D01*
X305953475Y-576903368D01*
X305746632Y-576696525D01*
X305564466Y-576574805D01*
X305681355Y-576505178D01*
X305897588Y-576310269D01*
X306071641Y-576076920D01*
X306196825Y-575814099D01*
X306241476Y-575666890D01*
X306120155Y-575437000D01*
X304927000Y-575437000D01*
X304927000Y-575457000D01*
X304673000Y-575457000D01*
X304673000Y-575437000D01*
X303479845Y-575437000D01*
X303358524Y-575666890D01*
X303403175Y-575814099D01*
X303528359Y-576076920D01*
X303702412Y-576310269D01*
X303918645Y-576505178D01*
X304035534Y-576574805D01*
X303853368Y-576696525D01*
X303646525Y-576903368D01*
X303484010Y-577146589D01*
X303372068Y-577416842D01*
X303315000Y-577703740D01*
X299935000Y-577703740D01*
X299877932Y-577416842D01*
X299765990Y-577146589D01*
X299603475Y-576903368D01*
X299396632Y-576696525D01*
X299214466Y-576574805D01*
X299331355Y-576505178D01*
X299547588Y-576310269D01*
X299721641Y-576076920D01*
X299846825Y-575814099D01*
X299891476Y-575666890D01*
X299770155Y-575437000D01*
X298577000Y-575437000D01*
X298577000Y-575457000D01*
X298323000Y-575457000D01*
X298323000Y-575437000D01*
X297129845Y-575437000D01*
X297008524Y-575666890D01*
X297053175Y-575814099D01*
X297178359Y-576076920D01*
X297352412Y-576310269D01*
X297568645Y-576505178D01*
X297685534Y-576574805D01*
X297503368Y-576696525D01*
X297296525Y-576903368D01*
X297134010Y-577146589D01*
X297022068Y-577416842D01*
X296965000Y-577703740D01*
X283997000Y-577703740D01*
X283997000Y-574037000D01*
X284981928Y-574037000D01*
X284981928Y-576837000D01*
X284994188Y-576961482D01*
X285030498Y-577081180D01*
X285089463Y-577191494D01*
X285168815Y-577288185D01*
X285265506Y-577367537D01*
X285375820Y-577426502D01*
X285495518Y-577462812D01*
X285620000Y-577475072D01*
X288420000Y-577475072D01*
X288544482Y-577462812D01*
X288664180Y-577426502D01*
X288774494Y-577367537D01*
X288871185Y-577288185D01*
X288950537Y-577191494D01*
X289009502Y-577081180D01*
X289045812Y-576961482D01*
X289058072Y-576837000D01*
X289058072Y-574037000D01*
X289045812Y-573912518D01*
X289009502Y-573792820D01*
X288950537Y-573682506D01*
X288871185Y-573585815D01*
X288774494Y-573506463D01*
X288664180Y-573447498D01*
X288544482Y-573411188D01*
X288420000Y-573398928D01*
X285620000Y-573398928D01*
X285495518Y-573411188D01*
X285375820Y-573447498D01*
X285265506Y-573506463D01*
X285168815Y-573585815D01*
X285089463Y-573682506D01*
X285030498Y-573792820D01*
X284994188Y-573912518D01*
X284981928Y-574037000D01*
X283997000Y-574037000D01*
X283997000Y-571920000D01*
X296961928Y-571920000D01*
X296961928Y-573620000D01*
X296974188Y-573744482D01*
X297010498Y-573864180D01*
X297069463Y-573974494D01*
X297148815Y-574071185D01*
X297245506Y-574150537D01*
X297355820Y-574209502D01*
X297436466Y-574233966D01*
X297352412Y-574309731D01*
X297178359Y-574543080D01*
X297053175Y-574805901D01*
X297008524Y-574953110D01*
X297129845Y-575183000D01*
X298323000Y-575183000D01*
X298323000Y-575163000D01*
X298577000Y-575163000D01*
X298577000Y-575183000D01*
X299770155Y-575183000D01*
X299891476Y-574953110D01*
X299846825Y-574805901D01*
X299721641Y-574543080D01*
X299547588Y-574309731D01*
X299463534Y-574233966D01*
X299544180Y-574209502D01*
X299654494Y-574150537D01*
X299751185Y-574071185D01*
X299830537Y-573974494D01*
X299889502Y-573864180D01*
X299925812Y-573744482D01*
X299938072Y-573620000D01*
X299938072Y-571920000D01*
X303311928Y-571920000D01*
X303311928Y-573620000D01*
X303324188Y-573744482D01*
X303360498Y-573864180D01*
X303419463Y-573974494D01*
X303498815Y-574071185D01*
X303595506Y-574150537D01*
X303705820Y-574209502D01*
X303786466Y-574233966D01*
X303702412Y-574309731D01*
X303528359Y-574543080D01*
X303403175Y-574805901D01*
X303358524Y-574953110D01*
X303479845Y-575183000D01*
X304673000Y-575183000D01*
X304673000Y-575163000D01*
X304927000Y-575163000D01*
X304927000Y-575183000D01*
X306120155Y-575183000D01*
X306241476Y-574953110D01*
X306196825Y-574805901D01*
X306071641Y-574543080D01*
X306036826Y-574496405D01*
X307725001Y-576184580D01*
X307725000Y-584537531D01*
X307720719Y-584581000D01*
X307725000Y-584624469D01*
X307725000Y-584624476D01*
X307737805Y-584754489D01*
X307788411Y-584921312D01*
X307870589Y-585075058D01*
X307981183Y-585209817D01*
X308014956Y-585237534D01*
X315091001Y-592313580D01*
X315091000Y-594042015D01*
X315077806Y-594085509D01*
X315060720Y-594258999D01*
X315065002Y-594302478D01*
X315065001Y-595921635D01*
X314918168Y-596100553D01*
X314803490Y-596315101D01*
X314732871Y-596547900D01*
X314715001Y-596729337D01*
X314715001Y-597650666D01*
X314732871Y-597832103D01*
X314803490Y-598064902D01*
X314918169Y-598279450D01*
X315072500Y-598467503D01*
X315260553Y-598621834D01*
X315475101Y-598736512D01*
X315707900Y-598807131D01*
X315950001Y-598830976D01*
X316192103Y-598807131D01*
X316424902Y-598736512D01*
X316639450Y-598621834D01*
X316827503Y-598467503D01*
X316981834Y-598279450D01*
X317096512Y-598064902D01*
X317167131Y-597832102D01*
X317185001Y-597650665D01*
X317185001Y-596729336D01*
X317167131Y-596547899D01*
X317096512Y-596315100D01*
X316981834Y-596100552D01*
X316835001Y-595921635D01*
X316835001Y-594449984D01*
X316848195Y-594406490D01*
X316861000Y-594276477D01*
X316861000Y-594276467D01*
X316865281Y-594233001D01*
X316861000Y-594189535D01*
X316861000Y-591990465D01*
X316865281Y-591946999D01*
X316861000Y-591903533D01*
X316861000Y-591903523D01*
X316848195Y-591773510D01*
X316797589Y-591606687D01*
X316715411Y-591452941D01*
X316604817Y-591318183D01*
X316571049Y-591290470D01*
X309495000Y-584214422D01*
X309495000Y-575861469D01*
X309499281Y-575818000D01*
X309495000Y-575774531D01*
X309495000Y-575774523D01*
X309482195Y-575644510D01*
X309431589Y-575477687D01*
X309349411Y-575323941D01*
X309238817Y-575189183D01*
X309205049Y-575161470D01*
X306521640Y-572478061D01*
X306521546Y-572477753D01*
X306450974Y-572345724D01*
X306356001Y-572229999D01*
X306288072Y-572174251D01*
X306288072Y-571920000D01*
X306287777Y-571917001D01*
X314715001Y-571917001D01*
X314715001Y-572317001D01*
X314763508Y-572555497D01*
X314857611Y-572779947D01*
X314993694Y-572981726D01*
X315166527Y-573153079D01*
X315369468Y-573287422D01*
X315594719Y-573379592D01*
X315632392Y-573383463D01*
X315823001Y-573258732D01*
X315823001Y-571917001D01*
X316077001Y-571917001D01*
X316077001Y-573258732D01*
X316267610Y-573383463D01*
X316305283Y-573379592D01*
X316530534Y-573287422D01*
X316733475Y-573153079D01*
X316906308Y-572981726D01*
X317042391Y-572779947D01*
X317136494Y-572555497D01*
X317185001Y-572317001D01*
X317185001Y-571917001D01*
X316077001Y-571917001D01*
X315823001Y-571917001D01*
X314715001Y-571917001D01*
X306287777Y-571917001D01*
X306275812Y-571795518D01*
X306239502Y-571675820D01*
X306180537Y-571565506D01*
X306101185Y-571468815D01*
X306004494Y-571389463D01*
X305894180Y-571330498D01*
X305774482Y-571294188D01*
X305650000Y-571281928D01*
X305560000Y-571281928D01*
X305560000Y-571263001D01*
X314715001Y-571263001D01*
X314715001Y-571663001D01*
X315823001Y-571663001D01*
X315823001Y-570321270D01*
X316077001Y-570321270D01*
X316077001Y-571663001D01*
X317185001Y-571663001D01*
X317185001Y-571329337D01*
X317255001Y-571329337D01*
X317255001Y-572250666D01*
X317272871Y-572432103D01*
X317343490Y-572664902D01*
X317458169Y-572879450D01*
X317612500Y-573067503D01*
X317800553Y-573221834D01*
X318015101Y-573336512D01*
X318247900Y-573407131D01*
X318490001Y-573430976D01*
X318732103Y-573407131D01*
X318964902Y-573336512D01*
X319179450Y-573221834D01*
X319367503Y-573067503D01*
X319521834Y-572879450D01*
X319636512Y-572664902D01*
X319707131Y-572432102D01*
X319725001Y-572250665D01*
X319725001Y-571329337D01*
X319795001Y-571329337D01*
X319795001Y-572250666D01*
X319812871Y-572432103D01*
X319883490Y-572664902D01*
X319998169Y-572879450D01*
X320152500Y-573067503D01*
X320340553Y-573221834D01*
X320555101Y-573336512D01*
X320787900Y-573407131D01*
X321030001Y-573430976D01*
X321272103Y-573407131D01*
X321504902Y-573336512D01*
X321719450Y-573221834D01*
X321907503Y-573067503D01*
X322061834Y-572879450D01*
X322176512Y-572664902D01*
X322247131Y-572432102D01*
X322265001Y-572250665D01*
X322265001Y-571329336D01*
X322247131Y-571147899D01*
X322176512Y-570915100D01*
X322061834Y-570700552D01*
X321907503Y-570512499D01*
X321719449Y-570358168D01*
X321504901Y-570243490D01*
X321272102Y-570172871D01*
X321030001Y-570149026D01*
X320787899Y-570172871D01*
X320555100Y-570243490D01*
X320340552Y-570358168D01*
X320152499Y-570512499D01*
X319998168Y-570700553D01*
X319883490Y-570915101D01*
X319812871Y-571147900D01*
X319795001Y-571329337D01*
X319725001Y-571329337D01*
X319725001Y-571329336D01*
X319707131Y-571147899D01*
X319636512Y-570915100D01*
X319521834Y-570700552D01*
X319367503Y-570512499D01*
X319179449Y-570358168D01*
X318964901Y-570243490D01*
X318732102Y-570172871D01*
X318490001Y-570149026D01*
X318247899Y-570172871D01*
X318015100Y-570243490D01*
X317800552Y-570358168D01*
X317612499Y-570512499D01*
X317458168Y-570700553D01*
X317343490Y-570915101D01*
X317272871Y-571147900D01*
X317255001Y-571329337D01*
X317185001Y-571329337D01*
X317185001Y-571263001D01*
X317136494Y-571024505D01*
X317042391Y-570800055D01*
X316906308Y-570598276D01*
X316733475Y-570426923D01*
X316530534Y-570292580D01*
X316305283Y-570200410D01*
X316267610Y-570196539D01*
X316077001Y-570321270D01*
X315823001Y-570321270D01*
X315632392Y-570196539D01*
X315594719Y-570200410D01*
X315369468Y-570292580D01*
X315166527Y-570426923D01*
X314993694Y-570598276D01*
X314857611Y-570800055D01*
X314763508Y-571024505D01*
X314715001Y-571263001D01*
X305560000Y-571263001D01*
X305560000Y-567558514D01*
X306005000Y-567558514D01*
X306005000Y-567821486D01*
X306056304Y-568079405D01*
X306156939Y-568322359D01*
X306303038Y-568541013D01*
X306488987Y-568726962D01*
X306707641Y-568873061D01*
X306950595Y-568973696D01*
X307208514Y-569025000D01*
X307471486Y-569025000D01*
X307729405Y-568973696D01*
X307972359Y-568873061D01*
X308191013Y-568726962D01*
X308376962Y-568541013D01*
X308523061Y-568322359D01*
X308623696Y-568079405D01*
X308634850Y-568023329D01*
X313667284Y-568023329D01*
X313699953Y-568131044D01*
X313810208Y-568368392D01*
X313964649Y-568579670D01*
X314157340Y-568756759D01*
X314380877Y-568892853D01*
X314626670Y-568982722D01*
X314833000Y-568860201D01*
X314833000Y-567817000D01*
X315087000Y-567817000D01*
X315087000Y-568860201D01*
X315293330Y-568982722D01*
X315539123Y-568892853D01*
X315762660Y-568756759D01*
X315955351Y-568579670D01*
X316109792Y-568368392D01*
X316220047Y-568131044D01*
X316252716Y-568023329D01*
X316129374Y-567817000D01*
X315087000Y-567817000D01*
X314833000Y-567817000D01*
X313790626Y-567817000D01*
X313667284Y-568023329D01*
X308634850Y-568023329D01*
X308675000Y-567821486D01*
X308675000Y-567558514D01*
X308634851Y-567356671D01*
X313667284Y-567356671D01*
X313790626Y-567563000D01*
X314833000Y-567563000D01*
X314833000Y-566519799D01*
X315087000Y-566519799D01*
X315087000Y-567563000D01*
X316129374Y-567563000D01*
X316252716Y-567356671D01*
X316220047Y-567248956D01*
X316109792Y-567011608D01*
X315955351Y-566800330D01*
X315762660Y-566623241D01*
X315539123Y-566487147D01*
X315293330Y-566397278D01*
X315087000Y-566519799D01*
X314833000Y-566519799D01*
X314626670Y-566397278D01*
X314380877Y-566487147D01*
X314157340Y-566623241D01*
X313964649Y-566800330D01*
X313810208Y-567011608D01*
X313699953Y-567248956D01*
X313667284Y-567356671D01*
X308634851Y-567356671D01*
X308623696Y-567300595D01*
X308523061Y-567057641D01*
X308376962Y-566838987D01*
X308191013Y-566653038D01*
X307972359Y-566506939D01*
X307729405Y-566406304D01*
X307471486Y-566355000D01*
X307208514Y-566355000D01*
X306950595Y-566406304D01*
X306707641Y-566506939D01*
X306488987Y-566653038D01*
X306303038Y-566838987D01*
X306156939Y-567057641D01*
X306056304Y-567300595D01*
X306005000Y-567558514D01*
X305560000Y-567558514D01*
X305560000Y-566734801D01*
X306289803Y-566004999D01*
X318608456Y-566004999D01*
X318555000Y-566273740D01*
X318555000Y-566566260D01*
X318612068Y-566853158D01*
X318724010Y-567123411D01*
X318886525Y-567366632D01*
X319093368Y-567573475D01*
X319336589Y-567735990D01*
X319606842Y-567847932D01*
X319893740Y-567905000D01*
X320186260Y-567905000D01*
X320406408Y-567861209D01*
X322661212Y-570116014D01*
X322685010Y-570145012D01*
X322800735Y-570239985D01*
X322932764Y-570310557D01*
X322956280Y-570317690D01*
X322880552Y-570358168D01*
X322692499Y-570512499D01*
X322538168Y-570700553D01*
X322423490Y-570915101D01*
X322352871Y-571147900D01*
X322335001Y-571329337D01*
X322335001Y-572250666D01*
X322352871Y-572432103D01*
X322423490Y-572664902D01*
X322538169Y-572879450D01*
X322692500Y-573067503D01*
X322880553Y-573221834D01*
X323095101Y-573336512D01*
X323327900Y-573407131D01*
X323570001Y-573430976D01*
X323731342Y-573415085D01*
X323746009Y-573563996D01*
X323789465Y-573707257D01*
X323860037Y-573839287D01*
X323931212Y-573926013D01*
X327096201Y-577091003D01*
X327119999Y-577120001D01*
X327235724Y-577214974D01*
X327367753Y-577285546D01*
X327511014Y-577329003D01*
X327622667Y-577340000D01*
X327622676Y-577340000D01*
X327659999Y-577343676D01*
X327697322Y-577340000D01*
X350482678Y-577340000D01*
X350520000Y-577343676D01*
X350557322Y-577340000D01*
X350557333Y-577340000D01*
X350668986Y-577329003D01*
X350812247Y-577285546D01*
X350944276Y-577214974D01*
X351060001Y-577120001D01*
X351083804Y-577090997D01*
X354561005Y-573613797D01*
X354590002Y-573590000D01*
X354684975Y-573474275D01*
X354755547Y-573342246D01*
X354799004Y-573198985D01*
X354801793Y-573170671D01*
X354927503Y-573067503D01*
X355081834Y-572879450D01*
X355196512Y-572664902D01*
X355267131Y-572432102D01*
X355285001Y-572250665D01*
X355285001Y-571329337D01*
X355355001Y-571329337D01*
X355355001Y-572250666D01*
X355372871Y-572432103D01*
X355443490Y-572664902D01*
X355558169Y-572879450D01*
X355712500Y-573067503D01*
X355900553Y-573221834D01*
X356115101Y-573336512D01*
X356347900Y-573407131D01*
X356590001Y-573430976D01*
X356832103Y-573407131D01*
X357064902Y-573336512D01*
X357279450Y-573221834D01*
X357467503Y-573067503D01*
X357621834Y-572879450D01*
X357736512Y-572664902D01*
X357807131Y-572432102D01*
X357825001Y-572250665D01*
X357825001Y-571329337D01*
X357895001Y-571329337D01*
X357895001Y-572250666D01*
X357912871Y-572432103D01*
X357983490Y-572664902D01*
X358098169Y-572879450D01*
X358252500Y-573067503D01*
X358440553Y-573221834D01*
X358655101Y-573336512D01*
X358887900Y-573407131D01*
X359130001Y-573430976D01*
X359372103Y-573407131D01*
X359604902Y-573336512D01*
X359819450Y-573221834D01*
X360007503Y-573067503D01*
X360161834Y-572879450D01*
X360276512Y-572664902D01*
X360347131Y-572432102D01*
X360365001Y-572250665D01*
X360365001Y-571329337D01*
X360435001Y-571329337D01*
X360435001Y-572250666D01*
X360452871Y-572432103D01*
X360523490Y-572664902D01*
X360638169Y-572879450D01*
X360792500Y-573067503D01*
X360980553Y-573221834D01*
X361195101Y-573336512D01*
X361427900Y-573407131D01*
X361670001Y-573430976D01*
X361912103Y-573407131D01*
X362144902Y-573336512D01*
X362359450Y-573221834D01*
X362547503Y-573067503D01*
X362701834Y-572879450D01*
X362816512Y-572664902D01*
X362887131Y-572432102D01*
X362905001Y-572250665D01*
X362905001Y-571329336D01*
X362887131Y-571147899D01*
X362816512Y-570915100D01*
X362701834Y-570700552D01*
X362547503Y-570512499D01*
X362359449Y-570358168D01*
X362144901Y-570243490D01*
X361912102Y-570172871D01*
X361670001Y-570149026D01*
X361427899Y-570172871D01*
X361195100Y-570243490D01*
X360980552Y-570358168D01*
X360792499Y-570512499D01*
X360638168Y-570700553D01*
X360523490Y-570915101D01*
X360452871Y-571147900D01*
X360435001Y-571329337D01*
X360365001Y-571329337D01*
X360365001Y-571329336D01*
X360347131Y-571147899D01*
X360276512Y-570915100D01*
X360161834Y-570700552D01*
X360007503Y-570512499D01*
X359819449Y-570358168D01*
X359604901Y-570243490D01*
X359372102Y-570172871D01*
X359130001Y-570149026D01*
X358887899Y-570172871D01*
X358655100Y-570243490D01*
X358440552Y-570358168D01*
X358252499Y-570512499D01*
X358098168Y-570700553D01*
X357983490Y-570915101D01*
X357912871Y-571147900D01*
X357895001Y-571329337D01*
X357825001Y-571329337D01*
X357825001Y-571329336D01*
X357807131Y-571147899D01*
X357736512Y-570915100D01*
X357621834Y-570700552D01*
X357467503Y-570512499D01*
X357279449Y-570358168D01*
X357064901Y-570243490D01*
X356832102Y-570172871D01*
X356590001Y-570149026D01*
X356347899Y-570172871D01*
X356115100Y-570243490D01*
X355900552Y-570358168D01*
X355712499Y-570512499D01*
X355558168Y-570700553D01*
X355443490Y-570915101D01*
X355372871Y-571147900D01*
X355355001Y-571329337D01*
X355285001Y-571329337D01*
X355285001Y-571329336D01*
X355267131Y-571147899D01*
X355196512Y-570915100D01*
X355081834Y-570700552D01*
X354927503Y-570512499D01*
X354739449Y-570358168D01*
X354524901Y-570243490D01*
X354292102Y-570172871D01*
X354050001Y-570149026D01*
X353807899Y-570172871D01*
X353575100Y-570243490D01*
X353360552Y-570358168D01*
X353172499Y-570512499D01*
X353018168Y-570700553D01*
X352903490Y-570915101D01*
X352832871Y-571147900D01*
X352815001Y-571329337D01*
X352815001Y-572250666D01*
X352832871Y-572432103D01*
X352903490Y-572664902D01*
X353018169Y-572879450D01*
X353075676Y-572949522D01*
X350205199Y-575820000D01*
X327974802Y-575820000D01*
X325255011Y-573100210D01*
X325255011Y-573085977D01*
X325420553Y-573221834D01*
X325635101Y-573336512D01*
X325867900Y-573407131D01*
X326110001Y-573430976D01*
X326352103Y-573407131D01*
X326584902Y-573336512D01*
X326799450Y-573221834D01*
X326987503Y-573067503D01*
X327141834Y-572879450D01*
X327256512Y-572664902D01*
X327327131Y-572432102D01*
X327345001Y-572250665D01*
X327345001Y-571329337D01*
X327415001Y-571329337D01*
X327415001Y-572250666D01*
X327432871Y-572432103D01*
X327503490Y-572664902D01*
X327618169Y-572879450D01*
X327772500Y-573067503D01*
X327960553Y-573221834D01*
X328175101Y-573336512D01*
X328407900Y-573407131D01*
X328650001Y-573430976D01*
X328892103Y-573407131D01*
X329124902Y-573336512D01*
X329339450Y-573221834D01*
X329527503Y-573067503D01*
X329681834Y-572879450D01*
X329796512Y-572664902D01*
X329867131Y-572432102D01*
X329885001Y-572250665D01*
X329885001Y-571917001D01*
X329955001Y-571917001D01*
X329955001Y-572317001D01*
X330003508Y-572555497D01*
X330097611Y-572779947D01*
X330233694Y-572981726D01*
X330406527Y-573153079D01*
X330609468Y-573287422D01*
X330834719Y-573379592D01*
X330872392Y-573383463D01*
X331063001Y-573258732D01*
X331063001Y-571917001D01*
X331317001Y-571917001D01*
X331317001Y-573258732D01*
X331507610Y-573383463D01*
X331545283Y-573379592D01*
X331770534Y-573287422D01*
X331973475Y-573153079D01*
X332146308Y-572981726D01*
X332282391Y-572779947D01*
X332376494Y-572555497D01*
X332425001Y-572317001D01*
X332425001Y-571917001D01*
X331317001Y-571917001D01*
X331063001Y-571917001D01*
X329955001Y-571917001D01*
X329885001Y-571917001D01*
X329885001Y-571329336D01*
X329878468Y-571263001D01*
X329955001Y-571263001D01*
X329955001Y-571663001D01*
X331063001Y-571663001D01*
X331063001Y-570321270D01*
X331317001Y-570321270D01*
X331317001Y-571663001D01*
X332425001Y-571663001D01*
X332425001Y-571329337D01*
X332495001Y-571329337D01*
X332495001Y-572250666D01*
X332512871Y-572432103D01*
X332583490Y-572664902D01*
X332698169Y-572879450D01*
X332852500Y-573067503D01*
X333040553Y-573221834D01*
X333255101Y-573336512D01*
X333487900Y-573407131D01*
X333730001Y-573430976D01*
X333972103Y-573407131D01*
X334204902Y-573336512D01*
X334419450Y-573221834D01*
X334607503Y-573067503D01*
X334761834Y-572879450D01*
X334876512Y-572664902D01*
X334947131Y-572432102D01*
X334965001Y-572250665D01*
X334965001Y-571329337D01*
X335035001Y-571329337D01*
X335035001Y-572250666D01*
X335052871Y-572432103D01*
X335123490Y-572664902D01*
X335238169Y-572879450D01*
X335392500Y-573067503D01*
X335580553Y-573221834D01*
X335795101Y-573336512D01*
X336027900Y-573407131D01*
X336270001Y-573430976D01*
X336512103Y-573407131D01*
X336744902Y-573336512D01*
X336959450Y-573221834D01*
X337147503Y-573067503D01*
X337301834Y-572879450D01*
X337416512Y-572664902D01*
X337487131Y-572432102D01*
X337505001Y-572250665D01*
X337505001Y-571329337D01*
X337575001Y-571329337D01*
X337575001Y-572250666D01*
X337592871Y-572432103D01*
X337663490Y-572664902D01*
X337778169Y-572879450D01*
X337932500Y-573067503D01*
X338120553Y-573221834D01*
X338335101Y-573336512D01*
X338567900Y-573407131D01*
X338810001Y-573430976D01*
X339052103Y-573407131D01*
X339284902Y-573336512D01*
X339499450Y-573221834D01*
X339687503Y-573067503D01*
X339841834Y-572879450D01*
X339956512Y-572664902D01*
X340027131Y-572432102D01*
X340045001Y-572250665D01*
X340045001Y-571329337D01*
X340115001Y-571329337D01*
X340115001Y-572250666D01*
X340132871Y-572432103D01*
X340203490Y-572664902D01*
X340318169Y-572879450D01*
X340472500Y-573067503D01*
X340660553Y-573221834D01*
X340875101Y-573336512D01*
X341107900Y-573407131D01*
X341350001Y-573430976D01*
X341592103Y-573407131D01*
X341824902Y-573336512D01*
X342039450Y-573221834D01*
X342227503Y-573067503D01*
X342381834Y-572879450D01*
X342496512Y-572664902D01*
X342567131Y-572432102D01*
X342585001Y-572250665D01*
X342585001Y-571329337D01*
X342655001Y-571329337D01*
X342655001Y-572250666D01*
X342672871Y-572432103D01*
X342743490Y-572664902D01*
X342858169Y-572879450D01*
X343012500Y-573067503D01*
X343200553Y-573221834D01*
X343415101Y-573336512D01*
X343647900Y-573407131D01*
X343890001Y-573430976D01*
X344132103Y-573407131D01*
X344364902Y-573336512D01*
X344579450Y-573221834D01*
X344767503Y-573067503D01*
X344921834Y-572879450D01*
X345036512Y-572664902D01*
X345107131Y-572432102D01*
X345125001Y-572250665D01*
X345125001Y-571329337D01*
X345195001Y-571329337D01*
X345195001Y-572250666D01*
X345212871Y-572432103D01*
X345283490Y-572664902D01*
X345398169Y-572879450D01*
X345552500Y-573067503D01*
X345740553Y-573221834D01*
X345955101Y-573336512D01*
X346187900Y-573407131D01*
X346430001Y-573430976D01*
X346672103Y-573407131D01*
X346904902Y-573336512D01*
X347119450Y-573221834D01*
X347307503Y-573067503D01*
X347461834Y-572879450D01*
X347576512Y-572664902D01*
X347647131Y-572432102D01*
X347665001Y-572250665D01*
X347665001Y-571329337D01*
X347735001Y-571329337D01*
X347735001Y-572250666D01*
X347752871Y-572432103D01*
X347823490Y-572664902D01*
X347938169Y-572879450D01*
X348092500Y-573067503D01*
X348280553Y-573221834D01*
X348495101Y-573336512D01*
X348727900Y-573407131D01*
X348970001Y-573430976D01*
X349212103Y-573407131D01*
X349444902Y-573336512D01*
X349659450Y-573221834D01*
X349847503Y-573067503D01*
X350001834Y-572879450D01*
X350116512Y-572664902D01*
X350187131Y-572432102D01*
X350205001Y-572250665D01*
X350205001Y-571329337D01*
X350275001Y-571329337D01*
X350275001Y-572250666D01*
X350292871Y-572432103D01*
X350363490Y-572664902D01*
X350478169Y-572879450D01*
X350632500Y-573067503D01*
X350820553Y-573221834D01*
X351035101Y-573336512D01*
X351267900Y-573407131D01*
X351510001Y-573430976D01*
X351752103Y-573407131D01*
X351984902Y-573336512D01*
X352199450Y-573221834D01*
X352387503Y-573067503D01*
X352541834Y-572879450D01*
X352656512Y-572664902D01*
X352727131Y-572432102D01*
X352745001Y-572250665D01*
X352745001Y-571329336D01*
X352727131Y-571147899D01*
X352656512Y-570915100D01*
X352541834Y-570700552D01*
X352387503Y-570512499D01*
X352199449Y-570358168D01*
X351984901Y-570243490D01*
X351752102Y-570172871D01*
X351510001Y-570149026D01*
X351267899Y-570172871D01*
X351035100Y-570243490D01*
X350820552Y-570358168D01*
X350632499Y-570512499D01*
X350478168Y-570700553D01*
X350363490Y-570915101D01*
X350292871Y-571147900D01*
X350275001Y-571329337D01*
X350205001Y-571329337D01*
X350205001Y-571329336D01*
X350187131Y-571147899D01*
X350116512Y-570915100D01*
X350001834Y-570700552D01*
X349847503Y-570512499D01*
X349659449Y-570358168D01*
X349444901Y-570243490D01*
X349212102Y-570172871D01*
X348970001Y-570149026D01*
X348727899Y-570172871D01*
X348495100Y-570243490D01*
X348280552Y-570358168D01*
X348092499Y-570512499D01*
X347938168Y-570700553D01*
X347823490Y-570915101D01*
X347752871Y-571147900D01*
X347735001Y-571329337D01*
X347665001Y-571329337D01*
X347665001Y-571329336D01*
X347647131Y-571147899D01*
X347576512Y-570915100D01*
X347461834Y-570700552D01*
X347307503Y-570512499D01*
X347119449Y-570358168D01*
X346904901Y-570243490D01*
X346672102Y-570172871D01*
X346430001Y-570149026D01*
X346187899Y-570172871D01*
X345955100Y-570243490D01*
X345740552Y-570358168D01*
X345552499Y-570512499D01*
X345398168Y-570700553D01*
X345283490Y-570915101D01*
X345212871Y-571147900D01*
X345195001Y-571329337D01*
X345125001Y-571329337D01*
X345125001Y-571329336D01*
X345107131Y-571147899D01*
X345036512Y-570915100D01*
X344921834Y-570700552D01*
X344767503Y-570512499D01*
X344579449Y-570358168D01*
X344364901Y-570243490D01*
X344132102Y-570172871D01*
X343890001Y-570149026D01*
X343647899Y-570172871D01*
X343415100Y-570243490D01*
X343200552Y-570358168D01*
X343012499Y-570512499D01*
X342858168Y-570700553D01*
X342743490Y-570915101D01*
X342672871Y-571147900D01*
X342655001Y-571329337D01*
X342585001Y-571329337D01*
X342585001Y-571329336D01*
X342567131Y-571147899D01*
X342496512Y-570915100D01*
X342381834Y-570700552D01*
X342227503Y-570512499D01*
X342039449Y-570358168D01*
X341824901Y-570243490D01*
X341592102Y-570172871D01*
X341350001Y-570149026D01*
X341107899Y-570172871D01*
X340875100Y-570243490D01*
X340660552Y-570358168D01*
X340472499Y-570512499D01*
X340318168Y-570700553D01*
X340203490Y-570915101D01*
X340132871Y-571147900D01*
X340115001Y-571329337D01*
X340045001Y-571329337D01*
X340045001Y-571329336D01*
X340027131Y-571147899D01*
X339956512Y-570915100D01*
X339841834Y-570700552D01*
X339687503Y-570512499D01*
X339499449Y-570358168D01*
X339284901Y-570243490D01*
X339052102Y-570172871D01*
X338810001Y-570149026D01*
X338567899Y-570172871D01*
X338335100Y-570243490D01*
X338120552Y-570358168D01*
X337932499Y-570512499D01*
X337778168Y-570700553D01*
X337663490Y-570915101D01*
X337592871Y-571147900D01*
X337575001Y-571329337D01*
X337505001Y-571329337D01*
X337505001Y-571329336D01*
X337487131Y-571147899D01*
X337416512Y-570915100D01*
X337301834Y-570700552D01*
X337147503Y-570512499D01*
X336959449Y-570358168D01*
X336744901Y-570243490D01*
X336512102Y-570172871D01*
X336270001Y-570149026D01*
X336027899Y-570172871D01*
X335795100Y-570243490D01*
X335580552Y-570358168D01*
X335392499Y-570512499D01*
X335238168Y-570700553D01*
X335123490Y-570915101D01*
X335052871Y-571147900D01*
X335035001Y-571329337D01*
X334965001Y-571329337D01*
X334965001Y-571329336D01*
X334947131Y-571147899D01*
X334876512Y-570915100D01*
X334761834Y-570700552D01*
X334607503Y-570512499D01*
X334419449Y-570358168D01*
X334204901Y-570243490D01*
X333972102Y-570172871D01*
X333730001Y-570149026D01*
X333487899Y-570172871D01*
X333255100Y-570243490D01*
X333040552Y-570358168D01*
X332852499Y-570512499D01*
X332698168Y-570700553D01*
X332583490Y-570915101D01*
X332512871Y-571147900D01*
X332495001Y-571329337D01*
X332425001Y-571329337D01*
X332425001Y-571263001D01*
X332376494Y-571024505D01*
X332282391Y-570800055D01*
X332146308Y-570598276D01*
X331973475Y-570426923D01*
X331770534Y-570292580D01*
X331545283Y-570200410D01*
X331507610Y-570196539D01*
X331317001Y-570321270D01*
X331063001Y-570321270D01*
X330872392Y-570196539D01*
X330834719Y-570200410D01*
X330609468Y-570292580D01*
X330406527Y-570426923D01*
X330233694Y-570598276D01*
X330097611Y-570800055D01*
X330003508Y-571024505D01*
X329955001Y-571263001D01*
X329878468Y-571263001D01*
X329867131Y-571147899D01*
X329796512Y-570915100D01*
X329681834Y-570700552D01*
X329527503Y-570512499D01*
X329339449Y-570358168D01*
X329124901Y-570243490D01*
X328892102Y-570172871D01*
X328650001Y-570149026D01*
X328407899Y-570172871D01*
X328175100Y-570243490D01*
X327960552Y-570358168D01*
X327772499Y-570512499D01*
X327618168Y-570700553D01*
X327503490Y-570915101D01*
X327432871Y-571147900D01*
X327415001Y-571329337D01*
X327345001Y-571329337D01*
X327345001Y-571329336D01*
X327327131Y-571147899D01*
X327256512Y-570915100D01*
X327141834Y-570700552D01*
X326987503Y-570512499D01*
X326799449Y-570358168D01*
X326584901Y-570243490D01*
X326352102Y-570172871D01*
X326110001Y-570149026D01*
X325867899Y-570172871D01*
X325635100Y-570243490D01*
X325420552Y-570358168D01*
X325245000Y-570502240D01*
X325245000Y-570267333D01*
X325248677Y-570230000D01*
X325234003Y-570081014D01*
X325190546Y-569937753D01*
X325119974Y-569805724D01*
X325048799Y-569718997D01*
X325025001Y-569689999D01*
X324996004Y-569666202D01*
X324413803Y-569084002D01*
X324390001Y-569054999D01*
X324274276Y-568960026D01*
X324142246Y-568889454D01*
X323998986Y-568845997D01*
X323850000Y-568831324D01*
X323711027Y-568845011D01*
X323539813Y-568845011D01*
X322602874Y-567908072D01*
X323430000Y-567908072D01*
X323554482Y-567895812D01*
X323674180Y-567859502D01*
X323784494Y-567800537D01*
X323881185Y-567721185D01*
X323960537Y-567624494D01*
X324019502Y-567514180D01*
X324055812Y-567394482D01*
X324068072Y-567270000D01*
X324068072Y-566288514D01*
X325055000Y-566288514D01*
X325055000Y-566551486D01*
X325106304Y-566809405D01*
X325206939Y-567052359D01*
X325353038Y-567271013D01*
X325538987Y-567456962D01*
X325757641Y-567603061D01*
X326000595Y-567703696D01*
X326258514Y-567755000D01*
X326521486Y-567755000D01*
X326779405Y-567703696D01*
X327022359Y-567603061D01*
X327241013Y-567456962D01*
X327426962Y-567271013D01*
X327573061Y-567052359D01*
X327673696Y-566809405D01*
X327725000Y-566551486D01*
X327725000Y-566288514D01*
X332675000Y-566288514D01*
X332675000Y-566551486D01*
X332726304Y-566809405D01*
X332826939Y-567052359D01*
X332973038Y-567271013D01*
X333158987Y-567456962D01*
X333377641Y-567603061D01*
X333620595Y-567703696D01*
X333878514Y-567755000D01*
X334141486Y-567755000D01*
X334399405Y-567703696D01*
X334642359Y-567603061D01*
X334861013Y-567456962D01*
X334976706Y-567341269D01*
X337078336Y-567341269D01*
X337137797Y-567575037D01*
X337376242Y-567685934D01*
X337631740Y-567748183D01*
X337894473Y-567759390D01*
X338154344Y-567719125D01*
X338401366Y-567628935D01*
X338502203Y-567575037D01*
X338561664Y-567341269D01*
X337820000Y-566599605D01*
X337078336Y-567341269D01*
X334976706Y-567341269D01*
X335046962Y-567271013D01*
X335193061Y-567052359D01*
X335293696Y-566809405D01*
X335345000Y-566551486D01*
X335345000Y-566494473D01*
X336480610Y-566494473D01*
X336520875Y-566754344D01*
X336611065Y-567001366D01*
X336664963Y-567102203D01*
X336898731Y-567161664D01*
X337640395Y-566420000D01*
X337999605Y-566420000D01*
X338741269Y-567161664D01*
X338975037Y-567102203D01*
X339085934Y-566863758D01*
X339148183Y-566608260D01*
X339159390Y-566345527D01*
X339150557Y-566288514D01*
X344105000Y-566288514D01*
X344105000Y-566551486D01*
X344156304Y-566809405D01*
X344256939Y-567052359D01*
X344403038Y-567271013D01*
X344588987Y-567456962D01*
X344807641Y-567603061D01*
X345050595Y-567703696D01*
X345308514Y-567755000D01*
X345571486Y-567755000D01*
X345829405Y-567703696D01*
X346072359Y-567603061D01*
X346291013Y-567456962D01*
X346476962Y-567271013D01*
X346623061Y-567052359D01*
X346723696Y-566809405D01*
X346775000Y-566551486D01*
X346775000Y-566288514D01*
X346772062Y-566273740D01*
X348400000Y-566273740D01*
X348400000Y-566566260D01*
X348457068Y-566853158D01*
X348569010Y-567123411D01*
X348731525Y-567366632D01*
X348938368Y-567573475D01*
X349181589Y-567735990D01*
X349451842Y-567847932D01*
X349738740Y-567905000D01*
X350031260Y-567905000D01*
X350318158Y-567847932D01*
X350588411Y-567735990D01*
X350831632Y-567573475D01*
X351038475Y-567366632D01*
X351155000Y-567192240D01*
X351271525Y-567366632D01*
X351478368Y-567573475D01*
X351721589Y-567735990D01*
X351991842Y-567847932D01*
X352278740Y-567905000D01*
X352571260Y-567905000D01*
X352858158Y-567847932D01*
X353128411Y-567735990D01*
X353371632Y-567573475D01*
X353578475Y-567366632D01*
X353695000Y-567192240D01*
X353811525Y-567366632D01*
X354018368Y-567573475D01*
X354261589Y-567735990D01*
X354531842Y-567847932D01*
X354818740Y-567905000D01*
X355111260Y-567905000D01*
X355398158Y-567847932D01*
X355668411Y-567735990D01*
X355911632Y-567573475D01*
X356043487Y-567441620D01*
X356065498Y-567514180D01*
X356124463Y-567624494D01*
X356203815Y-567721185D01*
X356300506Y-567800537D01*
X356410820Y-567859502D01*
X356530518Y-567895812D01*
X356655000Y-567908072D01*
X357219250Y-567905000D01*
X357378000Y-567746250D01*
X357378000Y-566547000D01*
X357632000Y-566547000D01*
X357632000Y-567746250D01*
X357790750Y-567905000D01*
X358355000Y-567908072D01*
X358479482Y-567895812D01*
X358599180Y-567859502D01*
X358709494Y-567800537D01*
X358806185Y-567721185D01*
X358885537Y-567624494D01*
X358944502Y-567514180D01*
X358980812Y-567394482D01*
X358993072Y-567270000D01*
X358990703Y-566834872D01*
X360985000Y-566834872D01*
X360985000Y-567275128D01*
X361070890Y-567706925D01*
X361239369Y-568113669D01*
X361483962Y-568479729D01*
X361795271Y-568791038D01*
X362161331Y-569035631D01*
X362568075Y-569204110D01*
X362999872Y-569290000D01*
X363440128Y-569290000D01*
X363871925Y-569204110D01*
X364278669Y-569035631D01*
X364644729Y-568791038D01*
X364956038Y-568479729D01*
X365200631Y-568113669D01*
X365369110Y-567706925D01*
X365455000Y-567275128D01*
X365455000Y-566834872D01*
X365369110Y-566403075D01*
X365200631Y-565996331D01*
X364956038Y-565630271D01*
X364644729Y-565318962D01*
X364278669Y-565074369D01*
X363871925Y-564905890D01*
X363440128Y-564820000D01*
X362999872Y-564820000D01*
X362568075Y-564905890D01*
X362161331Y-565074369D01*
X361795271Y-565318962D01*
X361483962Y-565630271D01*
X361239369Y-565996331D01*
X361070890Y-566403075D01*
X360985000Y-566834872D01*
X358990703Y-566834872D01*
X358990000Y-566705750D01*
X358831250Y-566547000D01*
X357632000Y-566547000D01*
X357378000Y-566547000D01*
X357358000Y-566547000D01*
X357358000Y-566293000D01*
X357378000Y-566293000D01*
X357378000Y-565093750D01*
X357632000Y-565093750D01*
X357632000Y-566293000D01*
X358831250Y-566293000D01*
X358990000Y-566134250D01*
X358993072Y-565570000D01*
X358980812Y-565445518D01*
X358944502Y-565325820D01*
X358885537Y-565215506D01*
X358806185Y-565118815D01*
X358709494Y-565039463D01*
X358599180Y-564980498D01*
X358479482Y-564944188D01*
X358355000Y-564931928D01*
X357790750Y-564935000D01*
X357632000Y-565093750D01*
X357378000Y-565093750D01*
X357219250Y-564935000D01*
X356655000Y-564931928D01*
X356530518Y-564944188D01*
X356410820Y-564980498D01*
X356300506Y-565039463D01*
X356203815Y-565118815D01*
X356124463Y-565215506D01*
X356065498Y-565325820D01*
X356043487Y-565398380D01*
X355911632Y-565266525D01*
X355668411Y-565104010D01*
X355398158Y-564992068D01*
X355111260Y-564935000D01*
X354818740Y-564935000D01*
X354531842Y-564992068D01*
X354261589Y-565104010D01*
X354018368Y-565266525D01*
X353811525Y-565473368D01*
X353695000Y-565647760D01*
X353578475Y-565473368D01*
X353371632Y-565266525D01*
X353128411Y-565104010D01*
X352858158Y-564992068D01*
X352571260Y-564935000D01*
X352278740Y-564935000D01*
X351991842Y-564992068D01*
X351721589Y-565104010D01*
X351478368Y-565266525D01*
X351271525Y-565473368D01*
X351155000Y-565647760D01*
X351038475Y-565473368D01*
X350831632Y-565266525D01*
X350588411Y-565104010D01*
X350318158Y-564992068D01*
X350031260Y-564935000D01*
X349738740Y-564935000D01*
X349451842Y-564992068D01*
X349181589Y-565104010D01*
X348938368Y-565266525D01*
X348731525Y-565473368D01*
X348569010Y-565716589D01*
X348457068Y-565986842D01*
X348400000Y-566273740D01*
X346772062Y-566273740D01*
X346723696Y-566030595D01*
X346623061Y-565787641D01*
X346476962Y-565568987D01*
X346291013Y-565383038D01*
X346072359Y-565236939D01*
X345829405Y-565136304D01*
X345571486Y-565085000D01*
X345308514Y-565085000D01*
X345050595Y-565136304D01*
X344807641Y-565236939D01*
X344588987Y-565383038D01*
X344403038Y-565568987D01*
X344256939Y-565787641D01*
X344156304Y-566030595D01*
X344105000Y-566288514D01*
X339150557Y-566288514D01*
X339119125Y-566085656D01*
X339028935Y-565838634D01*
X338975037Y-565737797D01*
X338741269Y-565678336D01*
X337999605Y-566420000D01*
X337640395Y-566420000D01*
X336898731Y-565678336D01*
X336664963Y-565737797D01*
X336554066Y-565976242D01*
X336491817Y-566231740D01*
X336480610Y-566494473D01*
X335345000Y-566494473D01*
X335345000Y-566288514D01*
X335293696Y-566030595D01*
X335193061Y-565787641D01*
X335046962Y-565568987D01*
X334976706Y-565498731D01*
X337078336Y-565498731D01*
X337820000Y-566240395D01*
X338561664Y-565498731D01*
X338502203Y-565264963D01*
X338263758Y-565154066D01*
X338008260Y-565091817D01*
X337745527Y-565080610D01*
X337485656Y-565120875D01*
X337238634Y-565211065D01*
X337137797Y-565264963D01*
X337078336Y-565498731D01*
X334976706Y-565498731D01*
X334861013Y-565383038D01*
X334642359Y-565236939D01*
X334399405Y-565136304D01*
X334141486Y-565085000D01*
X333878514Y-565085000D01*
X333620595Y-565136304D01*
X333377641Y-565236939D01*
X333158987Y-565383038D01*
X332973038Y-565568987D01*
X332826939Y-565787641D01*
X332726304Y-566030595D01*
X332675000Y-566288514D01*
X327725000Y-566288514D01*
X327673696Y-566030595D01*
X327573061Y-565787641D01*
X327426962Y-565568987D01*
X327241013Y-565383038D01*
X327022359Y-565236939D01*
X326779405Y-565136304D01*
X326521486Y-565085000D01*
X326258514Y-565085000D01*
X326000595Y-565136304D01*
X325757641Y-565236939D01*
X325538987Y-565383038D01*
X325353038Y-565568987D01*
X325206939Y-565787641D01*
X325106304Y-566030595D01*
X325055000Y-566288514D01*
X324068072Y-566288514D01*
X324068072Y-565570000D01*
X324055812Y-565445518D01*
X324019502Y-565325820D01*
X323960537Y-565215506D01*
X323881185Y-565118815D01*
X323784494Y-565039463D01*
X323674180Y-564980498D01*
X323554482Y-564944188D01*
X323430000Y-564931928D01*
X322166729Y-564931928D01*
X321968803Y-564734002D01*
X321945000Y-564704998D01*
X321829275Y-564610025D01*
X321697246Y-564539453D01*
X321553985Y-564495996D01*
X321442332Y-564484999D01*
X321442321Y-564484999D01*
X321404999Y-564481323D01*
X321367677Y-564484999D01*
X306012323Y-564484999D01*
X305975000Y-564481323D01*
X305937677Y-564484999D01*
X305937668Y-564484999D01*
X305826015Y-564495996D01*
X305682754Y-564539453D01*
X305550725Y-564610025D01*
X305435000Y-564704998D01*
X305411202Y-564733996D01*
X304289003Y-565856196D01*
X304259999Y-565879999D01*
X304204871Y-565947174D01*
X304165026Y-565995724D01*
X304146387Y-566030595D01*
X304094454Y-566127754D01*
X304050997Y-566271015D01*
X304040000Y-566382668D01*
X304040000Y-566382678D01*
X304036324Y-566420000D01*
X304040000Y-566457323D01*
X304040001Y-568287667D01*
X304040000Y-571281928D01*
X303950000Y-571281928D01*
X303825518Y-571294188D01*
X303705820Y-571330498D01*
X303595506Y-571389463D01*
X303498815Y-571468815D01*
X303419463Y-571565506D01*
X303360498Y-571675820D01*
X303324188Y-571795518D01*
X303311928Y-571920000D01*
X299938072Y-571920000D01*
X299925812Y-571795518D01*
X299889502Y-571675820D01*
X299830537Y-571565506D01*
X299751185Y-571468815D01*
X299654494Y-571389463D01*
X299544180Y-571330498D01*
X299424482Y-571294188D01*
X299300000Y-571281928D01*
X297600000Y-571281928D01*
X297475518Y-571294188D01*
X297355820Y-571330498D01*
X297245506Y-571389463D01*
X297148815Y-571468815D01*
X297069463Y-571565506D01*
X297010498Y-571675820D01*
X296974188Y-571795518D01*
X296961928Y-571920000D01*
X283997000Y-571920000D01*
X283997000Y-568495721D01*
X284885000Y-568495721D01*
X284885000Y-568916279D01*
X284967047Y-569328756D01*
X285127988Y-569717302D01*
X285361637Y-570066983D01*
X285659017Y-570364363D01*
X286008698Y-570598012D01*
X286397244Y-570758953D01*
X286809721Y-570841000D01*
X287230279Y-570841000D01*
X287642756Y-570758953D01*
X288031302Y-570598012D01*
X288380983Y-570364363D01*
X288539346Y-570206000D01*
X289961928Y-570206000D01*
X289974188Y-570330482D01*
X290010498Y-570450180D01*
X290069463Y-570560494D01*
X290148815Y-570657185D01*
X290245506Y-570736537D01*
X290355820Y-570795502D01*
X290475518Y-570831812D01*
X290600000Y-570844072D01*
X291814250Y-570841000D01*
X291973000Y-570682250D01*
X291973000Y-568833000D01*
X292227000Y-568833000D01*
X292227000Y-570682250D01*
X292385750Y-570841000D01*
X293600000Y-570844072D01*
X293724482Y-570831812D01*
X293844180Y-570795502D01*
X293954494Y-570736537D01*
X294051185Y-570657185D01*
X294130537Y-570560494D01*
X294189502Y-570450180D01*
X294225812Y-570330482D01*
X294238072Y-570206000D01*
X294235000Y-568991750D01*
X294076250Y-568833000D01*
X292227000Y-568833000D01*
X291973000Y-568833000D01*
X290123750Y-568833000D01*
X289965000Y-568991750D01*
X289961928Y-570206000D01*
X288539346Y-570206000D01*
X288678363Y-570066983D01*
X288912012Y-569717302D01*
X289072953Y-569328756D01*
X289155000Y-568916279D01*
X289155000Y-568495721D01*
X289072953Y-568083244D01*
X288912012Y-567694698D01*
X288678363Y-567345017D01*
X288539346Y-567206000D01*
X289961928Y-567206000D01*
X289965000Y-568420250D01*
X290123750Y-568579000D01*
X291973000Y-568579000D01*
X291973000Y-566729750D01*
X292227000Y-566729750D01*
X292227000Y-568579000D01*
X294076250Y-568579000D01*
X294235000Y-568420250D01*
X294238072Y-567206000D01*
X294225812Y-567081518D01*
X294189502Y-566961820D01*
X294130537Y-566851506D01*
X294116886Y-566834872D01*
X296850000Y-566834872D01*
X296850000Y-567275128D01*
X296935890Y-567706925D01*
X297104369Y-568113669D01*
X297348962Y-568479729D01*
X297660271Y-568791038D01*
X298026331Y-569035631D01*
X298433075Y-569204110D01*
X298864872Y-569290000D01*
X299305128Y-569290000D01*
X299736925Y-569204110D01*
X300143669Y-569035631D01*
X300509729Y-568791038D01*
X300821038Y-568479729D01*
X301065631Y-568113669D01*
X301234110Y-567706925D01*
X301320000Y-567275128D01*
X301320000Y-566834872D01*
X301234110Y-566403075D01*
X301065631Y-565996331D01*
X300821038Y-565630271D01*
X300509729Y-565318962D01*
X300143669Y-565074369D01*
X299736925Y-564905890D01*
X299305128Y-564820000D01*
X298864872Y-564820000D01*
X298433075Y-564905890D01*
X298026331Y-565074369D01*
X297660271Y-565318962D01*
X297348962Y-565630271D01*
X297104369Y-565996331D01*
X296935890Y-566403075D01*
X296850000Y-566834872D01*
X294116886Y-566834872D01*
X294051185Y-566754815D01*
X293954494Y-566675463D01*
X293844180Y-566616498D01*
X293724482Y-566580188D01*
X293600000Y-566567928D01*
X292385750Y-566571000D01*
X292227000Y-566729750D01*
X291973000Y-566729750D01*
X291814250Y-566571000D01*
X290600000Y-566567928D01*
X290475518Y-566580188D01*
X290355820Y-566616498D01*
X290245506Y-566675463D01*
X290148815Y-566754815D01*
X290069463Y-566851506D01*
X290010498Y-566961820D01*
X289974188Y-567081518D01*
X289961928Y-567206000D01*
X288539346Y-567206000D01*
X288380983Y-567047637D01*
X288031302Y-566813988D01*
X287642756Y-566653047D01*
X287230279Y-566571000D01*
X286809721Y-566571000D01*
X286397244Y-566653047D01*
X286008698Y-566813988D01*
X285659017Y-567047637D01*
X285361637Y-567345017D01*
X285127988Y-567694698D01*
X284967047Y-568083244D01*
X284885000Y-568495721D01*
X283997000Y-568495721D01*
X283997000Y-563905000D01*
X366370000Y-563905000D01*
X366370001Y-609321000D01*
G37*
%TD.AperFunction*%
%TD*%
M02*
