M48
; DRILL file {KiCad (5.1.9)-1} date 03/23/21 13:14:19
; FORMAT={-:-/ absolute / metric / decimal}
; #@! TF.CreationDate,2021-03-23T13:14:19+01:00
; #@! TF.GenerationSoftware,Kicad,Pcbnew,(5.1.9)-1
; #@! TF.FileFunction,Plated,1,2,PTH
FMAT,2
METRIC
T1C0.700
T2C0.750
T3C0.800
T4C1.000
T5C1.100
T6C1.400
T7C1.520
%
G90
G05
T1
X307.34Y-567.69
X307.34Y-588.01
X307.34Y-595.63
X314.96Y-567.69
X326.39Y-566.42
X334.01Y-566.42
X335.28Y-607.06
X337.82Y-566.42
X342.9Y-607.06
X345.44Y-566.42
T2
X339.598Y-602.234
X340.868Y-600.964
X340.868Y-603.504
T3
X315.95Y-571.79
X315.95Y-597.19
X318.49Y-571.79
X318.49Y-597.19
X321.03Y-571.79
X321.03Y-597.19
X323.57Y-571.79
X323.57Y-597.19
X326.11Y-571.79
X326.11Y-597.19
X328.65Y-571.79
X328.65Y-597.19
X331.19Y-571.79
X331.19Y-597.19
X333.73Y-571.79
X333.73Y-597.19
X336.27Y-571.79
X336.27Y-597.19
X338.81Y-571.79
X338.81Y-597.19
X341.35Y-571.79
X341.35Y-597.19
X343.89Y-571.79
X343.89Y-597.19
X346.43Y-571.79
X346.43Y-597.19
X348.97Y-571.79
X348.97Y-597.19
X351.51Y-571.79
X351.51Y-597.19
X354.05Y-571.79
X354.05Y-597.19
X356.59Y-571.79
X356.59Y-597.19
X359.13Y-571.79
X359.13Y-597.19
X361.67Y-571.79
X361.67Y-597.19
T4
X287.481Y-603.504
X292.481Y-603.504
X298.45Y-572.77
X298.45Y-575.31
X298.45Y-577.85
X298.45Y-580.39
X298.45Y-585.216
X298.45Y-598.424
X300.99Y-585.216
X300.99Y-598.424
X303.53Y-585.216
X303.53Y-598.424
X304.8Y-572.77
X304.8Y-575.31
X304.8Y-577.85
X304.8Y-580.39
X320.04Y-566.42
X322.58Y-566.42
X328.93Y-601.472
X331.47Y-601.472
X334.01Y-601.472
X345.44Y-602.234
X347.98Y-602.234
X349.885Y-566.42
X352.298Y-602.234
X352.425Y-566.42
X354.838Y-602.234
X354.965Y-566.42
X357.378Y-602.234
X357.505Y-566.42
T5
X287.528Y-595.249
X290.068Y-595.249
X292.608Y-595.249
T6
X287.02Y-575.437
X287.02Y-588.137
T7
X287.02Y-568.706
X292.1Y-568.706
X313.69Y-603.758
X318.77Y-603.758
X323.85Y-603.758
T0
M30
