%TF.GenerationSoftware,KiCad,Pcbnew,(5.1.9)-1*%
%TF.CreationDate,2021-03-23T13:14:46+01:00*%
%TF.ProjectId,EnvMonitor,456e764d-6f6e-4697-946f-722e6b696361,rev?*%
%TF.SameCoordinates,Original*%
%TF.FileFunction,Copper,L1,Top*%
%TF.FilePolarity,Positive*%
%FSLAX46Y46*%
G04 Gerber Fmt 4.6, Leading zero omitted, Abs format (unit mm)*
G04 Created by KiCad (PCBNEW (5.1.9)-1) date 2021-03-23 13:14:46*
%MOMM*%
%LPD*%
G01*
G04 APERTURE LIST*
%TA.AperFunction,ComponentPad*%
%ADD10R,3.000000X3.000000*%
%TD*%
%TA.AperFunction,ComponentPad*%
%ADD11C,3.000000*%
%TD*%
%TA.AperFunction,ComponentPad*%
%ADD12O,1.700000X1.700000*%
%TD*%
%TA.AperFunction,ComponentPad*%
%ADD13R,1.700000X1.700000*%
%TD*%
%TA.AperFunction,ComponentPad*%
%ADD14O,1.200000X2.000000*%
%TD*%
%TA.AperFunction,ComponentPad*%
%ADD15C,1.400000*%
%TD*%
%TA.AperFunction,ComponentPad*%
%ADD16O,1.400000X1.400000*%
%TD*%
%TA.AperFunction,ComponentPad*%
%ADD17R,1.800000X1.100000*%
%TD*%
%TA.AperFunction,ComponentPad*%
%ADD18R,2.000000X2.000000*%
%TD*%
%TA.AperFunction,ComponentPad*%
%ADD19C,2.000000*%
%TD*%
%TA.AperFunction,ComponentPad*%
%ADD20R,2.800000X2.800000*%
%TD*%
%TA.AperFunction,ComponentPad*%
%ADD21O,2.800000X2.800000*%
%TD*%
%TA.AperFunction,ComponentPad*%
%ADD22R,1.905000X2.000000*%
%TD*%
%TA.AperFunction,ComponentPad*%
%ADD23O,1.905000X2.000000*%
%TD*%
%TA.AperFunction,Conductor*%
%ADD24C,0.500000*%
%TD*%
%TA.AperFunction,Conductor*%
%ADD25C,0.250000*%
%TD*%
%TA.AperFunction,Conductor*%
%ADD26C,1.000000*%
%TD*%
%TA.AperFunction,Conductor*%
%ADD27C,0.254000*%
%TD*%
%TA.AperFunction,Conductor*%
%ADD28C,0.100000*%
%TD*%
G04 APERTURE END LIST*
D10*
%TO.P,J10,1*%
%TO.N,GND*%
X292100000Y-568706000D03*
D11*
%TO.P,J10,2*%
%TO.N,+9V*%
X287020000Y-568706000D03*
%TD*%
D10*
%TO.P,J5,1*%
%TO.N,/VCC-DS18B20*%
X313690000Y-603758000D03*
D11*
%TO.P,J5,2*%
%TO.N,/GP13-1Wire*%
X318770000Y-603758000D03*
%TO.P,J5,3*%
%TO.N,GND*%
X323850000Y-603758000D03*
%TD*%
D12*
%TO.P,J8,4*%
%TO.N,/RxD*%
X349885000Y-566420000D03*
%TO.P,J8,3*%
%TO.N,/GP17-TxD*%
X352425000Y-566420000D03*
%TO.P,J8,2*%
%TO.N,+5V*%
X354965000Y-566420000D03*
D13*
%TO.P,J8,1*%
%TO.N,GND*%
X357505000Y-566420000D03*
%TD*%
D14*
%TO.P,U1,19*%
%TO.N,+5V*%
X361670001Y-597190001D03*
%TO.P,U1,20*%
%TO.N,Net-(U1-Pad20)*%
X361670001Y-571790001D03*
%TO.P,U1,18*%
%TO.N,Net-(U1-Pad18)*%
X359130001Y-597190001D03*
%TO.P,U1,21*%
%TO.N,Net-(U1-Pad21)*%
X359130001Y-571790001D03*
%TO.P,U1,17*%
%TO.N,Net-(U1-Pad17)*%
X356590001Y-597190001D03*
%TO.P,U1,22*%
%TO.N,Net-(U1-Pad22)*%
X356590001Y-571790001D03*
%TO.P,U1,16*%
%TO.N,Net-(U1-Pad16)*%
X354050001Y-597190001D03*
%TO.P,U1,23*%
%TO.N,/GP15-Btn*%
X354050001Y-571790001D03*
%TO.P,U1,15*%
%TO.N,/GP13-1Wire*%
X351510001Y-597190001D03*
%TO.P,U1,24*%
%TO.N,Net-(U1-Pad24)*%
X351510001Y-571790001D03*
%TO.P,U1,14*%
%TO.N,GND*%
X348970001Y-597190001D03*
%TO.P,U1,25*%
%TO.N,Net-(U1-Pad25)*%
X348970001Y-571790001D03*
%TO.P,U1,13*%
%TO.N,Net-(U1-Pad13)*%
X346430001Y-597190001D03*
%TO.P,U1,26*%
%TO.N,Net-(U1-Pad26)*%
X346430001Y-571790001D03*
%TO.P,U1,12*%
%TO.N,Net-(U1-Pad12)*%
X343890001Y-597190001D03*
%TO.P,U1,27*%
%TO.N,Net-(R4-Pad2)*%
X343890001Y-571790001D03*
%TO.P,U1,11*%
%TO.N,/GP27-Relay*%
X341350001Y-597190001D03*
%TO.P,U1,28*%
%TO.N,/GP17-TxD*%
X341350001Y-571790001D03*
%TO.P,U1,10*%
%TO.N,Net-(R1-Pad2)*%
X338810001Y-597190001D03*
%TO.P,U1,29*%
%TO.N,Net-(U1-Pad29)*%
X338810001Y-571790001D03*
%TO.P,U1,9*%
%TO.N,Net-(U1-Pad9)*%
X336270001Y-597190001D03*
%TO.P,U1,30*%
%TO.N,Net-(U1-Pad30)*%
X336270001Y-571790001D03*
%TO.P,U1,8*%
%TO.N,Net-(U1-Pad8)*%
X333730001Y-597190001D03*
%TO.P,U1,31*%
%TO.N,Net-(U1-Pad31)*%
X333730001Y-571790001D03*
%TO.P,U1,7*%
%TO.N,/GP32*%
X331190001Y-597190001D03*
%TO.P,U1,32*%
%TO.N,GND*%
X331190001Y-571790001D03*
%TO.P,U1,6*%
%TO.N,Net-(U1-Pad6)*%
X328650001Y-597190001D03*
%TO.P,U1,33*%
%TO.N,/GP21-SDA*%
X328650001Y-571790001D03*
%TO.P,U1,5*%
%TO.N,Net-(U1-Pad5)*%
X326110001Y-597190001D03*
%TO.P,U1,34*%
%TO.N,Net-(U1-Pad34)*%
X326110001Y-571790001D03*
%TO.P,U1,4*%
%TO.N,Net-(U1-Pad4)*%
X323570001Y-597190001D03*
%TO.P,U1,35*%
%TO.N,Net-(U1-Pad35)*%
X323570001Y-571790001D03*
%TO.P,U1,3*%
%TO.N,Net-(U1-Pad3)*%
X321030001Y-597190001D03*
%TO.P,U1,36*%
%TO.N,/GP22-SCL*%
X321030001Y-571790001D03*
%TO.P,U1,2*%
%TO.N,Net-(U1-Pad2)*%
X318490001Y-597190001D03*
%TO.P,U1,37*%
%TO.N,Net-(U1-Pad37)*%
X318490001Y-571790001D03*
%TO.P,U1,1*%
%TO.N,+3V3*%
X315950001Y-597190001D03*
%TO.P,U1,38*%
%TO.N,GND*%
X315950001Y-571790001D03*
%TD*%
D13*
%TO.P,J1,1*%
%TO.N,Net-(J1-Pad1)*%
X345440000Y-602234000D03*
D12*
%TO.P,J1,2*%
%TO.N,+5V*%
X347980000Y-602234000D03*
%TD*%
%TO.P,J2,3*%
%TO.N,+5V*%
X357378000Y-602234000D03*
%TO.P,J2,2*%
%TO.N,/GP27-Relay*%
X354838000Y-602234000D03*
D13*
%TO.P,J2,1*%
%TO.N,GND*%
X352298000Y-602234000D03*
%TD*%
%TO.P,J3,1*%
%TO.N,/VCC-DS18B20*%
X298450000Y-585216000D03*
D12*
%TO.P,J3,2*%
%TO.N,/GP13-1Wire*%
X300990000Y-585216000D03*
%TO.P,J3,3*%
%TO.N,GND*%
X303530000Y-585216000D03*
%TD*%
%TO.P,J4,3*%
%TO.N,GND*%
X303530000Y-598424000D03*
%TO.P,J4,2*%
%TO.N,/GP13-1Wire*%
X300990000Y-598424000D03*
D13*
%TO.P,J4,1*%
%TO.N,/VCC-DS18B20*%
X298450000Y-598424000D03*
%TD*%
D12*
%TO.P,J6,4*%
%TO.N,/GP21-SDA*%
X304800000Y-580390000D03*
%TO.P,J6,3*%
%TO.N,/GP22-SCL*%
X304800000Y-577850000D03*
%TO.P,J6,2*%
%TO.N,GND*%
X304800000Y-575310000D03*
D13*
%TO.P,J6,1*%
%TO.N,+3V3*%
X304800000Y-572770000D03*
%TD*%
%TO.P,J7,1*%
%TO.N,+3V3*%
X298450000Y-572770000D03*
D12*
%TO.P,J7,2*%
%TO.N,GND*%
X298450000Y-575310000D03*
%TO.P,J7,3*%
%TO.N,/GP22-SCL*%
X298450000Y-577850000D03*
%TO.P,J7,4*%
%TO.N,/GP21-SDA*%
X298450000Y-580390000D03*
%TD*%
D15*
%TO.P,R1,1*%
%TO.N,Net-(R1-Pad1)*%
X342900000Y-607060000D03*
D16*
%TO.P,R1,2*%
%TO.N,Net-(R1-Pad2)*%
X335280000Y-607060000D03*
%TD*%
%TO.P,R2,2*%
%TO.N,/GP13-1Wire*%
X307340000Y-588010000D03*
D15*
%TO.P,R2,1*%
%TO.N,/VCC-DS18B20*%
X307340000Y-595630000D03*
%TD*%
%TO.P,R3,1*%
%TO.N,/GP15-Btn*%
X307340000Y-567690000D03*
D16*
%TO.P,R3,2*%
%TO.N,GND*%
X314960000Y-567690000D03*
%TD*%
%TO.P,R4,2*%
%TO.N,Net-(R4-Pad2)*%
X334010000Y-566420000D03*
D15*
%TO.P,R4,1*%
%TO.N,/RxD*%
X326390000Y-566420000D03*
%TD*%
%TO.P,R5,1*%
%TO.N,GND*%
X337820000Y-566420000D03*
D16*
%TO.P,R5,2*%
%TO.N,Net-(R4-Pad2)*%
X345440000Y-566420000D03*
%TD*%
D12*
%TO.P,SW1,2*%
%TO.N,/GP15-Btn*%
X320040000Y-566420000D03*
D13*
%TO.P,SW1,1*%
%TO.N,+3V3*%
X322580000Y-566420000D03*
%TD*%
D17*
%TO.P,T1,1*%
%TO.N,Net-(J1-Pad1)*%
X341268000Y-603504000D03*
%TO.P,T1,3*%
%TO.N,GND*%
%TA.AperFunction,ComponentPad*%
G36*
G01*
X341893000Y-601514000D02*
X340643000Y-601514000D01*
G75*
G02*
X340368000Y-601239000I0J275000D01*
G01*
X340368000Y-600689000D01*
G75*
G02*
X340643000Y-600414000I275000J0D01*
G01*
X341893000Y-600414000D01*
G75*
G02*
X342168000Y-600689000I0J-275000D01*
G01*
X342168000Y-601239000D01*
G75*
G02*
X341893000Y-601514000I-275000J0D01*
G01*
G37*
%TD.AperFunction*%
%TO.P,T1,2*%
%TO.N,Net-(R1-Pad1)*%
%TA.AperFunction,ComponentPad*%
G36*
G01*
X339823000Y-602784000D02*
X338573000Y-602784000D01*
G75*
G02*
X338298000Y-602509000I0J275000D01*
G01*
X338298000Y-601959000D01*
G75*
G02*
X338573000Y-601684000I275000J0D01*
G01*
X339823000Y-601684000D01*
G75*
G02*
X340098000Y-601959000I0J-275000D01*
G01*
X340098000Y-602509000D01*
G75*
G02*
X339823000Y-602784000I-275000J0D01*
G01*
G37*
%TD.AperFunction*%
%TD*%
D12*
%TO.P,J9,3*%
%TO.N,/GP32*%
X334010000Y-601472000D03*
%TO.P,J9,2*%
%TO.N,/VCC-DS18B20*%
X331470000Y-601472000D03*
D13*
%TO.P,J9,1*%
%TO.N,+3V3*%
X328930000Y-601472000D03*
%TD*%
D18*
%TO.P,C1,1*%
%TO.N,+5V*%
X292481000Y-603504000D03*
D19*
%TO.P,C1,2*%
%TO.N,GND*%
X287481000Y-603504000D03*
%TD*%
D20*
%TO.P,D1,1*%
%TO.N,+9V*%
X287020000Y-575437000D03*
D21*
%TO.P,D1,2*%
%TO.N,Net-(D1-Pad2)*%
X287020000Y-588137000D03*
%TD*%
D22*
%TO.P,U2,1*%
%TO.N,Net-(D1-Pad2)*%
X287528000Y-595249000D03*
D23*
%TO.P,U2,2*%
%TO.N,GND*%
X290068000Y-595249000D03*
%TO.P,U2,3*%
%TO.N,+5V*%
X292608000Y-595249000D03*
%TD*%
D24*
%TO.N,Net-(J1-Pad1)*%
X344170000Y-603504000D02*
X345440000Y-602234000D01*
X340868000Y-603504000D02*
X344170000Y-603504000D01*
D25*
%TO.N,Net-(R1-Pad1)*%
X342900000Y-607060000D02*
X341376000Y-607060000D01*
X341376000Y-607060000D02*
X339598000Y-605282000D01*
X339598000Y-605282000D02*
X339598000Y-602234000D01*
%TO.N,Net-(R1-Pad2)*%
X337312000Y-598688002D02*
X338810001Y-597190001D01*
X337312000Y-605028000D02*
X337312000Y-598688002D01*
X335280000Y-607060000D02*
X337312000Y-605028000D01*
%TO.N,Net-(R4-Pad2)*%
X343890001Y-570509999D02*
X343890001Y-571790001D01*
X343890001Y-571790001D02*
X343890001Y-570585001D01*
X334010000Y-566420000D02*
X335915000Y-568325000D01*
X341630000Y-568325000D02*
X343890001Y-570585001D01*
X335915000Y-568325000D02*
X341630000Y-568325000D01*
X343890001Y-567969999D02*
X345440000Y-566420000D01*
X343890001Y-571790001D02*
X343890001Y-567969999D01*
D26*
%TO.N,Net-(D1-Pad2)*%
X287020000Y-594741000D02*
X287528000Y-595249000D01*
X287020000Y-588137000D02*
X287020000Y-594741000D01*
D25*
%TO.N,+5V*%
X361670001Y-597687999D02*
X361670001Y-597190001D01*
X292481000Y-603504000D02*
X292735000Y-603504000D01*
D26*
X347980000Y-602234000D02*
X347980000Y-603504000D01*
X347980000Y-603504000D02*
X349504000Y-605028000D01*
X349504000Y-605028000D02*
X356108000Y-605028000D01*
X357378000Y-603758000D02*
X357378000Y-602234000D01*
X356108000Y-605028000D02*
X357378000Y-603758000D01*
X361670001Y-597190001D02*
X361670001Y-578713001D01*
X361670001Y-578713001D02*
X358140000Y-575183000D01*
D24*
X358140000Y-575183000D02*
X357759000Y-575183000D01*
X355100011Y-566555011D02*
X354965000Y-566420000D01*
X355100011Y-572524011D02*
X355100011Y-566555011D01*
X357759000Y-575183000D02*
X355100011Y-572524011D01*
D26*
X292608000Y-603377000D02*
X292481000Y-603504000D01*
X292608000Y-595249000D02*
X292608000Y-603377000D01*
X357378000Y-602234000D02*
X358648000Y-602234000D01*
X358648000Y-602234000D02*
X361569000Y-599313000D01*
X361569000Y-597291002D02*
X361670001Y-597190001D01*
X361569000Y-599313000D02*
X361569000Y-597291002D01*
X357378000Y-603504000D02*
X358648000Y-602234000D01*
X357378000Y-603758000D02*
X357378000Y-603504000D01*
D25*
%TO.N,GND*%
X304800000Y-575310000D02*
X306070000Y-575310000D01*
X314680001Y-567969999D02*
X314960000Y-567690000D01*
X314960000Y-567690000D02*
X314960000Y-570865000D01*
X315025000Y-570865000D02*
X315950001Y-571790001D01*
X314960000Y-570865000D02*
X315025000Y-570865000D01*
D24*
X298450000Y-575310000D02*
X304800000Y-575310000D01*
X312430002Y-575310000D02*
X315950001Y-571790001D01*
X304800000Y-575310000D02*
X312430002Y-575310000D01*
D25*
X292100000Y-568706000D02*
X293878000Y-570484000D01*
D26*
X287481000Y-601900000D02*
X287481000Y-603504000D01*
X290068000Y-599313000D02*
X287481000Y-601900000D01*
X348970001Y-590905001D02*
X348970001Y-597190001D01*
X340677990Y-582612990D02*
X348970001Y-590905001D01*
X292100000Y-568706000D02*
X292100000Y-577850000D01*
X296862990Y-582612990D02*
X298093008Y-582612990D01*
X292100000Y-577850000D02*
X296862990Y-582612990D01*
X296779499Y-583926499D02*
X296779499Y-582696481D01*
X296779499Y-582696481D02*
X296862990Y-582612990D01*
X290195000Y-590510998D02*
X296779499Y-583926499D01*
X296779499Y-583926499D02*
X298093008Y-582612990D01*
D24*
X303530000Y-585216000D02*
X303530000Y-598424000D01*
X321437000Y-601345000D02*
X323850000Y-603758000D01*
X316992000Y-600075000D02*
X318262000Y-601345000D01*
X313055000Y-600075000D02*
X316992000Y-600075000D01*
X311404000Y-598424000D02*
X313055000Y-600075000D01*
X318262000Y-601345000D02*
X321437000Y-601345000D01*
X303530000Y-598424000D02*
X311404000Y-598424000D01*
D26*
X290195000Y-594487000D02*
X290068000Y-594614000D01*
X290195000Y-595122000D02*
X290068000Y-595249000D01*
X290195000Y-590510998D02*
X290195000Y-595122000D01*
X290068000Y-595249000D02*
X290068000Y-599313000D01*
D24*
X348970001Y-597190001D02*
X348970001Y-597763001D01*
X348970001Y-597763001D02*
X352171000Y-600964000D01*
X352171000Y-602107000D02*
X352298000Y-602234000D01*
X352171000Y-600964000D02*
X352171000Y-602107000D01*
X348970001Y-598195999D02*
X348970001Y-597190001D01*
X344297000Y-599440000D02*
X347726000Y-599440000D01*
X342773000Y-600964000D02*
X344297000Y-599440000D01*
X347726000Y-599440000D02*
X348970001Y-598195999D01*
X340868000Y-600964000D02*
X342773000Y-600964000D01*
X292100000Y-568706000D02*
X292100000Y-571627000D01*
X295783000Y-575310000D02*
X298450000Y-575310000D01*
X292100000Y-571627000D02*
X295783000Y-575310000D01*
X331190001Y-571790001D02*
X331190001Y-582447999D01*
D26*
X331025010Y-582612990D02*
X340677990Y-582612990D01*
D24*
X331190001Y-582447999D02*
X331025010Y-582612990D01*
D26*
X298093008Y-582612990D02*
X331025010Y-582612990D01*
%TO.N,+9V*%
X287020000Y-568706000D02*
X287020000Y-575437000D01*
D24*
%TO.N,+3V3*%
X315950001Y-597190001D02*
X315950001Y-597382001D01*
X315950001Y-597382001D02*
X317754000Y-599186000D01*
X326644000Y-599186000D02*
X328930000Y-601472000D01*
X317754000Y-599186000D02*
X326644000Y-599186000D01*
X304800000Y-572770000D02*
X298450000Y-572770000D01*
D25*
%TO.N,/GP13-1Wire*%
X300990000Y-598424000D02*
X300990000Y-587248000D01*
X315976000Y-600964000D02*
X318770000Y-603758000D01*
X303530000Y-600964000D02*
X315976000Y-600964000D01*
X300990000Y-598424000D02*
X303530000Y-600964000D01*
X302768000Y-583438000D02*
X300990000Y-585216000D01*
X304546000Y-583438000D02*
X302768000Y-583438000D01*
X307340000Y-586232000D02*
X304546000Y-583438000D01*
X307340000Y-588010000D02*
X307340000Y-586232000D01*
X300990000Y-587248000D02*
X300990000Y-585216000D01*
%TO.N,/GP21-SDA*%
X328650001Y-576859999D02*
X328650001Y-571790001D01*
X326390000Y-579120000D02*
X328650001Y-576859999D01*
X298450000Y-580390000D02*
X304800000Y-580390000D01*
X304800000Y-580390000D02*
X325120000Y-580390000D01*
X325120000Y-580390000D02*
X326390000Y-579120000D01*
%TO.N,/GP22-SCL*%
X321030001Y-575589999D02*
X321030001Y-571790001D01*
X320040000Y-576580000D02*
X321030001Y-575589999D01*
X298450000Y-577850000D02*
X304800000Y-577850000D01*
X304800000Y-577850000D02*
X318770000Y-577850000D01*
X318770000Y-577850000D02*
X320040000Y-576580000D01*
%TO.N,/RxD*%
X326390000Y-566420000D02*
X327660000Y-565150000D01*
X327660000Y-565150000D02*
X348615000Y-565150000D01*
X348615000Y-565150000D02*
X349885000Y-566420000D01*
%TO.N,/GP17-TxD*%
X352425000Y-568960000D02*
X352425000Y-566420000D01*
X342900000Y-574040000D02*
X351790000Y-574040000D01*
X341350001Y-572490001D02*
X342900000Y-574040000D01*
X341350001Y-571790001D02*
X341350001Y-572490001D01*
X352435011Y-571006850D02*
X352435011Y-573394989D01*
X352425000Y-570996839D02*
X352435011Y-571006850D01*
X352425000Y-568960000D02*
X352425000Y-570996839D01*
X352435011Y-573394989D02*
X351790000Y-574040000D01*
%TO.N,/GP32*%
X331216000Y-597216000D02*
X331190001Y-597190001D01*
D24*
X331190001Y-597190001D02*
X331190001Y-597890001D01*
X334010000Y-600710000D02*
X334010000Y-601472000D01*
X331190001Y-597890001D02*
X334010000Y-600710000D01*
D25*
%TO.N,/GP15-Btn*%
X307340000Y-567690000D02*
X307340000Y-566420000D01*
X307340000Y-566420000D02*
X308610000Y-565150000D01*
X318770000Y-565150000D02*
X320040000Y-566420000D01*
X308610000Y-565150000D02*
X318770000Y-565150000D01*
%TO.N,/VCC-DS18B20*%
X313690000Y-603758000D02*
X313690000Y-605028000D01*
D24*
X298450000Y-585216000D02*
X298450000Y-598424000D01*
X313690000Y-603758000D02*
X313690000Y-604520000D01*
X313690000Y-604520000D02*
X315468000Y-606298000D01*
X315468000Y-606298000D02*
X329057000Y-606298000D01*
X331470000Y-603885000D02*
X331470000Y-601472000D01*
X329057000Y-606298000D02*
X331470000Y-603885000D01*
%TD*%
D27*
%TO.N,+5V*%
X366370001Y-609321000D02*
X283997000Y-609321000D01*
X283997000Y-605823872D01*
X296850000Y-605823872D01*
X296850000Y-606264128D01*
X296935890Y-606695925D01*
X297104369Y-607102669D01*
X297348962Y-607468729D01*
X297660271Y-607780038D01*
X298026331Y-608024631D01*
X298433075Y-608193110D01*
X298864872Y-608279000D01*
X299305128Y-608279000D01*
X299736925Y-608193110D01*
X300143669Y-608024631D01*
X300509729Y-607780038D01*
X300821038Y-607468729D01*
X301065631Y-607102669D01*
X301234110Y-606695925D01*
X301320000Y-606264128D01*
X301320000Y-605823872D01*
X301234110Y-605392075D01*
X301065631Y-604985331D01*
X300821038Y-604619271D01*
X300509729Y-604307962D01*
X300143669Y-604063369D01*
X299736925Y-603894890D01*
X299305128Y-603809000D01*
X298864872Y-603809000D01*
X298433075Y-603894890D01*
X298026331Y-604063369D01*
X297660271Y-604307962D01*
X297348962Y-604619271D01*
X297104369Y-604985331D01*
X296935890Y-605392075D01*
X296850000Y-605823872D01*
X283997000Y-605823872D01*
X283997000Y-587936570D01*
X284985000Y-587936570D01*
X284985000Y-588337430D01*
X285063204Y-588730587D01*
X285216607Y-589100934D01*
X285439313Y-589434237D01*
X285722763Y-589717687D01*
X285885000Y-589826090D01*
X285885001Y-594685239D01*
X285879509Y-594741000D01*
X285901423Y-594963498D01*
X285937428Y-595082190D01*
X285937428Y-596249000D01*
X285949688Y-596373482D01*
X285985998Y-596493180D01*
X286044963Y-596603494D01*
X286124315Y-596700185D01*
X286221006Y-596779537D01*
X286331320Y-596838502D01*
X286451018Y-596874812D01*
X286575500Y-596887072D01*
X288480500Y-596887072D01*
X288604982Y-596874812D01*
X288724680Y-596838502D01*
X288834994Y-596779537D01*
X288931685Y-596700185D01*
X288933000Y-596698582D01*
X288933001Y-598842867D01*
X286717865Y-601058004D01*
X286674551Y-601093551D01*
X286532716Y-601266377D01*
X286434319Y-601450468D01*
X286427324Y-601463554D01*
X286362423Y-601677502D01*
X286340509Y-601900000D01*
X286346000Y-601955751D01*
X286346000Y-602326761D01*
X286211013Y-602461748D01*
X286032082Y-602729537D01*
X285908832Y-603027088D01*
X285846000Y-603342967D01*
X285846000Y-603665033D01*
X285908832Y-603980912D01*
X286032082Y-604278463D01*
X286211013Y-604546252D01*
X286438748Y-604773987D01*
X286706537Y-604952918D01*
X287004088Y-605076168D01*
X287319967Y-605139000D01*
X287642033Y-605139000D01*
X287957912Y-605076168D01*
X288255463Y-604952918D01*
X288523252Y-604773987D01*
X288750987Y-604546252D01*
X288779218Y-604504000D01*
X290842928Y-604504000D01*
X290855188Y-604628482D01*
X290891498Y-604748180D01*
X290950463Y-604858494D01*
X291029815Y-604955185D01*
X291126506Y-605034537D01*
X291236820Y-605093502D01*
X291356518Y-605129812D01*
X291481000Y-605142072D01*
X292195250Y-605139000D01*
X292354000Y-604980250D01*
X292354000Y-603631000D01*
X292608000Y-603631000D01*
X292608000Y-604980250D01*
X292766750Y-605139000D01*
X293481000Y-605142072D01*
X293605482Y-605129812D01*
X293725180Y-605093502D01*
X293835494Y-605034537D01*
X293932185Y-604955185D01*
X294011537Y-604858494D01*
X294070502Y-604748180D01*
X294106812Y-604628482D01*
X294119072Y-604504000D01*
X294116000Y-603789750D01*
X293957250Y-603631000D01*
X292608000Y-603631000D01*
X292354000Y-603631000D01*
X291004750Y-603631000D01*
X290846000Y-603789750D01*
X290842928Y-604504000D01*
X288779218Y-604504000D01*
X288929918Y-604278463D01*
X289053168Y-603980912D01*
X289116000Y-603665033D01*
X289116000Y-603342967D01*
X289053168Y-603027088D01*
X288929918Y-602729537D01*
X288779219Y-602504000D01*
X290842928Y-602504000D01*
X290846000Y-603218250D01*
X291004750Y-603377000D01*
X292354000Y-603377000D01*
X292354000Y-602027750D01*
X292608000Y-602027750D01*
X292608000Y-603377000D01*
X293957250Y-603377000D01*
X294116000Y-603218250D01*
X294119072Y-602504000D01*
X294106812Y-602379518D01*
X294070502Y-602259820D01*
X294011537Y-602149506D01*
X293932185Y-602052815D01*
X293835494Y-601973463D01*
X293725180Y-601914498D01*
X293605482Y-601878188D01*
X293481000Y-601865928D01*
X292766750Y-601869000D01*
X292608000Y-602027750D01*
X292354000Y-602027750D01*
X292195250Y-601869000D01*
X291481000Y-601865928D01*
X291356518Y-601878188D01*
X291236820Y-601914498D01*
X291126506Y-601973463D01*
X291029815Y-602052815D01*
X290950463Y-602149506D01*
X290891498Y-602259820D01*
X290855188Y-602379518D01*
X290842928Y-602504000D01*
X288779219Y-602504000D01*
X288750987Y-602461748D01*
X288637685Y-602348446D01*
X290831141Y-600154991D01*
X290874449Y-600119449D01*
X291016284Y-599946623D01*
X291121676Y-599749447D01*
X291186577Y-599535499D01*
X291203000Y-599368752D01*
X291203000Y-599368743D01*
X291208490Y-599313001D01*
X291203000Y-599257259D01*
X291203000Y-596415888D01*
X291343162Y-596245100D01*
X291498563Y-596430315D01*
X291741077Y-596624969D01*
X292016906Y-596768571D01*
X292235020Y-596839563D01*
X292481000Y-596719594D01*
X292481000Y-595376000D01*
X292735000Y-595376000D01*
X292735000Y-596719594D01*
X292980980Y-596839563D01*
X293199094Y-596768571D01*
X293474923Y-596624969D01*
X293717437Y-596430315D01*
X293917316Y-596192089D01*
X294066879Y-595919446D01*
X294160378Y-595622863D01*
X294033570Y-595376000D01*
X292735000Y-595376000D01*
X292481000Y-595376000D01*
X292461000Y-595376000D01*
X292461000Y-595122000D01*
X292481000Y-595122000D01*
X292481000Y-593778406D01*
X292735000Y-593778406D01*
X292735000Y-595122000D01*
X294033570Y-595122000D01*
X294160378Y-594875137D01*
X294066879Y-594578554D01*
X293917316Y-594305911D01*
X293717437Y-594067685D01*
X293474923Y-593873031D01*
X293199094Y-593729429D01*
X292980980Y-593658437D01*
X292735000Y-593778406D01*
X292481000Y-593778406D01*
X292235020Y-593658437D01*
X292016906Y-593729429D01*
X291741077Y-593873031D01*
X291498563Y-594067685D01*
X291343163Y-594252899D01*
X291330000Y-594236861D01*
X291330000Y-590981129D01*
X296961928Y-585349202D01*
X296961928Y-586066000D01*
X296974188Y-586190482D01*
X297010498Y-586310180D01*
X297069463Y-586420494D01*
X297148815Y-586517185D01*
X297245506Y-586596537D01*
X297355820Y-586655502D01*
X297475518Y-586691812D01*
X297565000Y-586700625D01*
X297565001Y-596939375D01*
X297475518Y-596948188D01*
X297355820Y-596984498D01*
X297245506Y-597043463D01*
X297148815Y-597122815D01*
X297069463Y-597219506D01*
X297010498Y-597329820D01*
X296974188Y-597449518D01*
X296961928Y-597574000D01*
X296961928Y-599274000D01*
X296974188Y-599398482D01*
X297010498Y-599518180D01*
X297069463Y-599628494D01*
X297148815Y-599725185D01*
X297245506Y-599804537D01*
X297355820Y-599863502D01*
X297475518Y-599899812D01*
X297600000Y-599912072D01*
X299300000Y-599912072D01*
X299424482Y-599899812D01*
X299544180Y-599863502D01*
X299654494Y-599804537D01*
X299751185Y-599725185D01*
X299830537Y-599628494D01*
X299889502Y-599518180D01*
X299911513Y-599445620D01*
X300043368Y-599577475D01*
X300286589Y-599739990D01*
X300556842Y-599851932D01*
X300843740Y-599909000D01*
X301136260Y-599909000D01*
X301356408Y-599865210D01*
X302966205Y-601475008D01*
X302989999Y-601504001D01*
X303018992Y-601527795D01*
X303018996Y-601527799D01*
X303079519Y-601577468D01*
X303105724Y-601598974D01*
X303237753Y-601669546D01*
X303381014Y-601713003D01*
X303492667Y-601724000D01*
X303492676Y-601724000D01*
X303529999Y-601727676D01*
X303567322Y-601724000D01*
X311841985Y-601724000D01*
X311835506Y-601727463D01*
X311738815Y-601806815D01*
X311659463Y-601903506D01*
X311600498Y-602013820D01*
X311564188Y-602133518D01*
X311551928Y-602258000D01*
X311551928Y-605258000D01*
X311564188Y-605382482D01*
X311600498Y-605502180D01*
X311659463Y-605612494D01*
X311738815Y-605709185D01*
X311835506Y-605788537D01*
X311945820Y-605847502D01*
X312065518Y-605883812D01*
X312190000Y-605896072D01*
X313814494Y-605896072D01*
X314811470Y-606893049D01*
X314839183Y-606926817D01*
X314872951Y-606954530D01*
X314872953Y-606954532D01*
X314973940Y-607037410D01*
X314973941Y-607037411D01*
X315127687Y-607119589D01*
X315294510Y-607170195D01*
X315424523Y-607183000D01*
X315424531Y-607183000D01*
X315468000Y-607187281D01*
X315511469Y-607183000D01*
X329013531Y-607183000D01*
X329057000Y-607187281D01*
X329100469Y-607183000D01*
X329100477Y-607183000D01*
X329230490Y-607170195D01*
X329397313Y-607119589D01*
X329551059Y-607037411D01*
X329685817Y-606926817D01*
X329713534Y-606893044D01*
X332065050Y-604541529D01*
X332098817Y-604513817D01*
X332149317Y-604452284D01*
X332197991Y-604392974D01*
X332209411Y-604379059D01*
X332291589Y-604225313D01*
X332342195Y-604058490D01*
X332355000Y-603928477D01*
X332355000Y-603928467D01*
X332359281Y-603885001D01*
X332355000Y-603841535D01*
X332355000Y-602666656D01*
X332416632Y-602625475D01*
X332623475Y-602418632D01*
X332740000Y-602244240D01*
X332856525Y-602418632D01*
X333063368Y-602625475D01*
X333306589Y-602787990D01*
X333576842Y-602899932D01*
X333863740Y-602957000D01*
X334156260Y-602957000D01*
X334443158Y-602899932D01*
X334713411Y-602787990D01*
X334956632Y-602625475D01*
X335163475Y-602418632D01*
X335325990Y-602175411D01*
X335437932Y-601905158D01*
X335495000Y-601618260D01*
X335495000Y-601325740D01*
X335437932Y-601038842D01*
X335325990Y-600768589D01*
X335163475Y-600525368D01*
X334956632Y-600318525D01*
X334713411Y-600156010D01*
X334693437Y-600147736D01*
X334666532Y-600114953D01*
X334666530Y-600114951D01*
X334638817Y-600081183D01*
X334605050Y-600053471D01*
X333302455Y-598750877D01*
X333487900Y-598807131D01*
X333730001Y-598830976D01*
X333972103Y-598807131D01*
X334204902Y-598736512D01*
X334419450Y-598621834D01*
X334607503Y-598467503D01*
X334761834Y-598279450D01*
X334876512Y-598064902D01*
X334947131Y-597832102D01*
X334965001Y-597650665D01*
X334965001Y-596729336D01*
X334947131Y-596547899D01*
X334876512Y-596315100D01*
X334761834Y-596100552D01*
X334607503Y-595912499D01*
X334419449Y-595758168D01*
X334204901Y-595643490D01*
X333972102Y-595572871D01*
X333730001Y-595549026D01*
X333487899Y-595572871D01*
X333255100Y-595643490D01*
X333040552Y-595758168D01*
X332852499Y-595912499D01*
X332698168Y-596100553D01*
X332583490Y-596315101D01*
X332512871Y-596547900D01*
X332495001Y-596729337D01*
X332495001Y-597650666D01*
X332512871Y-597832103D01*
X332569125Y-598017547D01*
X332401673Y-597850095D01*
X332407131Y-597832102D01*
X332425001Y-597650665D01*
X332425001Y-596729336D01*
X332407131Y-596547899D01*
X332336512Y-596315100D01*
X332221834Y-596100552D01*
X332067503Y-595912499D01*
X331879449Y-595758168D01*
X331664901Y-595643490D01*
X331432102Y-595572871D01*
X331190001Y-595549026D01*
X330947899Y-595572871D01*
X330715100Y-595643490D01*
X330500552Y-595758168D01*
X330312499Y-595912499D01*
X330158168Y-596100553D01*
X330043490Y-596315101D01*
X329972871Y-596547900D01*
X329955001Y-596729337D01*
X329955001Y-597650666D01*
X329972871Y-597832103D01*
X330043490Y-598064902D01*
X330158169Y-598279450D01*
X330312500Y-598467503D01*
X330500553Y-598621834D01*
X330715101Y-598736512D01*
X330815342Y-598766920D01*
X332266896Y-600218475D01*
X332173411Y-600156010D01*
X331903158Y-600044068D01*
X331616260Y-599987000D01*
X331323740Y-599987000D01*
X331036842Y-600044068D01*
X330766589Y-600156010D01*
X330523368Y-600318525D01*
X330391513Y-600450380D01*
X330369502Y-600377820D01*
X330310537Y-600267506D01*
X330231185Y-600170815D01*
X330134494Y-600091463D01*
X330024180Y-600032498D01*
X329904482Y-599996188D01*
X329780000Y-599983928D01*
X328693507Y-599983928D01*
X327300534Y-598590956D01*
X327272817Y-598557183D01*
X327138059Y-598446589D01*
X327045339Y-598397030D01*
X327141834Y-598279450D01*
X327256512Y-598064902D01*
X327327131Y-597832102D01*
X327345001Y-597650665D01*
X327345001Y-596729337D01*
X327415001Y-596729337D01*
X327415001Y-597650666D01*
X327432871Y-597832103D01*
X327503490Y-598064902D01*
X327618169Y-598279450D01*
X327772500Y-598467503D01*
X327960553Y-598621834D01*
X328175101Y-598736512D01*
X328407900Y-598807131D01*
X328650001Y-598830976D01*
X328892103Y-598807131D01*
X329124902Y-598736512D01*
X329339450Y-598621834D01*
X329527503Y-598467503D01*
X329681834Y-598279450D01*
X329796512Y-598064902D01*
X329867131Y-597832102D01*
X329885001Y-597650665D01*
X329885001Y-596729336D01*
X329867131Y-596547899D01*
X329796512Y-596315100D01*
X329681834Y-596100552D01*
X329527503Y-595912499D01*
X329339449Y-595758168D01*
X329124901Y-595643490D01*
X328892102Y-595572871D01*
X328650001Y-595549026D01*
X328407899Y-595572871D01*
X328175100Y-595643490D01*
X327960552Y-595758168D01*
X327772499Y-595912499D01*
X327618168Y-596100553D01*
X327503490Y-596315101D01*
X327432871Y-596547900D01*
X327415001Y-596729337D01*
X327345001Y-596729337D01*
X327345001Y-596729336D01*
X327327131Y-596547899D01*
X327256512Y-596315100D01*
X327141834Y-596100552D01*
X326987503Y-595912499D01*
X326799449Y-595758168D01*
X326584901Y-595643490D01*
X326352102Y-595572871D01*
X326110001Y-595549026D01*
X325867899Y-595572871D01*
X325635100Y-595643490D01*
X325420552Y-595758168D01*
X325232499Y-595912499D01*
X325078168Y-596100553D01*
X324963490Y-596315101D01*
X324892871Y-596547900D01*
X324875001Y-596729337D01*
X324875001Y-597650666D01*
X324892871Y-597832103D01*
X324963490Y-598064902D01*
X325078169Y-598279450D01*
X325095855Y-598301000D01*
X324584148Y-598301000D01*
X324601834Y-598279450D01*
X324716512Y-598064902D01*
X324787131Y-597832102D01*
X324805001Y-597650665D01*
X324805001Y-596729336D01*
X324787131Y-596547899D01*
X324716512Y-596315100D01*
X324601834Y-596100552D01*
X324447503Y-595912499D01*
X324259449Y-595758168D01*
X324044901Y-595643490D01*
X323812102Y-595572871D01*
X323570001Y-595549026D01*
X323327899Y-595572871D01*
X323095100Y-595643490D01*
X322880552Y-595758168D01*
X322692499Y-595912499D01*
X322538168Y-596100553D01*
X322423490Y-596315101D01*
X322352871Y-596547900D01*
X322335001Y-596729337D01*
X322335001Y-597650666D01*
X322352871Y-597832103D01*
X322423490Y-598064902D01*
X322538169Y-598279450D01*
X322555855Y-598301000D01*
X322044148Y-598301000D01*
X322061834Y-598279450D01*
X322176512Y-598064902D01*
X322247131Y-597832102D01*
X322265001Y-597650665D01*
X322265001Y-596729336D01*
X322247131Y-596547899D01*
X322176512Y-596315100D01*
X322061834Y-596100552D01*
X321907503Y-595912499D01*
X321719449Y-595758168D01*
X321504901Y-595643490D01*
X321272102Y-595572871D01*
X321030001Y-595549026D01*
X320787899Y-595572871D01*
X320555100Y-595643490D01*
X320340552Y-595758168D01*
X320152499Y-595912499D01*
X319998168Y-596100553D01*
X319883490Y-596315101D01*
X319812871Y-596547900D01*
X319795001Y-596729337D01*
X319795001Y-597650666D01*
X319812871Y-597832103D01*
X319883490Y-598064902D01*
X319998169Y-598279450D01*
X320015855Y-598301000D01*
X319504148Y-598301000D01*
X319521834Y-598279450D01*
X319636512Y-598064902D01*
X319707131Y-597832102D01*
X319725001Y-597650665D01*
X319725001Y-596729336D01*
X319707131Y-596547899D01*
X319636512Y-596315100D01*
X319521834Y-596100552D01*
X319367503Y-595912499D01*
X319179449Y-595758168D01*
X318964901Y-595643490D01*
X318732102Y-595572871D01*
X318490001Y-595549026D01*
X318247899Y-595572871D01*
X318015100Y-595643490D01*
X317800552Y-595758168D01*
X317612499Y-595912499D01*
X317458168Y-596100553D01*
X317343490Y-596315101D01*
X317272871Y-596547900D01*
X317255001Y-596729337D01*
X317255001Y-597435423D01*
X317185001Y-597365423D01*
X317185001Y-596729336D01*
X317167131Y-596547899D01*
X317096512Y-596315100D01*
X316981834Y-596100552D01*
X316827503Y-595912499D01*
X316639449Y-595758168D01*
X316424901Y-595643490D01*
X316192102Y-595572871D01*
X315950001Y-595549026D01*
X315707899Y-595572871D01*
X315475100Y-595643490D01*
X315260552Y-595758168D01*
X315072499Y-595912499D01*
X314918168Y-596100553D01*
X314803490Y-596315101D01*
X314732871Y-596547900D01*
X314715001Y-596729337D01*
X314715001Y-597650666D01*
X314732871Y-597832103D01*
X314803490Y-598064902D01*
X314918169Y-598279450D01*
X315072500Y-598467503D01*
X315260553Y-598621834D01*
X315475101Y-598736512D01*
X315707900Y-598807131D01*
X315950001Y-598830976D01*
X316129699Y-598813277D01*
X316506421Y-599190000D01*
X313421579Y-599190000D01*
X312060534Y-597828956D01*
X312032817Y-597795183D01*
X311898059Y-597684589D01*
X311744313Y-597602411D01*
X311577490Y-597551805D01*
X311447477Y-597539000D01*
X311447469Y-597539000D01*
X311404000Y-597534719D01*
X311360531Y-597539000D01*
X304724656Y-597539000D01*
X304683475Y-597477368D01*
X304476632Y-597270525D01*
X304415000Y-597229344D01*
X304415000Y-595498514D01*
X306005000Y-595498514D01*
X306005000Y-595761486D01*
X306056304Y-596019405D01*
X306156939Y-596262359D01*
X306303038Y-596481013D01*
X306488987Y-596666962D01*
X306707641Y-596813061D01*
X306950595Y-596913696D01*
X307208514Y-596965000D01*
X307471486Y-596965000D01*
X307729405Y-596913696D01*
X307972359Y-596813061D01*
X308191013Y-596666962D01*
X308376962Y-596481013D01*
X308523061Y-596262359D01*
X308623696Y-596019405D01*
X308675000Y-595761486D01*
X308675000Y-595498514D01*
X308623696Y-595240595D01*
X308523061Y-594997641D01*
X308376962Y-594778987D01*
X308191013Y-594593038D01*
X307972359Y-594446939D01*
X307729405Y-594346304D01*
X307471486Y-594295000D01*
X307208514Y-594295000D01*
X306950595Y-594346304D01*
X306707641Y-594446939D01*
X306488987Y-594593038D01*
X306303038Y-594778987D01*
X306156939Y-594997641D01*
X306056304Y-595240595D01*
X306005000Y-595498514D01*
X304415000Y-595498514D01*
X304415000Y-586410656D01*
X304476632Y-586369475D01*
X304683475Y-586162632D01*
X304845990Y-585919411D01*
X304957932Y-585649158D01*
X305015000Y-585362260D01*
X305015000Y-585069740D01*
X304993164Y-584959966D01*
X306580001Y-586546803D01*
X306580001Y-586912225D01*
X306488987Y-586973038D01*
X306303038Y-587158987D01*
X306156939Y-587377641D01*
X306056304Y-587620595D01*
X306005000Y-587878514D01*
X306005000Y-588141486D01*
X306056304Y-588399405D01*
X306156939Y-588642359D01*
X306303038Y-588861013D01*
X306488987Y-589046962D01*
X306707641Y-589193061D01*
X306950595Y-589293696D01*
X307208514Y-589345000D01*
X307471486Y-589345000D01*
X307729405Y-589293696D01*
X307972359Y-589193061D01*
X308191013Y-589046962D01*
X308376962Y-588861013D01*
X308523061Y-588642359D01*
X308623696Y-588399405D01*
X308675000Y-588141486D01*
X308675000Y-587878514D01*
X308623696Y-587620595D01*
X308523061Y-587377641D01*
X308376962Y-587158987D01*
X308191013Y-586973038D01*
X308100000Y-586912225D01*
X308100000Y-586269325D01*
X308103676Y-586232000D01*
X308100000Y-586194675D01*
X308100000Y-586194667D01*
X308089003Y-586083014D01*
X308045546Y-585939753D01*
X307974974Y-585807724D01*
X307880001Y-585691999D01*
X307851003Y-585668201D01*
X305930791Y-583747990D01*
X340207859Y-583747990D01*
X347835001Y-591375133D01*
X347835002Y-596293564D01*
X347823490Y-596315101D01*
X347752871Y-596547900D01*
X347735001Y-596729337D01*
X347735001Y-597650666D01*
X347752871Y-597832103D01*
X347823490Y-598064902D01*
X347832557Y-598081865D01*
X347359422Y-598555000D01*
X347200888Y-598555000D01*
X347307503Y-598467503D01*
X347461834Y-598279450D01*
X347576512Y-598064902D01*
X347647131Y-597832102D01*
X347665001Y-597650665D01*
X347665001Y-596729336D01*
X347647131Y-596547899D01*
X347576512Y-596315100D01*
X347461834Y-596100552D01*
X347307503Y-595912499D01*
X347119449Y-595758168D01*
X346904901Y-595643490D01*
X346672102Y-595572871D01*
X346430001Y-595549026D01*
X346187899Y-595572871D01*
X345955100Y-595643490D01*
X345740552Y-595758168D01*
X345552499Y-595912499D01*
X345398168Y-596100553D01*
X345283490Y-596315101D01*
X345212871Y-596547900D01*
X345195001Y-596729337D01*
X345195001Y-597650666D01*
X345212871Y-597832103D01*
X345283490Y-598064902D01*
X345398169Y-598279450D01*
X345552500Y-598467503D01*
X345659115Y-598555000D01*
X344660888Y-598555000D01*
X344767503Y-598467503D01*
X344921834Y-598279450D01*
X345036512Y-598064902D01*
X345107131Y-597832102D01*
X345125001Y-597650665D01*
X345125001Y-596729336D01*
X345107131Y-596547899D01*
X345036512Y-596315100D01*
X344921834Y-596100552D01*
X344767503Y-595912499D01*
X344579449Y-595758168D01*
X344364901Y-595643490D01*
X344132102Y-595572871D01*
X343890001Y-595549026D01*
X343647899Y-595572871D01*
X343415100Y-595643490D01*
X343200552Y-595758168D01*
X343012499Y-595912499D01*
X342858168Y-596100553D01*
X342743490Y-596315101D01*
X342672871Y-596547900D01*
X342655001Y-596729337D01*
X342655001Y-597650666D01*
X342672871Y-597832103D01*
X342743490Y-598064902D01*
X342858169Y-598279450D01*
X343012500Y-598467503D01*
X343200553Y-598621834D01*
X343415101Y-598736512D01*
X343647900Y-598807131D01*
X343670418Y-598809349D01*
X343668183Y-598811183D01*
X343640470Y-598844951D01*
X342485594Y-599999828D01*
X342400276Y-599929808D01*
X342242418Y-599845431D01*
X342071132Y-599793472D01*
X341893000Y-599775928D01*
X340643000Y-599775928D01*
X340464868Y-599793472D01*
X340293582Y-599845431D01*
X340135724Y-599929808D01*
X339997361Y-600043361D01*
X339883808Y-600181724D01*
X339799431Y-600339582D01*
X339747472Y-600510868D01*
X339729928Y-600689000D01*
X339729928Y-601045928D01*
X338573000Y-601045928D01*
X338394868Y-601063472D01*
X338223582Y-601115431D01*
X338072000Y-601196453D01*
X338072000Y-599002803D01*
X338337549Y-598737255D01*
X338567900Y-598807131D01*
X338810001Y-598830976D01*
X339052103Y-598807131D01*
X339284902Y-598736512D01*
X339499450Y-598621834D01*
X339687503Y-598467503D01*
X339841834Y-598279450D01*
X339956512Y-598064902D01*
X340027131Y-597832102D01*
X340045001Y-597650665D01*
X340045001Y-596729337D01*
X340115001Y-596729337D01*
X340115001Y-597650666D01*
X340132871Y-597832103D01*
X340203490Y-598064902D01*
X340318169Y-598279450D01*
X340472500Y-598467503D01*
X340660553Y-598621834D01*
X340875101Y-598736512D01*
X341107900Y-598807131D01*
X341350001Y-598830976D01*
X341592103Y-598807131D01*
X341824902Y-598736512D01*
X342039450Y-598621834D01*
X342227503Y-598467503D01*
X342381834Y-598279450D01*
X342496512Y-598064902D01*
X342567131Y-597832102D01*
X342585001Y-597650665D01*
X342585001Y-596729336D01*
X342567131Y-596547899D01*
X342496512Y-596315100D01*
X342381834Y-596100552D01*
X342227503Y-595912499D01*
X342039449Y-595758168D01*
X341824901Y-595643490D01*
X341592102Y-595572871D01*
X341350001Y-595549026D01*
X341107899Y-595572871D01*
X340875100Y-595643490D01*
X340660552Y-595758168D01*
X340472499Y-595912499D01*
X340318168Y-596100553D01*
X340203490Y-596315101D01*
X340132871Y-596547900D01*
X340115001Y-596729337D01*
X340045001Y-596729337D01*
X340045001Y-596729336D01*
X340027131Y-596547899D01*
X339956512Y-596315100D01*
X339841834Y-596100552D01*
X339687503Y-595912499D01*
X339499449Y-595758168D01*
X339284901Y-595643490D01*
X339052102Y-595572871D01*
X338810001Y-595549026D01*
X338567899Y-595572871D01*
X338335100Y-595643490D01*
X338120552Y-595758168D01*
X337932499Y-595912499D01*
X337778168Y-596100553D01*
X337663490Y-596315101D01*
X337592871Y-596547900D01*
X337575001Y-596729337D01*
X337575001Y-597350199D01*
X337505001Y-597420200D01*
X337505001Y-596729336D01*
X337487131Y-596547899D01*
X337416512Y-596315100D01*
X337301834Y-596100552D01*
X337147503Y-595912499D01*
X336959449Y-595758168D01*
X336744901Y-595643490D01*
X336512102Y-595572871D01*
X336270001Y-595549026D01*
X336027899Y-595572871D01*
X335795100Y-595643490D01*
X335580552Y-595758168D01*
X335392499Y-595912499D01*
X335238168Y-596100553D01*
X335123490Y-596315101D01*
X335052871Y-596547900D01*
X335035001Y-596729337D01*
X335035001Y-597650666D01*
X335052871Y-597832103D01*
X335123490Y-598064902D01*
X335238169Y-598279450D01*
X335392500Y-598467503D01*
X335580553Y-598621834D01*
X335795101Y-598736512D01*
X336027900Y-598807131D01*
X336270001Y-598830976D01*
X336512103Y-598807131D01*
X336552001Y-598795028D01*
X336552000Y-604713198D01*
X335518844Y-605746355D01*
X335411486Y-605725000D01*
X335148514Y-605725000D01*
X334890595Y-605776304D01*
X334647641Y-605876939D01*
X334428987Y-606023038D01*
X334243038Y-606208987D01*
X334096939Y-606427641D01*
X333996304Y-606670595D01*
X333945000Y-606928514D01*
X333945000Y-607191486D01*
X333996304Y-607449405D01*
X334096939Y-607692359D01*
X334243038Y-607911013D01*
X334428987Y-608096962D01*
X334647641Y-608243061D01*
X334890595Y-608343696D01*
X335148514Y-608395000D01*
X335411486Y-608395000D01*
X335669405Y-608343696D01*
X335912359Y-608243061D01*
X336131013Y-608096962D01*
X336316962Y-607911013D01*
X336463061Y-607692359D01*
X336563696Y-607449405D01*
X336615000Y-607191486D01*
X336615000Y-606928514D01*
X336593645Y-606821156D01*
X337823004Y-605591798D01*
X337852001Y-605568001D01*
X337906019Y-605502180D01*
X337946974Y-605452277D01*
X338017546Y-605320247D01*
X338036428Y-605258000D01*
X338061003Y-605176986D01*
X338072000Y-605065333D01*
X338072000Y-605065323D01*
X338075676Y-605028000D01*
X338072000Y-604990677D01*
X338072000Y-603271547D01*
X338223582Y-603352569D01*
X338394868Y-603404528D01*
X338573000Y-603422072D01*
X338838001Y-603422072D01*
X338838000Y-605244677D01*
X338834324Y-605282000D01*
X338838000Y-605319322D01*
X338838000Y-605319332D01*
X338848997Y-605430985D01*
X338887705Y-605558589D01*
X338892454Y-605574246D01*
X338963026Y-605706276D01*
X339002871Y-605754826D01*
X339057999Y-605822001D01*
X339087003Y-605845804D01*
X340812201Y-607571003D01*
X340835999Y-607600001D01*
X340951724Y-607694974D01*
X341083753Y-607765546D01*
X341227014Y-607809003D01*
X341338667Y-607820000D01*
X341338675Y-607820000D01*
X341376000Y-607823676D01*
X341413325Y-607820000D01*
X341802225Y-607820000D01*
X341863038Y-607911013D01*
X342048987Y-608096962D01*
X342267641Y-608243061D01*
X342510595Y-608343696D01*
X342768514Y-608395000D01*
X343031486Y-608395000D01*
X343289405Y-608343696D01*
X343532359Y-608243061D01*
X343751013Y-608096962D01*
X343936962Y-607911013D01*
X344083061Y-607692359D01*
X344183696Y-607449405D01*
X344235000Y-607191486D01*
X344235000Y-606928514D01*
X344183696Y-606670595D01*
X344083061Y-606427641D01*
X343936962Y-606208987D01*
X343751013Y-606023038D01*
X343532359Y-605876939D01*
X343404245Y-605823872D01*
X360985000Y-605823872D01*
X360985000Y-606264128D01*
X361070890Y-606695925D01*
X361239369Y-607102669D01*
X361483962Y-607468729D01*
X361795271Y-607780038D01*
X362161331Y-608024631D01*
X362568075Y-608193110D01*
X362999872Y-608279000D01*
X363440128Y-608279000D01*
X363871925Y-608193110D01*
X364278669Y-608024631D01*
X364644729Y-607780038D01*
X364956038Y-607468729D01*
X365200631Y-607102669D01*
X365369110Y-606695925D01*
X365455000Y-606264128D01*
X365455000Y-605823872D01*
X365369110Y-605392075D01*
X365200631Y-604985331D01*
X364956038Y-604619271D01*
X364644729Y-604307962D01*
X364278669Y-604063369D01*
X363871925Y-603894890D01*
X363440128Y-603809000D01*
X362999872Y-603809000D01*
X362568075Y-603894890D01*
X362161331Y-604063369D01*
X361795271Y-604307962D01*
X361483962Y-604619271D01*
X361239369Y-604985331D01*
X361070890Y-605392075D01*
X360985000Y-605823872D01*
X343404245Y-605823872D01*
X343289405Y-605776304D01*
X343031486Y-605725000D01*
X342768514Y-605725000D01*
X342510595Y-605776304D01*
X342267641Y-605876939D01*
X342048987Y-606023038D01*
X341863038Y-606208987D01*
X341802225Y-606300000D01*
X341690802Y-606300000D01*
X340358000Y-604967199D01*
X340358000Y-604691087D01*
X340368000Y-604692072D01*
X342168000Y-604692072D01*
X342292482Y-604679812D01*
X342412180Y-604643502D01*
X342522494Y-604584537D01*
X342619185Y-604505185D01*
X342698537Y-604408494D01*
X342708957Y-604389000D01*
X344126531Y-604389000D01*
X344170000Y-604393281D01*
X344213469Y-604389000D01*
X344213477Y-604389000D01*
X344343490Y-604376195D01*
X344510313Y-604325589D01*
X344664059Y-604243411D01*
X344798817Y-604132817D01*
X344826534Y-604099044D01*
X345203506Y-603722072D01*
X346290000Y-603722072D01*
X346414482Y-603709812D01*
X346534180Y-603673502D01*
X346644494Y-603614537D01*
X346741185Y-603535185D01*
X346820537Y-603438494D01*
X346879502Y-603328180D01*
X346903966Y-603247534D01*
X346979731Y-603331588D01*
X347213080Y-603505641D01*
X347475901Y-603630825D01*
X347623110Y-603675476D01*
X347853000Y-603554155D01*
X347853000Y-602361000D01*
X348107000Y-602361000D01*
X348107000Y-603554155D01*
X348336890Y-603675476D01*
X348484099Y-603630825D01*
X348746920Y-603505641D01*
X348980269Y-603331588D01*
X349175178Y-603115355D01*
X349324157Y-602865252D01*
X349421481Y-602590891D01*
X349300814Y-602361000D01*
X348107000Y-602361000D01*
X347853000Y-602361000D01*
X347833000Y-602361000D01*
X347833000Y-602107000D01*
X347853000Y-602107000D01*
X347853000Y-600913845D01*
X348107000Y-600913845D01*
X348107000Y-602107000D01*
X349300814Y-602107000D01*
X349421481Y-601877109D01*
X349324157Y-601602748D01*
X349175178Y-601352645D01*
X348980269Y-601136412D01*
X348746920Y-600962359D01*
X348484099Y-600837175D01*
X348336890Y-600792524D01*
X348107000Y-600913845D01*
X347853000Y-600913845D01*
X347623110Y-600792524D01*
X347475901Y-600837175D01*
X347213080Y-600962359D01*
X346979731Y-601136412D01*
X346903966Y-601220466D01*
X346879502Y-601139820D01*
X346820537Y-601029506D01*
X346741185Y-600932815D01*
X346644494Y-600853463D01*
X346534180Y-600794498D01*
X346414482Y-600758188D01*
X346290000Y-600745928D01*
X344590000Y-600745928D01*
X344465518Y-600758188D01*
X344345820Y-600794498D01*
X344235506Y-600853463D01*
X344138815Y-600932815D01*
X344059463Y-601029506D01*
X344000498Y-601139820D01*
X343964188Y-601259518D01*
X343951928Y-601384000D01*
X343951928Y-602470494D01*
X343803422Y-602619000D01*
X342708957Y-602619000D01*
X342698537Y-602599506D01*
X342619185Y-602502815D01*
X342522494Y-602423463D01*
X342412180Y-602364498D01*
X342292482Y-602328188D01*
X342168000Y-602315928D01*
X340736072Y-602315928D01*
X340736072Y-602152072D01*
X341893000Y-602152072D01*
X342071132Y-602134528D01*
X342242418Y-602082569D01*
X342400276Y-601998192D01*
X342538639Y-601884639D01*
X342567888Y-601849000D01*
X342729531Y-601849000D01*
X342773000Y-601853281D01*
X342816469Y-601849000D01*
X342816477Y-601849000D01*
X342946490Y-601836195D01*
X343113313Y-601785589D01*
X343267059Y-601703411D01*
X343401817Y-601592817D01*
X343429534Y-601559044D01*
X344663579Y-600325000D01*
X347682531Y-600325000D01*
X347726000Y-600329281D01*
X347769469Y-600325000D01*
X347769477Y-600325000D01*
X347899490Y-600312195D01*
X348066313Y-600261589D01*
X348220059Y-600179411D01*
X348354817Y-600068817D01*
X348382534Y-600035044D01*
X349186500Y-599231078D01*
X350947873Y-600992452D01*
X350917463Y-601029506D01*
X350858498Y-601139820D01*
X350822188Y-601259518D01*
X350809928Y-601384000D01*
X350809928Y-603084000D01*
X350822188Y-603208482D01*
X350858498Y-603328180D01*
X350917463Y-603438494D01*
X350996815Y-603535185D01*
X351093506Y-603614537D01*
X351203820Y-603673502D01*
X351323518Y-603709812D01*
X351448000Y-603722072D01*
X353148000Y-603722072D01*
X353272482Y-603709812D01*
X353392180Y-603673502D01*
X353502494Y-603614537D01*
X353599185Y-603535185D01*
X353678537Y-603438494D01*
X353737502Y-603328180D01*
X353759513Y-603255620D01*
X353891368Y-603387475D01*
X354134589Y-603549990D01*
X354404842Y-603661932D01*
X354691740Y-603719000D01*
X354984260Y-603719000D01*
X355271158Y-603661932D01*
X355541411Y-603549990D01*
X355784632Y-603387475D01*
X355991475Y-603180632D01*
X356113195Y-602998466D01*
X356182822Y-603115355D01*
X356377731Y-603331588D01*
X356611080Y-603505641D01*
X356873901Y-603630825D01*
X357021110Y-603675476D01*
X357251000Y-603554155D01*
X357251000Y-602361000D01*
X357505000Y-602361000D01*
X357505000Y-603554155D01*
X357734890Y-603675476D01*
X357882099Y-603630825D01*
X358144920Y-603505641D01*
X358378269Y-603331588D01*
X358573178Y-603115355D01*
X358722157Y-602865252D01*
X358819481Y-602590891D01*
X358698814Y-602361000D01*
X357505000Y-602361000D01*
X357251000Y-602361000D01*
X357231000Y-602361000D01*
X357231000Y-602107000D01*
X357251000Y-602107000D01*
X357251000Y-600913845D01*
X357505000Y-600913845D01*
X357505000Y-602107000D01*
X358698814Y-602107000D01*
X358819481Y-601877109D01*
X358722157Y-601602748D01*
X358573178Y-601352645D01*
X358378269Y-601136412D01*
X358144920Y-600962359D01*
X357882099Y-600837175D01*
X357734890Y-600792524D01*
X357505000Y-600913845D01*
X357251000Y-600913845D01*
X357021110Y-600792524D01*
X356873901Y-600837175D01*
X356611080Y-600962359D01*
X356377731Y-601136412D01*
X356182822Y-601352645D01*
X356113195Y-601469534D01*
X355991475Y-601287368D01*
X355784632Y-601080525D01*
X355541411Y-600918010D01*
X355271158Y-600806068D01*
X354984260Y-600749000D01*
X354691740Y-600749000D01*
X354404842Y-600806068D01*
X354134589Y-600918010D01*
X353891368Y-601080525D01*
X353759513Y-601212380D01*
X353737502Y-601139820D01*
X353678537Y-601029506D01*
X353599185Y-600932815D01*
X353502494Y-600853463D01*
X353392180Y-600794498D01*
X353272482Y-600758188D01*
X353148000Y-600745928D01*
X353029671Y-600745928D01*
X352992589Y-600623687D01*
X352910411Y-600469941D01*
X352865579Y-600415313D01*
X352827532Y-600368953D01*
X352827530Y-600368951D01*
X352799817Y-600335183D01*
X352766050Y-600307471D01*
X351264756Y-598806177D01*
X351267900Y-598807131D01*
X351510001Y-598830976D01*
X351752103Y-598807131D01*
X351984902Y-598736512D01*
X352199450Y-598621834D01*
X352387503Y-598467503D01*
X352541834Y-598279450D01*
X352656512Y-598064902D01*
X352727131Y-597832102D01*
X352745001Y-597650665D01*
X352745001Y-596729337D01*
X352815001Y-596729337D01*
X352815001Y-597650666D01*
X352832871Y-597832103D01*
X352903490Y-598064902D01*
X353018169Y-598279450D01*
X353172500Y-598467503D01*
X353360553Y-598621834D01*
X353575101Y-598736512D01*
X353807900Y-598807131D01*
X354050001Y-598830976D01*
X354292103Y-598807131D01*
X354524902Y-598736512D01*
X354739450Y-598621834D01*
X354927503Y-598467503D01*
X355081834Y-598279450D01*
X355196512Y-598064902D01*
X355267131Y-597832102D01*
X355285001Y-597650665D01*
X355285001Y-596729337D01*
X355355001Y-596729337D01*
X355355001Y-597650666D01*
X355372871Y-597832103D01*
X355443490Y-598064902D01*
X355558169Y-598279450D01*
X355712500Y-598467503D01*
X355900553Y-598621834D01*
X356115101Y-598736512D01*
X356347900Y-598807131D01*
X356590001Y-598830976D01*
X356832103Y-598807131D01*
X357064902Y-598736512D01*
X357279450Y-598621834D01*
X357467503Y-598467503D01*
X357621834Y-598279450D01*
X357736512Y-598064902D01*
X357807131Y-597832102D01*
X357825001Y-597650665D01*
X357825001Y-596729337D01*
X357895001Y-596729337D01*
X357895001Y-597650666D01*
X357912871Y-597832103D01*
X357983490Y-598064902D01*
X358098169Y-598279450D01*
X358252500Y-598467503D01*
X358440553Y-598621834D01*
X358655101Y-598736512D01*
X358887900Y-598807131D01*
X359130001Y-598830976D01*
X359372103Y-598807131D01*
X359604902Y-598736512D01*
X359819450Y-598621834D01*
X360007503Y-598467503D01*
X360161834Y-598279450D01*
X360276512Y-598064902D01*
X360347131Y-597832102D01*
X360365001Y-597650665D01*
X360365001Y-597317001D01*
X360435001Y-597317001D01*
X360435001Y-597717001D01*
X360483508Y-597955497D01*
X360577611Y-598179947D01*
X360713694Y-598381726D01*
X360886527Y-598553079D01*
X361089468Y-598687422D01*
X361314719Y-598779592D01*
X361352392Y-598783463D01*
X361543001Y-598658732D01*
X361543001Y-597317001D01*
X361797001Y-597317001D01*
X361797001Y-598658732D01*
X361987610Y-598783463D01*
X362025283Y-598779592D01*
X362250534Y-598687422D01*
X362453475Y-598553079D01*
X362626308Y-598381726D01*
X362762391Y-598179947D01*
X362856494Y-597955497D01*
X362905001Y-597717001D01*
X362905001Y-597317001D01*
X361797001Y-597317001D01*
X361543001Y-597317001D01*
X360435001Y-597317001D01*
X360365001Y-597317001D01*
X360365001Y-596729336D01*
X360358468Y-596663001D01*
X360435001Y-596663001D01*
X360435001Y-597063001D01*
X361543001Y-597063001D01*
X361543001Y-595721270D01*
X361797001Y-595721270D01*
X361797001Y-597063001D01*
X362905001Y-597063001D01*
X362905001Y-596663001D01*
X362856494Y-596424505D01*
X362762391Y-596200055D01*
X362626308Y-595998276D01*
X362453475Y-595826923D01*
X362250534Y-595692580D01*
X362025283Y-595600410D01*
X361987610Y-595596539D01*
X361797001Y-595721270D01*
X361543001Y-595721270D01*
X361352392Y-595596539D01*
X361314719Y-595600410D01*
X361089468Y-595692580D01*
X360886527Y-595826923D01*
X360713694Y-595998276D01*
X360577611Y-596200055D01*
X360483508Y-596424505D01*
X360435001Y-596663001D01*
X360358468Y-596663001D01*
X360347131Y-596547899D01*
X360276512Y-596315100D01*
X360161834Y-596100552D01*
X360007503Y-595912499D01*
X359819449Y-595758168D01*
X359604901Y-595643490D01*
X359372102Y-595572871D01*
X359130001Y-595549026D01*
X358887899Y-595572871D01*
X358655100Y-595643490D01*
X358440552Y-595758168D01*
X358252499Y-595912499D01*
X358098168Y-596100553D01*
X357983490Y-596315101D01*
X357912871Y-596547900D01*
X357895001Y-596729337D01*
X357825001Y-596729337D01*
X357825001Y-596729336D01*
X357807131Y-596547899D01*
X357736512Y-596315100D01*
X357621834Y-596100552D01*
X357467503Y-595912499D01*
X357279449Y-595758168D01*
X357064901Y-595643490D01*
X356832102Y-595572871D01*
X356590001Y-595549026D01*
X356347899Y-595572871D01*
X356115100Y-595643490D01*
X355900552Y-595758168D01*
X355712499Y-595912499D01*
X355558168Y-596100553D01*
X355443490Y-596315101D01*
X355372871Y-596547900D01*
X355355001Y-596729337D01*
X355285001Y-596729337D01*
X355285001Y-596729336D01*
X355267131Y-596547899D01*
X355196512Y-596315100D01*
X355081834Y-596100552D01*
X354927503Y-595912499D01*
X354739449Y-595758168D01*
X354524901Y-595643490D01*
X354292102Y-595572871D01*
X354050001Y-595549026D01*
X353807899Y-595572871D01*
X353575100Y-595643490D01*
X353360552Y-595758168D01*
X353172499Y-595912499D01*
X353018168Y-596100553D01*
X352903490Y-596315101D01*
X352832871Y-596547900D01*
X352815001Y-596729337D01*
X352745001Y-596729337D01*
X352745001Y-596729336D01*
X352727131Y-596547899D01*
X352656512Y-596315100D01*
X352541834Y-596100552D01*
X352387503Y-595912499D01*
X352199449Y-595758168D01*
X351984901Y-595643490D01*
X351752102Y-595572871D01*
X351510001Y-595549026D01*
X351267899Y-595572871D01*
X351035100Y-595643490D01*
X350820552Y-595758168D01*
X350632499Y-595912499D01*
X350478168Y-596100553D01*
X350363490Y-596315101D01*
X350292871Y-596547900D01*
X350275001Y-596729337D01*
X350275001Y-597650666D01*
X350292871Y-597832103D01*
X350293825Y-597835246D01*
X350196415Y-597737837D01*
X350205001Y-597650665D01*
X350205001Y-596729336D01*
X350187131Y-596547899D01*
X350116512Y-596315100D01*
X350105001Y-596293564D01*
X350105001Y-590960742D01*
X350110491Y-590905000D01*
X350105001Y-590849258D01*
X350105001Y-590849249D01*
X350088578Y-590682502D01*
X350023677Y-590468554D01*
X349918285Y-590271378D01*
X349776450Y-590098552D01*
X349733142Y-590063010D01*
X341519986Y-581849855D01*
X341484439Y-581806541D01*
X341311613Y-581664706D01*
X341114437Y-581559314D01*
X340900489Y-581494413D01*
X340733742Y-581477990D01*
X340733741Y-581477990D01*
X340677990Y-581472499D01*
X340622239Y-581477990D01*
X332075001Y-581477990D01*
X332075001Y-573058367D01*
X332221834Y-572879450D01*
X332336512Y-572664902D01*
X332407131Y-572432102D01*
X332425001Y-572250665D01*
X332425001Y-571329337D01*
X332495001Y-571329337D01*
X332495001Y-572250666D01*
X332512871Y-572432103D01*
X332583490Y-572664902D01*
X332698169Y-572879450D01*
X332852500Y-573067503D01*
X333040553Y-573221834D01*
X333255101Y-573336512D01*
X333487900Y-573407131D01*
X333730001Y-573430976D01*
X333972103Y-573407131D01*
X334204902Y-573336512D01*
X334419450Y-573221834D01*
X334607503Y-573067503D01*
X334761834Y-572879450D01*
X334876512Y-572664902D01*
X334947131Y-572432102D01*
X334965001Y-572250665D01*
X334965001Y-571329337D01*
X335035001Y-571329337D01*
X335035001Y-572250666D01*
X335052871Y-572432103D01*
X335123490Y-572664902D01*
X335238169Y-572879450D01*
X335392500Y-573067503D01*
X335580553Y-573221834D01*
X335795101Y-573336512D01*
X336027900Y-573407131D01*
X336270001Y-573430976D01*
X336512103Y-573407131D01*
X336744902Y-573336512D01*
X336959450Y-573221834D01*
X337147503Y-573067503D01*
X337301834Y-572879450D01*
X337416512Y-572664902D01*
X337487131Y-572432102D01*
X337505001Y-572250665D01*
X337505001Y-571329337D01*
X337575001Y-571329337D01*
X337575001Y-572250666D01*
X337592871Y-572432103D01*
X337663490Y-572664902D01*
X337778169Y-572879450D01*
X337932500Y-573067503D01*
X338120553Y-573221834D01*
X338335101Y-573336512D01*
X338567900Y-573407131D01*
X338810001Y-573430976D01*
X339052103Y-573407131D01*
X339284902Y-573336512D01*
X339499450Y-573221834D01*
X339687503Y-573067503D01*
X339841834Y-572879450D01*
X339956512Y-572664902D01*
X340027131Y-572432102D01*
X340045001Y-572250665D01*
X340045001Y-571329336D01*
X340027131Y-571147899D01*
X339956512Y-570915100D01*
X339841834Y-570700552D01*
X339687503Y-570512499D01*
X339499449Y-570358168D01*
X339284901Y-570243490D01*
X339052102Y-570172871D01*
X338810001Y-570149026D01*
X338567899Y-570172871D01*
X338335100Y-570243490D01*
X338120552Y-570358168D01*
X337932499Y-570512499D01*
X337778168Y-570700553D01*
X337663490Y-570915101D01*
X337592871Y-571147900D01*
X337575001Y-571329337D01*
X337505001Y-571329337D01*
X337505001Y-571329336D01*
X337487131Y-571147899D01*
X337416512Y-570915100D01*
X337301834Y-570700552D01*
X337147503Y-570512499D01*
X336959449Y-570358168D01*
X336744901Y-570243490D01*
X336512102Y-570172871D01*
X336270001Y-570149026D01*
X336027899Y-570172871D01*
X335795100Y-570243490D01*
X335580552Y-570358168D01*
X335392499Y-570512499D01*
X335238168Y-570700553D01*
X335123490Y-570915101D01*
X335052871Y-571147900D01*
X335035001Y-571329337D01*
X334965001Y-571329337D01*
X334965001Y-571329336D01*
X334947131Y-571147899D01*
X334876512Y-570915100D01*
X334761834Y-570700552D01*
X334607503Y-570512499D01*
X334419449Y-570358168D01*
X334204901Y-570243490D01*
X333972102Y-570172871D01*
X333730001Y-570149026D01*
X333487899Y-570172871D01*
X333255100Y-570243490D01*
X333040552Y-570358168D01*
X332852499Y-570512499D01*
X332698168Y-570700553D01*
X332583490Y-570915101D01*
X332512871Y-571147900D01*
X332495001Y-571329337D01*
X332425001Y-571329337D01*
X332425001Y-571329336D01*
X332407131Y-571147899D01*
X332336512Y-570915100D01*
X332221834Y-570700552D01*
X332067503Y-570512499D01*
X331879449Y-570358168D01*
X331664901Y-570243490D01*
X331432102Y-570172871D01*
X331190001Y-570149026D01*
X330947899Y-570172871D01*
X330715100Y-570243490D01*
X330500552Y-570358168D01*
X330312499Y-570512499D01*
X330158168Y-570700553D01*
X330043490Y-570915101D01*
X329972871Y-571147900D01*
X329955001Y-571329337D01*
X329955001Y-572250666D01*
X329972871Y-572432103D01*
X330043490Y-572664902D01*
X330158169Y-572879450D01*
X330305001Y-573058366D01*
X330305002Y-581477990D01*
X305812117Y-581477990D01*
X305953475Y-581336632D01*
X306078178Y-581150000D01*
X325082678Y-581150000D01*
X325120000Y-581153676D01*
X325157322Y-581150000D01*
X325157333Y-581150000D01*
X325268986Y-581139003D01*
X325412247Y-581095546D01*
X325544276Y-581024974D01*
X325660001Y-580930001D01*
X325683804Y-580900997D01*
X326953799Y-579631003D01*
X326953803Y-579630998D01*
X329161005Y-577423797D01*
X329190002Y-577400000D01*
X329263864Y-577309999D01*
X329284975Y-577284276D01*
X329355547Y-577152246D01*
X329371093Y-577100997D01*
X329399004Y-577008985D01*
X329410001Y-576897332D01*
X329410001Y-576897323D01*
X329413677Y-576860000D01*
X329410001Y-576822677D01*
X329410001Y-573163934D01*
X329527503Y-573067503D01*
X329681834Y-572879450D01*
X329796512Y-572664902D01*
X329867131Y-572432102D01*
X329885001Y-572250665D01*
X329885001Y-571329336D01*
X329867131Y-571147899D01*
X329796512Y-570915100D01*
X329681834Y-570700552D01*
X329527503Y-570512499D01*
X329339449Y-570358168D01*
X329124901Y-570243490D01*
X328892102Y-570172871D01*
X328650001Y-570149026D01*
X328407899Y-570172871D01*
X328175100Y-570243490D01*
X327960552Y-570358168D01*
X327772499Y-570512499D01*
X327618168Y-570700553D01*
X327503490Y-570915101D01*
X327432871Y-571147900D01*
X327415001Y-571329337D01*
X327415001Y-572250666D01*
X327432871Y-572432103D01*
X327503490Y-572664902D01*
X327618169Y-572879450D01*
X327772500Y-573067503D01*
X327890002Y-573163934D01*
X327890001Y-576545197D01*
X325879002Y-578556197D01*
X325878997Y-578556201D01*
X324805199Y-579630000D01*
X306078178Y-579630000D01*
X305953475Y-579443368D01*
X305746632Y-579236525D01*
X305572240Y-579120000D01*
X305746632Y-579003475D01*
X305953475Y-578796632D01*
X306078178Y-578610000D01*
X318732678Y-578610000D01*
X318770000Y-578613676D01*
X318807322Y-578610000D01*
X318807333Y-578610000D01*
X318918986Y-578599003D01*
X319062247Y-578555546D01*
X319194276Y-578484974D01*
X319310001Y-578390001D01*
X319333804Y-578360997D01*
X320603799Y-577091003D01*
X320603803Y-577090998D01*
X321541005Y-576153797D01*
X321570002Y-576130000D01*
X321664975Y-576014275D01*
X321735547Y-575882246D01*
X321779004Y-575738985D01*
X321790001Y-575627332D01*
X321790001Y-575627322D01*
X321793677Y-575589999D01*
X321790001Y-575552676D01*
X321790001Y-573163934D01*
X321907503Y-573067503D01*
X322061834Y-572879450D01*
X322176512Y-572664902D01*
X322247131Y-572432102D01*
X322265001Y-572250665D01*
X322265001Y-571329337D01*
X322335001Y-571329337D01*
X322335001Y-572250666D01*
X322352871Y-572432103D01*
X322423490Y-572664902D01*
X322538169Y-572879450D01*
X322692500Y-573067503D01*
X322880553Y-573221834D01*
X323095101Y-573336512D01*
X323327900Y-573407131D01*
X323570001Y-573430976D01*
X323812103Y-573407131D01*
X324044902Y-573336512D01*
X324259450Y-573221834D01*
X324447503Y-573067503D01*
X324601834Y-572879450D01*
X324716512Y-572664902D01*
X324787131Y-572432102D01*
X324805001Y-572250665D01*
X324805001Y-571329337D01*
X324875001Y-571329337D01*
X324875001Y-572250666D01*
X324892871Y-572432103D01*
X324963490Y-572664902D01*
X325078169Y-572879450D01*
X325232500Y-573067503D01*
X325420553Y-573221834D01*
X325635101Y-573336512D01*
X325867900Y-573407131D01*
X326110001Y-573430976D01*
X326352103Y-573407131D01*
X326584902Y-573336512D01*
X326799450Y-573221834D01*
X326987503Y-573067503D01*
X327141834Y-572879450D01*
X327256512Y-572664902D01*
X327327131Y-572432102D01*
X327345001Y-572250665D01*
X327345001Y-571329336D01*
X327327131Y-571147899D01*
X327256512Y-570915100D01*
X327141834Y-570700552D01*
X326987503Y-570512499D01*
X326799449Y-570358168D01*
X326584901Y-570243490D01*
X326352102Y-570172871D01*
X326110001Y-570149026D01*
X325867899Y-570172871D01*
X325635100Y-570243490D01*
X325420552Y-570358168D01*
X325232499Y-570512499D01*
X325078168Y-570700553D01*
X324963490Y-570915101D01*
X324892871Y-571147900D01*
X324875001Y-571329337D01*
X324805001Y-571329337D01*
X324805001Y-571329336D01*
X324787131Y-571147899D01*
X324716512Y-570915100D01*
X324601834Y-570700552D01*
X324447503Y-570512499D01*
X324259449Y-570358168D01*
X324044901Y-570243490D01*
X323812102Y-570172871D01*
X323570001Y-570149026D01*
X323327899Y-570172871D01*
X323095100Y-570243490D01*
X322880552Y-570358168D01*
X322692499Y-570512499D01*
X322538168Y-570700553D01*
X322423490Y-570915101D01*
X322352871Y-571147900D01*
X322335001Y-571329337D01*
X322265001Y-571329337D01*
X322265001Y-571329336D01*
X322247131Y-571147899D01*
X322176512Y-570915100D01*
X322061834Y-570700552D01*
X321907503Y-570512499D01*
X321719449Y-570358168D01*
X321504901Y-570243490D01*
X321272102Y-570172871D01*
X321030001Y-570149026D01*
X320787899Y-570172871D01*
X320555100Y-570243490D01*
X320340552Y-570358168D01*
X320152499Y-570512499D01*
X319998168Y-570700553D01*
X319883490Y-570915101D01*
X319812871Y-571147900D01*
X319795001Y-571329337D01*
X319795001Y-572250666D01*
X319812871Y-572432103D01*
X319883490Y-572664902D01*
X319998169Y-572879450D01*
X320152500Y-573067503D01*
X320270002Y-573163934D01*
X320270001Y-575275197D01*
X319529002Y-576016197D01*
X319528997Y-576016201D01*
X318455199Y-577090000D01*
X306078178Y-577090000D01*
X305953475Y-576903368D01*
X305746632Y-576696525D01*
X305572240Y-576580000D01*
X305746632Y-576463475D01*
X305953475Y-576256632D01*
X305994656Y-576195000D01*
X312386533Y-576195000D01*
X312430002Y-576199281D01*
X312473471Y-576195000D01*
X312473479Y-576195000D01*
X312603492Y-576182195D01*
X312770315Y-576131589D01*
X312924061Y-576049411D01*
X313058819Y-575938817D01*
X313086536Y-575905044D01*
X315613182Y-573378399D01*
X315707900Y-573407131D01*
X315950001Y-573430976D01*
X316192103Y-573407131D01*
X316424902Y-573336512D01*
X316639450Y-573221834D01*
X316827503Y-573067503D01*
X316981834Y-572879450D01*
X317096512Y-572664902D01*
X317167131Y-572432102D01*
X317185001Y-572250665D01*
X317185001Y-571329337D01*
X317255001Y-571329337D01*
X317255001Y-572250666D01*
X317272871Y-572432103D01*
X317343490Y-572664902D01*
X317458169Y-572879450D01*
X317612500Y-573067503D01*
X317800553Y-573221834D01*
X318015101Y-573336512D01*
X318247900Y-573407131D01*
X318490001Y-573430976D01*
X318732103Y-573407131D01*
X318964902Y-573336512D01*
X319179450Y-573221834D01*
X319367503Y-573067503D01*
X319521834Y-572879450D01*
X319636512Y-572664902D01*
X319707131Y-572432102D01*
X319725001Y-572250665D01*
X319725001Y-571329336D01*
X319707131Y-571147899D01*
X319636512Y-570915100D01*
X319521834Y-570700552D01*
X319367503Y-570512499D01*
X319179449Y-570358168D01*
X318964901Y-570243490D01*
X318732102Y-570172871D01*
X318490001Y-570149026D01*
X318247899Y-570172871D01*
X318015100Y-570243490D01*
X317800552Y-570358168D01*
X317612499Y-570512499D01*
X317458168Y-570700553D01*
X317343490Y-570915101D01*
X317272871Y-571147900D01*
X317255001Y-571329337D01*
X317185001Y-571329337D01*
X317185001Y-571329336D01*
X317167131Y-571147899D01*
X317096512Y-570915100D01*
X316981834Y-570700552D01*
X316827503Y-570512499D01*
X316639449Y-570358168D01*
X316424901Y-570243490D01*
X316192102Y-570172871D01*
X315950001Y-570149026D01*
X315720000Y-570171679D01*
X315720000Y-568787775D01*
X315811013Y-568726962D01*
X315996962Y-568541013D01*
X316143061Y-568322359D01*
X316243696Y-568079405D01*
X316295000Y-567821486D01*
X316295000Y-567558514D01*
X316243696Y-567300595D01*
X316143061Y-567057641D01*
X315996962Y-566838987D01*
X315811013Y-566653038D01*
X315592359Y-566506939D01*
X315349405Y-566406304D01*
X315091486Y-566355000D01*
X314828514Y-566355000D01*
X314570595Y-566406304D01*
X314327641Y-566506939D01*
X314108987Y-566653038D01*
X313923038Y-566838987D01*
X313776939Y-567057641D01*
X313676304Y-567300595D01*
X313625000Y-567558514D01*
X313625000Y-567821486D01*
X313676304Y-568079405D01*
X313776939Y-568322359D01*
X313923038Y-568541013D01*
X314108987Y-568726962D01*
X314200000Y-568787775D01*
X314200001Y-570827657D01*
X314196323Y-570865000D01*
X314210997Y-571013986D01*
X314254454Y-571157247D01*
X314325026Y-571289276D01*
X314419999Y-571405001D01*
X314535724Y-571499974D01*
X314641956Y-571556757D01*
X314715001Y-571629802D01*
X314715001Y-571773422D01*
X312063424Y-574425000D01*
X305994656Y-574425000D01*
X305953475Y-574363368D01*
X305821620Y-574231513D01*
X305894180Y-574209502D01*
X306004494Y-574150537D01*
X306101185Y-574071185D01*
X306180537Y-573974494D01*
X306239502Y-573864180D01*
X306275812Y-573744482D01*
X306288072Y-573620000D01*
X306288072Y-571920000D01*
X306275812Y-571795518D01*
X306239502Y-571675820D01*
X306180537Y-571565506D01*
X306101185Y-571468815D01*
X306004494Y-571389463D01*
X305894180Y-571330498D01*
X305774482Y-571294188D01*
X305650000Y-571281928D01*
X303950000Y-571281928D01*
X303825518Y-571294188D01*
X303705820Y-571330498D01*
X303595506Y-571389463D01*
X303498815Y-571468815D01*
X303419463Y-571565506D01*
X303360498Y-571675820D01*
X303324188Y-571795518D01*
X303315375Y-571885000D01*
X299934625Y-571885000D01*
X299925812Y-571795518D01*
X299889502Y-571675820D01*
X299830537Y-571565506D01*
X299751185Y-571468815D01*
X299654494Y-571389463D01*
X299544180Y-571330498D01*
X299424482Y-571294188D01*
X299300000Y-571281928D01*
X297600000Y-571281928D01*
X297475518Y-571294188D01*
X297355820Y-571330498D01*
X297245506Y-571389463D01*
X297148815Y-571468815D01*
X297069463Y-571565506D01*
X297010498Y-571675820D01*
X296974188Y-571795518D01*
X296961928Y-571920000D01*
X296961928Y-573620000D01*
X296974188Y-573744482D01*
X297010498Y-573864180D01*
X297069463Y-573974494D01*
X297148815Y-574071185D01*
X297245506Y-574150537D01*
X297355820Y-574209502D01*
X297428380Y-574231513D01*
X297296525Y-574363368D01*
X297255344Y-574425000D01*
X296149579Y-574425000D01*
X293235000Y-571510422D01*
X293235000Y-570915802D01*
X293366997Y-571047799D01*
X293453724Y-571118974D01*
X293585753Y-571189546D01*
X293729014Y-571233003D01*
X293878000Y-571247676D01*
X294026986Y-571233003D01*
X294170246Y-571189546D01*
X294302276Y-571118974D01*
X294418001Y-571024001D01*
X294512974Y-570908276D01*
X294583546Y-570776246D01*
X294627003Y-570632986D01*
X294641676Y-570484000D01*
X294627003Y-570335014D01*
X294583546Y-570191753D01*
X294512974Y-570059724D01*
X294441799Y-569972997D01*
X294238072Y-569769270D01*
X294238072Y-567206000D01*
X294225812Y-567081518D01*
X294189502Y-566961820D01*
X294130537Y-566851506D01*
X294116886Y-566834872D01*
X296850000Y-566834872D01*
X296850000Y-567275128D01*
X296935890Y-567706925D01*
X297104369Y-568113669D01*
X297348962Y-568479729D01*
X297660271Y-568791038D01*
X298026331Y-569035631D01*
X298433075Y-569204110D01*
X298864872Y-569290000D01*
X299305128Y-569290000D01*
X299736925Y-569204110D01*
X300143669Y-569035631D01*
X300509729Y-568791038D01*
X300821038Y-568479729D01*
X301065631Y-568113669D01*
X301234110Y-567706925D01*
X301263630Y-567558514D01*
X306005000Y-567558514D01*
X306005000Y-567821486D01*
X306056304Y-568079405D01*
X306156939Y-568322359D01*
X306303038Y-568541013D01*
X306488987Y-568726962D01*
X306707641Y-568873061D01*
X306950595Y-568973696D01*
X307208514Y-569025000D01*
X307471486Y-569025000D01*
X307729405Y-568973696D01*
X307972359Y-568873061D01*
X308191013Y-568726962D01*
X308376962Y-568541013D01*
X308523061Y-568322359D01*
X308623696Y-568079405D01*
X308675000Y-567821486D01*
X308675000Y-567558514D01*
X308623696Y-567300595D01*
X308523061Y-567057641D01*
X308376962Y-566838987D01*
X308191013Y-566653038D01*
X308185468Y-566649333D01*
X308924802Y-565910000D01*
X318455199Y-565910000D01*
X318598791Y-566053592D01*
X318555000Y-566273740D01*
X318555000Y-566566260D01*
X318612068Y-566853158D01*
X318724010Y-567123411D01*
X318886525Y-567366632D01*
X319093368Y-567573475D01*
X319336589Y-567735990D01*
X319606842Y-567847932D01*
X319893740Y-567905000D01*
X320186260Y-567905000D01*
X320473158Y-567847932D01*
X320743411Y-567735990D01*
X320986632Y-567573475D01*
X321118487Y-567441620D01*
X321140498Y-567514180D01*
X321199463Y-567624494D01*
X321278815Y-567721185D01*
X321375506Y-567800537D01*
X321485820Y-567859502D01*
X321605518Y-567895812D01*
X321730000Y-567908072D01*
X323430000Y-567908072D01*
X323554482Y-567895812D01*
X323674180Y-567859502D01*
X323784494Y-567800537D01*
X323881185Y-567721185D01*
X323960537Y-567624494D01*
X324019502Y-567514180D01*
X324055812Y-567394482D01*
X324068072Y-567270000D01*
X324068072Y-566288514D01*
X325055000Y-566288514D01*
X325055000Y-566551486D01*
X325106304Y-566809405D01*
X325206939Y-567052359D01*
X325353038Y-567271013D01*
X325538987Y-567456962D01*
X325757641Y-567603061D01*
X326000595Y-567703696D01*
X326258514Y-567755000D01*
X326521486Y-567755000D01*
X326779405Y-567703696D01*
X327022359Y-567603061D01*
X327241013Y-567456962D01*
X327426962Y-567271013D01*
X327573061Y-567052359D01*
X327673696Y-566809405D01*
X327725000Y-566551486D01*
X327725000Y-566288514D01*
X327703645Y-566181157D01*
X327974802Y-565910000D01*
X332776256Y-565910000D01*
X332726304Y-566030595D01*
X332675000Y-566288514D01*
X332675000Y-566551486D01*
X332726304Y-566809405D01*
X332826939Y-567052359D01*
X332973038Y-567271013D01*
X333158987Y-567456962D01*
X333377641Y-567603061D01*
X333620595Y-567703696D01*
X333878514Y-567755000D01*
X334141486Y-567755000D01*
X334248844Y-567733645D01*
X335351200Y-568836002D01*
X335374999Y-568865001D01*
X335490724Y-568959974D01*
X335622753Y-569030546D01*
X335766014Y-569074003D01*
X335877667Y-569085000D01*
X335877677Y-569085000D01*
X335915000Y-569088676D01*
X335952323Y-569085000D01*
X341315199Y-569085000D01*
X342890885Y-570660687D01*
X342858168Y-570700553D01*
X342743490Y-570915101D01*
X342672871Y-571147900D01*
X342655001Y-571329337D01*
X342655001Y-572250666D01*
X342672871Y-572432103D01*
X342743490Y-572664902D01*
X342858169Y-572879450D01*
X343012500Y-573067503D01*
X343200553Y-573221834D01*
X343309374Y-573280000D01*
X343214802Y-573280000D01*
X342520529Y-572585728D01*
X342567131Y-572432102D01*
X342585001Y-572250665D01*
X342585001Y-571329336D01*
X342567131Y-571147899D01*
X342496512Y-570915100D01*
X342381834Y-570700552D01*
X342227503Y-570512499D01*
X342039449Y-570358168D01*
X341824901Y-570243490D01*
X341592102Y-570172871D01*
X341350001Y-570149026D01*
X341107899Y-570172871D01*
X340875100Y-570243490D01*
X340660552Y-570358168D01*
X340472499Y-570512499D01*
X340318168Y-570700553D01*
X340203490Y-570915101D01*
X340132871Y-571147900D01*
X340115001Y-571329337D01*
X340115001Y-572250666D01*
X340132871Y-572432103D01*
X340203490Y-572664902D01*
X340318169Y-572879450D01*
X340472500Y-573067503D01*
X340660553Y-573221834D01*
X340875101Y-573336512D01*
X341107900Y-573407131D01*
X341201554Y-573416355D01*
X342336201Y-574551003D01*
X342359999Y-574580001D01*
X342388997Y-574603799D01*
X342475724Y-574674974D01*
X342607753Y-574745546D01*
X342751014Y-574789003D01*
X342900000Y-574803677D01*
X342937333Y-574800000D01*
X351752678Y-574800000D01*
X351790000Y-574803676D01*
X351827322Y-574800000D01*
X351827333Y-574800000D01*
X351938986Y-574789003D01*
X352082247Y-574745546D01*
X352214276Y-574674974D01*
X352330001Y-574580001D01*
X352353803Y-574550998D01*
X352946013Y-573958789D01*
X352975012Y-573934990D01*
X353069985Y-573819265D01*
X353140557Y-573687236D01*
X353184014Y-573543975D01*
X353195011Y-573432322D01*
X353195011Y-573432313D01*
X353198687Y-573394990D01*
X353195011Y-573357667D01*
X353195011Y-573085977D01*
X353360553Y-573221834D01*
X353575101Y-573336512D01*
X353807900Y-573407131D01*
X354050001Y-573430976D01*
X354292103Y-573407131D01*
X354524902Y-573336512D01*
X354739450Y-573221834D01*
X354927503Y-573067503D01*
X355081834Y-572879450D01*
X355196512Y-572664902D01*
X355267131Y-572432102D01*
X355285001Y-572250665D01*
X355285001Y-571329337D01*
X355355001Y-571329337D01*
X355355001Y-572250666D01*
X355372871Y-572432103D01*
X355443490Y-572664902D01*
X355558169Y-572879450D01*
X355712500Y-573067503D01*
X355900553Y-573221834D01*
X356115101Y-573336512D01*
X356347900Y-573407131D01*
X356590001Y-573430976D01*
X356832103Y-573407131D01*
X357064902Y-573336512D01*
X357279450Y-573221834D01*
X357467503Y-573067503D01*
X357621834Y-572879450D01*
X357736512Y-572664902D01*
X357807131Y-572432102D01*
X357825001Y-572250665D01*
X357825001Y-571329337D01*
X357895001Y-571329337D01*
X357895001Y-572250666D01*
X357912871Y-572432103D01*
X357983490Y-572664902D01*
X358098169Y-572879450D01*
X358252500Y-573067503D01*
X358440553Y-573221834D01*
X358655101Y-573336512D01*
X358887900Y-573407131D01*
X359130001Y-573430976D01*
X359372103Y-573407131D01*
X359604902Y-573336512D01*
X359819450Y-573221834D01*
X360007503Y-573067503D01*
X360161834Y-572879450D01*
X360276512Y-572664902D01*
X360347131Y-572432102D01*
X360365001Y-572250665D01*
X360365001Y-571329337D01*
X360435001Y-571329337D01*
X360435001Y-572250666D01*
X360452871Y-572432103D01*
X360523490Y-572664902D01*
X360638169Y-572879450D01*
X360792500Y-573067503D01*
X360980553Y-573221834D01*
X361195101Y-573336512D01*
X361427900Y-573407131D01*
X361670001Y-573430976D01*
X361912103Y-573407131D01*
X362144902Y-573336512D01*
X362359450Y-573221834D01*
X362547503Y-573067503D01*
X362701834Y-572879450D01*
X362816512Y-572664902D01*
X362887131Y-572432102D01*
X362905001Y-572250665D01*
X362905001Y-571329336D01*
X362887131Y-571147899D01*
X362816512Y-570915100D01*
X362701834Y-570700552D01*
X362547503Y-570512499D01*
X362359449Y-570358168D01*
X362144901Y-570243490D01*
X361912102Y-570172871D01*
X361670001Y-570149026D01*
X361427899Y-570172871D01*
X361195100Y-570243490D01*
X360980552Y-570358168D01*
X360792499Y-570512499D01*
X360638168Y-570700553D01*
X360523490Y-570915101D01*
X360452871Y-571147900D01*
X360435001Y-571329337D01*
X360365001Y-571329337D01*
X360365001Y-571329336D01*
X360347131Y-571147899D01*
X360276512Y-570915100D01*
X360161834Y-570700552D01*
X360007503Y-570512499D01*
X359819449Y-570358168D01*
X359604901Y-570243490D01*
X359372102Y-570172871D01*
X359130001Y-570149026D01*
X358887899Y-570172871D01*
X358655100Y-570243490D01*
X358440552Y-570358168D01*
X358252499Y-570512499D01*
X358098168Y-570700553D01*
X357983490Y-570915101D01*
X357912871Y-571147900D01*
X357895001Y-571329337D01*
X357825001Y-571329337D01*
X357825001Y-571329336D01*
X357807131Y-571147899D01*
X357736512Y-570915100D01*
X357621834Y-570700552D01*
X357467503Y-570512499D01*
X357279449Y-570358168D01*
X357064901Y-570243490D01*
X356832102Y-570172871D01*
X356590001Y-570149026D01*
X356347899Y-570172871D01*
X356115100Y-570243490D01*
X355900552Y-570358168D01*
X355712499Y-570512499D01*
X355558168Y-570700553D01*
X355443490Y-570915101D01*
X355372871Y-571147900D01*
X355355001Y-571329337D01*
X355285001Y-571329337D01*
X355285001Y-571329336D01*
X355267131Y-571147899D01*
X355196512Y-570915100D01*
X355081834Y-570700552D01*
X354927503Y-570512499D01*
X354739449Y-570358168D01*
X354524901Y-570243490D01*
X354292102Y-570172871D01*
X354050001Y-570149026D01*
X353807899Y-570172871D01*
X353575100Y-570243490D01*
X353360552Y-570358168D01*
X353185000Y-570502240D01*
X353185000Y-567698178D01*
X353371632Y-567573475D01*
X353578475Y-567366632D01*
X353700195Y-567184466D01*
X353769822Y-567301355D01*
X353964731Y-567517588D01*
X354198080Y-567691641D01*
X354460901Y-567816825D01*
X354608110Y-567861476D01*
X354838000Y-567740155D01*
X354838000Y-566547000D01*
X354818000Y-566547000D01*
X354818000Y-566293000D01*
X354838000Y-566293000D01*
X354838000Y-565099845D01*
X355092000Y-565099845D01*
X355092000Y-566293000D01*
X355112000Y-566293000D01*
X355112000Y-566547000D01*
X355092000Y-566547000D01*
X355092000Y-567740155D01*
X355321890Y-567861476D01*
X355469099Y-567816825D01*
X355731920Y-567691641D01*
X355965269Y-567517588D01*
X356041034Y-567433534D01*
X356065498Y-567514180D01*
X356124463Y-567624494D01*
X356203815Y-567721185D01*
X356300506Y-567800537D01*
X356410820Y-567859502D01*
X356530518Y-567895812D01*
X356655000Y-567908072D01*
X358355000Y-567908072D01*
X358479482Y-567895812D01*
X358599180Y-567859502D01*
X358709494Y-567800537D01*
X358806185Y-567721185D01*
X358885537Y-567624494D01*
X358944502Y-567514180D01*
X358980812Y-567394482D01*
X358993072Y-567270000D01*
X358993072Y-566834872D01*
X360985000Y-566834872D01*
X360985000Y-567275128D01*
X361070890Y-567706925D01*
X361239369Y-568113669D01*
X361483962Y-568479729D01*
X361795271Y-568791038D01*
X362161331Y-569035631D01*
X362568075Y-569204110D01*
X362999872Y-569290000D01*
X363440128Y-569290000D01*
X363871925Y-569204110D01*
X364278669Y-569035631D01*
X364644729Y-568791038D01*
X364956038Y-568479729D01*
X365200631Y-568113669D01*
X365369110Y-567706925D01*
X365455000Y-567275128D01*
X365455000Y-566834872D01*
X365369110Y-566403075D01*
X365200631Y-565996331D01*
X364956038Y-565630271D01*
X364644729Y-565318962D01*
X364278669Y-565074369D01*
X363871925Y-564905890D01*
X363440128Y-564820000D01*
X362999872Y-564820000D01*
X362568075Y-564905890D01*
X362161331Y-565074369D01*
X361795271Y-565318962D01*
X361483962Y-565630271D01*
X361239369Y-565996331D01*
X361070890Y-566403075D01*
X360985000Y-566834872D01*
X358993072Y-566834872D01*
X358993072Y-565570000D01*
X358980812Y-565445518D01*
X358944502Y-565325820D01*
X358885537Y-565215506D01*
X358806185Y-565118815D01*
X358709494Y-565039463D01*
X358599180Y-564980498D01*
X358479482Y-564944188D01*
X358355000Y-564931928D01*
X356655000Y-564931928D01*
X356530518Y-564944188D01*
X356410820Y-564980498D01*
X356300506Y-565039463D01*
X356203815Y-565118815D01*
X356124463Y-565215506D01*
X356065498Y-565325820D01*
X356041034Y-565406466D01*
X355965269Y-565322412D01*
X355731920Y-565148359D01*
X355469099Y-565023175D01*
X355321890Y-564978524D01*
X355092000Y-565099845D01*
X354838000Y-565099845D01*
X354608110Y-564978524D01*
X354460901Y-565023175D01*
X354198080Y-565148359D01*
X353964731Y-565322412D01*
X353769822Y-565538645D01*
X353700195Y-565655534D01*
X353578475Y-565473368D01*
X353371632Y-565266525D01*
X353128411Y-565104010D01*
X352858158Y-564992068D01*
X352571260Y-564935000D01*
X352278740Y-564935000D01*
X351991842Y-564992068D01*
X351721589Y-565104010D01*
X351478368Y-565266525D01*
X351271525Y-565473368D01*
X351155000Y-565647760D01*
X351038475Y-565473368D01*
X350831632Y-565266525D01*
X350588411Y-565104010D01*
X350318158Y-564992068D01*
X350031260Y-564935000D01*
X349738740Y-564935000D01*
X349518592Y-564978791D01*
X349178804Y-564639003D01*
X349155001Y-564609999D01*
X349039276Y-564515026D01*
X348907247Y-564444454D01*
X348763986Y-564400997D01*
X348652333Y-564390000D01*
X348652322Y-564390000D01*
X348615000Y-564386324D01*
X348577678Y-564390000D01*
X327697322Y-564390000D01*
X327659999Y-564386324D01*
X327622676Y-564390000D01*
X327622667Y-564390000D01*
X327511014Y-564400997D01*
X327367753Y-564444454D01*
X327235724Y-564515026D01*
X327119999Y-564609999D01*
X327096201Y-564638997D01*
X326628843Y-565106355D01*
X326521486Y-565085000D01*
X326258514Y-565085000D01*
X326000595Y-565136304D01*
X325757641Y-565236939D01*
X325538987Y-565383038D01*
X325353038Y-565568987D01*
X325206939Y-565787641D01*
X325106304Y-566030595D01*
X325055000Y-566288514D01*
X324068072Y-566288514D01*
X324068072Y-565570000D01*
X324055812Y-565445518D01*
X324019502Y-565325820D01*
X323960537Y-565215506D01*
X323881185Y-565118815D01*
X323784494Y-565039463D01*
X323674180Y-564980498D01*
X323554482Y-564944188D01*
X323430000Y-564931928D01*
X321730000Y-564931928D01*
X321605518Y-564944188D01*
X321485820Y-564980498D01*
X321375506Y-565039463D01*
X321278815Y-565118815D01*
X321199463Y-565215506D01*
X321140498Y-565325820D01*
X321118487Y-565398380D01*
X320986632Y-565266525D01*
X320743411Y-565104010D01*
X320473158Y-564992068D01*
X320186260Y-564935000D01*
X319893740Y-564935000D01*
X319673592Y-564978791D01*
X319333804Y-564639003D01*
X319310001Y-564609999D01*
X319194276Y-564515026D01*
X319062247Y-564444454D01*
X318918986Y-564400997D01*
X318807333Y-564390000D01*
X318807322Y-564390000D01*
X318770000Y-564386324D01*
X318732678Y-564390000D01*
X308647322Y-564390000D01*
X308609999Y-564386324D01*
X308572676Y-564390000D01*
X308572667Y-564390000D01*
X308461014Y-564400997D01*
X308317753Y-564444454D01*
X308185724Y-564515026D01*
X308069999Y-564609999D01*
X308046201Y-564638997D01*
X306828998Y-565856201D01*
X306800000Y-565879999D01*
X306776202Y-565908997D01*
X306776201Y-565908998D01*
X306705026Y-565995724D01*
X306634454Y-566127754D01*
X306604180Y-566227558D01*
X306590999Y-566271013D01*
X306590998Y-566271015D01*
X306576324Y-566420000D01*
X306580001Y-566457332D01*
X306580001Y-566592225D01*
X306488987Y-566653038D01*
X306303038Y-566838987D01*
X306156939Y-567057641D01*
X306056304Y-567300595D01*
X306005000Y-567558514D01*
X301263630Y-567558514D01*
X301320000Y-567275128D01*
X301320000Y-566834872D01*
X301234110Y-566403075D01*
X301065631Y-565996331D01*
X300821038Y-565630271D01*
X300509729Y-565318962D01*
X300143669Y-565074369D01*
X299736925Y-564905890D01*
X299305128Y-564820000D01*
X298864872Y-564820000D01*
X298433075Y-564905890D01*
X298026331Y-565074369D01*
X297660271Y-565318962D01*
X297348962Y-565630271D01*
X297104369Y-565996331D01*
X296935890Y-566403075D01*
X296850000Y-566834872D01*
X294116886Y-566834872D01*
X294051185Y-566754815D01*
X293954494Y-566675463D01*
X293844180Y-566616498D01*
X293724482Y-566580188D01*
X293600000Y-566567928D01*
X290600000Y-566567928D01*
X290475518Y-566580188D01*
X290355820Y-566616498D01*
X290245506Y-566675463D01*
X290148815Y-566754815D01*
X290069463Y-566851506D01*
X290010498Y-566961820D01*
X289974188Y-567081518D01*
X289961928Y-567206000D01*
X289961928Y-570206000D01*
X289974188Y-570330482D01*
X290010498Y-570450180D01*
X290069463Y-570560494D01*
X290148815Y-570657185D01*
X290245506Y-570736537D01*
X290355820Y-570795502D01*
X290475518Y-570831812D01*
X290600000Y-570844072D01*
X290965000Y-570844072D01*
X290965001Y-577794239D01*
X290959509Y-577850000D01*
X290981423Y-578072498D01*
X291046324Y-578286446D01*
X291046325Y-578286447D01*
X291151717Y-578483623D01*
X291293552Y-578656449D01*
X291336860Y-578691991D01*
X295644499Y-582999631D01*
X295644499Y-583456367D01*
X289431865Y-589669002D01*
X289388551Y-589704549D01*
X289246716Y-589877375D01*
X289141325Y-590074551D01*
X289141324Y-590074552D01*
X289076423Y-590288500D01*
X289054509Y-590510998D01*
X289060000Y-590566750D01*
X289060001Y-593975085D01*
X289055905Y-593978446D01*
X289011037Y-593894506D01*
X288931685Y-593797815D01*
X288834994Y-593718463D01*
X288724680Y-593659498D01*
X288604982Y-593623188D01*
X288480500Y-593610928D01*
X288155000Y-593610928D01*
X288155000Y-589826090D01*
X288317237Y-589717687D01*
X288600687Y-589434237D01*
X288823393Y-589100934D01*
X288976796Y-588730587D01*
X289055000Y-588337430D01*
X289055000Y-587936570D01*
X288976796Y-587543413D01*
X288823393Y-587173066D01*
X288600687Y-586839763D01*
X288317237Y-586556313D01*
X287983934Y-586333607D01*
X287613587Y-586180204D01*
X287220430Y-586102000D01*
X286819570Y-586102000D01*
X286426413Y-586180204D01*
X286056066Y-586333607D01*
X285722763Y-586556313D01*
X285439313Y-586839763D01*
X285216607Y-587173066D01*
X285063204Y-587543413D01*
X284985000Y-587936570D01*
X283997000Y-587936570D01*
X283997000Y-568495721D01*
X284885000Y-568495721D01*
X284885000Y-568916279D01*
X284967047Y-569328756D01*
X285127988Y-569717302D01*
X285361637Y-570066983D01*
X285659017Y-570364363D01*
X285885000Y-570515360D01*
X285885001Y-573398928D01*
X285620000Y-573398928D01*
X285495518Y-573411188D01*
X285375820Y-573447498D01*
X285265506Y-573506463D01*
X285168815Y-573585815D01*
X285089463Y-573682506D01*
X285030498Y-573792820D01*
X284994188Y-573912518D01*
X284981928Y-574037000D01*
X284981928Y-576837000D01*
X284994188Y-576961482D01*
X285030498Y-577081180D01*
X285089463Y-577191494D01*
X285168815Y-577288185D01*
X285265506Y-577367537D01*
X285375820Y-577426502D01*
X285495518Y-577462812D01*
X285620000Y-577475072D01*
X288420000Y-577475072D01*
X288544482Y-577462812D01*
X288664180Y-577426502D01*
X288774494Y-577367537D01*
X288871185Y-577288185D01*
X288950537Y-577191494D01*
X289009502Y-577081180D01*
X289045812Y-576961482D01*
X289058072Y-576837000D01*
X289058072Y-574037000D01*
X289045812Y-573912518D01*
X289009502Y-573792820D01*
X288950537Y-573682506D01*
X288871185Y-573585815D01*
X288774494Y-573506463D01*
X288664180Y-573447498D01*
X288544482Y-573411188D01*
X288420000Y-573398928D01*
X288155000Y-573398928D01*
X288155000Y-570515360D01*
X288380983Y-570364363D01*
X288678363Y-570066983D01*
X288912012Y-569717302D01*
X289072953Y-569328756D01*
X289155000Y-568916279D01*
X289155000Y-568495721D01*
X289072953Y-568083244D01*
X288912012Y-567694698D01*
X288678363Y-567345017D01*
X288380983Y-567047637D01*
X288031302Y-566813988D01*
X287642756Y-566653047D01*
X287230279Y-566571000D01*
X286809721Y-566571000D01*
X286397244Y-566653047D01*
X286008698Y-566813988D01*
X285659017Y-567047637D01*
X285361637Y-567345017D01*
X285127988Y-567694698D01*
X284967047Y-568083244D01*
X284885000Y-568495721D01*
X283997000Y-568495721D01*
X283997000Y-563905000D01*
X366370000Y-563905000D01*
X366370001Y-609321000D01*
%TA.AperFunction,Conductor*%
D28*
G36*
X366370001Y-609321000D02*
G01*
X283997000Y-609321000D01*
X283997000Y-605823872D01*
X296850000Y-605823872D01*
X296850000Y-606264128D01*
X296935890Y-606695925D01*
X297104369Y-607102669D01*
X297348962Y-607468729D01*
X297660271Y-607780038D01*
X298026331Y-608024631D01*
X298433075Y-608193110D01*
X298864872Y-608279000D01*
X299305128Y-608279000D01*
X299736925Y-608193110D01*
X300143669Y-608024631D01*
X300509729Y-607780038D01*
X300821038Y-607468729D01*
X301065631Y-607102669D01*
X301234110Y-606695925D01*
X301320000Y-606264128D01*
X301320000Y-605823872D01*
X301234110Y-605392075D01*
X301065631Y-604985331D01*
X300821038Y-604619271D01*
X300509729Y-604307962D01*
X300143669Y-604063369D01*
X299736925Y-603894890D01*
X299305128Y-603809000D01*
X298864872Y-603809000D01*
X298433075Y-603894890D01*
X298026331Y-604063369D01*
X297660271Y-604307962D01*
X297348962Y-604619271D01*
X297104369Y-604985331D01*
X296935890Y-605392075D01*
X296850000Y-605823872D01*
X283997000Y-605823872D01*
X283997000Y-587936570D01*
X284985000Y-587936570D01*
X284985000Y-588337430D01*
X285063204Y-588730587D01*
X285216607Y-589100934D01*
X285439313Y-589434237D01*
X285722763Y-589717687D01*
X285885000Y-589826090D01*
X285885001Y-594685239D01*
X285879509Y-594741000D01*
X285901423Y-594963498D01*
X285937428Y-595082190D01*
X285937428Y-596249000D01*
X285949688Y-596373482D01*
X285985998Y-596493180D01*
X286044963Y-596603494D01*
X286124315Y-596700185D01*
X286221006Y-596779537D01*
X286331320Y-596838502D01*
X286451018Y-596874812D01*
X286575500Y-596887072D01*
X288480500Y-596887072D01*
X288604982Y-596874812D01*
X288724680Y-596838502D01*
X288834994Y-596779537D01*
X288931685Y-596700185D01*
X288933000Y-596698582D01*
X288933001Y-598842867D01*
X286717865Y-601058004D01*
X286674551Y-601093551D01*
X286532716Y-601266377D01*
X286434319Y-601450468D01*
X286427324Y-601463554D01*
X286362423Y-601677502D01*
X286340509Y-601900000D01*
X286346000Y-601955751D01*
X286346000Y-602326761D01*
X286211013Y-602461748D01*
X286032082Y-602729537D01*
X285908832Y-603027088D01*
X285846000Y-603342967D01*
X285846000Y-603665033D01*
X285908832Y-603980912D01*
X286032082Y-604278463D01*
X286211013Y-604546252D01*
X286438748Y-604773987D01*
X286706537Y-604952918D01*
X287004088Y-605076168D01*
X287319967Y-605139000D01*
X287642033Y-605139000D01*
X287957912Y-605076168D01*
X288255463Y-604952918D01*
X288523252Y-604773987D01*
X288750987Y-604546252D01*
X288779218Y-604504000D01*
X290842928Y-604504000D01*
X290855188Y-604628482D01*
X290891498Y-604748180D01*
X290950463Y-604858494D01*
X291029815Y-604955185D01*
X291126506Y-605034537D01*
X291236820Y-605093502D01*
X291356518Y-605129812D01*
X291481000Y-605142072D01*
X292195250Y-605139000D01*
X292354000Y-604980250D01*
X292354000Y-603631000D01*
X292608000Y-603631000D01*
X292608000Y-604980250D01*
X292766750Y-605139000D01*
X293481000Y-605142072D01*
X293605482Y-605129812D01*
X293725180Y-605093502D01*
X293835494Y-605034537D01*
X293932185Y-604955185D01*
X294011537Y-604858494D01*
X294070502Y-604748180D01*
X294106812Y-604628482D01*
X294119072Y-604504000D01*
X294116000Y-603789750D01*
X293957250Y-603631000D01*
X292608000Y-603631000D01*
X292354000Y-603631000D01*
X291004750Y-603631000D01*
X290846000Y-603789750D01*
X290842928Y-604504000D01*
X288779218Y-604504000D01*
X288929918Y-604278463D01*
X289053168Y-603980912D01*
X289116000Y-603665033D01*
X289116000Y-603342967D01*
X289053168Y-603027088D01*
X288929918Y-602729537D01*
X288779219Y-602504000D01*
X290842928Y-602504000D01*
X290846000Y-603218250D01*
X291004750Y-603377000D01*
X292354000Y-603377000D01*
X292354000Y-602027750D01*
X292608000Y-602027750D01*
X292608000Y-603377000D01*
X293957250Y-603377000D01*
X294116000Y-603218250D01*
X294119072Y-602504000D01*
X294106812Y-602379518D01*
X294070502Y-602259820D01*
X294011537Y-602149506D01*
X293932185Y-602052815D01*
X293835494Y-601973463D01*
X293725180Y-601914498D01*
X293605482Y-601878188D01*
X293481000Y-601865928D01*
X292766750Y-601869000D01*
X292608000Y-602027750D01*
X292354000Y-602027750D01*
X292195250Y-601869000D01*
X291481000Y-601865928D01*
X291356518Y-601878188D01*
X291236820Y-601914498D01*
X291126506Y-601973463D01*
X291029815Y-602052815D01*
X290950463Y-602149506D01*
X290891498Y-602259820D01*
X290855188Y-602379518D01*
X290842928Y-602504000D01*
X288779219Y-602504000D01*
X288750987Y-602461748D01*
X288637685Y-602348446D01*
X290831141Y-600154991D01*
X290874449Y-600119449D01*
X291016284Y-599946623D01*
X291121676Y-599749447D01*
X291186577Y-599535499D01*
X291203000Y-599368752D01*
X291203000Y-599368743D01*
X291208490Y-599313001D01*
X291203000Y-599257259D01*
X291203000Y-596415888D01*
X291343162Y-596245100D01*
X291498563Y-596430315D01*
X291741077Y-596624969D01*
X292016906Y-596768571D01*
X292235020Y-596839563D01*
X292481000Y-596719594D01*
X292481000Y-595376000D01*
X292735000Y-595376000D01*
X292735000Y-596719594D01*
X292980980Y-596839563D01*
X293199094Y-596768571D01*
X293474923Y-596624969D01*
X293717437Y-596430315D01*
X293917316Y-596192089D01*
X294066879Y-595919446D01*
X294160378Y-595622863D01*
X294033570Y-595376000D01*
X292735000Y-595376000D01*
X292481000Y-595376000D01*
X292461000Y-595376000D01*
X292461000Y-595122000D01*
X292481000Y-595122000D01*
X292481000Y-593778406D01*
X292735000Y-593778406D01*
X292735000Y-595122000D01*
X294033570Y-595122000D01*
X294160378Y-594875137D01*
X294066879Y-594578554D01*
X293917316Y-594305911D01*
X293717437Y-594067685D01*
X293474923Y-593873031D01*
X293199094Y-593729429D01*
X292980980Y-593658437D01*
X292735000Y-593778406D01*
X292481000Y-593778406D01*
X292235020Y-593658437D01*
X292016906Y-593729429D01*
X291741077Y-593873031D01*
X291498563Y-594067685D01*
X291343163Y-594252899D01*
X291330000Y-594236861D01*
X291330000Y-590981129D01*
X296961928Y-585349202D01*
X296961928Y-586066000D01*
X296974188Y-586190482D01*
X297010498Y-586310180D01*
X297069463Y-586420494D01*
X297148815Y-586517185D01*
X297245506Y-586596537D01*
X297355820Y-586655502D01*
X297475518Y-586691812D01*
X297565000Y-586700625D01*
X297565001Y-596939375D01*
X297475518Y-596948188D01*
X297355820Y-596984498D01*
X297245506Y-597043463D01*
X297148815Y-597122815D01*
X297069463Y-597219506D01*
X297010498Y-597329820D01*
X296974188Y-597449518D01*
X296961928Y-597574000D01*
X296961928Y-599274000D01*
X296974188Y-599398482D01*
X297010498Y-599518180D01*
X297069463Y-599628494D01*
X297148815Y-599725185D01*
X297245506Y-599804537D01*
X297355820Y-599863502D01*
X297475518Y-599899812D01*
X297600000Y-599912072D01*
X299300000Y-599912072D01*
X299424482Y-599899812D01*
X299544180Y-599863502D01*
X299654494Y-599804537D01*
X299751185Y-599725185D01*
X299830537Y-599628494D01*
X299889502Y-599518180D01*
X299911513Y-599445620D01*
X300043368Y-599577475D01*
X300286589Y-599739990D01*
X300556842Y-599851932D01*
X300843740Y-599909000D01*
X301136260Y-599909000D01*
X301356408Y-599865210D01*
X302966205Y-601475008D01*
X302989999Y-601504001D01*
X303018992Y-601527795D01*
X303018996Y-601527799D01*
X303079519Y-601577468D01*
X303105724Y-601598974D01*
X303237753Y-601669546D01*
X303381014Y-601713003D01*
X303492667Y-601724000D01*
X303492676Y-601724000D01*
X303529999Y-601727676D01*
X303567322Y-601724000D01*
X311841985Y-601724000D01*
X311835506Y-601727463D01*
X311738815Y-601806815D01*
X311659463Y-601903506D01*
X311600498Y-602013820D01*
X311564188Y-602133518D01*
X311551928Y-602258000D01*
X311551928Y-605258000D01*
X311564188Y-605382482D01*
X311600498Y-605502180D01*
X311659463Y-605612494D01*
X311738815Y-605709185D01*
X311835506Y-605788537D01*
X311945820Y-605847502D01*
X312065518Y-605883812D01*
X312190000Y-605896072D01*
X313814494Y-605896072D01*
X314811470Y-606893049D01*
X314839183Y-606926817D01*
X314872951Y-606954530D01*
X314872953Y-606954532D01*
X314973940Y-607037410D01*
X314973941Y-607037411D01*
X315127687Y-607119589D01*
X315294510Y-607170195D01*
X315424523Y-607183000D01*
X315424531Y-607183000D01*
X315468000Y-607187281D01*
X315511469Y-607183000D01*
X329013531Y-607183000D01*
X329057000Y-607187281D01*
X329100469Y-607183000D01*
X329100477Y-607183000D01*
X329230490Y-607170195D01*
X329397313Y-607119589D01*
X329551059Y-607037411D01*
X329685817Y-606926817D01*
X329713534Y-606893044D01*
X332065050Y-604541529D01*
X332098817Y-604513817D01*
X332149317Y-604452284D01*
X332197991Y-604392974D01*
X332209411Y-604379059D01*
X332291589Y-604225313D01*
X332342195Y-604058490D01*
X332355000Y-603928477D01*
X332355000Y-603928467D01*
X332359281Y-603885001D01*
X332355000Y-603841535D01*
X332355000Y-602666656D01*
X332416632Y-602625475D01*
X332623475Y-602418632D01*
X332740000Y-602244240D01*
X332856525Y-602418632D01*
X333063368Y-602625475D01*
X333306589Y-602787990D01*
X333576842Y-602899932D01*
X333863740Y-602957000D01*
X334156260Y-602957000D01*
X334443158Y-602899932D01*
X334713411Y-602787990D01*
X334956632Y-602625475D01*
X335163475Y-602418632D01*
X335325990Y-602175411D01*
X335437932Y-601905158D01*
X335495000Y-601618260D01*
X335495000Y-601325740D01*
X335437932Y-601038842D01*
X335325990Y-600768589D01*
X335163475Y-600525368D01*
X334956632Y-600318525D01*
X334713411Y-600156010D01*
X334693437Y-600147736D01*
X334666532Y-600114953D01*
X334666530Y-600114951D01*
X334638817Y-600081183D01*
X334605050Y-600053471D01*
X333302455Y-598750877D01*
X333487900Y-598807131D01*
X333730001Y-598830976D01*
X333972103Y-598807131D01*
X334204902Y-598736512D01*
X334419450Y-598621834D01*
X334607503Y-598467503D01*
X334761834Y-598279450D01*
X334876512Y-598064902D01*
X334947131Y-597832102D01*
X334965001Y-597650665D01*
X334965001Y-596729336D01*
X334947131Y-596547899D01*
X334876512Y-596315100D01*
X334761834Y-596100552D01*
X334607503Y-595912499D01*
X334419449Y-595758168D01*
X334204901Y-595643490D01*
X333972102Y-595572871D01*
X333730001Y-595549026D01*
X333487899Y-595572871D01*
X333255100Y-595643490D01*
X333040552Y-595758168D01*
X332852499Y-595912499D01*
X332698168Y-596100553D01*
X332583490Y-596315101D01*
X332512871Y-596547900D01*
X332495001Y-596729337D01*
X332495001Y-597650666D01*
X332512871Y-597832103D01*
X332569125Y-598017547D01*
X332401673Y-597850095D01*
X332407131Y-597832102D01*
X332425001Y-597650665D01*
X332425001Y-596729336D01*
X332407131Y-596547899D01*
X332336512Y-596315100D01*
X332221834Y-596100552D01*
X332067503Y-595912499D01*
X331879449Y-595758168D01*
X331664901Y-595643490D01*
X331432102Y-595572871D01*
X331190001Y-595549026D01*
X330947899Y-595572871D01*
X330715100Y-595643490D01*
X330500552Y-595758168D01*
X330312499Y-595912499D01*
X330158168Y-596100553D01*
X330043490Y-596315101D01*
X329972871Y-596547900D01*
X329955001Y-596729337D01*
X329955001Y-597650666D01*
X329972871Y-597832103D01*
X330043490Y-598064902D01*
X330158169Y-598279450D01*
X330312500Y-598467503D01*
X330500553Y-598621834D01*
X330715101Y-598736512D01*
X330815342Y-598766920D01*
X332266896Y-600218475D01*
X332173411Y-600156010D01*
X331903158Y-600044068D01*
X331616260Y-599987000D01*
X331323740Y-599987000D01*
X331036842Y-600044068D01*
X330766589Y-600156010D01*
X330523368Y-600318525D01*
X330391513Y-600450380D01*
X330369502Y-600377820D01*
X330310537Y-600267506D01*
X330231185Y-600170815D01*
X330134494Y-600091463D01*
X330024180Y-600032498D01*
X329904482Y-599996188D01*
X329780000Y-599983928D01*
X328693507Y-599983928D01*
X327300534Y-598590956D01*
X327272817Y-598557183D01*
X327138059Y-598446589D01*
X327045339Y-598397030D01*
X327141834Y-598279450D01*
X327256512Y-598064902D01*
X327327131Y-597832102D01*
X327345001Y-597650665D01*
X327345001Y-596729337D01*
X327415001Y-596729337D01*
X327415001Y-597650666D01*
X327432871Y-597832103D01*
X327503490Y-598064902D01*
X327618169Y-598279450D01*
X327772500Y-598467503D01*
X327960553Y-598621834D01*
X328175101Y-598736512D01*
X328407900Y-598807131D01*
X328650001Y-598830976D01*
X328892103Y-598807131D01*
X329124902Y-598736512D01*
X329339450Y-598621834D01*
X329527503Y-598467503D01*
X329681834Y-598279450D01*
X329796512Y-598064902D01*
X329867131Y-597832102D01*
X329885001Y-597650665D01*
X329885001Y-596729336D01*
X329867131Y-596547899D01*
X329796512Y-596315100D01*
X329681834Y-596100552D01*
X329527503Y-595912499D01*
X329339449Y-595758168D01*
X329124901Y-595643490D01*
X328892102Y-595572871D01*
X328650001Y-595549026D01*
X328407899Y-595572871D01*
X328175100Y-595643490D01*
X327960552Y-595758168D01*
X327772499Y-595912499D01*
X327618168Y-596100553D01*
X327503490Y-596315101D01*
X327432871Y-596547900D01*
X327415001Y-596729337D01*
X327345001Y-596729337D01*
X327345001Y-596729336D01*
X327327131Y-596547899D01*
X327256512Y-596315100D01*
X327141834Y-596100552D01*
X326987503Y-595912499D01*
X326799449Y-595758168D01*
X326584901Y-595643490D01*
X326352102Y-595572871D01*
X326110001Y-595549026D01*
X325867899Y-595572871D01*
X325635100Y-595643490D01*
X325420552Y-595758168D01*
X325232499Y-595912499D01*
X325078168Y-596100553D01*
X324963490Y-596315101D01*
X324892871Y-596547900D01*
X324875001Y-596729337D01*
X324875001Y-597650666D01*
X324892871Y-597832103D01*
X324963490Y-598064902D01*
X325078169Y-598279450D01*
X325095855Y-598301000D01*
X324584148Y-598301000D01*
X324601834Y-598279450D01*
X324716512Y-598064902D01*
X324787131Y-597832102D01*
X324805001Y-597650665D01*
X324805001Y-596729336D01*
X324787131Y-596547899D01*
X324716512Y-596315100D01*
X324601834Y-596100552D01*
X324447503Y-595912499D01*
X324259449Y-595758168D01*
X324044901Y-595643490D01*
X323812102Y-595572871D01*
X323570001Y-595549026D01*
X323327899Y-595572871D01*
X323095100Y-595643490D01*
X322880552Y-595758168D01*
X322692499Y-595912499D01*
X322538168Y-596100553D01*
X322423490Y-596315101D01*
X322352871Y-596547900D01*
X322335001Y-596729337D01*
X322335001Y-597650666D01*
X322352871Y-597832103D01*
X322423490Y-598064902D01*
X322538169Y-598279450D01*
X322555855Y-598301000D01*
X322044148Y-598301000D01*
X322061834Y-598279450D01*
X322176512Y-598064902D01*
X322247131Y-597832102D01*
X322265001Y-597650665D01*
X322265001Y-596729336D01*
X322247131Y-596547899D01*
X322176512Y-596315100D01*
X322061834Y-596100552D01*
X321907503Y-595912499D01*
X321719449Y-595758168D01*
X321504901Y-595643490D01*
X321272102Y-595572871D01*
X321030001Y-595549026D01*
X320787899Y-595572871D01*
X320555100Y-595643490D01*
X320340552Y-595758168D01*
X320152499Y-595912499D01*
X319998168Y-596100553D01*
X319883490Y-596315101D01*
X319812871Y-596547900D01*
X319795001Y-596729337D01*
X319795001Y-597650666D01*
X319812871Y-597832103D01*
X319883490Y-598064902D01*
X319998169Y-598279450D01*
X320015855Y-598301000D01*
X319504148Y-598301000D01*
X319521834Y-598279450D01*
X319636512Y-598064902D01*
X319707131Y-597832102D01*
X319725001Y-597650665D01*
X319725001Y-596729336D01*
X319707131Y-596547899D01*
X319636512Y-596315100D01*
X319521834Y-596100552D01*
X319367503Y-595912499D01*
X319179449Y-595758168D01*
X318964901Y-595643490D01*
X318732102Y-595572871D01*
X318490001Y-595549026D01*
X318247899Y-595572871D01*
X318015100Y-595643490D01*
X317800552Y-595758168D01*
X317612499Y-595912499D01*
X317458168Y-596100553D01*
X317343490Y-596315101D01*
X317272871Y-596547900D01*
X317255001Y-596729337D01*
X317255001Y-597435423D01*
X317185001Y-597365423D01*
X317185001Y-596729336D01*
X317167131Y-596547899D01*
X317096512Y-596315100D01*
X316981834Y-596100552D01*
X316827503Y-595912499D01*
X316639449Y-595758168D01*
X316424901Y-595643490D01*
X316192102Y-595572871D01*
X315950001Y-595549026D01*
X315707899Y-595572871D01*
X315475100Y-595643490D01*
X315260552Y-595758168D01*
X315072499Y-595912499D01*
X314918168Y-596100553D01*
X314803490Y-596315101D01*
X314732871Y-596547900D01*
X314715001Y-596729337D01*
X314715001Y-597650666D01*
X314732871Y-597832103D01*
X314803490Y-598064902D01*
X314918169Y-598279450D01*
X315072500Y-598467503D01*
X315260553Y-598621834D01*
X315475101Y-598736512D01*
X315707900Y-598807131D01*
X315950001Y-598830976D01*
X316129699Y-598813277D01*
X316506421Y-599190000D01*
X313421579Y-599190000D01*
X312060534Y-597828956D01*
X312032817Y-597795183D01*
X311898059Y-597684589D01*
X311744313Y-597602411D01*
X311577490Y-597551805D01*
X311447477Y-597539000D01*
X311447469Y-597539000D01*
X311404000Y-597534719D01*
X311360531Y-597539000D01*
X304724656Y-597539000D01*
X304683475Y-597477368D01*
X304476632Y-597270525D01*
X304415000Y-597229344D01*
X304415000Y-595498514D01*
X306005000Y-595498514D01*
X306005000Y-595761486D01*
X306056304Y-596019405D01*
X306156939Y-596262359D01*
X306303038Y-596481013D01*
X306488987Y-596666962D01*
X306707641Y-596813061D01*
X306950595Y-596913696D01*
X307208514Y-596965000D01*
X307471486Y-596965000D01*
X307729405Y-596913696D01*
X307972359Y-596813061D01*
X308191013Y-596666962D01*
X308376962Y-596481013D01*
X308523061Y-596262359D01*
X308623696Y-596019405D01*
X308675000Y-595761486D01*
X308675000Y-595498514D01*
X308623696Y-595240595D01*
X308523061Y-594997641D01*
X308376962Y-594778987D01*
X308191013Y-594593038D01*
X307972359Y-594446939D01*
X307729405Y-594346304D01*
X307471486Y-594295000D01*
X307208514Y-594295000D01*
X306950595Y-594346304D01*
X306707641Y-594446939D01*
X306488987Y-594593038D01*
X306303038Y-594778987D01*
X306156939Y-594997641D01*
X306056304Y-595240595D01*
X306005000Y-595498514D01*
X304415000Y-595498514D01*
X304415000Y-586410656D01*
X304476632Y-586369475D01*
X304683475Y-586162632D01*
X304845990Y-585919411D01*
X304957932Y-585649158D01*
X305015000Y-585362260D01*
X305015000Y-585069740D01*
X304993164Y-584959966D01*
X306580001Y-586546803D01*
X306580001Y-586912225D01*
X306488987Y-586973038D01*
X306303038Y-587158987D01*
X306156939Y-587377641D01*
X306056304Y-587620595D01*
X306005000Y-587878514D01*
X306005000Y-588141486D01*
X306056304Y-588399405D01*
X306156939Y-588642359D01*
X306303038Y-588861013D01*
X306488987Y-589046962D01*
X306707641Y-589193061D01*
X306950595Y-589293696D01*
X307208514Y-589345000D01*
X307471486Y-589345000D01*
X307729405Y-589293696D01*
X307972359Y-589193061D01*
X308191013Y-589046962D01*
X308376962Y-588861013D01*
X308523061Y-588642359D01*
X308623696Y-588399405D01*
X308675000Y-588141486D01*
X308675000Y-587878514D01*
X308623696Y-587620595D01*
X308523061Y-587377641D01*
X308376962Y-587158987D01*
X308191013Y-586973038D01*
X308100000Y-586912225D01*
X308100000Y-586269325D01*
X308103676Y-586232000D01*
X308100000Y-586194675D01*
X308100000Y-586194667D01*
X308089003Y-586083014D01*
X308045546Y-585939753D01*
X307974974Y-585807724D01*
X307880001Y-585691999D01*
X307851003Y-585668201D01*
X305930791Y-583747990D01*
X340207859Y-583747990D01*
X347835001Y-591375133D01*
X347835002Y-596293564D01*
X347823490Y-596315101D01*
X347752871Y-596547900D01*
X347735001Y-596729337D01*
X347735001Y-597650666D01*
X347752871Y-597832103D01*
X347823490Y-598064902D01*
X347832557Y-598081865D01*
X347359422Y-598555000D01*
X347200888Y-598555000D01*
X347307503Y-598467503D01*
X347461834Y-598279450D01*
X347576512Y-598064902D01*
X347647131Y-597832102D01*
X347665001Y-597650665D01*
X347665001Y-596729336D01*
X347647131Y-596547899D01*
X347576512Y-596315100D01*
X347461834Y-596100552D01*
X347307503Y-595912499D01*
X347119449Y-595758168D01*
X346904901Y-595643490D01*
X346672102Y-595572871D01*
X346430001Y-595549026D01*
X346187899Y-595572871D01*
X345955100Y-595643490D01*
X345740552Y-595758168D01*
X345552499Y-595912499D01*
X345398168Y-596100553D01*
X345283490Y-596315101D01*
X345212871Y-596547900D01*
X345195001Y-596729337D01*
X345195001Y-597650666D01*
X345212871Y-597832103D01*
X345283490Y-598064902D01*
X345398169Y-598279450D01*
X345552500Y-598467503D01*
X345659115Y-598555000D01*
X344660888Y-598555000D01*
X344767503Y-598467503D01*
X344921834Y-598279450D01*
X345036512Y-598064902D01*
X345107131Y-597832102D01*
X345125001Y-597650665D01*
X345125001Y-596729336D01*
X345107131Y-596547899D01*
X345036512Y-596315100D01*
X344921834Y-596100552D01*
X344767503Y-595912499D01*
X344579449Y-595758168D01*
X344364901Y-595643490D01*
X344132102Y-595572871D01*
X343890001Y-595549026D01*
X343647899Y-595572871D01*
X343415100Y-595643490D01*
X343200552Y-595758168D01*
X343012499Y-595912499D01*
X342858168Y-596100553D01*
X342743490Y-596315101D01*
X342672871Y-596547900D01*
X342655001Y-596729337D01*
X342655001Y-597650666D01*
X342672871Y-597832103D01*
X342743490Y-598064902D01*
X342858169Y-598279450D01*
X343012500Y-598467503D01*
X343200553Y-598621834D01*
X343415101Y-598736512D01*
X343647900Y-598807131D01*
X343670418Y-598809349D01*
X343668183Y-598811183D01*
X343640470Y-598844951D01*
X342485594Y-599999828D01*
X342400276Y-599929808D01*
X342242418Y-599845431D01*
X342071132Y-599793472D01*
X341893000Y-599775928D01*
X340643000Y-599775928D01*
X340464868Y-599793472D01*
X340293582Y-599845431D01*
X340135724Y-599929808D01*
X339997361Y-600043361D01*
X339883808Y-600181724D01*
X339799431Y-600339582D01*
X339747472Y-600510868D01*
X339729928Y-600689000D01*
X339729928Y-601045928D01*
X338573000Y-601045928D01*
X338394868Y-601063472D01*
X338223582Y-601115431D01*
X338072000Y-601196453D01*
X338072000Y-599002803D01*
X338337549Y-598737255D01*
X338567900Y-598807131D01*
X338810001Y-598830976D01*
X339052103Y-598807131D01*
X339284902Y-598736512D01*
X339499450Y-598621834D01*
X339687503Y-598467503D01*
X339841834Y-598279450D01*
X339956512Y-598064902D01*
X340027131Y-597832102D01*
X340045001Y-597650665D01*
X340045001Y-596729337D01*
X340115001Y-596729337D01*
X340115001Y-597650666D01*
X340132871Y-597832103D01*
X340203490Y-598064902D01*
X340318169Y-598279450D01*
X340472500Y-598467503D01*
X340660553Y-598621834D01*
X340875101Y-598736512D01*
X341107900Y-598807131D01*
X341350001Y-598830976D01*
X341592103Y-598807131D01*
X341824902Y-598736512D01*
X342039450Y-598621834D01*
X342227503Y-598467503D01*
X342381834Y-598279450D01*
X342496512Y-598064902D01*
X342567131Y-597832102D01*
X342585001Y-597650665D01*
X342585001Y-596729336D01*
X342567131Y-596547899D01*
X342496512Y-596315100D01*
X342381834Y-596100552D01*
X342227503Y-595912499D01*
X342039449Y-595758168D01*
X341824901Y-595643490D01*
X341592102Y-595572871D01*
X341350001Y-595549026D01*
X341107899Y-595572871D01*
X340875100Y-595643490D01*
X340660552Y-595758168D01*
X340472499Y-595912499D01*
X340318168Y-596100553D01*
X340203490Y-596315101D01*
X340132871Y-596547900D01*
X340115001Y-596729337D01*
X340045001Y-596729337D01*
X340045001Y-596729336D01*
X340027131Y-596547899D01*
X339956512Y-596315100D01*
X339841834Y-596100552D01*
X339687503Y-595912499D01*
X339499449Y-595758168D01*
X339284901Y-595643490D01*
X339052102Y-595572871D01*
X338810001Y-595549026D01*
X338567899Y-595572871D01*
X338335100Y-595643490D01*
X338120552Y-595758168D01*
X337932499Y-595912499D01*
X337778168Y-596100553D01*
X337663490Y-596315101D01*
X337592871Y-596547900D01*
X337575001Y-596729337D01*
X337575001Y-597350199D01*
X337505001Y-597420200D01*
X337505001Y-596729336D01*
X337487131Y-596547899D01*
X337416512Y-596315100D01*
X337301834Y-596100552D01*
X337147503Y-595912499D01*
X336959449Y-595758168D01*
X336744901Y-595643490D01*
X336512102Y-595572871D01*
X336270001Y-595549026D01*
X336027899Y-595572871D01*
X335795100Y-595643490D01*
X335580552Y-595758168D01*
X335392499Y-595912499D01*
X335238168Y-596100553D01*
X335123490Y-596315101D01*
X335052871Y-596547900D01*
X335035001Y-596729337D01*
X335035001Y-597650666D01*
X335052871Y-597832103D01*
X335123490Y-598064902D01*
X335238169Y-598279450D01*
X335392500Y-598467503D01*
X335580553Y-598621834D01*
X335795101Y-598736512D01*
X336027900Y-598807131D01*
X336270001Y-598830976D01*
X336512103Y-598807131D01*
X336552001Y-598795028D01*
X336552000Y-604713198D01*
X335518844Y-605746355D01*
X335411486Y-605725000D01*
X335148514Y-605725000D01*
X334890595Y-605776304D01*
X334647641Y-605876939D01*
X334428987Y-606023038D01*
X334243038Y-606208987D01*
X334096939Y-606427641D01*
X333996304Y-606670595D01*
X333945000Y-606928514D01*
X333945000Y-607191486D01*
X333996304Y-607449405D01*
X334096939Y-607692359D01*
X334243038Y-607911013D01*
X334428987Y-608096962D01*
X334647641Y-608243061D01*
X334890595Y-608343696D01*
X335148514Y-608395000D01*
X335411486Y-608395000D01*
X335669405Y-608343696D01*
X335912359Y-608243061D01*
X336131013Y-608096962D01*
X336316962Y-607911013D01*
X336463061Y-607692359D01*
X336563696Y-607449405D01*
X336615000Y-607191486D01*
X336615000Y-606928514D01*
X336593645Y-606821156D01*
X337823004Y-605591798D01*
X337852001Y-605568001D01*
X337906019Y-605502180D01*
X337946974Y-605452277D01*
X338017546Y-605320247D01*
X338036428Y-605258000D01*
X338061003Y-605176986D01*
X338072000Y-605065333D01*
X338072000Y-605065323D01*
X338075676Y-605028000D01*
X338072000Y-604990677D01*
X338072000Y-603271547D01*
X338223582Y-603352569D01*
X338394868Y-603404528D01*
X338573000Y-603422072D01*
X338838001Y-603422072D01*
X338838000Y-605244677D01*
X338834324Y-605282000D01*
X338838000Y-605319322D01*
X338838000Y-605319332D01*
X338848997Y-605430985D01*
X338887705Y-605558589D01*
X338892454Y-605574246D01*
X338963026Y-605706276D01*
X339002871Y-605754826D01*
X339057999Y-605822001D01*
X339087003Y-605845804D01*
X340812201Y-607571003D01*
X340835999Y-607600001D01*
X340951724Y-607694974D01*
X341083753Y-607765546D01*
X341227014Y-607809003D01*
X341338667Y-607820000D01*
X341338675Y-607820000D01*
X341376000Y-607823676D01*
X341413325Y-607820000D01*
X341802225Y-607820000D01*
X341863038Y-607911013D01*
X342048987Y-608096962D01*
X342267641Y-608243061D01*
X342510595Y-608343696D01*
X342768514Y-608395000D01*
X343031486Y-608395000D01*
X343289405Y-608343696D01*
X343532359Y-608243061D01*
X343751013Y-608096962D01*
X343936962Y-607911013D01*
X344083061Y-607692359D01*
X344183696Y-607449405D01*
X344235000Y-607191486D01*
X344235000Y-606928514D01*
X344183696Y-606670595D01*
X344083061Y-606427641D01*
X343936962Y-606208987D01*
X343751013Y-606023038D01*
X343532359Y-605876939D01*
X343404245Y-605823872D01*
X360985000Y-605823872D01*
X360985000Y-606264128D01*
X361070890Y-606695925D01*
X361239369Y-607102669D01*
X361483962Y-607468729D01*
X361795271Y-607780038D01*
X362161331Y-608024631D01*
X362568075Y-608193110D01*
X362999872Y-608279000D01*
X363440128Y-608279000D01*
X363871925Y-608193110D01*
X364278669Y-608024631D01*
X364644729Y-607780038D01*
X364956038Y-607468729D01*
X365200631Y-607102669D01*
X365369110Y-606695925D01*
X365455000Y-606264128D01*
X365455000Y-605823872D01*
X365369110Y-605392075D01*
X365200631Y-604985331D01*
X364956038Y-604619271D01*
X364644729Y-604307962D01*
X364278669Y-604063369D01*
X363871925Y-603894890D01*
X363440128Y-603809000D01*
X362999872Y-603809000D01*
X362568075Y-603894890D01*
X362161331Y-604063369D01*
X361795271Y-604307962D01*
X361483962Y-604619271D01*
X361239369Y-604985331D01*
X361070890Y-605392075D01*
X360985000Y-605823872D01*
X343404245Y-605823872D01*
X343289405Y-605776304D01*
X343031486Y-605725000D01*
X342768514Y-605725000D01*
X342510595Y-605776304D01*
X342267641Y-605876939D01*
X342048987Y-606023038D01*
X341863038Y-606208987D01*
X341802225Y-606300000D01*
X341690802Y-606300000D01*
X340358000Y-604967199D01*
X340358000Y-604691087D01*
X340368000Y-604692072D01*
X342168000Y-604692072D01*
X342292482Y-604679812D01*
X342412180Y-604643502D01*
X342522494Y-604584537D01*
X342619185Y-604505185D01*
X342698537Y-604408494D01*
X342708957Y-604389000D01*
X344126531Y-604389000D01*
X344170000Y-604393281D01*
X344213469Y-604389000D01*
X344213477Y-604389000D01*
X344343490Y-604376195D01*
X344510313Y-604325589D01*
X344664059Y-604243411D01*
X344798817Y-604132817D01*
X344826534Y-604099044D01*
X345203506Y-603722072D01*
X346290000Y-603722072D01*
X346414482Y-603709812D01*
X346534180Y-603673502D01*
X346644494Y-603614537D01*
X346741185Y-603535185D01*
X346820537Y-603438494D01*
X346879502Y-603328180D01*
X346903966Y-603247534D01*
X346979731Y-603331588D01*
X347213080Y-603505641D01*
X347475901Y-603630825D01*
X347623110Y-603675476D01*
X347853000Y-603554155D01*
X347853000Y-602361000D01*
X348107000Y-602361000D01*
X348107000Y-603554155D01*
X348336890Y-603675476D01*
X348484099Y-603630825D01*
X348746920Y-603505641D01*
X348980269Y-603331588D01*
X349175178Y-603115355D01*
X349324157Y-602865252D01*
X349421481Y-602590891D01*
X349300814Y-602361000D01*
X348107000Y-602361000D01*
X347853000Y-602361000D01*
X347833000Y-602361000D01*
X347833000Y-602107000D01*
X347853000Y-602107000D01*
X347853000Y-600913845D01*
X348107000Y-600913845D01*
X348107000Y-602107000D01*
X349300814Y-602107000D01*
X349421481Y-601877109D01*
X349324157Y-601602748D01*
X349175178Y-601352645D01*
X348980269Y-601136412D01*
X348746920Y-600962359D01*
X348484099Y-600837175D01*
X348336890Y-600792524D01*
X348107000Y-600913845D01*
X347853000Y-600913845D01*
X347623110Y-600792524D01*
X347475901Y-600837175D01*
X347213080Y-600962359D01*
X346979731Y-601136412D01*
X346903966Y-601220466D01*
X346879502Y-601139820D01*
X346820537Y-601029506D01*
X346741185Y-600932815D01*
X346644494Y-600853463D01*
X346534180Y-600794498D01*
X346414482Y-600758188D01*
X346290000Y-600745928D01*
X344590000Y-600745928D01*
X344465518Y-600758188D01*
X344345820Y-600794498D01*
X344235506Y-600853463D01*
X344138815Y-600932815D01*
X344059463Y-601029506D01*
X344000498Y-601139820D01*
X343964188Y-601259518D01*
X343951928Y-601384000D01*
X343951928Y-602470494D01*
X343803422Y-602619000D01*
X342708957Y-602619000D01*
X342698537Y-602599506D01*
X342619185Y-602502815D01*
X342522494Y-602423463D01*
X342412180Y-602364498D01*
X342292482Y-602328188D01*
X342168000Y-602315928D01*
X340736072Y-602315928D01*
X340736072Y-602152072D01*
X341893000Y-602152072D01*
X342071132Y-602134528D01*
X342242418Y-602082569D01*
X342400276Y-601998192D01*
X342538639Y-601884639D01*
X342567888Y-601849000D01*
X342729531Y-601849000D01*
X342773000Y-601853281D01*
X342816469Y-601849000D01*
X342816477Y-601849000D01*
X342946490Y-601836195D01*
X343113313Y-601785589D01*
X343267059Y-601703411D01*
X343401817Y-601592817D01*
X343429534Y-601559044D01*
X344663579Y-600325000D01*
X347682531Y-600325000D01*
X347726000Y-600329281D01*
X347769469Y-600325000D01*
X347769477Y-600325000D01*
X347899490Y-600312195D01*
X348066313Y-600261589D01*
X348220059Y-600179411D01*
X348354817Y-600068817D01*
X348382534Y-600035044D01*
X349186500Y-599231078D01*
X350947873Y-600992452D01*
X350917463Y-601029506D01*
X350858498Y-601139820D01*
X350822188Y-601259518D01*
X350809928Y-601384000D01*
X350809928Y-603084000D01*
X350822188Y-603208482D01*
X350858498Y-603328180D01*
X350917463Y-603438494D01*
X350996815Y-603535185D01*
X351093506Y-603614537D01*
X351203820Y-603673502D01*
X351323518Y-603709812D01*
X351448000Y-603722072D01*
X353148000Y-603722072D01*
X353272482Y-603709812D01*
X353392180Y-603673502D01*
X353502494Y-603614537D01*
X353599185Y-603535185D01*
X353678537Y-603438494D01*
X353737502Y-603328180D01*
X353759513Y-603255620D01*
X353891368Y-603387475D01*
X354134589Y-603549990D01*
X354404842Y-603661932D01*
X354691740Y-603719000D01*
X354984260Y-603719000D01*
X355271158Y-603661932D01*
X355541411Y-603549990D01*
X355784632Y-603387475D01*
X355991475Y-603180632D01*
X356113195Y-602998466D01*
X356182822Y-603115355D01*
X356377731Y-603331588D01*
X356611080Y-603505641D01*
X356873901Y-603630825D01*
X357021110Y-603675476D01*
X357251000Y-603554155D01*
X357251000Y-602361000D01*
X357505000Y-602361000D01*
X357505000Y-603554155D01*
X357734890Y-603675476D01*
X357882099Y-603630825D01*
X358144920Y-603505641D01*
X358378269Y-603331588D01*
X358573178Y-603115355D01*
X358722157Y-602865252D01*
X358819481Y-602590891D01*
X358698814Y-602361000D01*
X357505000Y-602361000D01*
X357251000Y-602361000D01*
X357231000Y-602361000D01*
X357231000Y-602107000D01*
X357251000Y-602107000D01*
X357251000Y-600913845D01*
X357505000Y-600913845D01*
X357505000Y-602107000D01*
X358698814Y-602107000D01*
X358819481Y-601877109D01*
X358722157Y-601602748D01*
X358573178Y-601352645D01*
X358378269Y-601136412D01*
X358144920Y-600962359D01*
X357882099Y-600837175D01*
X357734890Y-600792524D01*
X357505000Y-600913845D01*
X357251000Y-600913845D01*
X357021110Y-600792524D01*
X356873901Y-600837175D01*
X356611080Y-600962359D01*
X356377731Y-601136412D01*
X356182822Y-601352645D01*
X356113195Y-601469534D01*
X355991475Y-601287368D01*
X355784632Y-601080525D01*
X355541411Y-600918010D01*
X355271158Y-600806068D01*
X354984260Y-600749000D01*
X354691740Y-600749000D01*
X354404842Y-600806068D01*
X354134589Y-600918010D01*
X353891368Y-601080525D01*
X353759513Y-601212380D01*
X353737502Y-601139820D01*
X353678537Y-601029506D01*
X353599185Y-600932815D01*
X353502494Y-600853463D01*
X353392180Y-600794498D01*
X353272482Y-600758188D01*
X353148000Y-600745928D01*
X353029671Y-600745928D01*
X352992589Y-600623687D01*
X352910411Y-600469941D01*
X352865579Y-600415313D01*
X352827532Y-600368953D01*
X352827530Y-600368951D01*
X352799817Y-600335183D01*
X352766050Y-600307471D01*
X351264756Y-598806177D01*
X351267900Y-598807131D01*
X351510001Y-598830976D01*
X351752103Y-598807131D01*
X351984902Y-598736512D01*
X352199450Y-598621834D01*
X352387503Y-598467503D01*
X352541834Y-598279450D01*
X352656512Y-598064902D01*
X352727131Y-597832102D01*
X352745001Y-597650665D01*
X352745001Y-596729337D01*
X352815001Y-596729337D01*
X352815001Y-597650666D01*
X352832871Y-597832103D01*
X352903490Y-598064902D01*
X353018169Y-598279450D01*
X353172500Y-598467503D01*
X353360553Y-598621834D01*
X353575101Y-598736512D01*
X353807900Y-598807131D01*
X354050001Y-598830976D01*
X354292103Y-598807131D01*
X354524902Y-598736512D01*
X354739450Y-598621834D01*
X354927503Y-598467503D01*
X355081834Y-598279450D01*
X355196512Y-598064902D01*
X355267131Y-597832102D01*
X355285001Y-597650665D01*
X355285001Y-596729337D01*
X355355001Y-596729337D01*
X355355001Y-597650666D01*
X355372871Y-597832103D01*
X355443490Y-598064902D01*
X355558169Y-598279450D01*
X355712500Y-598467503D01*
X355900553Y-598621834D01*
X356115101Y-598736512D01*
X356347900Y-598807131D01*
X356590001Y-598830976D01*
X356832103Y-598807131D01*
X357064902Y-598736512D01*
X357279450Y-598621834D01*
X357467503Y-598467503D01*
X357621834Y-598279450D01*
X357736512Y-598064902D01*
X357807131Y-597832102D01*
X357825001Y-597650665D01*
X357825001Y-596729337D01*
X357895001Y-596729337D01*
X357895001Y-597650666D01*
X357912871Y-597832103D01*
X357983490Y-598064902D01*
X358098169Y-598279450D01*
X358252500Y-598467503D01*
X358440553Y-598621834D01*
X358655101Y-598736512D01*
X358887900Y-598807131D01*
X359130001Y-598830976D01*
X359372103Y-598807131D01*
X359604902Y-598736512D01*
X359819450Y-598621834D01*
X360007503Y-598467503D01*
X360161834Y-598279450D01*
X360276512Y-598064902D01*
X360347131Y-597832102D01*
X360365001Y-597650665D01*
X360365001Y-597317001D01*
X360435001Y-597317001D01*
X360435001Y-597717001D01*
X360483508Y-597955497D01*
X360577611Y-598179947D01*
X360713694Y-598381726D01*
X360886527Y-598553079D01*
X361089468Y-598687422D01*
X361314719Y-598779592D01*
X361352392Y-598783463D01*
X361543001Y-598658732D01*
X361543001Y-597317001D01*
X361797001Y-597317001D01*
X361797001Y-598658732D01*
X361987610Y-598783463D01*
X362025283Y-598779592D01*
X362250534Y-598687422D01*
X362453475Y-598553079D01*
X362626308Y-598381726D01*
X362762391Y-598179947D01*
X362856494Y-597955497D01*
X362905001Y-597717001D01*
X362905001Y-597317001D01*
X361797001Y-597317001D01*
X361543001Y-597317001D01*
X360435001Y-597317001D01*
X360365001Y-597317001D01*
X360365001Y-596729336D01*
X360358468Y-596663001D01*
X360435001Y-596663001D01*
X360435001Y-597063001D01*
X361543001Y-597063001D01*
X361543001Y-595721270D01*
X361797001Y-595721270D01*
X361797001Y-597063001D01*
X362905001Y-597063001D01*
X362905001Y-596663001D01*
X362856494Y-596424505D01*
X362762391Y-596200055D01*
X362626308Y-595998276D01*
X362453475Y-595826923D01*
X362250534Y-595692580D01*
X362025283Y-595600410D01*
X361987610Y-595596539D01*
X361797001Y-595721270D01*
X361543001Y-595721270D01*
X361352392Y-595596539D01*
X361314719Y-595600410D01*
X361089468Y-595692580D01*
X360886527Y-595826923D01*
X360713694Y-595998276D01*
X360577611Y-596200055D01*
X360483508Y-596424505D01*
X360435001Y-596663001D01*
X360358468Y-596663001D01*
X360347131Y-596547899D01*
X360276512Y-596315100D01*
X360161834Y-596100552D01*
X360007503Y-595912499D01*
X359819449Y-595758168D01*
X359604901Y-595643490D01*
X359372102Y-595572871D01*
X359130001Y-595549026D01*
X358887899Y-595572871D01*
X358655100Y-595643490D01*
X358440552Y-595758168D01*
X358252499Y-595912499D01*
X358098168Y-596100553D01*
X357983490Y-596315101D01*
X357912871Y-596547900D01*
X357895001Y-596729337D01*
X357825001Y-596729337D01*
X357825001Y-596729336D01*
X357807131Y-596547899D01*
X357736512Y-596315100D01*
X357621834Y-596100552D01*
X357467503Y-595912499D01*
X357279449Y-595758168D01*
X357064901Y-595643490D01*
X356832102Y-595572871D01*
X356590001Y-595549026D01*
X356347899Y-595572871D01*
X356115100Y-595643490D01*
X355900552Y-595758168D01*
X355712499Y-595912499D01*
X355558168Y-596100553D01*
X355443490Y-596315101D01*
X355372871Y-596547900D01*
X355355001Y-596729337D01*
X355285001Y-596729337D01*
X355285001Y-596729336D01*
X355267131Y-596547899D01*
X355196512Y-596315100D01*
X355081834Y-596100552D01*
X354927503Y-595912499D01*
X354739449Y-595758168D01*
X354524901Y-595643490D01*
X354292102Y-595572871D01*
X354050001Y-595549026D01*
X353807899Y-595572871D01*
X353575100Y-595643490D01*
X353360552Y-595758168D01*
X353172499Y-595912499D01*
X353018168Y-596100553D01*
X352903490Y-596315101D01*
X352832871Y-596547900D01*
X352815001Y-596729337D01*
X352745001Y-596729337D01*
X352745001Y-596729336D01*
X352727131Y-596547899D01*
X352656512Y-596315100D01*
X352541834Y-596100552D01*
X352387503Y-595912499D01*
X352199449Y-595758168D01*
X351984901Y-595643490D01*
X351752102Y-595572871D01*
X351510001Y-595549026D01*
X351267899Y-595572871D01*
X351035100Y-595643490D01*
X350820552Y-595758168D01*
X350632499Y-595912499D01*
X350478168Y-596100553D01*
X350363490Y-596315101D01*
X350292871Y-596547900D01*
X350275001Y-596729337D01*
X350275001Y-597650666D01*
X350292871Y-597832103D01*
X350293825Y-597835246D01*
X350196415Y-597737837D01*
X350205001Y-597650665D01*
X350205001Y-596729336D01*
X350187131Y-596547899D01*
X350116512Y-596315100D01*
X350105001Y-596293564D01*
X350105001Y-590960742D01*
X350110491Y-590905000D01*
X350105001Y-590849258D01*
X350105001Y-590849249D01*
X350088578Y-590682502D01*
X350023677Y-590468554D01*
X349918285Y-590271378D01*
X349776450Y-590098552D01*
X349733142Y-590063010D01*
X341519986Y-581849855D01*
X341484439Y-581806541D01*
X341311613Y-581664706D01*
X341114437Y-581559314D01*
X340900489Y-581494413D01*
X340733742Y-581477990D01*
X340733741Y-581477990D01*
X340677990Y-581472499D01*
X340622239Y-581477990D01*
X332075001Y-581477990D01*
X332075001Y-573058367D01*
X332221834Y-572879450D01*
X332336512Y-572664902D01*
X332407131Y-572432102D01*
X332425001Y-572250665D01*
X332425001Y-571329337D01*
X332495001Y-571329337D01*
X332495001Y-572250666D01*
X332512871Y-572432103D01*
X332583490Y-572664902D01*
X332698169Y-572879450D01*
X332852500Y-573067503D01*
X333040553Y-573221834D01*
X333255101Y-573336512D01*
X333487900Y-573407131D01*
X333730001Y-573430976D01*
X333972103Y-573407131D01*
X334204902Y-573336512D01*
X334419450Y-573221834D01*
X334607503Y-573067503D01*
X334761834Y-572879450D01*
X334876512Y-572664902D01*
X334947131Y-572432102D01*
X334965001Y-572250665D01*
X334965001Y-571329337D01*
X335035001Y-571329337D01*
X335035001Y-572250666D01*
X335052871Y-572432103D01*
X335123490Y-572664902D01*
X335238169Y-572879450D01*
X335392500Y-573067503D01*
X335580553Y-573221834D01*
X335795101Y-573336512D01*
X336027900Y-573407131D01*
X336270001Y-573430976D01*
X336512103Y-573407131D01*
X336744902Y-573336512D01*
X336959450Y-573221834D01*
X337147503Y-573067503D01*
X337301834Y-572879450D01*
X337416512Y-572664902D01*
X337487131Y-572432102D01*
X337505001Y-572250665D01*
X337505001Y-571329337D01*
X337575001Y-571329337D01*
X337575001Y-572250666D01*
X337592871Y-572432103D01*
X337663490Y-572664902D01*
X337778169Y-572879450D01*
X337932500Y-573067503D01*
X338120553Y-573221834D01*
X338335101Y-573336512D01*
X338567900Y-573407131D01*
X338810001Y-573430976D01*
X339052103Y-573407131D01*
X339284902Y-573336512D01*
X339499450Y-573221834D01*
X339687503Y-573067503D01*
X339841834Y-572879450D01*
X339956512Y-572664902D01*
X340027131Y-572432102D01*
X340045001Y-572250665D01*
X340045001Y-571329336D01*
X340027131Y-571147899D01*
X339956512Y-570915100D01*
X339841834Y-570700552D01*
X339687503Y-570512499D01*
X339499449Y-570358168D01*
X339284901Y-570243490D01*
X339052102Y-570172871D01*
X338810001Y-570149026D01*
X338567899Y-570172871D01*
X338335100Y-570243490D01*
X338120552Y-570358168D01*
X337932499Y-570512499D01*
X337778168Y-570700553D01*
X337663490Y-570915101D01*
X337592871Y-571147900D01*
X337575001Y-571329337D01*
X337505001Y-571329337D01*
X337505001Y-571329336D01*
X337487131Y-571147899D01*
X337416512Y-570915100D01*
X337301834Y-570700552D01*
X337147503Y-570512499D01*
X336959449Y-570358168D01*
X336744901Y-570243490D01*
X336512102Y-570172871D01*
X336270001Y-570149026D01*
X336027899Y-570172871D01*
X335795100Y-570243490D01*
X335580552Y-570358168D01*
X335392499Y-570512499D01*
X335238168Y-570700553D01*
X335123490Y-570915101D01*
X335052871Y-571147900D01*
X335035001Y-571329337D01*
X334965001Y-571329337D01*
X334965001Y-571329336D01*
X334947131Y-571147899D01*
X334876512Y-570915100D01*
X334761834Y-570700552D01*
X334607503Y-570512499D01*
X334419449Y-570358168D01*
X334204901Y-570243490D01*
X333972102Y-570172871D01*
X333730001Y-570149026D01*
X333487899Y-570172871D01*
X333255100Y-570243490D01*
X333040552Y-570358168D01*
X332852499Y-570512499D01*
X332698168Y-570700553D01*
X332583490Y-570915101D01*
X332512871Y-571147900D01*
X332495001Y-571329337D01*
X332425001Y-571329337D01*
X332425001Y-571329336D01*
X332407131Y-571147899D01*
X332336512Y-570915100D01*
X332221834Y-570700552D01*
X332067503Y-570512499D01*
X331879449Y-570358168D01*
X331664901Y-570243490D01*
X331432102Y-570172871D01*
X331190001Y-570149026D01*
X330947899Y-570172871D01*
X330715100Y-570243490D01*
X330500552Y-570358168D01*
X330312499Y-570512499D01*
X330158168Y-570700553D01*
X330043490Y-570915101D01*
X329972871Y-571147900D01*
X329955001Y-571329337D01*
X329955001Y-572250666D01*
X329972871Y-572432103D01*
X330043490Y-572664902D01*
X330158169Y-572879450D01*
X330305001Y-573058366D01*
X330305002Y-581477990D01*
X305812117Y-581477990D01*
X305953475Y-581336632D01*
X306078178Y-581150000D01*
X325082678Y-581150000D01*
X325120000Y-581153676D01*
X325157322Y-581150000D01*
X325157333Y-581150000D01*
X325268986Y-581139003D01*
X325412247Y-581095546D01*
X325544276Y-581024974D01*
X325660001Y-580930001D01*
X325683804Y-580900997D01*
X326953799Y-579631003D01*
X326953803Y-579630998D01*
X329161005Y-577423797D01*
X329190002Y-577400000D01*
X329263864Y-577309999D01*
X329284975Y-577284276D01*
X329355547Y-577152246D01*
X329371093Y-577100997D01*
X329399004Y-577008985D01*
X329410001Y-576897332D01*
X329410001Y-576897323D01*
X329413677Y-576860000D01*
X329410001Y-576822677D01*
X329410001Y-573163934D01*
X329527503Y-573067503D01*
X329681834Y-572879450D01*
X329796512Y-572664902D01*
X329867131Y-572432102D01*
X329885001Y-572250665D01*
X329885001Y-571329336D01*
X329867131Y-571147899D01*
X329796512Y-570915100D01*
X329681834Y-570700552D01*
X329527503Y-570512499D01*
X329339449Y-570358168D01*
X329124901Y-570243490D01*
X328892102Y-570172871D01*
X328650001Y-570149026D01*
X328407899Y-570172871D01*
X328175100Y-570243490D01*
X327960552Y-570358168D01*
X327772499Y-570512499D01*
X327618168Y-570700553D01*
X327503490Y-570915101D01*
X327432871Y-571147900D01*
X327415001Y-571329337D01*
X327415001Y-572250666D01*
X327432871Y-572432103D01*
X327503490Y-572664902D01*
X327618169Y-572879450D01*
X327772500Y-573067503D01*
X327890002Y-573163934D01*
X327890001Y-576545197D01*
X325879002Y-578556197D01*
X325878997Y-578556201D01*
X324805199Y-579630000D01*
X306078178Y-579630000D01*
X305953475Y-579443368D01*
X305746632Y-579236525D01*
X305572240Y-579120000D01*
X305746632Y-579003475D01*
X305953475Y-578796632D01*
X306078178Y-578610000D01*
X318732678Y-578610000D01*
X318770000Y-578613676D01*
X318807322Y-578610000D01*
X318807333Y-578610000D01*
X318918986Y-578599003D01*
X319062247Y-578555546D01*
X319194276Y-578484974D01*
X319310001Y-578390001D01*
X319333804Y-578360997D01*
X320603799Y-577091003D01*
X320603803Y-577090998D01*
X321541005Y-576153797D01*
X321570002Y-576130000D01*
X321664975Y-576014275D01*
X321735547Y-575882246D01*
X321779004Y-575738985D01*
X321790001Y-575627332D01*
X321790001Y-575627322D01*
X321793677Y-575589999D01*
X321790001Y-575552676D01*
X321790001Y-573163934D01*
X321907503Y-573067503D01*
X322061834Y-572879450D01*
X322176512Y-572664902D01*
X322247131Y-572432102D01*
X322265001Y-572250665D01*
X322265001Y-571329337D01*
X322335001Y-571329337D01*
X322335001Y-572250666D01*
X322352871Y-572432103D01*
X322423490Y-572664902D01*
X322538169Y-572879450D01*
X322692500Y-573067503D01*
X322880553Y-573221834D01*
X323095101Y-573336512D01*
X323327900Y-573407131D01*
X323570001Y-573430976D01*
X323812103Y-573407131D01*
X324044902Y-573336512D01*
X324259450Y-573221834D01*
X324447503Y-573067503D01*
X324601834Y-572879450D01*
X324716512Y-572664902D01*
X324787131Y-572432102D01*
X324805001Y-572250665D01*
X324805001Y-571329337D01*
X324875001Y-571329337D01*
X324875001Y-572250666D01*
X324892871Y-572432103D01*
X324963490Y-572664902D01*
X325078169Y-572879450D01*
X325232500Y-573067503D01*
X325420553Y-573221834D01*
X325635101Y-573336512D01*
X325867900Y-573407131D01*
X326110001Y-573430976D01*
X326352103Y-573407131D01*
X326584902Y-573336512D01*
X326799450Y-573221834D01*
X326987503Y-573067503D01*
X327141834Y-572879450D01*
X327256512Y-572664902D01*
X327327131Y-572432102D01*
X327345001Y-572250665D01*
X327345001Y-571329336D01*
X327327131Y-571147899D01*
X327256512Y-570915100D01*
X327141834Y-570700552D01*
X326987503Y-570512499D01*
X326799449Y-570358168D01*
X326584901Y-570243490D01*
X326352102Y-570172871D01*
X326110001Y-570149026D01*
X325867899Y-570172871D01*
X325635100Y-570243490D01*
X325420552Y-570358168D01*
X325232499Y-570512499D01*
X325078168Y-570700553D01*
X324963490Y-570915101D01*
X324892871Y-571147900D01*
X324875001Y-571329337D01*
X324805001Y-571329337D01*
X324805001Y-571329336D01*
X324787131Y-571147899D01*
X324716512Y-570915100D01*
X324601834Y-570700552D01*
X324447503Y-570512499D01*
X324259449Y-570358168D01*
X324044901Y-570243490D01*
X323812102Y-570172871D01*
X323570001Y-570149026D01*
X323327899Y-570172871D01*
X323095100Y-570243490D01*
X322880552Y-570358168D01*
X322692499Y-570512499D01*
X322538168Y-570700553D01*
X322423490Y-570915101D01*
X322352871Y-571147900D01*
X322335001Y-571329337D01*
X322265001Y-571329337D01*
X322265001Y-571329336D01*
X322247131Y-571147899D01*
X322176512Y-570915100D01*
X322061834Y-570700552D01*
X321907503Y-570512499D01*
X321719449Y-570358168D01*
X321504901Y-570243490D01*
X321272102Y-570172871D01*
X321030001Y-570149026D01*
X320787899Y-570172871D01*
X320555100Y-570243490D01*
X320340552Y-570358168D01*
X320152499Y-570512499D01*
X319998168Y-570700553D01*
X319883490Y-570915101D01*
X319812871Y-571147900D01*
X319795001Y-571329337D01*
X319795001Y-572250666D01*
X319812871Y-572432103D01*
X319883490Y-572664902D01*
X319998169Y-572879450D01*
X320152500Y-573067503D01*
X320270002Y-573163934D01*
X320270001Y-575275197D01*
X319529002Y-576016197D01*
X319528997Y-576016201D01*
X318455199Y-577090000D01*
X306078178Y-577090000D01*
X305953475Y-576903368D01*
X305746632Y-576696525D01*
X305572240Y-576580000D01*
X305746632Y-576463475D01*
X305953475Y-576256632D01*
X305994656Y-576195000D01*
X312386533Y-576195000D01*
X312430002Y-576199281D01*
X312473471Y-576195000D01*
X312473479Y-576195000D01*
X312603492Y-576182195D01*
X312770315Y-576131589D01*
X312924061Y-576049411D01*
X313058819Y-575938817D01*
X313086536Y-575905044D01*
X315613182Y-573378399D01*
X315707900Y-573407131D01*
X315950001Y-573430976D01*
X316192103Y-573407131D01*
X316424902Y-573336512D01*
X316639450Y-573221834D01*
X316827503Y-573067503D01*
X316981834Y-572879450D01*
X317096512Y-572664902D01*
X317167131Y-572432102D01*
X317185001Y-572250665D01*
X317185001Y-571329337D01*
X317255001Y-571329337D01*
X317255001Y-572250666D01*
X317272871Y-572432103D01*
X317343490Y-572664902D01*
X317458169Y-572879450D01*
X317612500Y-573067503D01*
X317800553Y-573221834D01*
X318015101Y-573336512D01*
X318247900Y-573407131D01*
X318490001Y-573430976D01*
X318732103Y-573407131D01*
X318964902Y-573336512D01*
X319179450Y-573221834D01*
X319367503Y-573067503D01*
X319521834Y-572879450D01*
X319636512Y-572664902D01*
X319707131Y-572432102D01*
X319725001Y-572250665D01*
X319725001Y-571329336D01*
X319707131Y-571147899D01*
X319636512Y-570915100D01*
X319521834Y-570700552D01*
X319367503Y-570512499D01*
X319179449Y-570358168D01*
X318964901Y-570243490D01*
X318732102Y-570172871D01*
X318490001Y-570149026D01*
X318247899Y-570172871D01*
X318015100Y-570243490D01*
X317800552Y-570358168D01*
X317612499Y-570512499D01*
X317458168Y-570700553D01*
X317343490Y-570915101D01*
X317272871Y-571147900D01*
X317255001Y-571329337D01*
X317185001Y-571329337D01*
X317185001Y-571329336D01*
X317167131Y-571147899D01*
X317096512Y-570915100D01*
X316981834Y-570700552D01*
X316827503Y-570512499D01*
X316639449Y-570358168D01*
X316424901Y-570243490D01*
X316192102Y-570172871D01*
X315950001Y-570149026D01*
X315720000Y-570171679D01*
X315720000Y-568787775D01*
X315811013Y-568726962D01*
X315996962Y-568541013D01*
X316143061Y-568322359D01*
X316243696Y-568079405D01*
X316295000Y-567821486D01*
X316295000Y-567558514D01*
X316243696Y-567300595D01*
X316143061Y-567057641D01*
X315996962Y-566838987D01*
X315811013Y-566653038D01*
X315592359Y-566506939D01*
X315349405Y-566406304D01*
X315091486Y-566355000D01*
X314828514Y-566355000D01*
X314570595Y-566406304D01*
X314327641Y-566506939D01*
X314108987Y-566653038D01*
X313923038Y-566838987D01*
X313776939Y-567057641D01*
X313676304Y-567300595D01*
X313625000Y-567558514D01*
X313625000Y-567821486D01*
X313676304Y-568079405D01*
X313776939Y-568322359D01*
X313923038Y-568541013D01*
X314108987Y-568726962D01*
X314200000Y-568787775D01*
X314200001Y-570827657D01*
X314196323Y-570865000D01*
X314210997Y-571013986D01*
X314254454Y-571157247D01*
X314325026Y-571289276D01*
X314419999Y-571405001D01*
X314535724Y-571499974D01*
X314641956Y-571556757D01*
X314715001Y-571629802D01*
X314715001Y-571773422D01*
X312063424Y-574425000D01*
X305994656Y-574425000D01*
X305953475Y-574363368D01*
X305821620Y-574231513D01*
X305894180Y-574209502D01*
X306004494Y-574150537D01*
X306101185Y-574071185D01*
X306180537Y-573974494D01*
X306239502Y-573864180D01*
X306275812Y-573744482D01*
X306288072Y-573620000D01*
X306288072Y-571920000D01*
X306275812Y-571795518D01*
X306239502Y-571675820D01*
X306180537Y-571565506D01*
X306101185Y-571468815D01*
X306004494Y-571389463D01*
X305894180Y-571330498D01*
X305774482Y-571294188D01*
X305650000Y-571281928D01*
X303950000Y-571281928D01*
X303825518Y-571294188D01*
X303705820Y-571330498D01*
X303595506Y-571389463D01*
X303498815Y-571468815D01*
X303419463Y-571565506D01*
X303360498Y-571675820D01*
X303324188Y-571795518D01*
X303315375Y-571885000D01*
X299934625Y-571885000D01*
X299925812Y-571795518D01*
X299889502Y-571675820D01*
X299830537Y-571565506D01*
X299751185Y-571468815D01*
X299654494Y-571389463D01*
X299544180Y-571330498D01*
X299424482Y-571294188D01*
X299300000Y-571281928D01*
X297600000Y-571281928D01*
X297475518Y-571294188D01*
X297355820Y-571330498D01*
X297245506Y-571389463D01*
X297148815Y-571468815D01*
X297069463Y-571565506D01*
X297010498Y-571675820D01*
X296974188Y-571795518D01*
X296961928Y-571920000D01*
X296961928Y-573620000D01*
X296974188Y-573744482D01*
X297010498Y-573864180D01*
X297069463Y-573974494D01*
X297148815Y-574071185D01*
X297245506Y-574150537D01*
X297355820Y-574209502D01*
X297428380Y-574231513D01*
X297296525Y-574363368D01*
X297255344Y-574425000D01*
X296149579Y-574425000D01*
X293235000Y-571510422D01*
X293235000Y-570915802D01*
X293366997Y-571047799D01*
X293453724Y-571118974D01*
X293585753Y-571189546D01*
X293729014Y-571233003D01*
X293878000Y-571247676D01*
X294026986Y-571233003D01*
X294170246Y-571189546D01*
X294302276Y-571118974D01*
X294418001Y-571024001D01*
X294512974Y-570908276D01*
X294583546Y-570776246D01*
X294627003Y-570632986D01*
X294641676Y-570484000D01*
X294627003Y-570335014D01*
X294583546Y-570191753D01*
X294512974Y-570059724D01*
X294441799Y-569972997D01*
X294238072Y-569769270D01*
X294238072Y-567206000D01*
X294225812Y-567081518D01*
X294189502Y-566961820D01*
X294130537Y-566851506D01*
X294116886Y-566834872D01*
X296850000Y-566834872D01*
X296850000Y-567275128D01*
X296935890Y-567706925D01*
X297104369Y-568113669D01*
X297348962Y-568479729D01*
X297660271Y-568791038D01*
X298026331Y-569035631D01*
X298433075Y-569204110D01*
X298864872Y-569290000D01*
X299305128Y-569290000D01*
X299736925Y-569204110D01*
X300143669Y-569035631D01*
X300509729Y-568791038D01*
X300821038Y-568479729D01*
X301065631Y-568113669D01*
X301234110Y-567706925D01*
X301263630Y-567558514D01*
X306005000Y-567558514D01*
X306005000Y-567821486D01*
X306056304Y-568079405D01*
X306156939Y-568322359D01*
X306303038Y-568541013D01*
X306488987Y-568726962D01*
X306707641Y-568873061D01*
X306950595Y-568973696D01*
X307208514Y-569025000D01*
X307471486Y-569025000D01*
X307729405Y-568973696D01*
X307972359Y-568873061D01*
X308191013Y-568726962D01*
X308376962Y-568541013D01*
X308523061Y-568322359D01*
X308623696Y-568079405D01*
X308675000Y-567821486D01*
X308675000Y-567558514D01*
X308623696Y-567300595D01*
X308523061Y-567057641D01*
X308376962Y-566838987D01*
X308191013Y-566653038D01*
X308185468Y-566649333D01*
X308924802Y-565910000D01*
X318455199Y-565910000D01*
X318598791Y-566053592D01*
X318555000Y-566273740D01*
X318555000Y-566566260D01*
X318612068Y-566853158D01*
X318724010Y-567123411D01*
X318886525Y-567366632D01*
X319093368Y-567573475D01*
X319336589Y-567735990D01*
X319606842Y-567847932D01*
X319893740Y-567905000D01*
X320186260Y-567905000D01*
X320473158Y-567847932D01*
X320743411Y-567735990D01*
X320986632Y-567573475D01*
X321118487Y-567441620D01*
X321140498Y-567514180D01*
X321199463Y-567624494D01*
X321278815Y-567721185D01*
X321375506Y-567800537D01*
X321485820Y-567859502D01*
X321605518Y-567895812D01*
X321730000Y-567908072D01*
X323430000Y-567908072D01*
X323554482Y-567895812D01*
X323674180Y-567859502D01*
X323784494Y-567800537D01*
X323881185Y-567721185D01*
X323960537Y-567624494D01*
X324019502Y-567514180D01*
X324055812Y-567394482D01*
X324068072Y-567270000D01*
X324068072Y-566288514D01*
X325055000Y-566288514D01*
X325055000Y-566551486D01*
X325106304Y-566809405D01*
X325206939Y-567052359D01*
X325353038Y-567271013D01*
X325538987Y-567456962D01*
X325757641Y-567603061D01*
X326000595Y-567703696D01*
X326258514Y-567755000D01*
X326521486Y-567755000D01*
X326779405Y-567703696D01*
X327022359Y-567603061D01*
X327241013Y-567456962D01*
X327426962Y-567271013D01*
X327573061Y-567052359D01*
X327673696Y-566809405D01*
X327725000Y-566551486D01*
X327725000Y-566288514D01*
X327703645Y-566181157D01*
X327974802Y-565910000D01*
X332776256Y-565910000D01*
X332726304Y-566030595D01*
X332675000Y-566288514D01*
X332675000Y-566551486D01*
X332726304Y-566809405D01*
X332826939Y-567052359D01*
X332973038Y-567271013D01*
X333158987Y-567456962D01*
X333377641Y-567603061D01*
X333620595Y-567703696D01*
X333878514Y-567755000D01*
X334141486Y-567755000D01*
X334248844Y-567733645D01*
X335351200Y-568836002D01*
X335374999Y-568865001D01*
X335490724Y-568959974D01*
X335622753Y-569030546D01*
X335766014Y-569074003D01*
X335877667Y-569085000D01*
X335877677Y-569085000D01*
X335915000Y-569088676D01*
X335952323Y-569085000D01*
X341315199Y-569085000D01*
X342890885Y-570660687D01*
X342858168Y-570700553D01*
X342743490Y-570915101D01*
X342672871Y-571147900D01*
X342655001Y-571329337D01*
X342655001Y-572250666D01*
X342672871Y-572432103D01*
X342743490Y-572664902D01*
X342858169Y-572879450D01*
X343012500Y-573067503D01*
X343200553Y-573221834D01*
X343309374Y-573280000D01*
X343214802Y-573280000D01*
X342520529Y-572585728D01*
X342567131Y-572432102D01*
X342585001Y-572250665D01*
X342585001Y-571329336D01*
X342567131Y-571147899D01*
X342496512Y-570915100D01*
X342381834Y-570700552D01*
X342227503Y-570512499D01*
X342039449Y-570358168D01*
X341824901Y-570243490D01*
X341592102Y-570172871D01*
X341350001Y-570149026D01*
X341107899Y-570172871D01*
X340875100Y-570243490D01*
X340660552Y-570358168D01*
X340472499Y-570512499D01*
X340318168Y-570700553D01*
X340203490Y-570915101D01*
X340132871Y-571147900D01*
X340115001Y-571329337D01*
X340115001Y-572250666D01*
X340132871Y-572432103D01*
X340203490Y-572664902D01*
X340318169Y-572879450D01*
X340472500Y-573067503D01*
X340660553Y-573221834D01*
X340875101Y-573336512D01*
X341107900Y-573407131D01*
X341201554Y-573416355D01*
X342336201Y-574551003D01*
X342359999Y-574580001D01*
X342388997Y-574603799D01*
X342475724Y-574674974D01*
X342607753Y-574745546D01*
X342751014Y-574789003D01*
X342900000Y-574803677D01*
X342937333Y-574800000D01*
X351752678Y-574800000D01*
X351790000Y-574803676D01*
X351827322Y-574800000D01*
X351827333Y-574800000D01*
X351938986Y-574789003D01*
X352082247Y-574745546D01*
X352214276Y-574674974D01*
X352330001Y-574580001D01*
X352353803Y-574550998D01*
X352946013Y-573958789D01*
X352975012Y-573934990D01*
X353069985Y-573819265D01*
X353140557Y-573687236D01*
X353184014Y-573543975D01*
X353195011Y-573432322D01*
X353195011Y-573432313D01*
X353198687Y-573394990D01*
X353195011Y-573357667D01*
X353195011Y-573085977D01*
X353360553Y-573221834D01*
X353575101Y-573336512D01*
X353807900Y-573407131D01*
X354050001Y-573430976D01*
X354292103Y-573407131D01*
X354524902Y-573336512D01*
X354739450Y-573221834D01*
X354927503Y-573067503D01*
X355081834Y-572879450D01*
X355196512Y-572664902D01*
X355267131Y-572432102D01*
X355285001Y-572250665D01*
X355285001Y-571329337D01*
X355355001Y-571329337D01*
X355355001Y-572250666D01*
X355372871Y-572432103D01*
X355443490Y-572664902D01*
X355558169Y-572879450D01*
X355712500Y-573067503D01*
X355900553Y-573221834D01*
X356115101Y-573336512D01*
X356347900Y-573407131D01*
X356590001Y-573430976D01*
X356832103Y-573407131D01*
X357064902Y-573336512D01*
X357279450Y-573221834D01*
X357467503Y-573067503D01*
X357621834Y-572879450D01*
X357736512Y-572664902D01*
X357807131Y-572432102D01*
X357825001Y-572250665D01*
X357825001Y-571329337D01*
X357895001Y-571329337D01*
X357895001Y-572250666D01*
X357912871Y-572432103D01*
X357983490Y-572664902D01*
X358098169Y-572879450D01*
X358252500Y-573067503D01*
X358440553Y-573221834D01*
X358655101Y-573336512D01*
X358887900Y-573407131D01*
X359130001Y-573430976D01*
X359372103Y-573407131D01*
X359604902Y-573336512D01*
X359819450Y-573221834D01*
X360007503Y-573067503D01*
X360161834Y-572879450D01*
X360276512Y-572664902D01*
X360347131Y-572432102D01*
X360365001Y-572250665D01*
X360365001Y-571329337D01*
X360435001Y-571329337D01*
X360435001Y-572250666D01*
X360452871Y-572432103D01*
X360523490Y-572664902D01*
X360638169Y-572879450D01*
X360792500Y-573067503D01*
X360980553Y-573221834D01*
X361195101Y-573336512D01*
X361427900Y-573407131D01*
X361670001Y-573430976D01*
X361912103Y-573407131D01*
X362144902Y-573336512D01*
X362359450Y-573221834D01*
X362547503Y-573067503D01*
X362701834Y-572879450D01*
X362816512Y-572664902D01*
X362887131Y-572432102D01*
X362905001Y-572250665D01*
X362905001Y-571329336D01*
X362887131Y-571147899D01*
X362816512Y-570915100D01*
X362701834Y-570700552D01*
X362547503Y-570512499D01*
X362359449Y-570358168D01*
X362144901Y-570243490D01*
X361912102Y-570172871D01*
X361670001Y-570149026D01*
X361427899Y-570172871D01*
X361195100Y-570243490D01*
X360980552Y-570358168D01*
X360792499Y-570512499D01*
X360638168Y-570700553D01*
X360523490Y-570915101D01*
X360452871Y-571147900D01*
X360435001Y-571329337D01*
X360365001Y-571329337D01*
X360365001Y-571329336D01*
X360347131Y-571147899D01*
X360276512Y-570915100D01*
X360161834Y-570700552D01*
X360007503Y-570512499D01*
X359819449Y-570358168D01*
X359604901Y-570243490D01*
X359372102Y-570172871D01*
X359130001Y-570149026D01*
X358887899Y-570172871D01*
X358655100Y-570243490D01*
X358440552Y-570358168D01*
X358252499Y-570512499D01*
X358098168Y-570700553D01*
X357983490Y-570915101D01*
X357912871Y-571147900D01*
X357895001Y-571329337D01*
X357825001Y-571329337D01*
X357825001Y-571329336D01*
X357807131Y-571147899D01*
X357736512Y-570915100D01*
X357621834Y-570700552D01*
X357467503Y-570512499D01*
X357279449Y-570358168D01*
X357064901Y-570243490D01*
X356832102Y-570172871D01*
X356590001Y-570149026D01*
X356347899Y-570172871D01*
X356115100Y-570243490D01*
X355900552Y-570358168D01*
X355712499Y-570512499D01*
X355558168Y-570700553D01*
X355443490Y-570915101D01*
X355372871Y-571147900D01*
X355355001Y-571329337D01*
X355285001Y-571329337D01*
X355285001Y-571329336D01*
X355267131Y-571147899D01*
X355196512Y-570915100D01*
X355081834Y-570700552D01*
X354927503Y-570512499D01*
X354739449Y-570358168D01*
X354524901Y-570243490D01*
X354292102Y-570172871D01*
X354050001Y-570149026D01*
X353807899Y-570172871D01*
X353575100Y-570243490D01*
X353360552Y-570358168D01*
X353185000Y-570502240D01*
X353185000Y-567698178D01*
X353371632Y-567573475D01*
X353578475Y-567366632D01*
X353700195Y-567184466D01*
X353769822Y-567301355D01*
X353964731Y-567517588D01*
X354198080Y-567691641D01*
X354460901Y-567816825D01*
X354608110Y-567861476D01*
X354838000Y-567740155D01*
X354838000Y-566547000D01*
X354818000Y-566547000D01*
X354818000Y-566293000D01*
X354838000Y-566293000D01*
X354838000Y-565099845D01*
X355092000Y-565099845D01*
X355092000Y-566293000D01*
X355112000Y-566293000D01*
X355112000Y-566547000D01*
X355092000Y-566547000D01*
X355092000Y-567740155D01*
X355321890Y-567861476D01*
X355469099Y-567816825D01*
X355731920Y-567691641D01*
X355965269Y-567517588D01*
X356041034Y-567433534D01*
X356065498Y-567514180D01*
X356124463Y-567624494D01*
X356203815Y-567721185D01*
X356300506Y-567800537D01*
X356410820Y-567859502D01*
X356530518Y-567895812D01*
X356655000Y-567908072D01*
X358355000Y-567908072D01*
X358479482Y-567895812D01*
X358599180Y-567859502D01*
X358709494Y-567800537D01*
X358806185Y-567721185D01*
X358885537Y-567624494D01*
X358944502Y-567514180D01*
X358980812Y-567394482D01*
X358993072Y-567270000D01*
X358993072Y-566834872D01*
X360985000Y-566834872D01*
X360985000Y-567275128D01*
X361070890Y-567706925D01*
X361239369Y-568113669D01*
X361483962Y-568479729D01*
X361795271Y-568791038D01*
X362161331Y-569035631D01*
X362568075Y-569204110D01*
X362999872Y-569290000D01*
X363440128Y-569290000D01*
X363871925Y-569204110D01*
X364278669Y-569035631D01*
X364644729Y-568791038D01*
X364956038Y-568479729D01*
X365200631Y-568113669D01*
X365369110Y-567706925D01*
X365455000Y-567275128D01*
X365455000Y-566834872D01*
X365369110Y-566403075D01*
X365200631Y-565996331D01*
X364956038Y-565630271D01*
X364644729Y-565318962D01*
X364278669Y-565074369D01*
X363871925Y-564905890D01*
X363440128Y-564820000D01*
X362999872Y-564820000D01*
X362568075Y-564905890D01*
X362161331Y-565074369D01*
X361795271Y-565318962D01*
X361483962Y-565630271D01*
X361239369Y-565996331D01*
X361070890Y-566403075D01*
X360985000Y-566834872D01*
X358993072Y-566834872D01*
X358993072Y-565570000D01*
X358980812Y-565445518D01*
X358944502Y-565325820D01*
X358885537Y-565215506D01*
X358806185Y-565118815D01*
X358709494Y-565039463D01*
X358599180Y-564980498D01*
X358479482Y-564944188D01*
X358355000Y-564931928D01*
X356655000Y-564931928D01*
X356530518Y-564944188D01*
X356410820Y-564980498D01*
X356300506Y-565039463D01*
X356203815Y-565118815D01*
X356124463Y-565215506D01*
X356065498Y-565325820D01*
X356041034Y-565406466D01*
X355965269Y-565322412D01*
X355731920Y-565148359D01*
X355469099Y-565023175D01*
X355321890Y-564978524D01*
X355092000Y-565099845D01*
X354838000Y-565099845D01*
X354608110Y-564978524D01*
X354460901Y-565023175D01*
X354198080Y-565148359D01*
X353964731Y-565322412D01*
X353769822Y-565538645D01*
X353700195Y-565655534D01*
X353578475Y-565473368D01*
X353371632Y-565266525D01*
X353128411Y-565104010D01*
X352858158Y-564992068D01*
X352571260Y-564935000D01*
X352278740Y-564935000D01*
X351991842Y-564992068D01*
X351721589Y-565104010D01*
X351478368Y-565266525D01*
X351271525Y-565473368D01*
X351155000Y-565647760D01*
X351038475Y-565473368D01*
X350831632Y-565266525D01*
X350588411Y-565104010D01*
X350318158Y-564992068D01*
X350031260Y-564935000D01*
X349738740Y-564935000D01*
X349518592Y-564978791D01*
X349178804Y-564639003D01*
X349155001Y-564609999D01*
X349039276Y-564515026D01*
X348907247Y-564444454D01*
X348763986Y-564400997D01*
X348652333Y-564390000D01*
X348652322Y-564390000D01*
X348615000Y-564386324D01*
X348577678Y-564390000D01*
X327697322Y-564390000D01*
X327659999Y-564386324D01*
X327622676Y-564390000D01*
X327622667Y-564390000D01*
X327511014Y-564400997D01*
X327367753Y-564444454D01*
X327235724Y-564515026D01*
X327119999Y-564609999D01*
X327096201Y-564638997D01*
X326628843Y-565106355D01*
X326521486Y-565085000D01*
X326258514Y-565085000D01*
X326000595Y-565136304D01*
X325757641Y-565236939D01*
X325538987Y-565383038D01*
X325353038Y-565568987D01*
X325206939Y-565787641D01*
X325106304Y-566030595D01*
X325055000Y-566288514D01*
X324068072Y-566288514D01*
X324068072Y-565570000D01*
X324055812Y-565445518D01*
X324019502Y-565325820D01*
X323960537Y-565215506D01*
X323881185Y-565118815D01*
X323784494Y-565039463D01*
X323674180Y-564980498D01*
X323554482Y-564944188D01*
X323430000Y-564931928D01*
X321730000Y-564931928D01*
X321605518Y-564944188D01*
X321485820Y-564980498D01*
X321375506Y-565039463D01*
X321278815Y-565118815D01*
X321199463Y-565215506D01*
X321140498Y-565325820D01*
X321118487Y-565398380D01*
X320986632Y-565266525D01*
X320743411Y-565104010D01*
X320473158Y-564992068D01*
X320186260Y-564935000D01*
X319893740Y-564935000D01*
X319673592Y-564978791D01*
X319333804Y-564639003D01*
X319310001Y-564609999D01*
X319194276Y-564515026D01*
X319062247Y-564444454D01*
X318918986Y-564400997D01*
X318807333Y-564390000D01*
X318807322Y-564390000D01*
X318770000Y-564386324D01*
X318732678Y-564390000D01*
X308647322Y-564390000D01*
X308609999Y-564386324D01*
X308572676Y-564390000D01*
X308572667Y-564390000D01*
X308461014Y-564400997D01*
X308317753Y-564444454D01*
X308185724Y-564515026D01*
X308069999Y-564609999D01*
X308046201Y-564638997D01*
X306828998Y-565856201D01*
X306800000Y-565879999D01*
X306776202Y-565908997D01*
X306776201Y-565908998D01*
X306705026Y-565995724D01*
X306634454Y-566127754D01*
X306604180Y-566227558D01*
X306590999Y-566271013D01*
X306590998Y-566271015D01*
X306576324Y-566420000D01*
X306580001Y-566457332D01*
X306580001Y-566592225D01*
X306488987Y-566653038D01*
X306303038Y-566838987D01*
X306156939Y-567057641D01*
X306056304Y-567300595D01*
X306005000Y-567558514D01*
X301263630Y-567558514D01*
X301320000Y-567275128D01*
X301320000Y-566834872D01*
X301234110Y-566403075D01*
X301065631Y-565996331D01*
X300821038Y-565630271D01*
X300509729Y-565318962D01*
X300143669Y-565074369D01*
X299736925Y-564905890D01*
X299305128Y-564820000D01*
X298864872Y-564820000D01*
X298433075Y-564905890D01*
X298026331Y-565074369D01*
X297660271Y-565318962D01*
X297348962Y-565630271D01*
X297104369Y-565996331D01*
X296935890Y-566403075D01*
X296850000Y-566834872D01*
X294116886Y-566834872D01*
X294051185Y-566754815D01*
X293954494Y-566675463D01*
X293844180Y-566616498D01*
X293724482Y-566580188D01*
X293600000Y-566567928D01*
X290600000Y-566567928D01*
X290475518Y-566580188D01*
X290355820Y-566616498D01*
X290245506Y-566675463D01*
X290148815Y-566754815D01*
X290069463Y-566851506D01*
X290010498Y-566961820D01*
X289974188Y-567081518D01*
X289961928Y-567206000D01*
X289961928Y-570206000D01*
X289974188Y-570330482D01*
X290010498Y-570450180D01*
X290069463Y-570560494D01*
X290148815Y-570657185D01*
X290245506Y-570736537D01*
X290355820Y-570795502D01*
X290475518Y-570831812D01*
X290600000Y-570844072D01*
X290965000Y-570844072D01*
X290965001Y-577794239D01*
X290959509Y-577850000D01*
X290981423Y-578072498D01*
X291046324Y-578286446D01*
X291046325Y-578286447D01*
X291151717Y-578483623D01*
X291293552Y-578656449D01*
X291336860Y-578691991D01*
X295644499Y-582999631D01*
X295644499Y-583456367D01*
X289431865Y-589669002D01*
X289388551Y-589704549D01*
X289246716Y-589877375D01*
X289141325Y-590074551D01*
X289141324Y-590074552D01*
X289076423Y-590288500D01*
X289054509Y-590510998D01*
X289060000Y-590566750D01*
X289060001Y-593975085D01*
X289055905Y-593978446D01*
X289011037Y-593894506D01*
X288931685Y-593797815D01*
X288834994Y-593718463D01*
X288724680Y-593659498D01*
X288604982Y-593623188D01*
X288480500Y-593610928D01*
X288155000Y-593610928D01*
X288155000Y-589826090D01*
X288317237Y-589717687D01*
X288600687Y-589434237D01*
X288823393Y-589100934D01*
X288976796Y-588730587D01*
X289055000Y-588337430D01*
X289055000Y-587936570D01*
X288976796Y-587543413D01*
X288823393Y-587173066D01*
X288600687Y-586839763D01*
X288317237Y-586556313D01*
X287983934Y-586333607D01*
X287613587Y-586180204D01*
X287220430Y-586102000D01*
X286819570Y-586102000D01*
X286426413Y-586180204D01*
X286056066Y-586333607D01*
X285722763Y-586556313D01*
X285439313Y-586839763D01*
X285216607Y-587173066D01*
X285063204Y-587543413D01*
X284985000Y-587936570D01*
X283997000Y-587936570D01*
X283997000Y-568495721D01*
X284885000Y-568495721D01*
X284885000Y-568916279D01*
X284967047Y-569328756D01*
X285127988Y-569717302D01*
X285361637Y-570066983D01*
X285659017Y-570364363D01*
X285885000Y-570515360D01*
X285885001Y-573398928D01*
X285620000Y-573398928D01*
X285495518Y-573411188D01*
X285375820Y-573447498D01*
X285265506Y-573506463D01*
X285168815Y-573585815D01*
X285089463Y-573682506D01*
X285030498Y-573792820D01*
X284994188Y-573912518D01*
X284981928Y-574037000D01*
X284981928Y-576837000D01*
X284994188Y-576961482D01*
X285030498Y-577081180D01*
X285089463Y-577191494D01*
X285168815Y-577288185D01*
X285265506Y-577367537D01*
X285375820Y-577426502D01*
X285495518Y-577462812D01*
X285620000Y-577475072D01*
X288420000Y-577475072D01*
X288544482Y-577462812D01*
X288664180Y-577426502D01*
X288774494Y-577367537D01*
X288871185Y-577288185D01*
X288950537Y-577191494D01*
X289009502Y-577081180D01*
X289045812Y-576961482D01*
X289058072Y-576837000D01*
X289058072Y-574037000D01*
X289045812Y-573912518D01*
X289009502Y-573792820D01*
X288950537Y-573682506D01*
X288871185Y-573585815D01*
X288774494Y-573506463D01*
X288664180Y-573447498D01*
X288544482Y-573411188D01*
X288420000Y-573398928D01*
X288155000Y-573398928D01*
X288155000Y-570515360D01*
X288380983Y-570364363D01*
X288678363Y-570066983D01*
X288912012Y-569717302D01*
X289072953Y-569328756D01*
X289155000Y-568916279D01*
X289155000Y-568495721D01*
X289072953Y-568083244D01*
X288912012Y-567694698D01*
X288678363Y-567345017D01*
X288380983Y-567047637D01*
X288031302Y-566813988D01*
X287642756Y-566653047D01*
X287230279Y-566571000D01*
X286809721Y-566571000D01*
X286397244Y-566653047D01*
X286008698Y-566813988D01*
X285659017Y-567047637D01*
X285361637Y-567345017D01*
X285127988Y-567694698D01*
X284967047Y-568083244D01*
X284885000Y-568495721D01*
X283997000Y-568495721D01*
X283997000Y-563905000D01*
X366370000Y-563905000D01*
X366370001Y-609321000D01*
G37*
%TD.AperFunction*%
%TD*%
M02*
